<?xml version="1.0" encoding="UTF-8"?>
<svg id="Capa_1" xmlns="http://www.w3.org/2000/svg" version="1.1" viewBox="0 0 200 200">
  <!-- Generator: Adobe Illustrator 29.1.0, SVG Export Plug-In . SVG Version: 2.1.0 Build 142)  -->
  <defs>
    <style>
      .st0 {
        fill: #30a8ff;
      }

      .st1 {
        fill: #2d0402;
      }

      .st2 {
        fill: #f7b1ed;
      }

      .st3 {
        fill: #001e36;
      }

      .st4 {
        fill: none;
        stroke: #f7b1ed;
        stroke-miterlimit: 10;
        stroke-width: 1.2px;
      }

      .st5 {
        fill: #ff9a00;
      }
    </style>
  </defs>
  <g>
    <path class="st4" d="M161.9,80.2c3.9.2,6.2,3.7,5.7,7.4,5,.2,8.3,4.4,6.3,9.3,5.2,2.2,4,8.3,2.2,12.5-.4.9-2,4.2-2.9,4.3-.7.1-1.3-.6-1.1-1.2,0-.3,1.4-2.2,1.8-2.8,1.6-3.2,3.8-9.9-1-11.2-1.1,2.2-4.2,7.2-6.5,8-2.3.7-3.8-1.2-3.5-3.3.4-2.6,3.6-5.2,5.9-6.1.6-.2,3.1-.7,3.3-.9.7-.6.7-3,.4-3.8-.5-1.5-3.5-3.5-5-3-.2,0-1.1,2.4-1.4,2.9-1.2,2.2-4.8,6.2-7.5,5.9s-1.8-4.3-.9-6c1.2-2.4,4.1-4.2,6.6-4.8.4,0,1.3,0,1.5-.2.4-2.2-.4-4.3-2.6-5-2.3-.8-1.7.3-2.7,2.1-1.4,2.4-6.1,8.3-9.2,5.3-4-4,5.2-9.8,8.8-9.5.3-5.8-4.7-5.7-8.9-4.7-3.2.8-5,2.5-7,4.9-1.2.4-1.9-.6-1.1-1.7,1.4-2,4.2-4.1,6.6-4.8,5.8-1.8,12.6-1.4,12.4,6.2h0ZM152.6,88.5c1.3.7,3.8-1.8,4.5-2.7.4-.5,2.4-3.3,2.1-3.7-2,.4-6.8,2.9-7,5.1,0,.4.1,1.2.4,1.4h0ZM165.1,89.5c-2.6.3-5.4,2.1-6.3,4.6-.2.5-.6,2-.2,2.3,3.1-.7,5.4-4.1,6.4-6.9h0ZM170.4,98.8c-2.2.4-4.9,2.1-5.6,4.3-.8,2.4.8,1.8,2,.7.5-.4,3.8-4.8,3.6-5h0Z"/>
    <path class="st2" d="M179.5,173.1c-.7.7-1.1,2.1-.3,2.8,1.6,1.6,3.5-.4,5.2-.7,8.7-1.3,9.5,9.8,2.8,11.3-2.5.5-5.7-.9-6.6-3.4-.6-1.6-.2-5.4-2.1-5.7-3.2-.4-2.3,3.8-3.2,6-.9,2.1-3.7,3.5-5.9,3.1-3.4-.5-5.5-3.3-5-6.7s3.8-5.2,7.1-4.7c1.7.3,3.3,2.2,5,.9,2.6-2.1-1.8-3.9-2.9-5.5-2.3-3.1-1.1-8.1,2.9-9,6.1-1.3,9.8,4.9,5.8,9.5-.8.9-2.1,1.3-2.7,1.9h0Z"/>
    <path class="st5" d="M30,171.3c-.5,1.2-2.1.6-3.1.8-3.5.6-2.5,1.2-3.2,4.4,4.8-.5,6,.6,6.6-4.6,0-.3-.2-4.4.7-3.1,0,1.8-.4,6.7,1.7,7.3l4.9.8c-1.4.5-5.1.2-6,1.3-.8,1-.7,5.1-.7,6.5-1.1,1.4-.6-3.2-.7-3.3-1.7.8-4.5-.2-5.8,1.1-1.1,1.2-.9,4.8-.9,6.3-.4.6-.7,0-.7-.5-.2-1.4.1-4.9-.9-5.8-1.3-1.2-3.9-.3-5.4-1.1l-.7,3.3c-.8-1.8.2-5.2-1.1-6.5-1.2-1.2-4-.6-5.6-1.3l4.8-1c2.5-.9,1-5,1.9-7.1.9.4-.2,2.2,1,2.6.2,0,3.6-.3,4-.4,3-.7,1.3-5.5,2.6-7.4.5,1.7-.2,6.7,1.9,7.3,1.1.3,3.2.2,4.5.4h0ZM23,176.4c0-5.1-2.4-4-6.3-4.8-.8,5.2,2.5,4.3,6.3,4.8ZM23,176.8c-3.1.8-6.8-.6-6.3,4.1,3.6-.7,6,.6,6.3-4.1ZM30.4,180.9c-.1-4.5-3.4-3.3-6.6-4.1.2,5.2,2.9,3.2,6.6,4.1Z"/>
    <path class="st5" d="M184.9,13.1c-.5,1.2-2.1.6-3.1.8-3.5.6-2.5,1.2-3.2,4.4,4.8-.5,6,.5,6.6-4.6,0-.3-.2-4.4.7-3.1,0,1.8-.4,6.7,1.7,7.3l4.9.8c-1.4.5-5.1.2-5.9,1.3-.8,1-.7,5.1-.7,6.5-1.1,1.4-.6-3.2-.7-3.3-1.7.8-4.5-.2-5.8,1.1-1.1,1.2-.9,4.8-.9,6.3-.4.6-.7,0-.7-.5-.2-1.4.1-4.9-.9-5.8-1.3-1.2-3.9-.3-5.4-1.1l-.7,3.3c-.8-1.8.2-5.2-1.1-6.5-1.2-1.2-4-.6-5.6-1.3l4.8-1c2.5-.9,1-5,1.9-7.1.9.4-.2,2.2,1,2.6.2,0,3.6-.3,4-.4,2.9-.7,1.3-5.5,2.6-7.4.4,1.7-.2,6.7,1.9,7.3,1.1.3,3.2.2,4.5.4h0ZM177.9,18.3c0-5.1-2.4-4-6.3-4.8-.8,5.2,2.5,4.3,6.3,4.8ZM177.9,18.7c-3.1.8-6.8-.5-6.3,4.1,3.6-.7,6,.6,6.3-4.1ZM185.3,22.7c-.1-4.5-3.4-3.3-6.6-4.1.2,5.2,2.9,3.2,6.6,4.1Z"/>
    <path class="st1" d="M39,33.6c-1.8,2.2-1,5.3.9,7.3,2.2,2.3,5.8.4,7.2-1.8,2.5-4-2.7-6.1-3.9-3.2-1,2.4,1.6.3,2.3.9,1.6,1.4-2.6,3.1-3.8,1.4-2.4-3.5,3.7-7.5,6.5-4.4,4.6,5-4.5,13.1-9.4,8.7-2.5-2.2-3.9-6.8-1.8-9.6,3.3-4.6,9.1-5.7,13.4-1.9,10.2,9.1-7.4,26-16.3,13.1-4.2-6.1-2.8-13.2,3.1-17.4,13.3-9.4,27.7,9.1,17.5,20.6-1.8,2-7.5,6-10.1,6-1.1,0-1.5-1.2-.5-1.7,1.1-.5,2.7-.8,4-1.5,5.4-2.7,9.6-8.3,7.9-14.5-2.6-9.7-13.5-13.3-20.2-5.1-4.3,5.2-2,13.9,4.2,16.2,3.3,1.3,8.1-1.4,10-4.1,5.6-8.2-4.8-16.8-11.1-8.9Z"/>
  </g>
  <g>
    <path class="st3" d="M132.6,164.3H56.4c-11.8,0-21.3-9.7-21.3-21.7v-74.7c0-12,9.5-21.7,21.3-21.7h76.1c11.8,0,21.3,9.7,21.3,21.7v74.7c0,12-9.5,21.7-21.3,21.7Z"/>
    <path class="st0" d="M81.7,76.5h-19.4v52.5h10.9v-16.4h8.5c4.9,0,9.3-2,12.5-5.3,3.2-3.3,5.2-7.8,5.2-12.8,0-10-7.9-18-17.7-18ZM86.2,100.5c-1.5,1.5-3.6,2.5-5.9,2.5h-7.1v-17h7.1c4.6,0,8.4,3.8,8.4,8.5s-.9,4.5-2.5,6h0Z"/>
    <path class="st0" d="M133.3,117.2c0,3.5-1.6,6.8-4.1,9.1-2.8,2.6-6.8,3.7-10.5,4-.4,0-.9,0-1.4,0-4.2,0-8.6-.8-12.3-2.6h-.1c0-3.1,0-6.2,0-9.3,0,.2,3,.9,3.4,1,3.4,1.2,7.5,2,11.2,1.5.8,0,1.5-.3,2.1-.8,2.2-1.9,0-4.2-1.8-5.1-2-1-4.1-1.6-6.1-2.5-1.9-.8-3.7-1.9-5.3-3.4-5-4.8-4.8-12.8.3-17.4,2.9-2.6,6.8-3.5,10.6-3.6,3.9-.2,7.9.5,11.5,2.1.1,0,.3.1.4.3,0,.1,0,.2,0,.4,0,3.2,0,6.3,0,9.5-.6-.5-1.4-.7-2.1-1-.8-.3-1.5-.6-2.3-.9-2.8-.9-6.4-1.8-9.3-.8-1.1.4-1.8,1.1-1.8,2.3,0,1.8,1.8,2.7,3.2,3.4,1.8.8,3.7,1.3,5.5,2.2,4.6,2.2,9,5.9,9,11.6h0Z"/>
  </g>
</svg>