<?xml version="1.0" encoding="UTF-8"?>
<svg id="Capa_1" xmlns="http://www.w3.org/2000/svg" version="1.1" viewBox="0 0 200 200">
  <!-- Generator: Adobe Illustrator 29.1.0, SVG Export Plug-In . SVG Version: 2.1.0 Build 142)  -->
  <defs>
    <style>
      .st0 {
        fill: #2d0402;
      }

      .st1 {
        fill: #f7b1ed;
      }

      .st2 {
        fill: #fe7262;
      }

      .st3 {
        fill: #1bbbfd;
      }

      .st4 {
        fill: #0bce83;
      }

      .st5 {
        fill: #f14e1e;
      }

      .st6 {
        fill: none;
        stroke: #f7b1ed;
        stroke-miterlimit: 10;
        stroke-width: 1.2px;
      }

      .st7 {
        fill: #fefefe;
      }

      .st8 {
        fill: #a159fe;
      }

      .st9 {
        fill: #ff9a00;
      }
    </style>
  </defs>
  <g>
    <path class="st5" d="M107.6,50.2v33.2c-5.7,0-13-.5-18.5,0-4-.7-7.9-2.5-10.7-5.6-7-8.1-4.8-21,4.8-25.9s17.8-1.7,24.4-1.7Z"/>
    <path class="st8" d="M107.6,83.4c0,4.2,0,8.5,0,12.8s-.1,1,.2,1.3c-.3,2-.3,3.1,0,5.2-.4.2-.2.9-.2,1.3,0,4.3,0,8.5,0,12.8h-18.5c-10-1.5-16.5-10.3-14.4-20.4s7.7-12.2,14.4-12.9,12.8,0,18.5,0Z"/>
    <path class="st2" d="M126.1,83.4c-1,0-3-.1-4,0h-14.5v-33.2c6.4,0,18.6-1.1,24,1.6,9.7,4.7,12.3,17.7,5.2,25.9-2.8,3.2-6.6,5-10.8,5.7Z"/>
    <path class="st4" d="M107.6,116.7c0,6.4,1,17.8-1.4,23.3-4.2,9.9-17.3,13.2-25.7,6.4-11.7-9.5-6.1-27.7,8.5-29.7h18.5Z"/>
    <path class="st3" d="M126.1,83.4c13.1,1.3,19.5,17.5,10.8,27.5-9.2,10.7-27,5.7-29-8.3-.3-2-.3-3.2,0-5.2,1-7,7.1-13.3,14.3-14s3,0,4,0Z"/>
    <path class="st7" d="M122.1,83.4c-7.2.8-13.2,7.1-14.3,14-.4-.2-.2-.9-.2-1.3,0-4.3,0-8.5,0-12.8h14.5Z"/>
  </g>
  <path class="st6" d="M161.9,80.2c3.9.2,6.2,3.7,5.7,7.4,5,.2,8.3,4.4,6.3,9.3,5.2,2.2,4,8.3,2.2,12.5-.4.9-2,4.2-2.9,4.3-.7,0-1.3-.6-1.1-1.2,0-.3,1.4-2.2,1.8-2.8,1.6-3.2,3.8-9.9-1-11.2-1.1,2.2-4.2,7.2-6.5,8-2.3.7-3.8-1.2-3.5-3.3.4-2.6,3.6-5.2,5.9-6.1.6-.2,3.1-.7,3.3-.9.7-.6.7-3,.4-3.8-.5-1.5-3.5-3.5-5-3-.2,0-1.1,2.4-1.4,2.9-1.2,2.2-4.8,6.2-7.5,5.9s-1.8-4.3-.9-6c1.2-2.4,4.1-4.2,6.6-4.8.4,0,1.3,0,1.5-.2.4-2.2-.4-4.3-2.6-5-2.3-.8-1.7.3-2.7,2.1-1.4,2.4-6.1,8.3-9.2,5.3-4-4,5.2-9.8,8.8-9.5.3-5.8-4.7-5.7-8.9-4.7-3.2.8-5,2.5-7,4.9-1.2.4-1.9-.6-1.1-1.7,1.4-2,4.2-4.1,6.6-4.8,5.8-1.8,12.6-1.4,12.4,6.2h0l-.2.2ZM152.6,88.5c1.3.7,3.8-1.8,4.5-2.7.4-.5,2.4-3.3,2.1-3.7-2,.4-6.8,2.9-7,5.1,0,.4.1,1.2.4,1.4h0ZM165.1,89.5c-2.6.3-5.4,2.1-6.3,4.6-.2.5-.6,2-.2,2.3,3.1-.7,5.4-4.1,6.4-6.9h.1ZM170.4,98.8c-2.2.4-4.9,2.1-5.6,4.3-.8,2.4.8,1.8,2,.7.5-.4,3.8-4.8,3.6-5h0Z"/>
  <path class="st1" d="M179.5,173.1c-.7.7-1.1,2.1-.3,2.8,1.6,1.6,3.5-.4,5.2-.7,8.7-1.3,9.5,9.8,2.8,11.3-2.5.5-5.7-.9-6.6-3.4-.6-1.6-.2-5.4-2.1-5.7-3.2-.4-2.3,3.8-3.2,6-.9,2.1-3.7,3.5-5.9,3.1-3.4-.5-5.5-3.3-5-6.7s3.8-5.2,7.1-4.7c1.7.3,3.3,2.2,5,.9,2.6-2.1-1.8-3.9-2.9-5.5-2.3-3.1-1.1-8.1,2.9-9,6.1-1.3,9.8,4.9,5.8,9.5-.8.9-2.1,1.3-2.7,1.9h0v.2Z"/>
  <path class="st9" d="M30,171.3c-.5,1.2-2.1.6-3.1.8-3.5.6-2.5,1.2-3.2,4.4,4.8-.5,6,.6,6.6-4.6,0-.3-.2-4.4.7-3.1,0,1.8-.4,6.7,1.7,7.3l4.9.8c-1.4.5-5.1.2-6,1.3-.8,1-.7,5.1-.7,6.5-1.1,1.4-.6-3.2-.7-3.3-1.7.8-4.5-.2-5.8,1.1-1.1,1.2-.9,4.8-.9,6.3-.4.6-.7,0-.7-.5-.2-1.4.1-4.9-.9-5.8-1.3-1.2-3.9-.3-5.4-1.1l-.7,3.3c-.8-1.8.2-5.2-1.1-6.5-1.2-1.2-4-.6-5.6-1.3l4.8-1c2.5-.9,1-5,1.9-7.1.9.4-.2,2.2,1,2.6.2,0,3.6-.3,4-.4,3-.7,1.3-5.5,2.6-7.4.5,1.7-.2,6.7,1.9,7.3,1.1.3,3.2.2,4.5.4h.2ZM23,176.4c0-5.1-2.4-4-6.3-4.8-.8,5.2,2.5,4.3,6.3,4.8ZM23,176.8c-3.1.8-6.8-.6-6.3,4.1,3.6-.7,6,.6,6.3-4.1ZM30.4,180.9c-.1-4.5-3.4-3.3-6.6-4.1.2,5.2,2.9,3.2,6.6,4.1Z"/>
  <path class="st9" d="M184.9,13.1c-.5,1.2-2.1.6-3.1.8-3.5.6-2.5,1.2-3.2,4.4,4.8-.5,6,.5,6.6-4.6,0-.3-.2-4.4.7-3.1,0,1.8-.4,6.7,1.7,7.3l4.9.8c-1.4.5-5.1.2-5.9,1.3-.8,1-.7,5.1-.7,6.5-1.1,1.4-.6-3.2-.7-3.3-1.7.8-4.5-.2-5.8,1.1-1.1,1.2-.9,4.8-.9,6.3-.4.6-.7,0-.7-.5-.2-1.4.1-4.9-.9-5.8-1.3-1.2-3.9-.3-5.4-1.1l-.7,3.3c-.8-1.8.2-5.2-1.1-6.5-1.2-1.2-4-.6-5.6-1.3l4.8-1c2.5-.9,1-5,1.9-7.1.9.4-.2,2.2,1,2.6.2,0,3.6-.3,4-.4,2.9-.7,1.3-5.5,2.6-7.4.4,1.7-.2,6.7,1.9,7.3,1.1.3,3.2.2,4.5.4h0ZM177.9,18.3c0-5.1-2.4-4-6.3-4.8-.8,5.2,2.5,4.3,6.3,4.8ZM177.9,18.7c-3.1.8-6.8-.5-6.3,4.1,3.6-.7,6,.6,6.3-4.1ZM185.3,22.7c-.1-4.5-3.4-3.3-6.6-4.1.2,5.2,2.9,3.2,6.6,4.1Z"/>
  <path class="st0" d="M39,33.6c-1.8,2.2-1,5.3.9,7.3,2.2,2.3,5.8.4,7.2-1.8,2.5-4-2.7-6.1-3.9-3.2-1,2.4,1.6.3,2.3.9,1.6,1.4-2.6,3.1-3.8,1.4-2.4-3.5,3.7-7.5,6.5-4.4,4.6,5-4.5,13.1-9.4,8.7-2.5-2.2-3.9-6.8-1.8-9.6,3.3-4.6,9.1-5.7,13.4-1.9,10.2,9.1-7.4,26-16.3,13.1-4.2-6.1-2.8-13.2,3.1-17.4,13.3-9.4,27.7,9.1,17.5,20.6-1.8,2-7.5,6-10.1,6s-1.5-1.2-.5-1.7c1.1-.5,2.7-.8,4-1.5,5.4-2.7,9.6-8.3,7.9-14.5-2.6-9.7-13.5-13.3-20.2-5.1-4.3,5.2-2,13.9,4.2,16.2,3.3,1.3,8.1-1.4,10-4.1,5.6-8.2-4.8-16.8-11.1-8.9h0Z"/>
  <path class="st6" d="M161.9,80.2c3.9.2,6.2,3.7,5.7,7.4,5,.2,8.3,4.4,6.3,9.3,5.2,2.2,4,8.3,2.2,12.5-.4.9-2,4.2-2.9,4.3-.7,0-1.3-.6-1.1-1.2,0-.3,1.4-2.2,1.8-2.8,1.6-3.2,3.8-9.9-1-11.2-1.1,2.2-4.2,7.2-6.5,8-2.3.7-3.8-1.2-3.5-3.3.4-2.6,3.6-5.2,5.9-6.1.6-.2,3.1-.7,3.3-.9.7-.6.7-3,.4-3.8-.5-1.5-3.5-3.5-5-3-.2,0-1.1,2.4-1.4,2.9-1.2,2.2-4.8,6.2-7.5,5.9s-1.8-4.3-.9-6c1.2-2.4,4.1-4.2,6.6-4.8.4,0,1.3,0,1.5-.2.4-2.2-.4-4.3-2.6-5-2.3-.8-1.7.3-2.7,2.1-1.4,2.4-6.1,8.3-9.2,5.3-4-4,5.2-9.8,8.8-9.5.3-5.8-4.7-5.7-8.9-4.7-3.2.8-5,2.5-7,4.9-1.2.4-1.9-.6-1.1-1.7,1.4-2,4.2-4.1,6.6-4.8,5.8-1.8,12.6-1.4,12.4,6.2h0l-.2.2ZM152.6,88.5c1.3.7,3.8-1.8,4.5-2.7.4-.5,2.4-3.3,2.1-3.7-2,.4-6.8,2.9-7,5.1,0,.4.1,1.2.4,1.4h0ZM165.1,89.5c-2.6.3-5.4,2.1-6.3,4.6-.2.5-.6,2-.2,2.3,3.1-.7,5.4-4.1,6.4-6.9h.1ZM170.4,98.8c-2.2.4-4.9,2.1-5.6,4.3-.8,2.4.8,1.8,2,.7.5-.4,3.8-4.8,3.6-5h0Z"/>
  <path class="st1" d="M179.5,173.1c-.7.7-1.1,2.1-.3,2.8,1.6,1.6,3.5-.4,5.2-.7,8.7-1.3,9.5,9.8,2.8,11.3-2.5.5-5.7-.9-6.6-3.4-.6-1.6-.2-5.4-2.1-5.7-3.2-.4-2.3,3.8-3.2,6-.9,2.1-3.7,3.5-5.9,3.1-3.4-.5-5.5-3.3-5-6.7s3.8-5.2,7.1-4.7c1.7.3,3.3,2.2,5,.9,2.6-2.1-1.8-3.9-2.9-5.5-2.3-3.1-1.1-8.1,2.9-9,6.1-1.3,9.8,4.9,5.8,9.5-.8.9-2.1,1.3-2.7,1.9h0v.2Z"/>
  <path class="st9" d="M30,171.3c-.5,1.2-2.1.6-3.1.8-3.5.6-2.5,1.2-3.2,4.4,4.8-.5,6,.6,6.6-4.6,0-.3-.2-4.4.7-3.1,0,1.8-.4,6.7,1.7,7.3l4.9.8c-1.4.5-5.1.2-6,1.3-.8,1-.7,5.1-.7,6.5-1.1,1.4-.6-3.2-.7-3.3-1.7.8-4.5-.2-5.8,1.1-1.1,1.2-.9,4.8-.9,6.3-.4.6-.7,0-.7-.5-.2-1.4.1-4.9-.9-5.8-1.3-1.2-3.9-.3-5.4-1.1l-.7,3.3c-.8-1.8.2-5.2-1.1-6.5-1.2-1.2-4-.6-5.6-1.3l4.8-1c2.5-.9,1-5,1.9-7.1.9.4-.2,2.2,1,2.6.2,0,3.6-.3,4-.4,3-.7,1.3-5.5,2.6-7.4.5,1.7-.2,6.7,1.9,7.3,1.1.3,3.2.2,4.5.4h.2ZM23,176.4c0-5.1-2.4-4-6.3-4.8-.8,5.2,2.5,4.3,6.3,4.8ZM23,176.8c-3.1.8-6.8-.6-6.3,4.1,3.6-.7,6,.6,6.3-4.1ZM30.4,180.9c-.1-4.5-3.4-3.3-6.6-4.1.2,5.2,2.9,3.2,6.6,4.1Z"/>
  <path class="st9" d="M184.9,13.1c-.5,1.2-2.1.6-3.1.8-3.5.6-2.5,1.2-3.2,4.4,4.8-.5,6,.5,6.6-4.6,0-.3-.2-4.4.7-3.1,0,1.8-.4,6.7,1.7,7.3l4.9.8c-1.4.5-5.1.2-5.9,1.3-.8,1-.7,5.1-.7,6.5-1.1,1.4-.6-3.2-.7-3.3-1.7.8-4.5-.2-5.8,1.1-1.1,1.2-.9,4.8-.9,6.3-.4.6-.7,0-.7-.5-.2-1.4.1-4.9-.9-5.8-1.3-1.2-3.9-.3-5.4-1.1l-.7,3.3c-.8-1.8.2-5.2-1.1-6.5-1.2-1.2-4-.6-5.6-1.3l4.8-1c2.5-.9,1-5,1.9-7.1.9.4-.2,2.2,1,2.6.2,0,3.6-.3,4-.4,2.9-.7,1.3-5.5,2.6-7.4.4,1.7-.2,6.7,1.9,7.3,1.1.3,3.2.2,4.5.4h0ZM177.9,18.3c0-5.1-2.4-4-6.3-4.8-.8,5.2,2.5,4.3,6.3,4.8ZM177.9,18.7c-3.1.8-6.8-.5-6.3,4.1,3.6-.7,6,.6,6.3-4.1ZM185.3,22.7c-.1-4.5-3.4-3.3-6.6-4.1.2,5.2,2.9,3.2,6.6,4.1Z"/>
  <path class="st0" d="M39,33.6c-1.8,2.2-1,5.3.9,7.3,2.2,2.3,5.8.4,7.2-1.8,2.5-4-2.7-6.1-3.9-3.2-1,2.4,1.6.3,2.3.9,1.6,1.4-2.6,3.1-3.8,1.4-2.4-3.5,3.7-7.5,6.5-4.4,4.6,5-4.5,13.1-9.4,8.7-2.5-2.2-3.9-6.8-1.8-9.6,3.3-4.6,9.1-5.7,13.4-1.9,10.2,9.1-7.4,26-16.3,13.1-4.2-6.1-2.8-13.2,3.1-17.4,13.3-9.4,27.7,9.1,17.5,20.6-1.8,2-7.5,6-10.1,6s-1.5-1.2-.5-1.7c1.1-.5,2.7-.8,4-1.5,5.4-2.7,9.6-8.3,7.9-14.5-2.6-9.7-13.5-13.3-20.2-5.1-4.3,5.2-2,13.9,4.2,16.2,3.3,1.3,8.1-1.4,10-4.1,5.6-8.2-4.8-16.8-11.1-8.9h0Z"/>
</svg>