<?xml version="1.0" encoding="UTF-8"?>
<svg id="Capa_1" xmlns="http://www.w3.org/2000/svg" version="1.1" viewBox="0 0 200 200">
  <!-- Generator: Adobe Illustrator 29.1.0, SVG Export Plug-In . SVG Version: 2.1.0 Build 142)  -->
  <defs>
    <style>
      .st0 {
        fill: #97cb1c;
      }

      .st1 {
        fill: #a51c3f;
      }

      .st2 {
        fill: #11a6e3;
      }

      .st3 {
        fill: #0ecbf3;
      }

      .st4 {
        fill: #2d0402;
      }

      .st5 {
        fill: #f7b1ed;
      }

      .st6 {
        fill: #2bc44a;
      }

      .st7 {
        fill: #bfd611;
      }

      .st8 {
        fill: #01983d;
      }

      .st9 {
        fill: #e1422a;
      }

      .st10 {
        fill: #992a5d;
      }

      .st11 {
        fill: #753787;
      }

      .st12 {
        fill: #666565;
      }

      .st13 {
        fill: #ea7c1a;
      }

      .st14 {
        fill: #01853f;
      }

      .st15 {
        fill: none;
        stroke: #f7b1ed;
        stroke-miterlimit: 10;
        stroke-width: 1.2px;
      }

      .st16 {
        fill: #039552;
      }

      .st17 {
        fill: #231814;
      }

      .st18 {
        fill: #fdfdfd;
      }

      .st19 {
        fill: #ff9a00;
      }
    </style>
  </defs>
  <path class="st15" d="M161.9,80.2c3.9.2,6.2,3.7,5.7,7.4,5,.2,8.3,4.4,6.3,9.3,5.2,2.2,4,8.3,2.2,12.5-.4.9-2,4.2-2.9,4.3-.7.1-1.3-.6-1.1-1.2,0-.3,1.4-2.2,1.8-2.8,1.6-3.2,3.8-9.9-1-11.2-1.1,2.2-4.2,7.2-6.5,8-2.3.7-3.8-1.2-3.5-3.3.4-2.6,3.6-5.2,5.9-6.1.6-.2,3.1-.7,3.3-.9.7-.6.7-3,.4-3.8-.5-1.5-3.5-3.5-5-3-.2,0-1.1,2.4-1.4,2.9-1.2,2.2-4.8,6.2-7.5,5.9s-1.8-4.3-.9-6c1.2-2.4,4.1-4.2,6.6-4.8.4,0,1.3,0,1.5-.2.4-2.2-.4-4.3-2.6-5-2.3-.8-1.7.3-2.7,2.1-1.4,2.4-6.1,8.3-9.2,5.3-4-4,5.2-9.8,8.8-9.5.3-5.8-4.7-5.7-8.9-4.7-3.2.8-5,2.5-7,4.9-1.2.4-1.9-.6-1.1-1.7,1.4-2,4.2-4.1,6.6-4.8,5.8-1.8,12.6-1.4,12.4,6.2h0ZM152.6,88.5c1.3.7,3.8-1.8,4.5-2.7.4-.5,2.4-3.3,2.1-3.7-2,.4-6.8,2.9-7,5.1,0,.4.1,1.2.4,1.4h0ZM165.1,89.5c-2.6.3-5.4,2.1-6.3,4.6-.2.5-.6,2-.2,2.3,3.1-.7,5.4-4.1,6.4-6.9h0ZM170.4,98.8c-2.2.4-4.9,2.1-5.6,4.3-.8,2.4.8,1.8,2,.7.5-.4,3.8-4.8,3.6-5h0Z"/>
  <path class="st5" d="M179.5,173.1c-.7.7-1.1,2.1-.3,2.8,1.6,1.6,3.5-.4,5.2-.7,8.7-1.3,9.5,9.8,2.8,11.3-2.5.5-5.7-.9-6.6-3.4-.6-1.6-.2-5.4-2.1-5.7-3.2-.4-2.3,3.8-3.2,6-.9,2.1-3.7,3.5-5.9,3.1-3.4-.5-5.5-3.3-5-6.7s3.8-5.2,7.1-4.7c1.7.3,3.3,2.2,5,.9,2.6-2.1-1.8-3.9-2.9-5.5-2.3-3.1-1.1-8.1,2.9-9,6.1-1.3,9.8,4.9,5.8,9.5-.8.9-2.1,1.3-2.7,1.9h0Z"/>
  <path class="st19" d="M30,171.3c-.5,1.2-2.1.6-3.1.8-3.5.6-2.5,1.2-3.2,4.4,4.8-.5,6,.6,6.6-4.6,0-.3-.2-4.4.7-3.1,0,1.8-.4,6.7,1.7,7.3l4.9.8c-1.4.5-5.1.2-6,1.3-.8,1-.7,5.1-.7,6.5-1.1,1.4-.6-3.2-.7-3.3-1.7.8-4.5-.2-5.8,1.1-1.1,1.2-.9,4.8-.9,6.3-.4.6-.7,0-.7-.5-.2-1.4.1-4.9-.9-5.8-1.3-1.2-3.9-.3-5.4-1.1l-.7,3.3c-.8-1.8.2-5.2-1.1-6.5-1.2-1.2-4-.6-5.6-1.3l4.8-1c2.5-.9,1-5,1.9-7.1.9.4-.2,2.2,1,2.6.2,0,3.6-.3,4-.4,3-.7,1.3-5.5,2.6-7.4.5,1.7-.2,6.7,1.9,7.3,1.1.3,3.2.2,4.5.4h0ZM23,176.4c0-5.1-2.4-4-6.3-4.8-.8,5.2,2.5,4.3,6.3,4.8ZM23,176.8c-3.1.8-6.8-.6-6.3,4.1,3.6-.7,6,.6,6.3-4.1ZM30.4,180.9c-.1-4.5-3.4-3.3-6.6-4.1.2,5.2,2.9,3.2,6.6,4.1Z"/>
  <path class="st19" d="M184.9,13.1c-.5,1.2-2.1.6-3.1.8-3.5.6-2.5,1.2-3.2,4.4,4.8-.5,6,.5,6.6-4.6,0-.3-.2-4.4.7-3.1,0,1.8-.4,6.7,1.7,7.3l4.9.8c-1.4.5-5.1.2-5.9,1.3-.8,1-.7,5.1-.7,6.5-1.1,1.4-.6-3.2-.7-3.3-1.7.8-4.5-.2-5.8,1.1-1.1,1.2-.9,4.8-.9,6.3-.4.6-.7,0-.7-.5-.2-1.4.1-4.9-.9-5.8-1.3-1.2-3.9-.3-5.4-1.1l-.7,3.3c-.8-1.8.2-5.2-1.1-6.5-1.2-1.2-4-.6-5.6-1.3l4.8-1c2.5-.9,1-5,1.9-7.1.9.4-.2,2.2,1,2.6.2,0,3.6-.3,4-.4,2.9-.7,1.3-5.5,2.6-7.4.4,1.7-.2,6.7,1.9,7.3,1.1.3,3.2.2,4.5.4h0ZM177.9,18.3c0-5.1-2.4-4-6.3-4.8-.8,5.2,2.5,4.3,6.3,4.8ZM177.9,18.7c-3.1.8-6.8-.5-6.3,4.1,3.6-.7,6,.6,6.3-4.1ZM185.3,22.7c-.1-4.5-3.4-3.3-6.6-4.1.2,5.2,2.9,3.2,6.6,4.1Z"/>
  <path class="st4" d="M39,33.6c-1.8,2.2-1,5.3.9,7.3,2.2,2.3,5.8.4,7.2-1.8,2.5-4-2.7-6.1-3.9-3.2-1,2.4,1.6.3,2.3.9,1.6,1.4-2.6,3.1-3.8,1.4-2.4-3.5,3.7-7.5,6.5-4.4,4.6,5-4.5,13.1-9.4,8.7-2.5-2.2-3.9-6.8-1.8-9.6,3.3-4.6,9.1-5.7,13.4-1.9,10.2,9.1-7.4,26-16.3,13.1-4.2-6.1-2.8-13.2,3.1-17.4,13.3-9.4,27.7,9.1,17.5,20.6-1.8,2-7.5,6-10.1,6-1.1,0-1.5-1.2-.5-1.7,1.1-.5,2.7-.8,4-1.5,5.4-2.7,9.6-8.3,7.9-14.5-2.6-9.7-13.5-13.3-20.2-5.1-4.3,5.2-2,13.9,4.2,16.2,3.3,1.3,8.1-1.4,10-4.1,5.6-8.2-4.8-16.8-11.1-8.9Z"/>
  <g>
    <path class="st2" d="M87.9,53.8c1.3-2.9,3.1-5.5,6.2-7.2,1.1-.6,2.2-1.2,3.5-.7,3.8,1.3,6.2,4.4,7.7,7.5-5.2-.5-10.6-.4-15.9.1-.5,0-1.1.2-1.6.2h0Z"/>
    <path class="st2" d="M113.4,54.3c-1.8-2.6-4.5-5.1-7.3-6.8-1-.6-2.1-1-3.1-1.5-.2,0-.3-.2-.4-.3,1.4.2,2.9.6,4.2,1,3.8,1.3,7.3,3.3,10.4,5.7,0,.3-.5.4-.6.6-.1.5.2,1.1.1,1.7h-.4c-.6,0-1.6,0-1.9-.4h-1.2s0,0,0,0Z"/>
    <path class="st2" d="M89.3,46.1c.2,0,.4,0,.6,0v.2c-3.5,1.5-7,4.3-9.1,7-.7-.5-1.5-.9-2.2-1.3-.3-.2-.7-.4-.7-.7,2.6-1.8,8.1-5,11.5-5.3h0Z"/>
    <path class="st3" d="M125.7,56.8c-2.1-2.6-4.9-5.2-8-6.9,0,0,.1-.2.3-.2.1,0,1.3.5,1.5.6,3.4,1.7,6.5,4.4,8.8,7.1l-.8-.3-1.8-.3h0Z"/>
    <path class="st3" d="M117.3,52.4c1.2,1,2.3,1.9,3.4,3-.2.1-.4,0-.6,0-1.2-.2-2.4-.5-3.6-.8h.4c.1-.5-.2-1.1-.1-1.7,0-.1.6-.3.6-.6h0Z"/>
    <path class="st3" d="M89.3,46.1c.4-.3,1.1-.3,1.7-.4-.2.4-.9.4-1.3.6v-.2s-.2,0-.4,0h0Z"/>
    <path class="st8" d="M86.8,56.6c1.4.7,2.8,1.5,4.2,2.2,3.8,1.8,7.8,3.4,11.8,4.9l5.3,1.4v-1.3l.6,3.9c.4,5.8,0,11.4-.7,17.1-.3,0-.4,0-.7-.2-1.7-1-3.4-1.9-5.1-2.8-5.6-2.8-11.5-5.1-17.6-7-.1-6.2.2-12.2,2.1-18.2h0Z"/>
    <path class="st6" d="M108,84.8c0,.3,0,.7,0,1-6.3,2.9-11.7,7.1-16.1,12-1-1.2-2.1-2.3-3.2-3.4-.3-.3-.6-.9-1-1.2-.2-.2-1.3-1-1.4-1.1,0,0-.1-.7-.2-1-1.1-5.1-1.5-11.2-1.5-16.4,6,1.9,12,4.2,17.6,7,1.7.9,3.4,1.9,5.1,2.8.2.1.4.2.7.2h0Z"/>
    <path class="st8" d="M113.4,54.3h1.2c.3.4,1.3.3,1.9.4,1.2.2,2.4.5,3.6.8.2,0,.4.1.6,0,7.3,7.9,7.8,15.4,5.6,25.2-2.8.3-5.4.9-8.1,1.5,1.6-9.3.9-19.7-4.7-27.8Z"/>
    <path class="st7" d="M102.4,111.9l-3.1-4.5c-2.1-3.4-4.8-6.5-7.4-9.5,0,0,0,0,0-.1,4.4-5,9.8-9.1,16.1-12-1,8.8-3.2,17.7-5.6,26.2h0Z"/>
    <path class="st14" d="M105.4,53.4c1.5,3,2.7,6.9,2.8,10.3v1.3l-5.3-1.4c-4-1.5-8-3-11.8-4.9-1.4-.7-2.8-1.5-4.2-2.2.4-1.1.6-1.7,1.1-2.8.6,0,1.1-.2,1.6-.2,5.2-.6,10.6-.6,15.9-.1h0Z"/>
    <path class="st17" d="M138.5,148.7l2.3,12.3,3.2-12.3h2.7l3.1,12.2h.4c0,0,2-12.2,2-12.2h2.9l-3.1,15.2h-3.8c-1.2-3.7-1.9-7.6-3-11.3l-2.8,11.2c-.2.2-3.5.2-3.8-.1l-3.4-14.9h3.2,0Z"/>
    <path class="st9" d="M99.4,107.4l3.1,4.5c-.8,2.7-1.6,5.4-2.4,8l-.4.3c0,.1.4,0,.3.2l-1.5,4.4c0,.1-.2.2-.3.2-.3,0-2.7,0-2.9,0-1.4-4.1-2.8-8.2-4-12.3-.1-.4-.1-.8-.2-1.1l.3-.6c.3,0,0,.3.3.2,0-.4.3-.2.5-.3.2,0,.3-.3.5-.3.4-.2,1.1.2,1.1-.8v.2c.6.2,1.1-.8,1.5-.8.2,0,.1.4.4.4,0-.2.4-.9.4-1,.1,0,.4,0,.6,0,0,0,.9-.8.9-.4,0,.1,0,.3.1.3,0-.7.8-.2.6-1.1h1.3c0,.1,0,.1,0,.1ZM98.7,107.6c-.2,0-.4,0-.3.1.2,0,.4,0,.3-.1ZM96.4,108.7h0c0,0,0,0,0,0ZM96.1,108.8h0c0,0,0,0,0,0Z"/>
    <path class="st7" d="M116,91.1l5,4.1c-3.6,7.8-8,15.5-13.8,22.2l-1.3,1.2c0-.6-.8-1.6-1-2.1,4.3-7.8,8.5-17,11-25.4h0Z"/>
    <path class="st17" d="M116.9,148.7c1.2.2,2.6,1.3,3.3,2.2,1.6,2.3.3,5.9-2.7,6.6v.2l3.8,6.2h-3.1c-.4,0-3.7-6-4.1-6h-2.2v5.8s-.2.2-.2.2h-3v-15.2h8.2ZM111.8,150.8v4.8s.2.2.2.2h3.8c.2,0,1.3-.6,1.5-.8,1.2-1.1.9-3-.4-3.9-.1,0-.7-.4-.8-.4h-4.3Z"/>
    <polygon class="st12" points="104.4 129.6 102.4 137.7 91.2 137.8 89 129.6 104.4 129.6"/>
    <path class="st16" d="M79.1,56c-1.8,3-3.1,6.5-3.8,9.9-.3,1.6-.4,3.4-.7,4.9,0,.1-.4.4,0,.6v.5l-8.5-1.9c0-.3.1-.5.1-.6.2,0,.2-.3,0-.4.2-1.7.5-3.1,1.1-4.7.2-.7,1.7-4.2,2.3-4.4.5-.2,1.5-.8,2.3-1.1,2-1,4.3-1.9,6.5-2.6.2,0,.5-.2.8-.1h0Z"/>
    <path class="st17" d="M93.8,148.7h6.4c1,0,3,1,3.8,1.5,4,2.9,3.7,10.1-.7,12.6-.5.3-2.4,1-2.9,1h-6.3s-.2-.2-.2-.2v-15h0ZM96.7,161.7h2.6c.7,0,2.3-.8,2.8-1.3,2.4-2.1,2.4-6.7-.2-8.6-.4-.3-1.9-1.1-2.4-1.1h-2.7v10.9h0Z"/>
    <path class="st17" d="M122.2,163.8l5.4-15c.2-.3,2.9,0,3.5-.1l5.7,15.2h-3c-.6-1.3-1-2.7-1.3-4.1h-5.8c-.5,1.4-.7,2.8-1.3,4.1h-3,0ZM127.2,157.7h4.5l-2-6.8c-.6-.4-.8.5-.9.9-.6,1.9-1.1,4-1.6,5.9Z"/>
    <path class="st0" d="M126.2,80.6c-1.2,5.3-2.9,9.7-5.2,14.7l-5-4.1c.9-3,1.6-6,2.1-9,2.7-.6,5.4-1.2,8.1-1.5h0Z"/>
    <path class="st6" d="M74.6,71.9c0,3.9.1,7.5.8,11.4-2.6-1.5-5.3-3.4-8.1-4.6-.2-.1-.4-.2-.7-.2-.5-2.8-.8-5.7-.6-8.5l8.5,1.9h0Z"/>
    <path class="st17" d="M42.5,152.2c-1.3,1.4-1.7,3.9-1.2,5.6.7,2.9,4.1,5.3,7.2,3.3.4-.2.8-.9,1.3-.7.2,0,1.6,1.4,1.5,1.6-4.8,4.6-12,1.6-13.1-4.1-1.1-5.6,4.3-11.7,10.7-9,.5.2,2.2,1,1.9,1.6,0,.1-1.3,1.5-1.4,1.5-1.6-1.1-3.3-1.7-5.3-.8-.3.1-1.4.9-1.6,1.1h0Z"/>
    <path class="st13" d="M92,97.9c2.6,3,5.4,6.1,7.4,9.5h-1.3c.3.8-.6.3-.6,1-.2,0-.1-.2-.1-.3,0-.4-.9.4-.9.4-.2,0-.5,0-.6,0,0,0-.4.8-.4,1-.2,0-.2-.3-.4-.4-.4,0-.9.9-1.3.8v-.2c0,1-.8.7-1.2.8-.2,0-.3.3-.5.3-.2.1-.6,0-.5.3-.3,0,0-.3-.3-.2l-.3.6c-.9-3.2-1.8-6.2-2.5-9.4l3.5-4.3h0ZM97.8,107.4c-.2,0-.4,0-.3.1.2,0,.4,0,.3-.1Z"/>
    <path class="st17" d="M57.1,152.2c10.2-1.3,8.8,14.2-.5,11.7-6.2-1.7-5.5-10.9.5-11.7ZM58,154.2c-3.9.5-3.8,8.3.9,7.7,1.9-.2,2.8-2.7,2.7-4.2-.1-1.7-1.5-3.8-3.7-3.5Z"/>
    <path class="st17" d="M85,158.8h-8.2c.4,2.4,2.5,3.9,5.2,3.1.4-.1,1.3-.7,1.5-.6.2,0,1.1,1.4,1.1,1.7,0,0-1.1.5-1.2.5-2.3.8-4,.9-6.2-.2-5.2-2.4-3.7-10.9,2.3-11.2,4.5-.2,6.1,3.1,5.5,6.6h0ZM82.6,157c-.1-4.1-5.5-3.9-5.7,0h5.7Z"/>
    <path class="st8" d="M128.3,57.5c6.5,7.6,6.7,13.4,4.5,22.5l-3.1.2c1.8-8.4,1.6-16.2-4.1-23.4l1.8.3.8.3h0Z"/>
    <path class="st1" d="M74.6,99.5c.2-.7.4-.3.6,0,.3.6.5-.8.2-.9.1,0,.5.4.4-.2l.5.5-.2-.5c.4,0,.4,0,.7.1.1-.8.4.4.6.2v-.4c.1,0,.4.5.4.5v-.5c.1,0,.3.5.3.5v-.9c.6,0,.2.2.4.3.4.2,0-.9,0-1.1.5.6.2.2.9.1.3.1,0,.4.2.5,0,0,.2,0,.2.1,1.8,3.4,3.1,7.7,4.9,11.3-1,1.1-1.1,2.6-1.8,3.9-3.4-4.5-5.7-8.7-8.2-13.7h0Z"/>
    <path class="st10" d="M70.6,90.9c0-.2-.1-.4-.1-.6,0-.4.4-.4-.3-.4.1-.1,0-.3,0-.4.3-.2,1.5,0,1.2-.9.3,0,.1.3.2.4.7.4,1.1-1,1.9-.2v-.8c-.1,0,.6.5.6.5v-.6c.3,0,0,.2.1.2.3.2.3-.2.3-.2.3-.1.7.2.8.2,0,0,.3-.7.8-.7.3.1.3,1.2.4,1.2s.2,0,.2,0c.6,1.3.8,2.9,1.3,4.3.6,1.7,1.3,3.4,1.8,5.1,0,0-.2,0-.2-.1,0-.1.1-.4-.2-.5-.7.1-.4.5-.9-.1,0,.2.4,1.3,0,1.1-.2-.1.2-.4-.3-.3v.9c-.1,0-.3-.5-.3-.5v.5c-.1,0-.4-.5-.4-.5v.4c-.3.2-.6-1.1-.7-.2-.3-.2-.3-.2-.7-.1l.2.5-.5-.5c.1.7-.3.2-.4.2.3.2.1,1.5-.2.9-.2-.4-.4-.8-.6,0-1.3-2.5-3.5-5.8-4.1-8.6h0Z"/>
    <path class="st11" d="M75.5,83.3c.3,1.8,1,3.6,1.3,5.4,0,0-.2,0-.2,0,0,0,0-1.1-.4-1.2-.4,0-.7.7-.8.7,0,0-.5-.3-.8-.2,0,0,0,.4-.3.2,0,0,.1-.3-.1-.2v.6l-.7-.5v.8c-.7-.7-1.1.7-1.8.2,0,0,.2-.3-.2-.4.2.9-1,.7-1.2.9,0,0,.1.2,0,.4.7,0,.3,0,.3.4,0,.2,0,.4.1.6-.9-1.9-1.7-4-2.3-6-.6-2-1.2-4.3-1.6-6.4.3,0,.5,0,.7.2,2.8,1.2,5.5,3.1,8.1,4.6h0ZM75.6,87.4c.1-.2,0-.3-.1-.2-.1.2,0,.3.1.2Z"/>
    <path class="st0" d="M132.8,80c-1.6,6.6-4.4,12.5-8,18.4-.3,0-.6-.2-.8-.4-.3-.2-.7-.7-.9-1,2.7-5,5.4-11.4,6.6-16.8l3.1-.2Z"/>
    <path class="st17" d="M90.3,148.7v12.8c0,.3.9.3,1,.4,0,0,.4,1.8.4,1.9-.1.6-2.5.4-3.1.1-.6-.3-1.4-1.2-1.4-1.8v-13.5h3.1,0Z"/>
    <path class="st7" d="M123.1,97c.2.3.6.8.9,1,.2.2.4.5.8.4-5,8.5-10.6,15.2-17.8,22.3-.3-.1-.4-.4-.4-.6,6.1-7,12.2-15,16.5-23.1h0Z"/>
    <path class="st11" d="M59.8,75.6l3,.9.4.2c.8,4.9,2.3,9.6,4.2,14.3-.2.3-.1-.4-.6-.2v.4c-.1,0-.2-.5-.2-.5-.1.7-.5.3-.8.5.1.6-.2,0-.5-.1-.3.7.4,1,.1,1.5-2.8-5.6-4.7-10.8-5.6-16.9h0Z"/>
    <path class="st17" d="M68.5,152.3v2c.9-.9,3.9-3.1,5.2-2.1.3.3,0,2.3-.6,2.3-.8,0-1.1-.1-2,.3-.4.2-2.1,1.7-2.1,2v6.9s-.2.2-.2.2h-2.6v-11.5h2.4,0Z"/>
    <path class="st3" d="M77.8,51.3c0,.3.4.5.7.7.7.5,1.5.8,2.2,1.3-.5.6-1.3,1.9-1.7,2.6-.3,0-.5,0-.8.1-2.2.7-4.4,1.6-6.5,2.6-.7.4-1.8,1-2.3,1.1,0-.4.4-.9.6-1.2,1.9-2.9,4.7-5.3,7.6-7.3h0Z"/>
    <path class="st3" d="M59.9,66.8c1.6-6.1,6.5-11.9,12.2-15.5.7-.4,2.6-1.6,3.3-1.8.2,0,.3.1.3.2,0,.2-1.9,1.2-2.2,1.4-4,2.8-8,7.9-9.5,12.3l-.6.2-3.5,3h0Z"/>
    <path class="st10" d="M65.4,92.5c.3-.5-.5-.8-.1-1.5.2.2.6.7.5.1.4-.2.7.2.8-.5v.5c0,0,.2-.4.2-.4.4,0,.4.6.6.2,1.6,3.3,3.3,6.6,5.2,9.8l-.4-.4c0,.2-.6.5-.6.5,0,0,.2.5,0,.5-.1,0-.6-1.5-1.3-1,0,.2.4.2.5.5,0,.2,0,.5-.1.7-1.9-3-3.6-5.8-5.2-9h0Z"/>
    <path class="st1" d="M70.6,101.5c.1-.2.2-.4.1-.7-.1-.3-.5-.2-.5-.5.7-.5,1.2,1,1.3,1,.3,0,0-.4,0-.5,0,0,.6-.3.6-.5l.4.4c2,3.3,4.2,6.3,6.4,9.5.1.2.3.3.3.6,0,0,0,.1,0,.1-.6-.2-.8-.4-.9.4-.3,0,0-.2-.2-.2-.1,0,0,.4-.4.2-2.7-3.2-4.9-6.3-7.1-9.8h0Z"/>
    <path class="st6" d="M62.7,69.2c0,1,0,2,0,2.9v2.1c0,.6.3,1.8.4,2.4l-.4-.2-3-.9c-.4-2.4-.6-4.5-.3-6.9,1,.3,2.1.4,3.2.5h0Z"/>
    <path class="st9" d="M86.8,113.3c1.6,3.1,3.5,6,5.2,9,.3.5.6,1.1.7,1.5,0,0,0-.1-.1-.1l-.3-.2c-2.9-2.6-5.4-5.3-7.8-8.3l.4-.8.6.4c0-.6.7-.8,1.3-.8-.2-.2,0-.7-.4-.6h.6c0-.1,0-.1,0-.1Z"/>
    <path class="st1" d="M88.7,94.4c1.1,1.1,2.2,2.2,3.2,3.4,0,0,0,0,0,.1l-3.5,4.3c-.4-1.7-.9-3.4-1.1-5.1,0-.2.1-.6-.1-.8,0-.1,0-.3,0-.4,0-.4.2-.9.4-1.2l-.4-.3h1.5Z"/>
    <path class="st9" d="M79.2,110.8c.2,0,2.6,3.4,3,3.9,2.1,2.6,4.5,5,6.5,7.7.2.2.3.5.6.6h0c0,0-.4,0-.6,0,0,0-.2,0-.3-.1.1-.5-.3-.4-.4-.5-3.5-2.8-7.5-7.6-10.3-11,.3.1.2-.3.4-.2.2,0,0,.3.2.2.2-.8.3-.6.9-.4,0,0,0-.1,0-.1h0Z"/>
    <path class="st16" d="M64,63.6c-.5,1.5-1.1,4-1.3,5.6-1.1,0-2.2-.2-3.2-.5,0-.2.1-.4.1-.6h.1c0,0-.1-.1-.1-.1,0-.4.2-.8.3-1.1l3.5-3,.6-.2h0Z"/>
    <path class="st13" d="M86.8,113.3h-.6c.4,0,.2.5.4.8-.6,0-1.3.2-1.3.8l-.6-.4-.4.8c-.6-.7-1-1.3-1.5-2,.7-1.2.8-2.8,1.8-3.9.6,1.3,1.4,2.7,2.1,4h0ZM86,113.4h0c0,0,0,0,0,0Z"/>
    <path class="st9" d="M105.9,118.7c0,.1,0,.3-.1.4-1.8,1.6-3.3,3.6-5.3,5-.2-.3,1.3-2.2,1.5-2.6,1-1.6,2-3.3,3-4.9.2.6,1,1.6,1,2.1h0Z"/>
    <path class="st10" d="M86.2,91.1c0,.2.1.9.2,1,0,.1,1.1.8,1.4,1.1.3.3.7.9,1,1.2h-1.5l.4.3c-.3.3-.4.8-.4,1.2-.4,0-.2-.2-.3-.4-.2-1.5-.6-2.9-.7-4.3h0Z"/>
    <path class="st9" d="M107.1,120.7c-1,1-1.9,2.1-3.1,2.9,0,0,0,0-.1.1s0,0-.1.1v-.2c.9-1.2,1.9-2.3,2.9-3.5,0,.2.1.5.4.6h0Z"/>
    <path class="st13" d="M89.3,123.1c.4.1,1.2.8.9,1.3-.4-.4-1.2-.8-1.5-1.4.2,0,.5.1.6.1h0Z"/>
    <path class="st13" d="M92,122.3c.4.4,1.2,1.4,1.4,1.9.1.4-.6,0-.7-.4-.1-.4-.4-1-.7-1.5Z"/>
    <path class="st13" d="M103.7,123.8c-.3.3-.6.9-1.1.9-.1,0,.9-1,1-1.1v.2Z"/>
    <path class="st10" d="M87.3,97c-.3-.2-.1-.6-.1-.8.2.1.1.5.1.8Z"/>
    <path class="st13" d="M88.5,122.8c-.2-.1-.3-.3-.4-.5.1,0,.5,0,.4.5Z"/>
    <path class="st6" d="M74.6,71.4c-.4-.2,0-.5,0-.6v.6Z"/>
    <path class="st13" d="M92.5,123.7c-.4,0-.2-.2-.3-.2l.3.2Z"/>
    <path class="st13" d="M89.3,123c-.3-.1-.4-.4-.6-.6.3.1.5.3.6.6Z"/>
    <path class="st6" d="M66.2,69.4c0-.1,0-.2,0-.4.2,0,.2.3,0,.4Z"/>
    <path class="st13" d="M103.8,123.7s0,0,.1-.1c0,0,0,0-.1.1Z"/>
    <path class="st6" d="M59.7,68.1h0c0-.1.1,0,.1,0h-.1c0,0,0,0,0,0Z"/>
    <path class="st13" d="M98.7,107.6c0,0,0,.2-.3.1,0,0,0-.2.3-.1Z"/>
    <path class="st13" d="M96.4,108.7c0,0,0,0,0,.1h0Z"/>
    <path class="st13" d="M96.1,108.8c0,0,0,0,0,.1h0Z"/>
    <path class="st18" d="M111.8,150.8h4.3c.1,0,.7.3.8.4,1.4.9,1.6,2.8.4,3.9-.2.2-1.3.8-1.5.8h-3.8s-.2-.2-.2-.2v-4.8h0Z"/>
    <path class="st18" d="M96.7,161.7v-10.9h2.7c.5,0,2,.8,2.4,1.1,2.6,1.9,2.6,6.5.2,8.6-.5.4-2.1,1.3-2.8,1.3h-2.6,0Z"/>
    <path class="st18" d="M127.2,157.7c.4-2,.9-4,1.6-5.9.1-.4.3-1.3.9-.9l2,6.8h-4.5Z"/>
    <path class="st9" d="M97.8,107.4c0,0,0,.2-.3.1,0,0,0-.2.3-.1Z"/>
    <path class="st18" d="M58,154.2c2.2-.3,3.5,1.8,3.7,3.5.1,1.5-.8,3.9-2.7,4.2-4.7.6-4.8-7.2-.9-7.7Z"/>
    <path class="st18" d="M82.6,157h-5.7c.2-3.9,5.6-4.1,5.7,0Z"/>
    <path class="st10" d="M75.6,87.4c0,0-.2,0-.1-.2,0,0,.2,0,.1.2Z"/>
    <path class="st9" d="M86,113.4c0,0,0,0,0,.1h0Z"/>
  </g>
</svg>