<?xml version="1.0" encoding="UTF-8"?>
<svg id="Capa_1" xmlns="http://www.w3.org/2000/svg" version="1.1" viewBox="0 0 200 200">
  <!-- Generator: Adobe Illustrator 29.1.0, SVG Export Plug-In . SVG Version: 2.1.0 Build 142)  -->
  <defs>
    <style>
      .st0 {
        fill: #2d0402;
      }

      .st1 {
        fill: #f7b1ed;
      }

      .st2 {
        fill: none;
        stroke: #f7b1ed;
        stroke-miterlimit: 10;
        stroke-width: 1.2px;
      }

      .st3 {
        fill: #ff9a00;
      }
    </style>
  </defs>
  <path class="st2" d="M161.9,80.2c3.9.2,6.2,3.7,5.7,7.4,5,.2,8.3,4.4,6.3,9.3,5.2,2.2,4,8.3,2.2,12.5-.4.9-2,4.2-2.9,4.3-.7,0-1.3-.6-1.1-1.2,0-.3,1.4-2.2,1.8-2.8,1.6-3.2,3.8-9.9-1-11.2-1.1,2.2-4.2,7.2-6.5,8-2.3.7-3.8-1.2-3.5-3.3.4-2.6,3.6-5.2,5.9-6.1.6-.2,3.1-.7,3.3-.9.7-.6.7-3,.4-3.8-.5-1.5-3.5-3.5-5-3-.2,0-1.1,2.4-1.4,2.9-1.2,2.2-4.8,6.2-7.5,5.9s-1.8-4.3-.9-6c1.2-2.4,4.1-4.2,6.6-4.8.4,0,1.3,0,1.5-.2.4-2.2-.4-4.3-2.6-5-2.3-.8-1.7.3-2.7,2.1-1.4,2.4-6.1,8.3-9.2,5.3-4-4,5.2-9.8,8.8-9.5.3-5.8-4.7-5.7-8.9-4.7-3.2.8-5,2.5-7,4.9-1.2.4-1.9-.6-1.1-1.7,1.4-2,4.2-4.1,6.6-4.8,5.8-1.8,12.6-1.4,12.4,6.2h0l-.2.2ZM152.6,88.5c1.3.7,3.8-1.8,4.5-2.7.4-.5,2.4-3.3,2.1-3.7-2,.4-6.8,2.9-7,5.1,0,.4.1,1.2.4,1.4h0ZM165.1,89.5c-2.6.3-5.4,2.1-6.3,4.6-.2.5-.6,2-.2,2.3,3.1-.7,5.4-4.1,6.4-6.9h.1ZM170.4,98.8c-2.2.4-4.9,2.1-5.6,4.3-.8,2.4.8,1.8,2,.7.5-.4,3.8-4.8,3.6-5h0Z"/>
  <path class="st1" d="M179.5,173.1c-.7.7-1.1,2.1-.3,2.8,1.6,1.6,3.5-.4,5.2-.7,8.7-1.3,9.5,9.8,2.8,11.3-2.5.5-5.7-.9-6.6-3.4-.6-1.6-.2-5.4-2.1-5.7-3.2-.4-2.3,3.8-3.2,6-.9,2.1-3.7,3.5-5.9,3.1-3.4-.5-5.5-3.3-5-6.7s3.8-5.2,7.1-4.7c1.7.3,3.3,2.2,5,.9,2.6-2.1-1.8-3.9-2.9-5.5-2.3-3.1-1.1-8.1,2.9-9,6.1-1.3,9.8,4.9,5.8,9.5-.8.9-2.1,1.3-2.7,1.9h0v.2Z"/>
  <path class="st3" d="M30,171.3c-.5,1.2-2.1.6-3.1.8-3.5.6-2.5,1.2-3.2,4.4,4.8-.5,6,.6,6.6-4.6,0-.3-.2-4.4.7-3.1,0,1.8-.4,6.7,1.7,7.3l4.9.8c-1.4.5-5.1.2-6,1.3-.8,1-.7,5.1-.7,6.5-1.1,1.4-.6-3.2-.7-3.3-1.7.8-4.5-.2-5.8,1.1-1.1,1.2-.9,4.8-.9,6.3-.4.6-.7,0-.7-.5-.2-1.4.1-4.9-.9-5.8-1.3-1.2-3.9-.3-5.4-1.1l-.7,3.3c-.8-1.8.2-5.2-1.1-6.5-1.2-1.2-4-.6-5.6-1.3l4.8-1c2.5-.9,1-5,1.9-7.1.9.4-.2,2.2,1,2.6.2,0,3.6-.3,4-.4,3-.7,1.3-5.5,2.6-7.4.5,1.7-.2,6.7,1.9,7.3,1.1.3,3.2.2,4.5.4h.2ZM23,176.4c0-5.1-2.4-4-6.3-4.8-.8,5.2,2.5,4.3,6.3,4.8ZM23,176.8c-3.1.8-6.8-.6-6.3,4.1,3.6-.7,6,.6,6.3-4.1ZM30.4,180.9c-.1-4.5-3.4-3.3-6.6-4.1.2,5.2,2.9,3.2,6.6,4.1Z"/>
  <path class="st3" d="M184.9,13.1c-.5,1.2-2.1.6-3.1.8-3.5.6-2.5,1.2-3.2,4.4,4.8-.5,6,.5,6.6-4.6,0-.3-.2-4.4.7-3.1,0,1.8-.4,6.7,1.7,7.3l4.9.8c-1.4.5-5.1.2-5.9,1.3-.8,1-.7,5.1-.7,6.5-1.1,1.4-.6-3.2-.7-3.3-1.7.8-4.5-.2-5.8,1.1-1.1,1.2-.9,4.8-.9,6.3-.4.6-.7,0-.7-.5-.2-1.4.1-4.9-.9-5.8-1.3-1.2-3.9-.3-5.4-1.1l-.7,3.3c-.8-1.8.2-5.2-1.1-6.5-1.2-1.2-4-.6-5.6-1.3l4.8-1c2.5-.9,1-5,1.9-7.1.9.4-.2,2.2,1,2.6.2,0,3.6-.3,4-.4,2.9-.7,1.3-5.5,2.6-7.4.4,1.7-.2,6.7,1.9,7.3,1.1.3,3.2.2,4.5.4h0ZM177.9,18.3c0-5.1-2.4-4-6.3-4.8-.8,5.2,2.5,4.3,6.3,4.8ZM177.9,18.7c-3.1.8-6.8-.5-6.3,4.1,3.6-.7,6,.6,6.3-4.1ZM185.3,22.7c-.1-4.5-3.4-3.3-6.6-4.1.2,5.2,2.9,3.2,6.6,4.1Z"/>
  <path class="st0" d="M39,33.6c-1.8,2.2-1,5.3.9,7.3,2.2,2.3,5.8.4,7.2-1.8,2.5-4-2.7-6.1-3.9-3.2-1,2.4,1.6.3,2.3.9,1.6,1.4-2.6,3.1-3.8,1.4-2.4-3.5,3.7-7.5,6.5-4.4,4.6,5-4.5,13.1-9.4,8.7-2.5-2.2-3.9-6.8-1.8-9.6,3.3-4.6,9.1-5.7,13.4-1.9,10.2,9.1-7.4,26-16.3,13.1-4.2-6.1-2.8-13.2,3.1-17.4,13.3-9.4,27.7,9.1,17.5,20.6-1.8,2-7.5,6-10.1,6s-1.5-1.2-.5-1.7c1.1-.5,2.7-.8,4-1.5,5.4-2.7,9.6-8.3,7.9-14.5-2.6-9.7-13.5-13.3-20.2-5.1-4.3,5.2-2,13.9,4.2,16.2,3.3,1.3,8.1-1.4,10-4.1,5.6-8.2-4.8-16.8-11.1-8.9h0Z"/>
  <g>
    <path class="st2" d="M161.9,80.2c3.9.2,6.2,3.7,5.7,7.4,5,.2,8.3,4.4,6.3,9.3,5.2,2.2,4,8.3,2.2,12.5-.4.9-2,4.2-2.9,4.3-.7,0-1.3-.6-1.1-1.2,0-.3,1.4-2.2,1.8-2.8,1.6-3.2,3.8-9.9-1-11.2-1.1,2.2-4.2,7.2-6.5,8-2.3.7-3.8-1.2-3.5-3.3.4-2.6,3.6-5.2,5.9-6.1.6-.2,3.1-.7,3.3-.9.7-.6.7-3,.4-3.8-.5-1.5-3.5-3.5-5-3-.2,0-1.1,2.4-1.4,2.9-1.2,2.2-4.8,6.2-7.5,5.9s-1.8-4.3-.9-6c1.2-2.4,4.1-4.2,6.6-4.8.4,0,1.3,0,1.5-.2.4-2.2-.4-4.3-2.6-5-2.3-.8-1.7.3-2.7,2.1-1.4,2.4-6.1,8.3-9.2,5.3-4-4,5.2-9.8,8.8-9.5.3-5.8-4.7-5.7-8.9-4.7-3.2.8-5,2.5-7,4.9-1.2.4-1.9-.6-1.1-1.7,1.4-2,4.2-4.1,6.6-4.8,5.8-1.8,12.6-1.4,12.4,6.2h0l-.2.2ZM152.6,88.5c1.3.7,3.8-1.8,4.5-2.7.4-.5,2.4-3.3,2.1-3.7-2,.4-6.8,2.9-7,5.1,0,.4.1,1.2.4,1.4h0ZM165.1,89.5c-2.6.3-5.4,2.1-6.3,4.6-.2.5-.6,2-.2,2.3,3.1-.7,5.4-4.1,6.4-6.9h.1ZM170.4,98.8c-2.2.4-4.9,2.1-5.6,4.3-.8,2.4.8,1.8,2,.7.5-.4,3.8-4.8,3.6-5h0Z"/>
    <path class="st1" d="M179.5,173.1c-.7.7-1.1,2.1-.3,2.8,1.6,1.6,3.5-.4,5.2-.7,8.7-1.3,9.5,9.8,2.8,11.3-2.5.5-5.7-.9-6.6-3.4-.6-1.6-.2-5.4-2.1-5.7-3.2-.4-2.3,3.8-3.2,6-.9,2.1-3.7,3.5-5.9,3.1-3.4-.5-5.5-3.3-5-6.7s3.8-5.2,7.1-4.7c1.7.3,3.3,2.2,5,.9,2.6-2.1-1.8-3.9-2.9-5.5-2.3-3.1-1.1-8.1,2.9-9,6.1-1.3,9.8,4.9,5.8,9.5-.8.9-2.1,1.3-2.7,1.9h0v.2Z"/>
    <path class="st3" d="M30,171.3c-.5,1.2-2.1.6-3.1.8-3.5.6-2.5,1.2-3.2,4.4,4.8-.5,6,.6,6.6-4.6,0-.3-.2-4.4.7-3.1,0,1.8-.4,6.7,1.7,7.3l4.9.8c-1.4.5-5.1.2-6,1.3-.8,1-.7,5.1-.7,6.5-1.1,1.4-.6-3.2-.7-3.3-1.7.8-4.5-.2-5.8,1.1-1.1,1.2-.9,4.8-.9,6.3-.4.6-.7,0-.7-.5-.2-1.4.1-4.9-.9-5.8-1.3-1.2-3.9-.3-5.4-1.1l-.7,3.3c-.8-1.8.2-5.2-1.1-6.5-1.2-1.2-4-.6-5.6-1.3l4.8-1c2.5-.9,1-5,1.9-7.1.9.4-.2,2.2,1,2.6.2,0,3.6-.3,4-.4,3-.7,1.3-5.5,2.6-7.4.5,1.7-.2,6.7,1.9,7.3,1.1.3,3.2.2,4.5.4h.2ZM23,176.4c0-5.1-2.4-4-6.3-4.8-.8,5.2,2.5,4.3,6.3,4.8ZM23,176.8c-3.1.8-6.8-.6-6.3,4.1,3.6-.7,6,.6,6.3-4.1ZM30.4,180.9c-.1-4.5-3.4-3.3-6.6-4.1.2,5.2,2.9,3.2,6.6,4.1Z"/>
    <path class="st3" d="M184.9,13.1c-.5,1.2-2.1.6-3.1.8-3.5.6-2.5,1.2-3.2,4.4,4.8-.5,6,.5,6.6-4.6,0-.3-.2-4.4.7-3.1,0,1.8-.4,6.7,1.7,7.3l4.9.8c-1.4.5-5.1.2-5.9,1.3-.8,1-.7,5.1-.7,6.5-1.1,1.4-.6-3.2-.7-3.3-1.7.8-4.5-.2-5.8,1.1-1.1,1.2-.9,4.8-.9,6.3-.4.6-.7,0-.7-.5-.2-1.4.1-4.9-.9-5.8-1.3-1.2-3.9-.3-5.4-1.1l-.7,3.3c-.8-1.8.2-5.2-1.1-6.5-1.2-1.2-4-.6-5.6-1.3l4.8-1c2.5-.9,1-5,1.9-7.1.9.4-.2,2.2,1,2.6.2,0,3.6-.3,4-.4,2.9-.7,1.3-5.5,2.6-7.4.4,1.7-.2,6.7,1.9,7.3,1.1.3,3.2.2,4.5.4h0ZM177.9,18.3c0-5.1-2.4-4-6.3-4.8-.8,5.2,2.5,4.3,6.3,4.8ZM177.9,18.7c-3.1.8-6.8-.5-6.3,4.1,3.6-.7,6,.6,6.3-4.1ZM185.3,22.7c-.1-4.5-3.4-3.3-6.6-4.1.2,5.2,2.9,3.2,6.6,4.1Z"/>
    <path class="st0" d="M39,33.6c-1.8,2.2-1,5.3.9,7.3,2.2,2.3,5.8.4,7.2-1.8,2.5-4-2.7-6.1-3.9-3.2-1,2.4,1.6.3,2.3.9,1.6,1.4-2.6,3.1-3.8,1.4-2.4-3.5,3.7-7.5,6.5-4.4,4.6,5-4.5,13.1-9.4,8.7-2.5-2.2-3.9-6.8-1.8-9.6,3.3-4.6,9.1-5.7,13.4-1.9,10.2,9.1-7.4,26-16.3,13.1-4.2-6.1-2.8-13.2,3.1-17.4,13.3-9.4,27.7,9.1,17.5,20.6-1.8,2-7.5,6-10.1,6s-1.5-1.2-.5-1.7c1.1-.5,2.7-.8,4-1.5,5.4-2.7,9.6-8.3,7.9-14.5-2.6-9.7-13.5-13.3-20.2-5.1-4.3,5.2-2,13.9,4.2,16.2,3.3,1.3,8.1-1.4,10-4.1,5.6-8.2-4.8-16.8-11.1-8.9h0Z"/>
  </g>
  <path d="M155.6,141.7l-19.3-10.2c0,1.2-.2,2.5-.4,3.7-1.1,4.4-5.4,7-9.7,7.2H62.1c-5.5-.3-9.6-3.4-10.1-9.1v-17.4l27-14.1-27-14.2v-17.4c.4-5.4,4.2-8.7,9.6-9.1h65.3c3.3.3,6.5,2.1,8.1,5,1,1.8,1.2,3.8,1.4,5.8l19.3-10.2v16.5l-44.9,23.4,44.9,23.4v16.6h0ZM127.4,76.3H61.8c.3.5,1.1.6,1.6.9,9.2,5.1,18.8,10,28.1,14.8.4.2,3.2,1.5,3.4,1.5,1-.7,2.2-1,3.4-1.6,9.2-4.8,18.4-9.7,27.6-14.6.5-.3,1.3-.3,1.6-.9h0ZM61.6,127.2h66.2l-1.9-1c-9.2-4.8-18.4-9.9-27.7-14.6-1.1-.6-2.3-1.1-3.4-1.6-1.1.6-2.4,1.1-3.4,1.6-9.2,4.8-18.5,9.7-27.7,14.6-.6.3-1.5.4-1.9,1h-.2Z"/>
</svg>