<?xml version="1.0" encoding="UTF-8"?>
<svg id="Capa_1" xmlns="http://www.w3.org/2000/svg" version="1.1" xmlns:xlink="http://www.w3.org/1999/xlink" viewBox="0 0 200 200">
  <!-- Generator: Adobe Illustrator 29.1.0, SVG Export Plug-In . SVG Version: 2.1.0 Build 142)  -->
  <defs>
    <style>
      .st0 {
        isolation: isolate;
      }

      .st0, .st1, .st2 {
        fill: none;
      }

      .st3 {
        fill: #2d0402;
      }

      .st4 {
        fill: #f7b1ed;
      }

      .st5 {
        fill: url(#Degradado_sin_nombre_54);
        fill-rule: evenodd;
      }

      .st2 {
        stroke: #f7b1ed;
        stroke-miterlimit: 10;
        stroke-width: 1.2px;
      }

      .st6 {
        fill: #ff9a00;
      }
    </style>
    <linearGradient id="Degradado_sin_nombre_54" data-name="Degradado sin nombre 54" x1="39" y1="89.5" x2="170.4" y2="89.5" gradientUnits="userSpaceOnUse">
      <stop offset=".1" stop-color="#7236e4"/>
      <stop offset=".2" stop-color="#416fdc"/>
      <stop offset=".3" stop-color="#4e60de"/>
      <stop offset=".4" stop-color="#466add"/>
      <stop offset=".5" stop-color="#515cdf"/>
      <stop offset=".6" stop-color="#7236e4"/>
      <stop offset=".8" stop-color="#7236e4"/>
      <stop offset=".9" stop-color="#3b75db"/>
    </linearGradient>
  </defs>
  <path class="st2" d="M161.9,80.2c3.9.2,6.2,3.7,5.7,7.4,5,.2,8.3,4.4,6.3,9.3,5.2,2.2,4,8.3,2.2,12.5-.4.9-2,4.2-2.9,4.3-.7,0-1.3-.6-1.1-1.2,0-.3,1.4-2.2,1.8-2.8,1.6-3.2,3.8-9.9-1-11.2-1.1,2.2-4.2,7.2-6.5,8-2.3.7-3.8-1.2-3.5-3.3.4-2.6,3.6-5.2,5.9-6.1.6-.2,3.1-.7,3.3-.9.7-.6.7-3,.4-3.8-.5-1.5-3.5-3.5-5-3-.2,0-1.1,2.4-1.4,2.9-1.2,2.2-4.8,6.2-7.5,5.9s-1.8-4.3-.9-6c1.2-2.4,4.1-4.2,6.6-4.8.4,0,1.3,0,1.5-.2.4-2.2-.4-4.3-2.6-5-2.3-.8-1.7.3-2.7,2.1-1.4,2.4-6.1,8.3-9.2,5.3-4-4,5.2-9.8,8.8-9.5.3-5.8-4.7-5.7-8.9-4.7-3.2.8-5,2.5-7,4.9-1.2.4-1.9-.6-1.1-1.7,1.4-2,4.2-4.1,6.6-4.8,5.8-1.8,12.6-1.4,12.4,6.2h0l-.2.2ZM152.6,88.5c1.3.7,3.8-1.8,4.5-2.7.4-.5,2.4-3.3,2.1-3.7-2,.4-6.8,2.9-7,5.1,0,.4.1,1.2.4,1.4h0ZM165.1,89.5c-2.6.3-5.4,2.1-6.3,4.6-.2.5-.6,2-.2,2.3,3.1-.7,5.4-4.1,6.4-6.9h.1ZM170.4,98.8c-2.2.4-4.9,2.1-5.6,4.3-.8,2.4.8,1.8,2,.7.5-.4,3.8-4.8,3.6-5h0Z"/>
  <path class="st4" d="M179.5,173.1c-.7.7-1.1,2.1-.3,2.8,1.6,1.6,3.5-.4,5.2-.7,8.7-1.3,9.5,9.8,2.8,11.3-2.5.5-5.7-.9-6.6-3.4-.6-1.6-.2-5.4-2.1-5.7-3.2-.4-2.3,3.8-3.2,6-.9,2.1-3.7,3.5-5.9,3.1-3.4-.5-5.5-3.3-5-6.7s3.8-5.2,7.1-4.7c1.7.3,3.3,2.2,5,.9,2.6-2.1-1.8-3.9-2.9-5.5-2.3-3.1-1.1-8.1,2.9-9,6.1-1.3,9.8,4.9,5.8,9.5-.8.9-2.1,1.3-2.7,1.9h0v.2Z"/>
  <path class="st6" d="M30,171.3c-.5,1.2-2.1.6-3.1.8-3.5.6-2.5,1.2-3.2,4.4,4.8-.5,6,.6,6.6-4.6,0-.3-.2-4.4.7-3.1,0,1.8-.4,6.7,1.7,7.3l4.9.8c-1.4.5-5.1.2-6,1.3-.8,1-.7,5.1-.7,6.5-1.1,1.4-.6-3.2-.7-3.3-1.7.8-4.5-.2-5.8,1.1-1.1,1.2-.9,4.8-.9,6.3-.4.6-.7,0-.7-.5-.2-1.4.1-4.9-.9-5.8-1.3-1.2-3.9-.3-5.4-1.1l-.7,3.3c-.8-1.8.2-5.2-1.1-6.5-1.2-1.2-4-.6-5.6-1.3l4.8-1c2.5-.9,1-5,1.9-7.1.9.4-.2,2.2,1,2.6.2,0,3.6-.3,4-.4,3-.7,1.3-5.5,2.6-7.4.5,1.7-.2,6.7,1.9,7.3,1.1.3,3.2.2,4.5.4h.2ZM23,176.4c0-5.1-2.4-4-6.3-4.8-.8,5.2,2.5,4.3,6.3,4.8ZM23,176.8c-3.1.8-6.8-.6-6.3,4.1,3.6-.7,6,.6,6.3-4.1ZM30.4,180.9c-.1-4.5-3.4-3.3-6.6-4.1.2,5.2,2.9,3.2,6.6,4.1Z"/>
  <path class="st6" d="M184.9,13.1c-.5,1.2-2.1.6-3.1.8-3.5.6-2.5,1.2-3.2,4.4,4.8-.5,6,.5,6.6-4.6,0-.3-.2-4.4.7-3.1,0,1.8-.4,6.7,1.7,7.3l4.9.8c-1.4.5-5.1.2-5.9,1.3-.8,1-.7,5.1-.7,6.5-1.1,1.4-.6-3.2-.7-3.3-1.7.8-4.5-.2-5.8,1.1-1.1,1.2-.9,4.8-.9,6.3-.4.6-.7,0-.7-.5-.2-1.4.1-4.9-.9-5.8-1.3-1.2-3.9-.3-5.4-1.1l-.7,3.3c-.8-1.8.2-5.2-1.1-6.5-1.2-1.2-4-.6-5.6-1.3l4.8-1c2.5-.9,1-5,1.9-7.1.9.4-.2,2.2,1,2.6.2,0,3.6-.3,4-.4,2.9-.7,1.3-5.5,2.6-7.4.4,1.7-.2,6.7,1.9,7.3,1.1.3,3.2.2,4.5.4h0ZM177.9,18.3c0-5.1-2.4-4-6.3-4.8-.8,5.2,2.5,4.3,6.3,4.8ZM177.9,18.7c-3.1.8-6.8-.5-6.3,4.1,3.6-.7,6,.6,6.3-4.1ZM185.3,22.7c-.1-4.5-3.4-3.3-6.6-4.1.2,5.2,2.9,3.2,6.6,4.1Z"/>
  <path class="st3" d="M39,33.6c-1.8,2.2-1,5.3.9,7.3,2.2,2.3,5.8.4,7.2-1.8,2.5-4-2.7-6.1-3.9-3.2-1,2.4,1.6.3,2.3.9,1.6,1.4-2.6,3.1-3.8,1.4-2.4-3.5,3.7-7.5,6.5-4.4,4.6,5-4.5,13.1-9.4,8.7-2.5-2.2-3.9-6.8-1.8-9.6,3.3-4.6,9.1-5.7,13.4-1.9,10.2,9.1-7.4,26-16.3,13.1-4.2-6.1-2.8-13.2,3.1-17.4,13.3-9.4,27.7,9.1,17.5,20.6-1.8,2-7.5,6-10.1,6s-1.5-1.2-.5-1.7c1.1-.5,2.7-.8,4-1.5,5.4-2.7,9.6-8.3,7.9-14.5-2.6-9.7-13.5-13.3-20.2-5.1-4.3,5.2-2,13.9,4.2,16.2,3.3,1.3,8.1-1.4,10-4.1,5.6-8.2-4.8-16.8-11.1-8.9h0Z"/>
  <path class="st5" d="M169.4,97.5c-.3.2-1.4,3.2-2,4-.9,1.4-3.6,4.2-4.3,1.3-.6-2.8.9-8.4,1.6-11.3.4-1.5,2.7-7.1,1.4-7.9-2.4-1.5-5.1,1.4-6.4,3-.4-2.1-1.7-3.2-3.8-3.4-6.3-.5-7.2,5.8-11.9,7.5-.7.3-2.7,1.1-3,0,0-.3,1.5-4.2,1.6-5.4.3-2.4.5-6.1-2.5-6.7-5.5-1.1-7.7,6.1-5.7,10.4.8,1.7,2.2,2.4,3.2,3.7-.9,2-4.9,9.6-6.9,9.9-.4,0-.6-.2-.8-.4-1.7-1.9-1.8-11.9-1.7-14.7,0-2.6,1.6-5.4-3-4-3.2,1-2.8,6.6-3.4,9.3-.6,2.6-2.8,7.8-5.1,9.2-1.7,1.1-2.6,1.1-2.8-1.1-.5-4.7,2.5-9.5,1.9-14-.2-1.3-1-3.3-2.4-3.6-5.3-1-8.6,6-11.5,9.3.5-2.4,2.1-9.4-1.8-9.4-3.7,0-2.5,2.4-2.9,4.8-.6,3.8-2.1,8.4-4,11.7-.8,1.3-3.3,5.1-5.2,3.9-1.4-.8.5-9.2.9-10.9.4-1.8,2.7-7.8,1.7-9-1.5-1.9-5.5,1.2-6.2,2.9-1.3-2.9-2.8-3.8-6-3.3-9.8,1.4-9.1,21.9-22.1,23.3-17.3,1.9-12.6-32,2.6-35.2,5.1-1.1,6.9,2.2,6.2,6.9-.3,1.6-3.5,6.1-.2,5.5,2.7-.5,5-4.2,5.2-6.8.7-8.6-9.1-9.7-15.4-7.8-20,6.1-22.7,43.3.6,41,5.6-.6,10.4-5.8,13-10.3.4,0,.8,2.7,1,3.3,2.3,6.2,9.7,3.8,12-1l1.7,3c3.8,4,8.2.2,10.8-3,.3,1.7.4,4.4,2.5,4.7.9.1,2.1-.2,2.6-1,.7-1.2,1.3-4.6,2-6.3,1-2.4,5.3-10.9,7.7-11.4.4,0,.8,0,1.2,0,1.3,1.3-5.9,17.8,2.2,18.7,5.1.6,8.8-6.7,10.3-10.7.8-.1.4.4.5.8.5,2.5,1.5,9.9,4.8,9.9,3.2,0,8-6.9,9.6-9.4.5-.7,2.3-4.4,2.5-4.5.3-.2,4.4.1,5.2-1.1.1,1.4-.7,3-.8,4.5-.4,4.9.4,11.3,6.8,10.5,2.7-.4,4.4-2.7,6-4.6,1.1,3.9,3.5,5.6,7.5,4.2,2.6-.9,5.9-4.8,5.7-7.7,0-.5-.5-1.7-1-1.3ZM82.9,94.7c-.5,2.2-4,12.1-7.4,8.3-2.7-3.1,1-15.8,5.1-16.6,3.9-.8,2.8,6.2,2.3,8.4ZM139,89.3c-1,.9-2-3.6-2-4.2,0-1,.6-3.8,1.8-3.8,2.4,0,.4,6.6.2,8ZM158.6,94c-.5,2.5-3,10.2-6.3,9.6-2.3-.4-2.4-4-2.2-5.8.2-3,2.9-10.9,6.2-11.5,3.6-.6,2.6,5.6,2.3,7.6Z"/>
  <ellipse class="st0" cx="-203" cy="52.5" rx="102" ry="96.5"/>
  <ellipse class="st1" cx="-258.5" cy="32.5" rx="99.5" ry="71.5"/>
</svg>