<?xml version="1.0" encoding="UTF-8"?>
<svg id="Capa_1" xmlns="http://www.w3.org/2000/svg" version="1.1" xmlns:xlink="http://www.w3.org/1999/xlink" viewBox="0 0 200 200">
  <!-- Generator: Adobe Illustrator 29.1.0, SVG Export Plug-In . SVG Version: 2.1.0 Build 142)  -->
  <defs>
    <style>
      .st0 {
        fill: #ffd9f2;
      }

      .st1 {
        fill: #011d33;
      }

      .st2 {
        fill: #bcbcf4;
      }

      .st2, .st3, .st4, .st5 {
        stroke: #000;
        stroke-width: 1.7px;
      }

      .st2, .st3, .st4, .st5, .st6 {
        stroke-miterlimit: 10;
      }

      .st7 {
        fill: #97cb1c;
      }

      .st8 {
        fill: #99f;
      }

      .st9 {
        fill: #a51c3f;
      }

      .st3 {
        fill: #9cd9c0;
      }

      .st10 {
        fill: #11a6e3;
      }

      .st11 {
        fill: #00a6f4;
      }

      .st12 {
        fill: #30a8ff;
      }

      .st13 {
        fill: #0ecbf3;
      }

      .st14 {
        fill: #00005c;
      }

      .st15 {
        fill: #2d0402;
      }

      .st16, .st5 {
        fill: #f7b1ed;
      }

      .st17 {
        fill: #2bc44a;
      }

      .st18 {
        fill: #ff26be;
      }

      .st19 {
        fill: #bfd611;
      }

      .st20, .st6 {
        fill: none;
      }

      .st4 {
        fill: #f7d381;
      }

      .st21 {
        fill: #01983d;
      }

      .st22 {
        fill: #001e36;
      }

      .st23 {
        fill: #e1422a;
      }

      .st24 {
        fill: #992a5d;
      }

      .st25 {
        isolation: isolate;
      }

      .st26 {
        fill: #753787;
      }

      .st27 {
        fill: #666565;
      }

      .st28 {
        fill: #ea7c1a;
      }

      .st29 {
        fill: #01853f;
      }

      .st6 {
        stroke: #f7b1ed;
        stroke-width: 1.2px;
      }

      .st30 {
        fill: #2e001f;
      }

      .st31 {
        fill: #039552;
      }

      .st32 {
        fill: #00005b;
      }

      .st33 {
        fill: #9a99ff;
      }

      .st34 {
        fill: #231814;
      }

      .st35 {
        clip-path: url(#clippath);
      }

      .st36 {
        fill: #fdfdfd;
      }

      .st37 {
        fill: #ff9a00;
      }
    </style>
    <clipPath id="clippath">
      <circle class="st20" cx="-1443.2" cy="100.9" r="61.4"/>
    </clipPath>
  </defs>
  <rect class="st15" x="-2467.8" y="-187.6" width="118.2" height="115.5"/>
  <rect class="st37" x="-2387.1" y="-141.3" width="10.8" height="39.5"/>
  <circle class="st37" cx="-2381.7" cy="-151.7" r="6.2"/>
  <path class="st37" d="M-2410.5-153.9h-13.9c0,2.3-.4,4.7-1.2,6.9l-16.3,45.2h11.4l4.1-12.5h18.3c0-.1,4.2,12.5,4.2,12.5h12.1l-18.6-52.1h0ZM-2423.4-124.5l6-20.2,6.2,20.2h-12.2Z"/>
  <rect class="st32" x="-2177.1" y="-187.4" width="118.9" height="115.7" rx="-969.7" ry="-969.7"/>
  <path class="st8" d="M-2138-156.5h5.8q.9,0,1.2.8c5.9,16.4,11.7,32.8,17.6,49.2,0,.1,0,.2.1.4.1.5,0,.7-.6.7h-9.8c-.9,0-1,0-1.2-.9-1.2-3.6-2.5-7.2-3.7-10.8-.1-.4-.3-.6-.8-.6-5.7,0-11.3,0-17,0-.5,0-.6.1-.8.6-1.1,3.6-2.3,7.1-3.4,10.6-.3.9-.4,1-1.4,1h-8.3c-1.1,0-1.3-.2-.9-1.2,3.7-10.5,7.4-21,11-31.5,1.6-4.7,3.3-9.4,4.9-14.1.4-1.1.4-2.2.5-3.4,0-.8,0-.8.8-.8h6,0ZM-2144.1-127.3h12.3c-2.1-6.8-4.2-13.5-6.2-20.1-2,6.6-4,13.3-6.1,20.1Z"/>
  <path class="st8" d="M-2077.9-123.5h2.1s0-4.1,0-5.4c-.1-2.3-.5-4.5-1.2-6.7-1.2-3.3-3.3-6.2-6.4-7.9-1.6-.9-3.5-1.6-5.3-1.9-6.7-1.2-14,.4-18.1,6-3.3,4.5-4.3,10.4-4.3,15.8,0,0,0,16.8,17.8,18.1,0,0,7.8.6,14.2-2.2v-8.5s-19.8,6-21.1-7.4c3,0,6.1,0,9.1,0,4.4,0,8.9,0,13.3,0h0ZM-2093.1-137.9c4,0,7.3,3.2,7.3,7.2h-14.5c0-4,3.2-7.2,7.3-7.2h0Z"/>
  <image id="image" class="st25" width="512" height="512" transform="translate(-1622.6 -190.9) scale(.2)" xlink:href="archivos-1.png"/>
  <path d="M-1383.1-81.1l-22.4-11.8c-.1,1.4-.2,2.9-.5,4.3-1.3,5.1-6.3,8.1-11.3,8.4h-74.3c-6.4-.4-11.2-3.9-11.7-10.6v-20.2c0,0,31.3-16.4,31.3-16.4l-31.3-16.5v-20.2c.5-6.3,4.9-10.1,11.1-10.6h75.8c3.8.4,7.5,2.4,9.4,5.8,1.2,2.1,1.4,4.4,1.6,6.7l22.4-11.8v19.1l-52.1,27.2,52.1,27.2v19.3h0ZM-1415.9-157.1h-76.1c.4.6,1.3.7,1.9,1,10.7,5.9,21.8,11.6,32.6,17.2.5.2,3.7,1.7,3.9,1.7,1.2-.8,2.6-1.2,3.9-1.9,10.7-5.6,21.5-11.3,32-17,.6-.3,1.5-.4,1.9-1h0ZM-1492.2-97.9h76.8l-2.2-1.2c-10.7-5.7-21.4-11.5-32.1-17-1.3-.7-2.7-1.3-4-1.9-1.3.7-2.8,1.3-4,1.9-10.7,5.6-21.5,11.3-32.1,17-.7.4-1.7.5-2.2,1.2h0Z"/>
  <rect class="st14" x="-1786.8" y="286" width="117.3" height="114.6" rx="-776.1" ry="-776.1"/>
  <path class="st33" d="M-1742.8,317.8h-19.1v51h10.7v-15.9h8.4c4.8,0,9.2-2,12.4-5.1s5.1-7.5,5.1-12.4c0-9.7-7.8-17.5-17.5-17.5ZM-1738.3,341.2c-1.5,1.5-3.6,2.4-5.8,2.4h-7v-16.5h7c4.6,0,8.3,3.7,8.3,8.3s-.9,4.4-2.4,5.8h0Z"/>
  <path class="st33" d="M-1708.1,334.7v-5h-10.2v39h10.2v-22.2c0-1.9.9-3.6,2.4-4.7,4.1-2.8,11.2-2.5,11.2-2.5v-10.7c-8.9,0-13.6,6-13.6,6h0Z"/>
  <rect class="st32" x="-1638" y="283.8" width="118.9" height="115.7" rx="-700.1" ry="-700.1"/>
  <path class="st8" d="M-1599,314.7h5.8q.9,0,1.2.8c5.9,16.4,11.7,32.8,17.6,49.2,0,.1,0,.2.1.4.1.5,0,.7-.6.7h-9.8c-.9,0-1,0-1.2-.9-1.2-3.6-2.5-7.2-3.7-10.8-.1-.4-.3-.6-.8-.6-5.7,0-11.3,0-17,0-.5,0-.6.1-.8.6-1.1,3.5-2.3,7.1-3.4,10.6-.3.9-.4,1-1.4,1h-8.3c-1.1,0-1.3-.2-.9-1.2,3.7-10.5,7.4-21,11-31.5,1.6-4.7,3.3-9.4,4.9-14.1.4-1.1.4-2.2.5-3.4,0-.8,0-.8.8-.8h6,0ZM-1605,343.8h12.3c-2.1-6.8-4.2-13.5-6.2-20.1-2,6.6-4,13.3-6.1,20.1Z"/>
  <path class="st8" d="M-1538.8,347.7h2.1s0-4.1,0-5.4c-.1-2.3-.5-4.5-1.2-6.7-1.1-3.3-3.3-6.2-6.4-7.9-1.6-1-3.5-1.6-5.3-1.9-6.6-1.2-14,.4-18.1,6-3.3,4.5-4.3,10.4-4.3,15.9,0,0,0,16.8,17.8,18.1,0,0,7.8.6,14.2-2.2v-8.5s-19.8,6-21.1-7.4c3,0,6.1,0,9.1,0,4.4,0,8.9,0,13.3,0h0ZM-1554,333.2c4,0,7.3,3.2,7.3,7.2h-14.5c0-4,3.2-7.2,7.3-7.2h0Z"/>
  <path class="st18" d="M-1150.3-251h-82.2c-12.5,0-22.5-9.7-22.5-21.8v-76.3c0-12,10.1-21.8,22.5-21.8h82.2c12.5,0,22.5,9.7,22.5,21.8v76.3c0,12-10.1,21.8-22.5,21.8Z"/>
  <path class="st30" d="M-1152.3-256.1h-78.1c-10.6,0-19.2-8.4-19.2-18.6v-72.4c0-10.2,8.6-18.6,19.2-18.6h78.1c10.7,0,19.2,8.3,19.2,18.6v72.4c0,10.3-8.6,18.6-19.2,18.6h0Z"/>
  <path class="st0" d="M-1204.7-314.8l14.8,27.6c.3.4.1.8-.3.8h-9.2c-.6,0-.8-.1-1.1-.7-3.4-6.8-6.8-13.5-10.4-20.8h-.1c-3.2,6.9-6.7,14.1-10.1,20.9-.3.4-.5.6-1,.6h-8.7c-.5,0-.6-.4-.3-.7l14.5-26.8-14-27.1c-.3-.4,0-.7.3-.7h9.1c.5,0,.7,0,1,.6,3.3,6.8,6.7,13.7,9.9,20.5h.1c3.1-6.8,6.5-13.8,9.8-20.5.3-.4.4-.7,1-.7h8.5c.4,0,.6.3.3.7l-14,26.2h0ZM-1187.3-306.4c0-11.9,8.2-21.3,21.2-21.3s1.7,0,2.8,0v-13.6c0-.3.3-.5.5-.5h8.4c.4,0,.5.2.5.4v47c0,1.4,0,3.1.3,5,0,.3-.1.4-.4.6-4.5,2-9.1,3-13.6,3-11.5,0-19.7-6.8-19.7-20.8h0ZM-1163.3-319.5c-.7-.3-1.8-.5-3.1-.5-6.7,0-11.3,5-11.3,13.2s4.8,13.2,10.8,13.2,2.7-.2,3.7-.6v-25.4h0Z"/>
  <image id="image1" data-name="image" class="st25" width="512" height="512" transform="translate(-843.5 42.6) scale(.2)" xlink:href="archivos-2.png"/>
  <path d="M-877.6-264.4l-22.4-11.8c-.1,1.4-.2,2.9-.5,4.3-1.3,5.1-6.3,8.1-11.3,8.4h-74.3c-6.4-.4-11.2-3.9-11.7-10.6v-20.2c0,0,31.3-16.4,31.3-16.4l-31.3-16.5v-20.2c.5-6.3,4.9-10.1,11.1-10.6h75.8c3.8.4,7.5,2.4,9.4,5.8,1.2,2.1,1.4,4.4,1.6,6.7l22.4-11.8v19.2l-52.1,27.2,52.1,27.2v19.3h0ZM-910.4-340.3h-76.1c.4.6,1.3.7,1.9,1,10.7,5.9,21.8,11.6,32.6,17.2.5.2,3.7,1.7,3.9,1.7,1.2-.8,2.6-1.2,3.9-1.9,10.7-5.6,21.4-11.3,32-17,.6-.3,1.5-.4,1.9-1h0ZM-986.7-281.2h76.8l-2.2-1.2c-10.7-5.6-21.4-11.5-32.1-17-1.3-.7-2.7-1.3-4-1.9-1.3.7-2.8,1.3-4,1.9-10.7,5.6-21.5,11.3-32.1,17-.7.4-1.7.5-2.2,1.2h0Z"/>
  <path class="st1" d="M-1437.5-255.2h-70.7c-11,0-19.8-9.3-19.8-20.7v-71.2c0-11.4,8.9-20.7,19.8-20.7h70.7c11,0,19.8,9.3,19.8,20.7v71.2c0,11.4-8.9,20.7-19.8,20.7h0Z"/>
  <polygon class="st11" points="-1492.3 -296.8 -1492.3 -337.3 -1503 -337.3 -1503 -296.8 -1503 -285.7 -1492.3 -285.7 -1470.3 -285.7 -1470.3 -296.8 -1492.3 -296.8"/>
  <path class="st11" d="M-1442.7-325.2v10.9c-1-.3-2.1-.4-3.2-.4-3.5,0-6.7,1.4-9.1,3.6v25.5h-10.8v-39.1h10.8v5c2.5-3.3,6.4-5.5,10.8-5.5s1,0,1.5,0h0Z"/>
  <path class="st22" d="M-1299.1-251.3h-73.2c-11.3,0-20.5-9.7-20.5-21.7v-74.7c0-12,9.2-21.7,20.5-21.7h73.2c11.3,0,20.5,9.7,20.5,21.7v74.7c0,12-9.2,21.7-20.5,21.7Z"/>
  <path class="st12" d="M-1348-339.1h-18.6v52.5h10.5v-16.4h8.2c4.7,0,9-2,12.1-5.3,3.1-3.3,5-7.8,5-12.8,0-10-7.6-18-17.1-18ZM-1343.7-315c-1.5,1.5-3.5,2.5-5.7,2.5h-6.8v-17h6.8c4.5,0,8,3.8,8,8.5s-.9,4.5-2.4,6h0Z"/>
  <path class="st12" d="M-1298.3-298.4c0,3.5-1.5,6.8-4,9.1-2.7,2.6-6.5,3.7-10.1,4-.4,0-.9,0-1.3,0-4,0-8.2-.8-11.9-2.6,0,0,0,0-.1,0,0-3.1,0-6.2,0-9.3,0,.2,2.9.9,3.3,1,3.3,1.2,7.3,2,10.7,1.5.7,0,1.5-.3,2.1-.8,2.2-1.9,0-4.2-1.8-5.1-1.9-1-4-1.6-5.9-2.5-1.8-.8-3.6-1.9-5.1-3.4-4.8-4.8-4.7-12.8.3-17.4,2.8-2.6,6.6-3.5,10.2-3.6,3.8-.2,7.6.5,11.1,2.1.1,0,.3.1.3.3,0,.1,0,.2,0,.4,0,3.2,0,6.3,0,9.5-.6-.5-1.3-.7-2-1-.7-.3-1.5-.6-2.2-.9-2.7-.9-6.2-1.8-9-.8-1,.4-1.8,1.1-1.8,2.3,0,1.8,1.7,2.7,3.1,3.4,1.7.8,3.6,1.3,5.3,2.2,4.5,2.2,8.6,5.9,8.6,11.6h0Z"/>
  <g>
    <path class="st5" d="M-2633-43.2c0,3.9-1.3,7.5-4,10.6s-5.9,6-9.8,8.5c-3.8,2.5-7.9,4.7-12.1,6.5-4.2,1.9-7.9,3.4-10.9,4.6,0,2.2,0,4.4-.2,6.6,0,2.3-.3,4.5-.5,6.8,3.3-1.6,7-3.2,11.1-4.6,4.1-1.4,8-2.2,11.7-2.2s5.4.6,7.3,1.8,2.8,3.4,2.8,6.5-1.2,6.4-3.6,9.1-5.3,5-8.7,7.1-6.9,3.8-10.6,5.2-6.8,2.6-9.4,3.4c0,3.4,0,6.8-.2,10.1,0,3.3-.3,6.7-.5,9.9,0,1.6-.3,3.7-.5,6.2-.3,2.5-.8,4.8-1.5,7.2-.8,2.3-1.9,4.3-3.3,6-1.4,1.7-3.3,2.5-5.5,2.5s-4-1.1-5.5-3.2c-1.5-2.1-2.8-4.8-3.9-8.1s-2-7-2.6-11-1.2-8-1.5-11.9c-.4-3.9-.6-7.5-.6-10.8,0-3.3,0-5.8,0-7.5s0-3.3,0-5.9c0-2.6,0-5.5.2-8.7,0-3.2.2-6.5.3-10,.2-3.5.3-6.8.5-9.9.2-3.1.5-5.9.8-8.3s.8-4.2,1.3-5.3c1.1-2.3,3.8-4.5,8.1-6.7,4.3-2.2,9-4.2,14.2-5.8s10.3-3.1,15.3-4.2c5-1.1,8.8-1.6,11.5-1.6s2.4,0,3.6.2c1.2.2,2.3.5,3.3,1,1,.5,1.8,1.2,2.5,2.2.6.9.9,2.2.9,3.7h0Z"/>
    <path class="st2" d="M-2603,72.5c-5.2,0-9.8-1.4-13.7-4.2s-7.2-6.3-9.9-10.6-4.7-9.1-6-14.4c-1.3-5.3-2-10.5-2-15.6s.7-11.1,2-16.9c1.3-5.8,3.4-11.1,6.2-15.9,2.8-4.8,6.3-8.7,10.6-11.7,4.3-3,9.5-4.5,15.4-4.5s10.7,1.6,14.7,4.7c4.1,3.1,7.3,7,9.8,11.7,2.5,4.7,4.2,9.8,5.2,15.3,1,5.6,1.4,10.8,1.1,15.7-.3,5.5-1.2,10.9-2.5,16.5-1.4,5.5-3.4,10.5-6.1,14.9-2.7,4.4-6.1,8-10.2,10.8s-9,4.2-14.6,4.2h0ZM-2601.4,2.8c-1.5,0-2.9.8-4.1,2.5-1.2,1.6-2.2,3.6-2.9,6-.8,2.4-1.4,4.9-1.8,7.5-.4,2.6-.6,4.9-.6,6.9s.2,5.1.7,8c.5,2.9,1.1,5.5,1.9,7.9.8,2.4,1.8,4.4,3,6,1.2,1.6,2.5,2.4,4.1,2.4s3-.8,4.2-2.3c1.2-1.5,2.1-3.5,2.8-5.8.7-2.4,1.2-5,1.5-7.8.3-2.8.5-5.5.5-7.9s-.2-4.8-.6-7.5c-.4-2.7-1-5.3-1.8-7.6-.8-2.4-1.8-4.3-2.9-5.8s-2.5-2.3-4.1-2.3h0Z"/>
    <path class="st5" d="M-2525.8,73.6c-7.3,0-13-.9-17-2.8-4.1-1.9-7.1-4.6-9.1-8.1s-3.2-7.7-3.6-12.6-.6-10.4-.6-16.5.2-9.7.5-14.6c.3-4.9.8-10.1,1.4-15.6-1.4,0-2.6,0-3.4,0s-1.5,0-2,0c-3.3,0-6.1-.7-8.5-2.2s-3.6-3.6-3.6-6.6.7-3.5,2.1-4.9,3.2-2.7,5.3-3.7c2.2-1,4.5-1.9,7-2.5,2.5-.6,4.9-1,7.2-1.2,0-2.9.2-6.1.6-9.5.4-3.5,1.2-6.8,2.2-9.8,1.1-3,2.5-5.6,4.4-7.6,1.8-2,4.2-3.1,7.1-3.1s3.1.5,4.4,1.5c1.3,1,2.3,2.2,3.2,3.7.8,1.5,1.4,3.2,1.8,5s.6,3.7.6,5.4-.2,4.2-.5,6.3-.9,4.8-1.7,8c1.7-.2,2.9-.3,3.5-.4.6,0,1.2,0,1.7,0,1.7,0,3.6.1,5.5.5,1.9.3,3.6.8,5.2,1.5,1.6.7,2.9,1.7,3.9,2.9,1,1.2,1.5,2.6,1.5,4.2s-.8,3.5-2.2,4.9c-1.5,1.4-3.4,2.7-5.6,3.7-2.3,1-4.7,1.8-7.2,2.4-2.6.6-5,1-7.2,1.2-.6,4.2-1,8.1-1.3,11.6s-.5,7.1-.8,10.7c-.2,1.8-.4,3.5-.5,5.3-.2,1.8-.2,3.6-.2,5.5s0,2.9.2,4.7c0,1.8.5,3.5,1.1,5.2s1.6,3.1,2.9,4.2c1.3,1.2,3.2,1.8,5.5,1.8s2.9-.1,4.5-.4,3.1-.4,4.6-.4c2.7,0,4.6.9,5.8,2.8,1.2,1.8,1.8,4.2,1.8,7.1s-.6,4-1.9,5.6-2.9,2.9-4.8,3.8c-2,1-4.1,1.7-6.5,2.2s-4.7.8-6.9.8h0Z"/>
    <path class="st3" d="M-2473.3,72.5c-5.2,0-9.8-1.4-13.7-4.2s-7.2-6.3-9.9-10.6-4.7-9.1-6-14.4c-1.3-5.3-2-10.5-2-15.6s.7-11.1,2-16.9c1.3-5.8,3.4-11.1,6.2-15.9,2.8-4.8,6.3-8.7,10.6-11.7,4.3-3,9.5-4.5,15.4-4.5s10.6,1.6,14.7,4.7c4.1,3.1,7.3,7,9.8,11.7s4.2,9.8,5.2,15.3,1.4,10.8,1.1,15.7c-.3,5.5-1.2,10.9-2.5,16.5-1.4,5.5-3.4,10.5-6.1,14.9-2.7,4.4-6.1,8-10.2,10.8-4.1,2.8-9,4.2-14.6,4.2h0ZM-2471.7,2.8c-1.5,0-2.9.8-4.1,2.5-1.2,1.6-2.2,3.6-2.9,6-.8,2.4-1.4,4.9-1.8,7.5s-.6,4.9-.6,6.9.2,5.1.7,8c.5,2.9,1.1,5.5,1.9,7.9.8,2.4,1.8,4.4,3,6,1.2,1.6,2.5,2.4,4.1,2.4s3.1-.8,4.2-2.3,2.1-3.5,2.9-5.8c.7-2.4,1.2-5,1.5-7.8.3-2.8.5-5.5.5-7.9s-.2-4.8-.6-7.5c-.4-2.7-1-5.3-1.8-7.6-.8-2.4-1.8-4.3-2.9-5.8s-2.5-2.3-4.1-2.3h0Z"/>
    <path class="st4" d="M-2362.2,15.5c0,5.2,0,10.5-.2,15.7-.1,5.2-.4,10.5-.9,15.7-.3,4.5-.7,9.4-1.2,14.5-.5,5.1-1.3,10.2-2.5,15.3-1.1,5.1-2.6,10-4.5,14.6-1.9,4.7-4.3,8.8-7.3,12.4-3,3.6-6.7,6.5-11,8.6-4.3,2.2-9.5,3.2-15.4,3.2s-5.9-.4-9.3-1.3c-3.4-.9-6.7-2.1-9.7-3.8s-5.6-3.7-7.7-6.1c-2.1-2.4-3.2-5.2-3.2-8.4s.9-4.5,2.5-6.6c1.7-2,3.9-3,6.5-3s3.2.3,4.7.8c1.5.6,3,1.2,4.5,1.9s2.9,1.4,4.3,1.9c1.4.6,2.8.8,4.2.8,3.8,0,7-.9,9.5-2.8,2.6-1.9,4.6-4.3,6.2-7.2s2.7-6.1,3.5-9.6,1.3-6.7,1.6-9.8c-2.1,2.4-4.4,4-7.2,4.8-2.7.9-5.6,1.3-8.5,1.3-5.5,0-10.1-.9-13.9-2.8s-6.9-4.5-9.2-7.9-4.1-7.2-5.2-11.6c-1.1-4.4-1.7-9.2-1.7-14.3s.3-6.8,1-10.8c.7-4,1.7-8.1,3-12.2,1.3-4.1,3-8.1,5-12,2-3.9,4.3-7.3,7-10.3s5.7-5.4,9-7.2,7-2.8,11-2.8,7.4,1.1,10.4,3.4,4.8,5.4,5.3,9.6c1.1-2.2,2.6-4.3,4.5-6.4s4.1-3.2,6.8-3.2,2.6.7,3.6,2.2c1,1.4,1.8,3.3,2.3,5.6s1,4.8,1.3,7.6c.3,2.7.5,5.4.6,8,.1,2.6.1,5,.1,7.2v4.8h0ZM-2385.6,25.5c0-1.5-.2-3.5-.7-6-.5-2.5-1.1-4.8-2-7.1s-2-4.2-3.3-5.8c-1.3-1.6-2.9-2.5-4.8-2.5s-4.4.8-6.2,2.5c-1.8,1.6-3.3,3.6-4.5,5.9-1.2,2.3-2.2,4.8-2.9,7.4-.7,2.6-1,4.9-1,6.7s.1,3.1.3,5.4c.2,2.3.6,4.5,1.3,6.6.7,2.2,1.6,4,2.7,5.5,1.1,1.5,2.6,2.3,4.5,2.3,2.8,0,5.2-.7,7.2-2,2-1.3,3.8-3,5.2-5.1s2.4-4.3,3.2-6.8c.7-2.5,1.1-4.8,1.1-7.1h0Z"/>
    <path class="st2" d="M-2297.8,10.4c-1.4.1-2.7,0-3.7-.4-1-.4-2.1-.7-3.1-1.2-.9-.4-1.9-.8-2.8-1.2-.9-.4-2-.5-3.1-.4-2.1,0-3.9.7-5.5,1.7-1.6,1-3,2.3-4.3,3.9-1.3,1.5-2.4,3.3-3.3,5.2-.9,1.9-1.6,3.8-2.2,5.6-.3,1.2-.5,3.1-.7,5.6-.1,2.5-.2,5.2-.2,8.1-.1,3-.1,5.8-.1,8.5s-.1,4.8-.3,6.3c-.1,1.6-.4,3.6-.8,5.8s-1,4.3-1.9,6.2c-.9,1.9-2,3.6-3.5,4.9s-3.3,2-5.5,2-3.3-.5-4.5-1.5c-1.3-1-2.4-2.4-3.2-4.1-.9-1.7-1.6-3.7-2.2-5.9-.6-2.3-1-4.6-1.3-6.9-.3-2.5-.5-4.9-.7-7.4-.1-2.5-.3-4.8-.3-7,0-2.2,0-4.2,0-6.1,0-1.9,0-3.3,0-4.5-.1-3.6-.3-7.2-.5-10.9-.3-3.6-.4-7.3-.4-10.9s.1-4.8.3-7.6.8-5.4,1.7-7.8c.9-2.4,2.3-4.4,4.1-6.1,1.8-1.6,4.3-2.5,7.5-2.5s3.2.6,4.5,1.7c1.2,1.1,2.2,2.5,3,4.2.8,1.6,1.4,3.4,1.8,5.2.4,1.8.7,3.5.8,5.1,2.5-4,5.2-7.3,8.3-9.8,3.1-2.5,7.1-3.9,12-4.1,2.5-.1,4.9.1,7.3.7,2.4.6,4.6,1.5,6.6,2.8,2,1.3,3.6,2.9,4.9,5,1.3,2.1,2,4.5,2.1,7.2.2,3.3-.8,5.8-2.9,7.6s-4.8,2.7-7.9,2.8h0Z"/>
    <path class="st5" d="M-2219.2,46.3c0,1.8,0,4.3-.2,7.2-.1,3-.6,5.9-1.3,8.7-.7,2.8-1.9,5.3-3.4,7.3s-3.7,3.1-6.5,3.1-6.7-1.2-8.8-3.7c-2.1-2.5-3-5.5-2.9-9.2-3.3,2.9-7,5.1-11.2,6.8s-8.4,2.5-12.7,2.5-5.8-.7-8.5-2.2-5-3.3-7.1-5.5-3.7-4.8-4.9-7.6c-1.2-2.8-1.9-5.6-1.9-8.4,0-4.9,1.5-9.2,4.5-12.9s6.8-6.9,11.2-9.5c4.4-2.6,9.1-4.7,14.1-6.2,5-1.5,9.4-2.6,13.3-3.1,0-.5,0-1,0-1.4,0-.4,0-.9,0-1.4,0-3.2-.9-5.8-2.6-7.7-1.8-2-4.2-2.9-7.4-2.9s-4.8.4-6.6,1.3c-1.9.9-3.6,1.9-5.2,2.9-1.6,1.1-3.3,2.1-4.9,2.9-1.6.9-3.5,1.3-5.5,1.3s-4.2-.7-5.8-2.2c-1.6-1.4-2.4-3.3-2.4-5.6,0-3.4,1-6.5,3-9.2,2-2.8,4.5-5.1,7.5-7s6.3-3.4,9.9-4.5c3.5-1.1,6.8-1.6,9.8-1.6s5.5.3,8.3,1c2.8.7,5.4,1.7,7.9,3.1,2.5,1.4,4.7,3.1,6.7,5.1s3.6,4.3,4.9,7c1.9,3.8,3.3,7.8,4.5,12.1s2,8.6,2.6,13.1c.6,4.5,1,8.9,1.2,13.4.2,4.5.3,8.8.3,13h0ZM-2243.9,41.4l-.5-10.5c-.2,0-.4,0-.6,0-.2,0-.4,0-.6,0-1.3,0-3,.3-5,1-2,.7-3.9,1.6-5.8,2.8s-3.4,2.5-4.7,3.9c-1.3,1.4-1.9,2.9-1.9,4.5s.5,2.4,1.5,2.9,2.2.8,3.5.8c2.3,0,4.7-.6,7.2-1.8,2.6-1.2,4.8-2.3,6.8-3.5h0Z"/>
    <path class="st4" d="M-2145.4-24.1c0,2-.2,3.8-.5,5.6-.4,1.8-1,3.4-1.9,4.7-.9,1.3-2.2,2.4-3.7,3.2s-3.4,1.2-5.7,1.2-4.5-.5-5.7-1.5-2.1-2.3-2.5-3.8c-.5-1.5-.7-3.1-.7-4.9s0-3.4-.2-4.9-.5-2.8-1.2-3.8c-.6-1-1.8-1.5-3.4-1.5s-2.8,1.2-3.8,3.5c-1,2.4-1.8,5.1-2.4,8.2-.6,3.1-1,6.1-1.2,9-.2,2.9-.3,4.9-.3,5.9,1.3-.2,2.6-.4,3.9-.5,1.2-.2,2.6-.2,4-.2s2.9.2,4.5.5c1.5.3,3,.8,4.3,1.5,1.3.7,2.4,1.6,3.2,2.8.8,1.2,1.2,2.7,1.2,4.4s-.8,3.5-2.4,4.9-3.5,2.6-5.7,3.6c-2.2,1-4.4,1.8-6.7,2.4s-4.1,1-5.4,1.2c.3,7.1.5,14.2.5,21.4s-.1,13.5-.5,20c-.2,3.2-1.3,5.8-3.3,7.9s-4.6,3.1-7.8,3.1-3.2-.3-4.5-1c-1.2-.7-2.3-1.6-3.1-2.7-.8-1.1-1.5-2.4-1.9-3.8-.5-1.4-.8-2.9-.9-4.5-.5-6.2-.9-12.3-1.2-18.6s-.4-12.5-.3-18.7c-.7.1-1.4.1-2.1.1h-2.1c-1.2,0-2.7-.1-4.5-.5s-3.4-.9-5-1.6-2.9-1.7-4.1-2.9-1.7-2.6-1.7-4.3.8-4.2,2.2-5.7c1.5-1.5,3.3-2.8,5.4-3.8s4.3-1.7,6.6-2.1,4.3-.7,6.1-.9v-2.5c0-5,.5-10.4,1.4-16.2.9-5.8,2.6-11.1,4.9-16,2.4-4.9,5.6-9,9.7-12.2s9.3-4.8,15.7-4.8,7.4.8,10.3,2.5c2.9,1.7,5.2,3.9,7.1,6.6,1.9,2.7,3.2,5.8,4,9.2.8,3.4,1.2,6.9,1.2,10.4h0Z"/>
    <path class="st3" d="M-2124.5,12.9v4.5c0,1.6,0,3.1-.1,4.5-.1,1.8-.1,4.1-.1,7s-.1,6.1-.3,9.5c-.2,3.4-.5,6.8-1,10.3-.5,3.5-1.2,6.7-2.2,9.5-1,2.9-2.4,5.2-4.1,7-1.7,1.8-3.8,2.8-6.4,2.8-1.9,0-3.6-.7-4.9-2.3-1.3-1.6-2.4-3.8-3.3-6.4s-1.5-5.5-1.9-8.8c-.4-3.2-.7-6.4-.9-9.4-.2-3-.3-5.8-.3-8.4v-12.7c0-3,.1-6.3.3-9.8.2-3.5.6-7,1.2-10.6.6-3.6,1.4-6.9,2.5-9.9,1.1-3,2.5-5.4,4.2-7.2,1.8-1.9,3.9-2.8,6.6-2.8s4.9,1.4,6.3,4.2,2.5,6,3.2,9.7c.7,3.7,1.1,7.4,1.2,11,.1,3.7.1,6.3.1,8.1h0ZM-2125.7-39.5c0,1.4-.4,2.7-1.2,3.8-.8,1.1-1.8,2.1-3,3-1.2.9-2.6,1.5-4,2-1.4.5-2.8.7-4,.7-2.1,0-3.9-.5-5.4-1.5s-2.3-2.6-2.3-4.8.4-2.9,1.2-4.1c.8-1.2,1.7-2.2,2.9-2.9s2.4-1.4,3.9-1.8,2.8-.6,4.2-.6c1.9,0,3.8.5,5.4,1.4,1.6.9,2.5,2.5,2.5,4.8h0Z"/>
    <path class="st5" d="M-2048.1,46.3c0,1.8,0,4.3-.2,7.2-.2,3-.6,5.9-1.3,8.7-.7,2.8-1.8,5.3-3.4,7.3s-3.7,3.1-6.5,3.1-6.7-1.2-8.8-3.7c-2.1-2.5-3-5.5-2.9-9.2-3.3,2.9-7,5.1-11.2,6.8-4.2,1.6-8.4,2.5-12.7,2.5s-5.8-.7-8.5-2.2-5-3.3-7.1-5.5-3.7-4.8-4.9-7.6c-1.2-2.8-1.9-5.6-1.9-8.4,0-4.9,1.5-9.2,4.5-12.9s6.8-6.9,11.2-9.5c4.4-2.6,9.1-4.7,14.1-6.2,5-1.5,9.4-2.6,13.3-3.1,0-.5,0-1,0-1.4,0-.4,0-.9,0-1.4,0-3.2-.9-5.8-2.6-7.7-1.8-2-4.2-2.9-7.4-2.9s-4.8.4-6.6,1.3c-1.8.9-3.6,1.9-5.2,2.9s-3.3,2.1-4.9,2.9-3.5,1.3-5.6,1.3-4.2-.7-5.8-2.2c-1.6-1.4-2.4-3.3-2.4-5.6,0-3.4,1-6.5,3-9.2,2-2.8,4.5-5.1,7.6-7,3-1.9,6.3-3.4,9.9-4.5s6.8-1.6,9.8-1.6,5.6.3,8.3,1,5.4,1.7,7.9,3.1c2.5,1.4,4.7,3.1,6.7,5.1s3.6,4.3,4.8,7c1.8,3.8,3.3,7.8,4.5,12.1,1.1,4.3,2,8.6,2.6,13.1.6,4.5,1,8.9,1.2,13.4.2,4.5.3,8.8.3,13h0ZM-2072.7,41.4l-.5-10.5c-.2,0-.4,0-.6,0-.2,0-.4,0-.6,0-1.3,0-3,.3-5,1-2,.7-3.9,1.6-5.8,2.8s-3.4,2.5-4.7,3.9c-1.3,1.4-1.9,2.9-1.9,4.5s.5,2.4,1.5,2.9,2.2.8,3.5.8c2.3,0,4.7-.6,7.2-1.8s4.8-2.3,6.8-3.5h0Z"/>
  </g>
  <path d="M-2613.5,733.2c5.9,2.5,12.1,4.6,18.4,6.2,23.9,6,50.2,4.3,74.5,1.4,10-1.2,20-3.5,30-4.2-1.6-1.5-3.8-2.1-5.4-3.6-3.4-2.9-4.2-5.8-2.4-10,3.8-9,16.2-11.8,25.1-12l-1.5-.4c-2.3,0-10,1.8-6.6-2.5,16.6-.5,33.7.2,49.4,5.8,11.4,4,19.5,9.2,7.7,20.1,29.7,4.3,58.9,18.8,89.4,12.5,10.8-2.2,20.5-7.6,30.1-12.9v20.5h-308.6v-21h0ZM-2460.9,723.5v7.8c0,.2-1,1.3-.8,1.5,9.3-.6,18.6-.6,27.9,0,1.1,0,2.8.8,3.7.7,2.6-.3,8.6-5.8,8.7-8.5.2-4.4-7-6.6-10.3-7.8l-.7,2.1c-4.6-.5-9.1-2.2-13.7-3.2-11.7-2.4-34-4.8-44.2,2-10.7,7.1-6.4,13.8,4.2,16.6,4.2,1.1,10.1-.6,14.6-1.1,2.5-.3,4.8,1.1,3.1-2.5,2.5-1.1,4.1,3.4,5.5-.8-3.6,2-7.2-2.8-4.5-5.7,1.6-1.7,4.5-.5,6.6-1h0Z"/>
  <path d="M-2590.8,205.7c1.2,1.8,2.5,3.7,3.2,5.8,2.4,6.3,3.3,18.4,2.1,25-.4,2.1-1.5,3.4-3.7,3.9-8.3-1.6-16.1-5.3-24.3-7.4v-3.4l23,7.5c2,.7,2.1-2.4,2.2-3.9.7-8.9-.2-20.8-6.7-27.5h4.2Z"/>
  <path d="M-2583.4,392.4c-19.6-19.1-8.4-59,19.7-63,48.2-6.9,64.1,69.4,6.7,72.1-10.4.5-18.9-1.8-26.4-9.1h0Z"/>
  <path d="M-2448.7,537.3c6.8-1.9,12.4-5.5,19.7-3.6,12.9,3.3,9.9,20.8-1.2,25.3-5,2-10.4.8-15.6,1.8.1,3.1.3,6.2.4,9.4.2,5.1.5,9.8-2.2,14.6-3.1,5.5-12,8.3-17.2,4.4-2.9-2.2-7-10.1-7-13.5v-9c-3.8,1.7-7.9,2.8-12,3.3-3.3.4-6.1.9-9.2-.8-5.9-3.2-6.4-12.1-3.7-17.6,3.3-6.9,16.3-9.1,23.2-9.3-2.2-7.2-2.9-22,1.9-28.1,7-9,22.9-.5,22.9,9v14h0Z"/>
  <path d="M-2356.2,378.3c-6.8,7.7-21.5,3.4-22.1-7.6-1-18.7,30.2-22.2,37-9.3,4.5,8.7,2.5,24.5-6.4,29.8-20.8,12.5-44.5-2.6-41.8-26.7,3.2-28.1,53.5-37.4,62.7-4.6s-18.4,56-49.4,47.7c-35.1-9.4-36.5-65.1-1.4-78.9,9.2-3.6,30.2-5.8,39-1,2.6,1.4,2.3,4.8-.5,5.1-1.5.2-7-1.7-9.2-2-20.3-2.7-44,5.4-48.3,27.5-2.7,13.8-1.1,25.5,8.7,36,14.4,15.4,45,11.5,54.1-8,5.8-12.3,4.1-34.5-10.5-39.8-19.7-7.1-47,6.9-38.4,30.4,4.8,12.9,18.2,16.2,30.2,10.9,8-3.5,9.4-14.6,7-22.1s-15.4-7.2-21.5-4.5c-9.1,4.1-7,17.3,2.5,15.5,1.8-.3,5.8-1.8,4.2-4.2-1.4-2.2-6.2.4-6.3-3.3-.1-4.7,7.4-3.6,10-.9s2.9,7.2.3,10.1h0Z"/>
  <path d="M-2552.8,595.7l8.9,23.4c4.2-.5,8.5-1.1,12.7-1.8,2.7-.4,10.2-2.5,12.2-1.9,1.5.4,1.9,2.5,1.5,3.8-.5,1.5-8,5.7-9.9,6.9-3.7,2.5-7.4,5.2-11,7.9,2.2,8.8,5.4,17.4,7.2,26.2.7,3.5,2.1,8-3.5,6.8-6.9-6.6-14.3-12.7-22.1-18.2-.7,0-4,2.8-4.8,3.5-5,4.3-10.4,11.2-15.3,14.9-2.7,2-5.7,1-5.2-2.6.9-6.5,6.2-16.5,8.2-23.3.3-.9.5-1.8.6-2.7-6.8-4.1-13.8-7.8-21-11-4.2-7.3,7.2-5,11.5-5.2.9,0,1.7-.4,2.5-.4,4.5-.2,9.1,0,13.6-.5l9.2-25c.7-1.9,3-1.7,4.6-.9h0ZM-2554.3,606.1c-1.1-.2-.7,0-.9.6-2,4.3-3.1,9.7-5,14.1l10.5-.8-4.6-13.8h0ZM-2562.6,627.2l-3,8.8,8.2,5.2c1.5-1.3,11.6-8.5,11.8-9.5.2-.7-1.5-6.1-2.3-6.4l-14.7,1.7h0ZM-2569,627.5c-3.3.4-6.6.2-9.9.4-.5,0-1.2-.3-1,.4l9.2,4.6,1.7-5.5h0ZM-2538.4,655.6l-5.2-17.6-8.6,6.9,13.8,10.7ZM-2562.3,645.9c.8-1.1-4.7-3.3-5.2-4.2l-4.8,12.6c.8.2,1-.4,1.5-.8,2.5-2.1,5.2-4.9,7.6-7.1.3-.3,1-.4,1-.4h0Z"/>
  <path d="M-2440.2,445.4c.1.2,3.4,2.1,4.1,2.8,5,4.4,7.7,10.1,8.4,16.8.2,1.6-.4,4.5,0,5.8,0,.2,2.9,2.5,3.6,3.5,4.2,5.6,4.4,12.5,3.3,19.1-.5,3.2-2.1,12.1-6.3,11.6-6-.9-1-9.5-.4-13.2.8-4.6.7-9.8-2.6-13.5-3.6,4.9-7.3,12.2-13.9,13.3-9.4,1.6-14.1-9.6-9.1-16.6,4-5.7,11.7-7,18.2-6.7.4-4.5-.9-8.6-3.6-12.1-.5-.6-3.4-3.8-3.9-3.4-2.4,8.6-15.6,19.6-24.1,12.6-5.9-4.9-4.8-13.8.9-18.5,5.1-4.1,11.9-5.1,18.2-4.2.3-7.6-5.8-14.4-12.7-16.9-9.2-3.3-18.3-1.2-26.6,3.4-1.7,1-5.8,4.3-7.1,4.6-3.7.8-5.8-3-3.3-5.8,3.6-3.9,14.7-8.9,19.9-9.9,16.6-3.2,34.8,4.5,36.9,22.7.1,1.1-.3,4.1,0,4.7h0ZM-2448.7,449.7c-5-1.6-15.5,1-14.7,7.7.2,1.2,1.1,2.8,2.4,3.1,4,.9,11.7-6.7,12.3-10.8h0ZM-2437,475.3c-3.3-.4-10.2,1.1-10.8,4.9-.8,4.8,2.3,5.5,5.6,2.6.7-.7,5.8-7,5.2-7.5Z"/>
  <path d="M-2366.6,598.3c26.3-1.6,43.1,17,41.2,42.9-2.8,38-65.2,35-76,.5-7.5-23.8,12.2-42,34.8-43.4ZM-2369.1,603.3c-20.6,2-35.8,21.2-26,41.2,12.3,25,63.1,28.2,65.1-5.5,1.4-23.9-16-38-39.1-35.7h0Z"/>
  <path d="M-2519.5,525.2v2.1h-7.1c1.1,2.6-.2,5.7.9,8.3,1.2.8,8.9-1.4,8.3,1.1,0,.2-1.3,1.1-1.5,1.1h-6.5c0,2.8,0,5.6.4,8.4h6.9c.6,0,1.1,1.8,0,2.1-.9.2-5.4-.9-6.9-.4v12.2c1.4.5,5.2-.5,6-.4.6.1.9,1.3.7,1.6-.4.5-6.4.5-7,1.2-.5,1.7,0,3.5-.2,5.2s-1.7,2.9-2.1.9.8-4.4.4-6.5h-11.5c-.7,0-.9,5.8-1,6.9,0,.6-1.9.4-2-.4-.2-1.1,1.2-5,.8-6.5h-12s-.6.6-.6.6v8.6c0,0-1.7,0-1.7,0v-8.2c0-.5-1-.6-1.5-.7-3.8-.4-8.5.8-12.4.6-1,.7.7,6.7,0,7.4,0,0-1.6,0-1.7,0-.3-.2,0-6-.9-7.1l-11.9.8c-1.7.6,0,7.9-2.6,7.1-1.5-.5.3-5.4-.2-6.7-1.6,0-3.2,0-4.8,0-.9,0-3.8,1.1-3.1-1,.4-1.2,8.4-.5,8.4-1.7v-9.2c0-1.8-8.3,2.1-9.2,0-.4-.9,0-1.1.8-1.2,1.3-.3,7.3-.7,7.8-1.4.7-3.5-.6-7-.2-10.5h-6.5c-.8,0-2.8-2-.8-2.4.5,0,2.2.8,3.3.8,1.4,0,2.6-.6,4-.5v-9.6c-2.2-.2-5,.7-6.7-1-.2-.4.5-1,.6-1h6.1v-7.8c0-1.1,2.1-.2,2.1.4v7.3c3.6-.8,7.3-.3,10.9-.4-.3-1.1.3-7.8,1.1-8,.3,0,1,0,1.4,0l-.4,7.5c1.9,0,12.3.3,12.9-.4,0-1,0-6.7.5-7.1.2-.2,1.9,0,2.1.7s-.9,5.1-.4,6.5h13.4v-6.5c0-.8,2.1-.8,2.1,0v6.5l12.2.4c-.3-1.2,1-8.2,2.7-7.9,2.1.4.2,2.6,0,3.3s-1.1,5,0,5h6.5ZM-2542.6,535.2v-7.3c0-.1-.5-1.4-.7-1.5-4.4.2-8.9-.5-13.2.7l1.2,7.6,12.6.6h0ZM-2540.5,526.5v7.8c0,.1.6.6.4,1h12.2l-.8-8.4-11.7-.4h0ZM-2558.5,526.9h-12.4c-1.2,0,0,7.2.2,8.1.5.7,11.2,0,13-.2.2-2.7-.2-5.4-.8-8h0ZM-2584.5,527.7v9.2c3.8-.8,7.8-1,11.6-1.7.6-.9-.8-6.4-.2-8l-11.3.4h0ZM-2557.3,537l-13.4.4.8,11.7,13.8-1.3-1.3-10.9ZM-2542.2,536.9h-12.4c-.2,0-.7.7-.6,1l.8,9.9c1.7,0,12.4-.2,12.8-.8.8-1.1-1.3-8.2-.7-10.1h0ZM-2527.1,546.6c0-1.3-.2-8.6-.8-9l-12.2-.6.4,10.1,12.6-.4h0ZM-2571.6,549.1c-.3-1.6-.7-11.2-1.2-11.5-3.9.2-7.8.8-11.7,1.5-.1,3.6-.2,7.3.4,10.8l12.5-.8h0ZM-2538.8,560h11.7c.6-3.9.4-7.8.4-11.7l-12.6.8.4,10.9h0ZM-2542.8,549.5c-3,.3-6.9,0-10.1,0s-.7,3.5-.6,4.8c0,2,0,4.1,0,6.1l12.6-.4c0-3.7.1-7.3-.4-10.9-.6-.2-1.2.4-1.5.4h0ZM-2569.9,550.8v10.5l14.7-.8c.2-3.5-.7-7-.4-10.5l-14.3.8h0ZM-2571.5,551.2l-12.6.8v9.8c0,.2.7.7,1,.6,3.3-.8,7.2-.2,10.5-.8.3,0,1-.3,1-.6v-9.8h0Z"/>
  <path d="M-2443.6,256.6c0,.6.8,2,1,2.7.8-.2,3.6-4.2,3.8-5,.7-2.2-1.4-2.3-1.8-4.1-2.1-9,10.5-8.3,4.9,1.6,3.8.5,4.4-4.2,7.9-4.9s3.9,1.6,4.1,1.6c1,0,2.8-3.1,4.5-1.1.7.8-2.8,9.5-2.1,12.1.5,1.9,2.6-1.2,3-2,.6-1.1-.2-1.9,1.6-1.5.9,4.6-6,9.6-8.4,4.2-1.6.4-2.5,2.3-4.5,2.4-4.7.4-4.8-6.5-3.9-9.6-.8.7-2.4.2-2.9.5-.3.2-2.5,4.5-3.4,5.6-4.4,5.2-7,3.9-7.5-2.7-2,1.8-2.9,5.7-6.1,5.9-6,.4-2.8-7.1-2.7-10.3,0-.4.3-1.9-.6-1.5-.8.3-3.3,4.4-3.8,5.4-.6,1.2-1.8,6-2.5,6.2-2,.7-3.1-.5-3.1-2.5-2.4,2.6-6.3,4.4-7.8,0-1.7,2-4.5,4-7,1.9-1.1-.9-1.1-2.4-2.1-3.2-3.7,7.9-15,8.9-18-.2-3.3-9.9,4.2-22.3,15.3-20.7,6.5.9,5.8,9.7-.2,10-.6-.6,4.3-8.6-2.3-8-3.9.4-7.4,5.8-8.4,9.2-3.5,12.6,7.1,18.6,13.7,6.6,1.6-2.9,2-6.6,5.6-8.2,3.9-1.7,3.9,1,5,1.2.7.1,2.7-2.8,4.2-1.2.9,1.2-2.4,9.1-1.9,12,.1.6-.2.7.6.6,2.6-.1,4.6-6.6,5-8.8.4-1.7-.4-4.5,2.5-4.2,2.5.2,1,5,1.7,5,1.1-1.9,3.4-5,5.9-5.1,5-.1,1.1,8.6,1.1,11.1,0,4,3.8-1.5,4.3-3.2,1.2-3.5,0-8.8,5.2-8,.3,3.1-.4,6.8,0,9.9h0ZM-2475.8,249.9c-1.8,1.4-4.4,9.6-1.1,10,2.1.2,3.8-6.2,3.9-7.9,0-1.8-.9-3.6-2.7-2.1h0ZM-2427,259.2c1.3-1.2,3.9-9.2,1.5-9.9-4.5-.3-5.9,14-1.5,9.9Z"/>
  <path d="M-2336.2,552.5c.1,2.3,1.4,4.3,1.6,6.8.9,9.8-3.4,17.8-13.3,19.8-7.4,1.5-12.6-2.1-17.7-7-2.2,4.3-7.3,8.3-12,9.6-13.5,3.8-22.6-9.9-17.3-21.9.8-1.8,2.1-3.1,2.9-4.9-10.1-1.8-13.3-11.6-10.5-20.7,1.5-4.8,7.1-8.1,11.7-9.3,1.5-.4,6.5-.7,7-1.1.3-.2.9-2.8,1.3-3.5,2.5-4.8,8.6-11.2,14.2-11.8,8.3-.9,17.4,7.2,18.6,15.3.8.5,5.1-.6,6.5-.7,20.4-1.1,23.1,20.7,7,29.4h0ZM-2355.8,517.5c-6.8-8.7-15.9-7.6-22.2,1-2.3,3.1-1.9,4.4-3,7.5-.7,2.2-2.4.8-4.1.9-4,.2-11.9,2.9-13.9,6.7-3.3,6.1-1.6,14.7,4.9,17.8,1.3.6,6.4,1.6,6.6,2.2.4,2.4-2.1,3.2-3.5,5.2-5.5,8.2-1.5,21.1,9.5,20.8,4.4-.1,9.5-3.6,12.2-7,.9-1.1,2.2-4.6,3.4-4.5,1.2,0,2.2,2.3,3.1,3.1,5.5,5.2,11.6,7.3,18.8,3.6,6.2-3.2,7.6-12.2,5.7-18.4-.4-1.1-2-3.6-1.8-4.4.2-.9,4.3-3,5.4-3.8,11-9.2,6.2-22.8-8.6-22-1.9,0-8,1.8-9,1.1-.3-.2-.7-4.1-1-5.2-.6-1.9-1.4-3-2.5-4.4h0Z"/>
  <path d="M-2459,383.6c-3.7,4.1-6.3,11.3-7.9,16.6-.6,1.9-1,6.3-1.7,7.5-.4.7-1.7,1.4-2.4,1.2-2-.5-2.1-6.8-2.6-8.8-2.3-9.2-7.9-15.6-16.3-19.8-1.7-.8-7.9-2.5-8.2-3.6-1-3.3,4.2-3.6,6.3-4.4,11.3-4.5,13.9-12.9,17.3-23.8.6-1.9,1.9-9.5,3.4-10,3.5-1.1,3,5.3,3.6,7.6,1,4.3,3.9,13.7,6.4,17.1,3.2,4.4,11,6.3,15.7,8.6,2.5,3.9-2.4,4-4.8,5.3-2.8,1.5-6.8,4-8.9,6.4h0ZM-2464,366.5c-3.1-4.3-4.2-9.5-6.1-14.3-.2-.4-.2-1-.8-1.1-2.6,8.2-5.3,16.4-12.4,21.8-1,.8-5,2.7-5.2,3.2-.4.7,1.7,1.1,2.3,1.5,4.9,2.9,10,6.9,12.9,11.9,1.2,2.1,1.9,4.4,3.1,6.6,3.5-9.5,8-18.2,17.8-22.2l-8.1-4.3c-.9-.6-2.8-2.2-3.5-3h0Z"/>
  <g>
    <path class="st6" d="M-1818.1,80.2c3.9.2,6.2,3.7,5.7,7.4,5,.2,8.3,4.4,6.3,9.3,5.2,2.2,4,8.3,2.2,12.5-.4.9-2,4.2-2.9,4.3-.7.1-1.3-.6-1.1-1.2,0-.3,1.4-2.2,1.8-2.8,1.6-3.2,3.8-9.9-1-11.2-1.1,2.2-4.2,7.2-6.5,8-2.3.7-3.8-1.2-3.5-3.3.4-2.6,3.6-5.2,5.9-6.1.6-.2,3.1-.7,3.3-.9.7-.6.7-3,.4-3.8-.5-1.5-3.5-3.5-5-3-.2,0-1.1,2.4-1.4,2.9-1.2,2.2-4.8,6.2-7.5,5.9s-1.8-4.3-.9-6c1.2-2.4,4.1-4.2,6.6-4.8.4,0,1.3,0,1.5-.2.4-2.2-.4-4.3-2.6-5-2.3-.8-1.7.3-2.7,2.1-1.4,2.4-6.1,8.3-9.2,5.3-4-4,5.2-9.8,8.8-9.5.3-5.8-4.7-5.7-8.9-4.7-3.2.8-5,2.5-7,4.9-1.2.4-1.9-.6-1.1-1.7,1.4-2,4.2-4.1,6.6-4.8,5.8-1.8,12.6-1.4,12.4,6.2h0ZM-1827.4,88.5c1.3.7,3.8-1.8,4.5-2.7.4-.5,2.4-3.3,2.1-3.7-2,.4-6.8,2.9-7,5.1,0,.4.1,1.2.4,1.4h0ZM-1814.9,89.5c-2.6.3-5.4,2.1-6.3,4.6-.2.5-.6,2-.2,2.3,3.1-.7,5.4-4.1,6.4-6.9h0ZM-1809.6,98.8c-2.2.4-4.9,2.1-5.6,4.3-.8,2.4.8,1.8,2,.7.5-.4,3.8-4.8,3.6-5h0Z"/>
    <rect class="st15" x="-1944.3" y="37.8" width="118.2" height="115.5" rx="-854" ry="-854"/>
    <rect class="st37" x="-1863.6" y="84.1" width="10.8" height="39.5"/>
    <circle class="st37" cx="-1858.2" cy="73.8" r="6.2"/>
    <path class="st37" d="M-1887,71.5h-13.9c0,2.3-.4,4.7-1.2,6.9l-16.3,45.2h11.4l4.1-12.5h18.3c0-.1,4.2,12.5,4.2,12.5h12.1l-18.6-52.1h0ZM-1899.9,100.9l5.9-20.2,6.2,20.2h-12.2Z"/>
    <path class="st16" d="M-1800.5,173.1c-.7.7-1.1,2.1-.3,2.8,1.6,1.6,3.5-.4,5.2-.7,8.7-1.3,9.5,9.8,2.8,11.3-2.5.5-5.7-.9-6.6-3.4-.6-1.6-.2-5.4-2.1-5.7-3.2-.4-2.3,3.8-3.2,6-.9,2.1-3.7,3.5-5.9,3.1-3.4-.5-5.5-3.3-5-6.7s3.8-5.2,7.1-4.7c1.7.3,3.3,2.2,5,.9,2.6-2.1-1.8-3.9-2.9-5.5-2.3-3.1-1.1-8.1,2.9-9,6.1-1.3,9.8,4.9,5.8,9.5-.8.9-2.1,1.3-2.7,1.9h0Z"/>
    <path class="st37" d="M-1950,171.3c-.5,1.2-2.1.6-3.1.8-3.5.6-2.5,1.2-3.2,4.4,4.8-.5,6,.6,6.6-4.6,0-.3-.2-4.4.7-3.1,0,1.8-.4,6.7,1.7,7.3l4.9.8c-1.4.5-5.1.2-6,1.3-.8,1-.7,5.1-.7,6.5-1.1,1.4-.6-3.2-.7-3.3-1.7.8-4.5-.2-5.8,1.1-1.1,1.2-.9,4.8-.9,6.3-.4.6-.7,0-.7-.5-.2-1.4.1-4.9-.9-5.8-1.3-1.2-3.9-.3-5.4-1.1l-.7,3.3c-.8-1.8.2-5.2-1.1-6.5-1.2-1.2-4-.6-5.6-1.3l4.8-1c2.5-.9,1-5,1.9-7.1.9.4-.2,2.2,1,2.6.2,0,3.6-.3,4-.4,3-.7,1.3-5.5,2.6-7.4.5,1.7-.2,6.7,1.9,7.3,1.1.3,3.2.2,4.5.4h0ZM-1957,176.4c0-5.1-2.4-4-6.3-4.8-.8,5.2,2.5,4.3,6.3,4.8ZM-1957,176.8c-3.1.8-6.8-.6-6.3,4.1,3.6-.7,6,.6,6.3-4.1ZM-1949.6,180.9c-.1-4.5-3.4-3.3-6.6-4.1.2,5.2,2.9,3.2,6.6,4.1Z"/>
    <path class="st37" d="M-1795.1,13.1c-.5,1.2-2.1.6-3.1.8-3.5.6-2.5,1.2-3.2,4.4,4.8-.5,6,.5,6.6-4.6,0-.3-.2-4.4.7-3.1,0,1.8-.4,6.7,1.7,7.3l4.9.8c-1.4.5-5.1.2-5.9,1.3-.8,1-.7,5.1-.7,6.5-1.1,1.4-.6-3.2-.7-3.3-1.7.8-4.5-.2-5.8,1.1-1.1,1.2-.9,4.8-.9,6.3-.4.6-.7,0-.7-.5-.2-1.4.1-4.9-.9-5.8-1.3-1.2-3.9-.3-5.4-1.1l-.7,3.3c-.8-1.8.2-5.2-1.1-6.5-1.2-1.2-4-.6-5.6-1.3l4.8-1c2.5-.9,1-5,1.9-7.1.9.4-.2,2.2,1,2.6.2,0,3.6-.3,4-.4,2.9-.7,1.3-5.5,2.6-7.4.4,1.7-.2,6.7,1.9,7.3,1.1.3,3.2.2,4.5.4h0ZM-1802.1,18.3c0-5.1-2.4-4-6.3-4.8-.8,5.2,2.5,4.3,6.3,4.8ZM-1802.1,18.7c-3.1.8-6.8-.5-6.3,4.1,3.6-.7,6,.6,6.3-4.1ZM-1794.7,22.7c-.1-4.5-3.4-3.3-6.6-4.1.2,5.2,2.9,3.2,6.6,4.1Z"/>
    <path class="st15" d="M-1941,33.6c-1.8,2.2-1,5.3.9,7.3,2.2,2.3,5.8.4,7.2-1.8,2.5-4-2.7-6.1-3.9-3.2-1,2.4,1.6.3,2.3.9,1.6,1.4-2.6,3.1-3.8,1.4-2.4-3.5,3.7-7.5,6.5-4.4,4.6,5-4.5,13.1-9.4,8.7-2.5-2.2-3.9-6.8-1.8-9.6,3.3-4.6,9.1-5.7,13.4-1.9,10.2,9.1-7.4,26-16.3,13.1-4.2-6.1-2.8-13.2,3.1-17.4,13.3-9.4,27.7,9.1,17.5,20.6-1.8,2-7.5,6-10.1,6-1.1,0-1.5-1.2-.5-1.7,1.1-.5,2.7-.8,4-1.5,5.4-2.7,9.6-8.3,7.9-14.5-2.6-9.7-13.5-13.3-20.2-5.1-4.3,5.2-2,13.9,4.2,16.2,3.3,1.3,8.1-1.4,10-4.1,5.6-8.2-4.8-16.8-11.1-8.9Z"/>
  </g>
  <path d="M-2558.1,711.8c2.9-2.2,6.7-8.5,9.4-10.1,1.7-1,3.5-.1,3.2,1.9-.3,1.7-8.9,9-10.1,11.3l13.7-.9c2.5,0,2.6,3.5.3,4l-14.4.9,6.7,9c1.8,2.1-.6,4.3-2.8,2.8-.6-.4-2.4-3.5-3.1-4.4-1-1.3-2.1-2.7-3.2-3.9-.2-.3,0-.8-1-.5l-.9,14.8c-.4,3.2-2.8,3.9-4.2.8l1.3-14.4-10.7,11.7c-1.3.9-3.2.3-3.2-1.4,0-2.4,9.6-10.3,11-13.2-.6-.5-12.7,2.4-14.9,2.1s-2.2-2.7-.6-3.6c.5-.3,1.4-.4,2-.5,4.6-1,10.1-1.3,14.8-1.8.5-.4-1.7-2.4-2.1-2.7-1.3-1.3-7.2-5.2-7-6.6,0-.7,1-1.9,1.8-2,1.8-.2,7.9,6.3,9.8,7.6.9-4.2.3-9.5,1.5-13.5.4-1.5,2.7-1.5,3.4-.4,1.1,1.9-1.2,10.3-.6,13h0Z"/>
  <path d="M-2433.6,372.1c-.6,0-1.4.2-1.9-.4-.3-.5-1.2-4.6-1.7-5.9-1.5-3.6-4.1-6.2-7.4-8.1-1-.6-5.4-2.3-5.4-2.6s0-1.1,0-1.4c.2-.2,4.4-1.5,5.5-2.2,6.4-4.2,6-10.6,8.6-16.5.7-1.5,1.6-1.5,2.1,0,1.9,5.5,1.7,11.1,7.3,14.5,1.2.7,6.2,2.4,6.2,3.5s-4.7,2.9-5.9,3.8c-4.4,3.4-6.7,9.9-7.6,15.3h0Z"/>
  <path d="M-2494.3,633.9c.4-.3,5.5-1.2,6.5-1.3,11.9-1.5,26.6.2,39,0,5.4,0,10.5.5,15.5.4,2.5,0,7.7-2.1,9.4-.6,1,.8,1.1,2.1.2,3.1-.6.7-6.2,1.6-7.5,1.7-6.6.5-16,0-23,0-10,0-20.9-1.1-30.6-.5-2.2.2-7.4,1.7-8.9,1-1.3-.6-1.2-3.1-.4-3.8h0Z"/>
  <path d="M-2459.7,617.1c7.4-.6,12.2.8,19.2,1.5,4.6.5,10.9-.2,15.1.5,3.5.6,2.9,4.6-.4,4.6s-9.5-.2-13.4-.4c-4.5-.3-9.3-1.9-13.8-2.1-6.8-.2-13.2,2.2-20.1,1.7-2.9-.2-6.3-1.3-9.2-1.3-3.4,0-7.5,1.3-10.9,1.7-5-3.7.9-4.8,4.3-5.4,7.9-1.3,12.9,1,19.6.8,3.1-.1,6.6-1.3,9.8-1.6h0Z"/>
  <path d="M-2494.7,650.9c-2.7-2.7,2.8-4,4.7-4.1,9.1-.7,21.5-.8,30.6-.4,9.9.4,19.2,1.8,29.3.8,2-.2,6.7-2.6,6.9,1.1.1,2.3-4.3,3-6.1,3.1-11.3,1-21.2-.5-32.3-.8-10.1-.3-20.5.6-30.6.9-.7,0-2.1,0-2.6-.5h0Z"/>
  <path d="M-2371,463.4c-.1-.1-2-3.2-2.1-3.6-1.8-4.5-1-9.6,3.1-12.6,3-2.2,4.6-2.6,8-1,7.1,3.5,9.6,12.7,2.6,17.9-2.5,1.8-5,2.3-7.9,1.3-.5-.2-3.4-1.8-3.7-2h0ZM-2360.8,457.6c1.4-3.2-3.1-8.7-6.8-5.7-2.7,2.2-1,10.2,4.4,8.5,1.5-.5,1.2-1.4,1.7-2.4.1-.3.6-.3.7-.4h0Z"/>
  <path d="M-2400.2,450.7c1.8-.1,4.4.7,6.2.7,3.9.1,14.1-1.9,12.7,4.3-.6,2.6-3.8,2.7-6,2.8-3,.1-10.5-.4-13.3-.9-4.3-.9-3.6-6.6.4-6.9h0Z"/>
  <path d="M-2359.9,494.5c-1.2,1-3.9.7-4.9-.5-1.2-1.5-.3-6.4-.4-8.8-.1-2.2-1.4-6.2-1.2-7.9.3-3,4.9-4.1,6.4-1,1.1,2.4,1.8,10.8,1.6,13.5,0,1.2-.5,4-1.4,4.7h0Z"/>
  <path d="M-2362.4,418.4c1,1.3.4,5.4.5,7.2.2,2.6,1.2,7.3.8,9.6-.6,3.8-5.6,3.4-6.6.4-.7-2.2-1.3-12.6-.9-15,.5-3.1,4.3-4.5,6.1-2.2h0Z"/>
  <path d="M-2568.2,278c.6-1.9,7.9-1.1,9.5.6,3.1,3.3.2,5.2.2,7.4,0,1.2,2.5,3.5.4,4.6-3.6,1.8-2.5-5.2-6.3-3.6-.1.9.3,3.1-.4,3.6s-3.4.5-3.4-.9c0-2.2-.5-10.3,0-11.7h0Z"/>
  <path d="M-2326,455.5c-.4.4-1.7.8-2.2.9-2.9.5-10.6,1.3-13.3,1.1-3-.1-4.7-3.4-2.6-5.7.8-.8,2.6-1.1,3.8-1.3,2.5-.4,9.9-1.1,12.2-.9,2.9.4,4.3,3.6,2.2,5.8h0Z"/>
  <path d="M-2503.8,279.2c3.4,3.6,1.7,10.5-3.1,11.5-1,.2-5.7.3-6.4-.1-1.2-.7-1.2-12.1-.3-13.1,1.4-1.7,8.2,0,9.8,1.7h0ZM-2510.3,280.7v6.7c6.4.7,6.5-7.7,0-6.7Z"/>
  <path d="M-2446.4,290.8c-.5-.2-.6-1-.6-1.5-.2-1.9-.3-9.2,0-10.9.4-2.3,5.6-1.4,7.2-.9,5.4,1.7,6.3,8.7,1.8,12-.3.2-2,1.3-2.1,1.3-1.4,0-5.4.3-6.3,0h0ZM-2443.6,280.7v6.7c6.7.6,6.9-7.6,0-6.7Z"/>
  <path d="M-2469.2,289.8c-.3,2-2.4.7-3.6.7-2.2,0-3.5,1.1-5.4-1.4-3-3.8.5-9.4,5.2-8,0-.8,0-4.2.5-4.6s3.3-.4,3.3,1c0,3.4.5,9.1,0,12.2h0Z"/>
  <path d="M-2346.3,277.8c-1.6-1,.9-9.1,1.4-10.8.5-1.6,2.5-7.1,3.9-7.5,6.8-2,1.6,10.8.4,13.4-.8,1.7-3.3,6.4-5.6,5h0Z"/>
  <path d="M-2363.1,235.9c1.3.5,5.8,1.9,6.6,2.6.4.3.7,1.5.4,2-1.3,1.9-6.6-2.4-8.4-2.1-1,.2-1.8,9.1-4.5,6.1-1.2-1.3,1.3-5.6,2.1-7.1-1-1.2-6.7-1.8-5.7-4,1.2-2.4,4.8,1.4,6.7.8,1.5-.5,2.1-6.6,4.6-5.8s-2.5,6.6-1.8,7.5h0Z"/>
  <path d="M-2385.5,281.3c.9.9.7,8.7-.3,9.3-.2.1-5.1.3-5.6.2-5-.7-4.8-9.5.5-9.8.9,0,1.4.5,2,.5.9,0,2.2-1.5,3.4-.2h0Z"/>
  <path d="M-2345.2,222.9c1.1,1.7-2.8,5.6-2.4,6.8,1,1.4,7.6,2.6,7,4.6-.8,3.2-6.9-1.9-8.8-1.8-.4.3-1.5,5.8-1.9,6.3s-1.9.6-2.3.3c-1.5-.9,1.6-6.2,1.6-7.6-.1-.7-5.3-1.4-5.4-3.3-.1-3.2,6.1,1.2,7,.5.3-1.2,3.5-8.2,5-5.8h0Z"/>
  <path d="M-2378.7,241.3c1.5.9,8,2.6,6.9,4.6-1.3,2.4-6.6-2.7-8.2-1.9-1.7.8-1.5,8.3-4.2,6.3-1.5-1.1,1.1-6.4,1.7-7.8-1.4-.7-5.1-1.3-5.5-2.7-1-4.1,6,.7,6.7.2.5-1.4,2.6-6.8,4.4-6.3,2.7,1.2-2.5,6.7-1.8,7.5h0Z"/>
  <path d="M-2367.5,280.8c7.5-1.5,8.8,9.9,1.5,10.3-6.5.4-7.4-9.1-1.5-10.3Z"/>
  <path d="M-2410.6,280.8c6-1.2,8.9,6.8,4,9.5-7.2,4-11.5-8-4-9.5Z"/>
  <path d="M-2497.4,280.8c7.6-1.5,8.9,9.9,1.5,10.3-6,.3-7.5-9.1-1.5-10.3Z"/>
  <path d="M-2486.1,280.8c6.2-1,8.2,6.9,3.6,9.5-7.3,4.1-11.3-8.3-3.6-9.5Z"/>
  <path d="M-2526,280.8c7.4-1.7,8.9,9.5,1.9,10.3-6.2.7-7.8-9-1.9-10.3Z"/>
  <path d="M-2453.4,282.1c.7.9,1.3,3.5.4,4.4-1,1-4.4.4-5.8.5,1.4,2.3,5-1,5.7,2,.5,2.5-6.4,3.3-8.5-.2-3.8-6.2,4.9-10.6,8.2-6.7h0Z"/>
  <path d="M-2553.1,287c1.2,2,4.7-.6,5.4,1.5s-1.3,2.5-3.1,2.6c-5.8.3-8.4-6.7-3.8-9.6,6.7-4.3,12.5,7.4,1.5,5.5h0Z"/>
  <path d="M-2430.7,287c1.2,2.2,4.6-.8,5.4,1.6,1,3.3-4.7,2.9-6.9,1.8-1.6-.8-2.4-3.1-2.3-4.8.2-6.1,10.4-6.6,9.7-.4-.3,3-3.7,1.6-5.9,1.9h0Z"/>
  <path d="M-2360.2,281.8c.3-1,3.5-1.2,3.6.2,2.6-2.7,5.7-.1,6.3,2.9.5,2.4.9,7.5-2.8,5.7-2-1,.7-7.1-2.7-6-1.5.5,0,4.4-1,5.7-.8,1-3.4.7-3.4,0,0-1.7-.3-7.3,0-8.4h0Z"/>
  <path d="M-2565.8,253.2c.7.7,3.7,10.6,3.8,11.9.2,2.9-2.4,4.2-4.3,2.1-.3-2.6-4.4-11.3-3.4-13.3.6-1.2,2.9-1.7,3.9-.7h0Z"/>
  <path d="M-2328.9,275.4c1.3-.2,2.3,1.5,2.2,2.6-.2,3.1-4.2,4.7-6.6,5.6-2.1.8-8.1,3.4-6.7-1.3.4-1.4,9.6-6.7,11.1-7Z"/>
  <path d="M-2379.5,277.8c.1.1-.1,2.9.5,3.3.1.1,2.1-.9,2.5,1.1.6,3.2-2.1,2-2.5,2.3-.1,0-.3,2.3,0,2.7.5.7,1.8-.3,2.2,1.3.5,2.5-1.4,2.7-3.5,2.2-3.2-.7-1.9-4.2-2.4-5.9-.1-.5-1.4.1-1.7-1.3-.6-2.7,1.6-2.1,1.7-2.6.2-.7-.3-2,.1-2.7.4-.5,3.1-.5,3.2-.4h0Z"/>
  <path d="M-2541.3,281.2c.4.4,2.8-1.1,2.9,1.5.2,3.1-2.5,1.4-2.9,1.9,0,.1,0,2.8,0,2.9.2.2,2.2-.4,2.4,1.5.2,2.4-3.9,2.4-5.1,1-1.3-1.5-.2-3.8-.6-5.2-.2-.5-1.4.1-1.7-1.3-.7-3.5,1.3-2,1.7-2.3.1-.1-.1-2.7,0-3.4,4.8-1.1,2.8,2.9,3.3,3.4h0Z"/>
  <path d="M-2420.1,287c1.9,1.1,3.8-1.8,4.8,1.3s-5.3,3.3-7.4,1.1c-4.2-4.4,2.1-11,6.5-7.8,1,.8,1.5,2,.4,3-1.5,1.4-5.1-2-4.4,2.5h0Z"/>
  <path d="M-2580.5,262.8c.8-.2,1.8-.2,2.5.3,1.2,2.6,9.3,7.4,6,10.3-2.6,2.2-6.5-3.1-7.9-5-1-1.4-3.3-4.8-.5-5.6Z"/>
  <path d="M-2578,279.2c1.8,1.7.8,4.6-1.7,4.5-.9,0-8.2-3.2-8.4-3.8-.4-.8-.3-2.6.3-3.2,2-2,7.4,2.4,9.8,2.5h0Z"/>
  <path d="M-2464.6,287.4c.2.2,1.3,0,1.6.7,1.2,3.3-3.3,3.3-4.5,2.2s-1-13.2-.5-13.7c.1-.1,3-.3,3.3.7.5,1.6-.4,9.6.1,10.2h0Z"/>
  <path d="M-2534.2,284.6c-.5.8.5,4.7-.4,6-.3.5-2.6.4-3,0-.5-.4-.6-8.3-.2-9,1-1.7,2.7-.2,3.4,0,.6,0,4.6-2,4.3,1-.3,3.4-3.6,1.2-4.1,2h0Z"/>
  <path d="M-2403.4,281.8c.5-1.7,2.9-.4,3.6-.4s4.2-1.8,4.3.9c.1,3.7-3.4,1.3-4,2.3-.5.7.5,5.6-.5,6.2-.5.3-3.3.1-3.3-.6,0-1.7-.4-7.2,0-8.4h0Z"/>
  <path d="M-2375.7,281.8c.4-1.4,3.4-.7,3.4,0v8.4c0,.9-3.4.9-3.4,0,0-1.7-.4-7.2,0-8.4Z"/>
  <path d="M-2455.4,721v5.9c.7,0,.3-1.1.8-1.9.9-1.5,3.5-1.8,5-1.1,1.2.6,1.1,2.5,2,2.2.4-.1.2-1,.6-1.5,1.4-1.8,4.7-.5,6.7-1v7.1c-2.2-.5-4.7.8-6.5-.9-.5-.5-.9-1.7-1.2-2-.5-.4-3.8.6-4.7-.1.1,1.7,3.5,0,4.4.8-1.4,3.5-6.2,2.7-6.9-.8-.3,1.7.3,4.2-2.3,2.7-.5-.2.6-8.2-.4-9.4h2.5Z"/>
  <path d="M-2478.6,722c2.3,2.1,2.7,7.9-.4,9.2-2.4,1-2.5-2-2.8-2.2-.2-.2-4.3,1.8-4.2-2.7,0-3.4,3.6-2.2,5.9-2.7-3.7-4-9.5,2.5-5.7,6.2,1.4,1.3,3.8.5,3.2,3.1-4.9,0-8.1-5.8-5-9.8,2-2.7,6.6-3.2,9.1-.9h0Z"/>
  <path d="M-2439.9,723.5h6.7v-2.5h2.1c0,.5-.1,2.4,0,2.5.4.4,2.2-1.1,1.7,1.8-.1.6-1.5,0-1.7.2-.2.2.1,4.2,0,5h-2.1c-.1-.8.2-4.9,0-5-.4-.4-2,1-1.9-1.7,0,2.3-.8,1.3-1.7,2.1-1.1.9-.4,3.3-.6,4.7h-2.5v-7.1h0Z"/>
  <path d="M-2468.8,723.5v7.1c-3.1-.3-7.5,1-7.6-3.6s4.6-3.3,7.6-3.6Z"/>
  <path d="M-2386.1,614.2c1.9-1.7,9.1-5.3,10.5-2.2,1.8,4-3.3,3.5-5.5,4.6-3,1.6-4.6,4.9-5.4,8-.7,2.5-.4,8.6-3.9,7.7-2.9-.7-1.6-5.2-1.1-7.3.7-3.6,2.6-8.2,5.4-10.8Z"/>
  <path d="M-2389.5,644.1c-2.3-1.8-4.6-8.9-.3-8.7,2.5.1,2,2.2,2.6,3.7.4,1,1.7,1.5,1.8,2.9.1,2.1-2.4,3.5-4.1,2.2h0Z"/>
  <path d="M-2355.7,547.5c3.8-1.1.6,4.6-.4,6-3.9,5.2-10.2,6.3-16,3.6-1.9-.9-7.2-5.1-4.7-7.1,1.7-1.4,2.5,1.5,3.4,2.6,3.9,4.4,11.6,3.9,15.1-.9.8-1,1.5-3.8,2.6-4.1h0Z"/>
  <path d="M-2376.7,536.2c4.1-.2,4,6.8.4,7-4.4.3-5.7-6.8-.4-7Z"/>
  <path d="M-2355.3,536.2c4-.2,4.9,6.9.3,7-4.1.2-5-6.8-.3-7Z"/>
  <g>
    <path class="st6" d="M-1818.1,80.2c3.9.2,6.2,3.7,5.7,7.4,5,.2,8.3,4.4,6.3,9.3,5.2,2.2,4,8.3,2.2,12.5-.4.9-2,4.2-2.9,4.3-.7.1-1.3-.6-1.1-1.2,0-.3,1.4-2.2,1.8-2.8,1.6-3.2,3.8-9.9-1-11.2-1.1,2.2-4.2,7.2-6.5,8-2.3.7-3.8-1.2-3.5-3.3.4-2.6,3.6-5.2,5.9-6.1.6-.2,3.1-.7,3.3-.9.7-.6.7-3,.4-3.8-.5-1.5-3.5-3.5-5-3-.2,0-1.1,2.4-1.4,2.9-1.2,2.2-4.8,6.2-7.5,5.9s-1.8-4.3-.9-6c1.2-2.4,4.1-4.2,6.6-4.8.4,0,1.3,0,1.5-.2.4-2.2-.4-4.3-2.6-5-2.3-.8-1.7.3-2.7,2.1-1.4,2.4-6.1,8.3-9.2,5.3-4-4,5.2-9.8,8.8-9.5.3-5.8-4.7-5.7-8.9-4.7-3.2.8-5,2.5-7,4.9-1.2.4-1.9-.6-1.1-1.7,1.4-2,4.2-4.1,6.6-4.8,5.8-1.8,12.6-1.4,12.4,6.2h0ZM-1827.4,88.5c1.3.7,3.8-1.8,4.5-2.7.4-.5,2.4-3.3,2.1-3.7-2,.4-6.8,2.9-7,5.1,0,.4.1,1.2.4,1.4h0ZM-1814.9,89.5c-2.6.3-5.4,2.1-6.3,4.6-.2.5-.6,2-.2,2.3,3.1-.7,5.4-4.1,6.4-6.9h0ZM-1809.6,98.8c-2.2.4-4.9,2.1-5.6,4.3-.8,2.4.8,1.8,2,.7.5-.4,3.8-4.8,3.6-5h0Z"/>
    <rect class="st15" x="-1944.3" y="37.8" width="118.2" height="115.5" rx="-854" ry="-854"/>
    <rect class="st37" x="-1863.6" y="84.1" width="10.8" height="39.5"/>
    <circle class="st37" cx="-1858.2" cy="73.8" r="6.2"/>
    <path class="st37" d="M-1887,71.5h-13.9c0,2.3-.4,4.7-1.2,6.9l-16.3,45.2h11.4l4.1-12.5h18.3c0-.1,4.2,12.5,4.2,12.5h12.1l-18.6-52.1h0ZM-1899.9,100.9l5.9-20.2,6.2,20.2h-12.2Z"/>
    <path class="st16" d="M-1800.5,173.1c-.7.7-1.1,2.1-.3,2.8,1.6,1.6,3.5-.4,5.2-.7,8.7-1.3,9.5,9.8,2.8,11.3-2.5.5-5.7-.9-6.6-3.4-.6-1.6-.2-5.4-2.1-5.7-3.2-.4-2.3,3.8-3.2,6-.9,2.1-3.7,3.5-5.9,3.1-3.4-.5-5.5-3.3-5-6.7s3.8-5.2,7.1-4.7c1.7.3,3.3,2.2,5,.9,2.6-2.1-1.8-3.9-2.9-5.5-2.3-3.1-1.1-8.1,2.9-9,6.1-1.3,9.8,4.9,5.8,9.5-.8.9-2.1,1.3-2.7,1.9h0Z"/>
    <path class="st37" d="M-1950,171.3c-.5,1.2-2.1.6-3.1.8-3.5.6-2.5,1.2-3.2,4.4,4.8-.5,6,.6,6.6-4.6,0-.3-.2-4.4.7-3.1,0,1.8-.4,6.7,1.7,7.3l4.9.8c-1.4.5-5.1.2-6,1.3-.8,1-.7,5.1-.7,6.5-1.1,1.4-.6-3.2-.7-3.3-1.7.8-4.5-.2-5.8,1.1-1.1,1.2-.9,4.8-.9,6.3-.4.6-.7,0-.7-.5-.2-1.4.1-4.9-.9-5.8-1.3-1.2-3.9-.3-5.4-1.1l-.7,3.3c-.8-1.8.2-5.2-1.1-6.5-1.2-1.2-4-.6-5.6-1.3l4.8-1c2.5-.9,1-5,1.9-7.1.9.4-.2,2.2,1,2.6.2,0,3.6-.3,4-.4,3-.7,1.3-5.5,2.6-7.4.5,1.7-.2,6.7,1.9,7.3,1.1.3,3.2.2,4.5.4h0ZM-1957,176.4c0-5.1-2.4-4-6.3-4.8-.8,5.2,2.5,4.3,6.3,4.8ZM-1957,176.8c-3.1.8-6.8-.6-6.3,4.1,3.6-.7,6,.6,6.3-4.1ZM-1949.6,180.9c-.1-4.5-3.4-3.3-6.6-4.1.2,5.2,2.9,3.2,6.6,4.1Z"/>
    <path class="st37" d="M-1795.1,13.1c-.5,1.2-2.1.6-3.1.8-3.5.6-2.5,1.2-3.2,4.4,4.8-.5,6,.5,6.6-4.6,0-.3-.2-4.4.7-3.1,0,1.8-.4,6.7,1.7,7.3l4.9.8c-1.4.5-5.1.2-5.9,1.3-.8,1-.7,5.1-.7,6.5-1.1,1.4-.6-3.2-.7-3.3-1.7.8-4.5-.2-5.8,1.1-1.1,1.2-.9,4.8-.9,6.3-.4.6-.7,0-.7-.5-.2-1.4.1-4.9-.9-5.8-1.3-1.2-3.9-.3-5.4-1.1l-.7,3.3c-.8-1.8.2-5.2-1.1-6.5-1.2-1.2-4-.6-5.6-1.3l4.8-1c2.5-.9,1-5,1.9-7.1.9.4-.2,2.2,1,2.6.2,0,3.6-.3,4-.4,2.9-.7,1.3-5.5,2.6-7.4.4,1.7-.2,6.7,1.9,7.3,1.1.3,3.2.2,4.5.4h0ZM-1802.1,18.3c0-5.1-2.4-4-6.3-4.8-.8,5.2,2.5,4.3,6.3,4.8ZM-1802.1,18.7c-3.1.8-6.8-.5-6.3,4.1,3.6-.7,6,.6,6.3-4.1ZM-1794.7,22.7c-.1-4.5-3.4-3.3-6.6-4.1.2,5.2,2.9,3.2,6.6,4.1Z"/>
    <path class="st15" d="M-1941,33.6c-1.8,2.2-1,5.3.9,7.3,2.2,2.3,5.8.4,7.2-1.8,2.5-4-2.7-6.1-3.9-3.2-1,2.4,1.6.3,2.3.9,1.6,1.4-2.6,3.1-3.8,1.4-2.4-3.5,3.7-7.5,6.5-4.4,4.6,5-4.5,13.1-9.4,8.7-2.5-2.2-3.9-6.8-1.8-9.6,3.3-4.6,9.1-5.7,13.4-1.9,10.2,9.1-7.4,26-16.3,13.1-4.2-6.1-2.8-13.2,3.1-17.4,13.3-9.4,27.7,9.1,17.5,20.6-1.8,2-7.5,6-10.1,6-1.1,0-1.5-1.2-.5-1.7,1.1-.5,2.7-.8,4-1.5,5.4-2.7,9.6-8.3,7.9-14.5-2.6-9.7-13.5-13.3-20.2-5.1-4.3,5.2-2,13.9,4.2,16.2,3.3,1.3,8.1-1.4,10-4.1,5.6-8.2-4.8-16.8-11.1-8.9Z"/>
  </g>
  <g>
    <path class="st6" d="M-1598.1,80.2c3.9.2,6.2,3.7,5.7,7.4,5,.2,8.3,4.4,6.3,9.3,5.2,2.2,4,8.3,2.2,12.5-.4.9-2,4.2-2.9,4.3-.7.1-1.3-.6-1.1-1.2,0-.3,1.4-2.2,1.8-2.8,1.6-3.2,3.8-9.9-1-11.2-1.1,2.2-4.2,7.2-6.5,8-2.3.7-3.8-1.2-3.5-3.3.4-2.6,3.6-5.2,5.9-6.1.6-.2,3.1-.7,3.3-.9.7-.6.7-3,.4-3.8-.5-1.5-3.5-3.5-5-3-.2,0-1.1,2.4-1.4,2.9-1.2,2.2-4.8,6.2-7.5,5.9s-1.8-4.3-.9-6c1.2-2.4,4.1-4.2,6.6-4.8.4,0,1.3,0,1.5-.2.4-2.2-.4-4.3-2.6-5-2.3-.8-1.7.3-2.7,2.1-1.4,2.4-6.1,8.3-9.2,5.3-4-4,5.2-9.8,8.8-9.5.3-5.8-4.7-5.7-8.9-4.7-3.2.8-5,2.5-7,4.9-1.2.4-1.9-.6-1.1-1.7,1.4-2,4.2-4.1,6.6-4.8,5.8-1.8,12.6-1.4,12.4,6.2h0ZM-1607.4,88.5c1.3.7,3.8-1.8,4.5-2.7.4-.5,2.4-3.3,2.1-3.7-2,.4-6.8,2.9-7,5.1,0,.4.1,1.2.4,1.4h0ZM-1594.9,89.5c-2.6.3-5.4,2.1-6.3,4.6-.2.5-.6,2-.2,2.3,3.1-.7,5.4-4.1,6.4-6.9h0ZM-1589.6,98.8c-2.2.4-4.9,2.1-5.6,4.3-.8,2.4.8,1.8,2,.7.5-.4,3.8-4.8,3.6-5h0Z"/>
    <path class="st16" d="M-1580.5,173.1c-.7.7-1.1,2.1-.3,2.8,1.6,1.6,3.5-.4,5.2-.7,8.7-1.3,9.5,9.8,2.8,11.3-2.5.5-5.7-.9-6.6-3.4-.6-1.6-.2-5.4-2.1-5.7-3.2-.4-2.3,3.8-3.2,6-.9,2.1-3.7,3.5-5.9,3.1-3.4-.5-5.5-3.3-5-6.7s3.8-5.2,7.1-4.7c1.7.3,3.3,2.2,5,.9,2.6-2.1-1.8-3.9-2.9-5.5-2.3-3.1-1.1-8.1,2.9-9,6.1-1.3,9.8,4.9,5.8,9.5-.8.9-2.1,1.3-2.7,1.9h0Z"/>
    <path class="st37" d="M-1730,171.3c-.5,1.2-2.1.6-3.1.8-3.5.6-2.5,1.2-3.2,4.4,4.8-.5,6,.6,6.6-4.6,0-.3-.2-4.4.7-3.1,0,1.8-.4,6.7,1.7,7.3l4.9.8c-1.4.5-5.1.2-6,1.3-.8,1-.7,5.1-.7,6.5-1.1,1.4-.6-3.2-.7-3.3-1.7.8-4.5-.2-5.8,1.1-1.1,1.2-.9,4.8-.9,6.3-.4.6-.7,0-.7-.5-.2-1.4.1-4.9-.9-5.8-1.3-1.2-3.9-.3-5.4-1.1l-.7,3.3c-.8-1.8.2-5.2-1.1-6.5-1.2-1.2-4-.6-5.6-1.3l4.8-1c2.5-.9,1-5,1.9-7.1.9.4-.2,2.2,1,2.6.2,0,3.6-.3,4-.4,3-.7,1.3-5.5,2.6-7.4.5,1.7-.2,6.7,1.9,7.3,1.1.3,3.2.2,4.5.4h0ZM-1737,176.4c0-5.1-2.4-4-6.3-4.8-.8,5.2,2.5,4.3,6.3,4.8ZM-1737,176.8c-3.1.8-6.8-.6-6.3,4.1,3.6-.7,6,.6,6.3-4.1ZM-1729.6,180.9c-.1-4.5-3.4-3.3-6.6-4.1.2,5.2,2.9,3.2,6.6,4.1Z"/>
    <path class="st37" d="M-1575.1,13.1c-.5,1.2-2.1.6-3.1.8-3.5.6-2.5,1.2-3.2,4.4,4.8-.5,6,.5,6.6-4.6,0-.3-.2-4.4.7-3.1,0,1.8-.4,6.7,1.7,7.3l4.9.8c-1.4.5-5.1.2-5.9,1.3-.8,1-.7,5.1-.7,6.5-1.1,1.4-.6-3.2-.7-3.3-1.7.8-4.5-.2-5.8,1.1-1.1,1.2-.9,4.8-.9,6.3-.4.6-.7,0-.7-.5-.2-1.4.1-4.9-.9-5.8-1.3-1.2-3.9-.3-5.4-1.1l-.7,3.3c-.8-1.8.2-5.2-1.1-6.5-1.2-1.2-4-.6-5.6-1.3l4.8-1c2.5-.9,1-5,1.9-7.1.9.4-.2,2.2,1,2.6.2,0,3.6-.3,4-.4,2.9-.7,1.3-5.5,2.6-7.4.4,1.7-.2,6.7,1.9,7.3,1.1.3,3.2.2,4.5.4h0ZM-1582.1,18.3c0-5.1-2.4-4-6.3-4.8-.8,5.2,2.5,4.3,6.3,4.8ZM-1582.1,18.7c-3.1.8-6.8-.5-6.3,4.1,3.6-.7,6,.6,6.3-4.1ZM-1574.7,22.7c-.1-4.5-3.4-3.3-6.6-4.1.2,5.2,2.9,3.2,6.6,4.1Z"/>
    <path class="st15" d="M-1721,33.6c-1.8,2.2-1,5.3.9,7.3,2.2,2.3,5.8.4,7.2-1.8,2.5-4-2.7-6.1-3.9-3.2-1,2.4,1.6.3,2.3.9,1.6,1.4-2.6,3.1-3.8,1.4-2.4-3.5,3.7-7.5,6.5-4.4,4.6,5-4.5,13.1-9.4,8.7-2.5-2.2-3.9-6.8-1.8-9.6,3.3-4.6,9.1-5.7,13.4-1.9,10.2,9.1-7.4,26-16.3,13.1-4.2-6.1-2.8-13.2,3.1-17.4,13.3-9.4,27.7,9.1,17.5,20.6-1.8,2-7.5,6-10.1,6-1.1,0-1.5-1.2-.5-1.7,1.1-.5,2.7-.8,4-1.5,5.4-2.7,9.6-8.3,7.9-14.5-2.6-9.7-13.5-13.3-20.2-5.1-4.3,5.2-2,13.9,4.2,16.2,3.3,1.3,8.1-1.4,10-4.1,5.6-8.2-4.8-16.8-11.1-8.9Z"/>
  </g>
  <path class="st6" d="M-1378.1,80.2c3.9.2,6.2,3.7,5.7,7.4,5,.2,8.3,4.4,6.3,9.3,5.2,2.2,4,8.3,2.2,12.5-.4.9-2,4.2-2.9,4.3-.7.1-1.3-.6-1.1-1.2,0-.3,1.4-2.2,1.8-2.8,1.6-3.2,3.8-9.9-1-11.2-1.1,2.2-4.2,7.2-6.5,8-2.3.7-3.8-1.2-3.5-3.3.4-2.6,3.6-5.2,5.9-6.1.6-.2,3.1-.7,3.3-.9.7-.6.7-3,.4-3.8-.5-1.5-3.5-3.5-5-3-.2,0-1.1,2.4-1.4,2.9-1.2,2.2-4.8,6.2-7.5,5.9s-1.8-4.3-.9-6c1.2-2.4,4.1-4.2,6.6-4.8.4,0,1.3,0,1.5-.2.4-2.2-.4-4.3-2.6-5-2.3-.8-1.7.3-2.7,2.1-1.4,2.4-6.1,8.3-9.2,5.3-4-4,5.2-9.8,8.8-9.5.3-5.8-4.7-5.7-8.9-4.7-3.2.8-5,2.5-7,4.9-1.2.4-1.9-.6-1.1-1.7,1.4-2,4.2-4.1,6.6-4.8,5.8-1.8,12.6-1.4,12.4,6.2h0ZM-1387.4,88.5c1.3.7,3.8-1.8,4.5-2.7.4-.5,2.4-3.3,2.1-3.7-2,.4-6.8,2.9-7,5.1,0,.4.1,1.2.4,1.4h0ZM-1374.9,89.5c-2.6.3-5.4,2.1-6.3,4.6-.2.5-.6,2-.2,2.3,3.1-.7,5.4-4.1,6.4-6.9h0ZM-1369.6,98.8c-2.2.4-4.9,2.1-5.6,4.3-.8,2.4.8,1.8,2,.7.5-.4,3.8-4.8,3.6-5h0Z"/>
  <path class="st16" d="M-1360.5,173.1c-.7.7-1.1,2.1-.3,2.8,1.6,1.6,3.5-.4,5.2-.7,8.7-1.3,9.5,9.8,2.8,11.3-2.5.5-5.7-.9-6.6-3.4-.6-1.6-.2-5.4-2.1-5.7-3.2-.4-2.3,3.8-3.2,6-.9,2.1-3.7,3.5-5.9,3.1-3.4-.5-5.5-3.3-5-6.7s3.8-5.2,7.1-4.7c1.7.3,3.3,2.2,5,.9,2.6-2.1-1.8-3.9-2.9-5.5-2.3-3.1-1.1-8.1,2.9-9,6.1-1.3,9.8,4.9,5.8,9.5-.8.9-2.1,1.3-2.7,1.9h0Z"/>
  <path class="st37" d="M-1510,171.3c-.5,1.2-2.1.6-3.1.8-3.5.6-2.5,1.2-3.2,4.4,4.8-.5,6,.6,6.6-4.6,0-.3-.2-4.4.7-3.1,0,1.8-.4,6.7,1.7,7.3l4.9.8c-1.4.5-5.1.2-6,1.3-.8,1-.7,5.1-.7,6.5-1.1,1.4-.6-3.2-.7-3.3-1.7.8-4.5-.2-5.8,1.1-1.1,1.2-.9,4.8-.9,6.3-.4.6-.7,0-.7-.5-.2-1.4.1-4.9-.9-5.8-1.3-1.2-3.9-.3-5.4-1.1l-.7,3.3c-.8-1.8.2-5.2-1.1-6.5-1.2-1.2-4-.6-5.6-1.3l4.8-1c2.5-.9,1-5,1.9-7.1.9.4-.2,2.2,1,2.6.2,0,3.6-.3,4-.4,3-.7,1.3-5.5,2.6-7.4.5,1.7-.2,6.7,1.9,7.3,1.1.3,3.2.2,4.5.4h0ZM-1517,176.4c0-5.1-2.4-4-6.3-4.8-.8,5.2,2.5,4.3,6.3,4.8ZM-1517,176.8c-3.1.8-6.8-.6-6.3,4.1,3.6-.7,6,.6,6.3-4.1ZM-1509.6,180.9c-.1-4.5-3.4-3.3-6.6-4.1.2,5.2,2.9,3.2,6.6,4.1Z"/>
  <path class="st37" d="M-1355.1,13.1c-.5,1.2-2.1.6-3.1.8-3.5.6-2.5,1.2-3.2,4.4,4.8-.5,6,.5,6.6-4.6,0-.3-.2-4.4.7-3.1,0,1.8-.4,6.7,1.7,7.3l4.9.8c-1.4.5-5.1.2-5.9,1.3-.8,1-.7,5.1-.7,6.5-1.1,1.4-.6-3.2-.7-3.3-1.7.8-4.5-.2-5.8,1.1-1.1,1.2-.9,4.8-.9,6.3-.4.6-.7,0-.7-.5-.2-1.4.1-4.9-.9-5.8-1.3-1.2-3.9-.3-5.4-1.1l-.7,3.3c-.8-1.8.2-5.2-1.1-6.5-1.2-1.2-4-.6-5.6-1.3l4.8-1c2.5-.9,1-5,1.9-7.1.9.4-.2,2.2,1,2.6.2,0,3.6-.3,4-.4,2.9-.7,1.3-5.5,2.6-7.4.4,1.7-.2,6.7,1.9,7.3,1.1.3,3.2.2,4.5.4h0ZM-1362.1,18.3c0-5.1-2.4-4-6.3-4.8-.8,5.2,2.5,4.3,6.3,4.8ZM-1362.1,18.7c-3.1.8-6.8-.5-6.3,4.1,3.6-.7,6,.6,6.3-4.1ZM-1354.7,22.7c-.1-4.5-3.4-3.3-6.6-4.1.2,5.2,2.9,3.2,6.6,4.1Z"/>
  <path class="st15" d="M-1501,33.6c-1.8,2.2-1,5.3.9,7.3,2.2,2.3,5.8.4,7.2-1.8,2.5-4-2.7-6.1-3.9-3.2-1,2.4,1.6.3,2.3.9,1.6,1.4-2.6,3.1-3.8,1.4-2.4-3.5,3.7-7.5,6.5-4.4,4.6,5-4.5,13.1-9.4,8.7-2.5-2.2-3.9-6.8-1.8-9.6,3.3-4.6,9.1-5.7,13.4-1.9,10.2,9.1-7.4,26-16.3,13.1-4.2-6.1-2.8-13.2,3.1-17.4,13.3-9.4,27.7,9.1,17.5,20.6-1.8,2-7.5,6-10.1,6-1.1,0-1.5-1.2-.5-1.7,1.1-.5,2.7-.8,4-1.5,5.4-2.7,9.6-8.3,7.9-14.5-2.6-9.7-13.5-13.3-20.2-5.1-4.3,5.2-2,13.9,4.2,16.2,3.3,1.3,8.1-1.4,10-4.1,5.6-8.2-4.8-16.8-11.1-8.9Z"/>
  <path class="st6" d="M-1158.1,80.2c3.9.2,6.2,3.7,5.7,7.4,5,.2,8.3,4.4,6.3,9.3,5.2,2.2,4,8.3,2.2,12.5-.4.9-2,4.2-2.9,4.3-.7.1-1.3-.6-1.1-1.2,0-.3,1.4-2.2,1.8-2.8,1.6-3.2,3.8-9.9-1-11.2-1.1,2.2-4.2,7.2-6.5,8-2.3.7-3.8-1.2-3.5-3.3.4-2.6,3.6-5.2,5.9-6.1.6-.2,3.1-.7,3.3-.9.7-.6.7-3,.4-3.8-.5-1.5-3.5-3.5-5-3-.2,0-1.1,2.4-1.4,2.9-1.2,2.2-4.8,6.2-7.5,5.9s-1.8-4.3-.9-6c1.2-2.4,4.1-4.2,6.6-4.8.4,0,1.3,0,1.5-.2.4-2.2-.4-4.3-2.6-5-2.3-.8-1.7.3-2.7,2.1-1.4,2.4-6.1,8.3-9.2,5.3-4-4,5.2-9.8,8.8-9.5.3-5.8-4.7-5.7-8.9-4.7-3.2.8-5,2.5-7,4.9-1.2.4-1.9-.6-1.1-1.7,1.4-2,4.2-4.1,6.6-4.8,5.8-1.8,12.6-1.4,12.4,6.2h0ZM-1167.4,88.5c1.3.7,3.8-1.8,4.5-2.7.4-.5,2.4-3.3,2.1-3.7-2,.4-6.8,2.9-7,5.1,0,.4.1,1.2.4,1.4h0ZM-1154.9,89.5c-2.6.3-5.4,2.1-6.3,4.6-.2.5-.6,2-.2,2.3,3.1-.7,5.4-4.1,6.4-6.9h0ZM-1149.6,98.8c-2.2.4-4.9,2.1-5.6,4.3-.8,2.4.8,1.8,2,.7.5-.4,3.8-4.8,3.6-5h0Z"/>
  <path class="st16" d="M-1140.5,173.1c-.7.7-1.1,2.1-.3,2.8,1.6,1.6,3.5-.4,5.2-.7,8.7-1.3,9.5,9.8,2.8,11.3-2.5.5-5.7-.9-6.6-3.4-.6-1.6-.2-5.4-2.1-5.7-3.2-.4-2.3,3.8-3.2,6-.9,2.1-3.7,3.5-5.9,3.1-3.4-.5-5.5-3.3-5-6.7s3.8-5.2,7.1-4.7c1.7.3,3.3,2.2,5,.9,2.6-2.1-1.8-3.9-2.9-5.5-2.3-3.1-1.1-8.1,2.9-9,6.1-1.3,9.8,4.9,5.8,9.5-.8.9-2.1,1.3-2.7,1.9h0Z"/>
  <path class="st37" d="M-1290,171.3c-.5,1.2-2.1.6-3.1.8-3.5.6-2.5,1.2-3.2,4.4,4.8-.5,6,.6,6.6-4.6,0-.3-.2-4.4.7-3.1,0,1.8-.4,6.7,1.7,7.3l4.9.8c-1.4.5-5.1.2-6,1.3-.8,1-.7,5.1-.7,6.5-1.1,1.4-.6-3.2-.7-3.3-1.7.8-4.5-.2-5.8,1.1-1.1,1.2-.9,4.8-.9,6.3-.4.6-.7,0-.7-.5-.2-1.4.1-4.9-.9-5.8-1.3-1.2-3.9-.3-5.4-1.1l-.7,3.3c-.8-1.8.2-5.2-1.1-6.5-1.2-1.2-4-.6-5.6-1.3l4.8-1c2.5-.9,1-5,1.9-7.1.9.4-.2,2.2,1,2.6.2,0,3.6-.3,4-.4,3-.7,1.3-5.5,2.6-7.4.5,1.7-.2,6.7,1.9,7.3,1.1.3,3.2.2,4.5.4h0ZM-1297,176.4c0-5.1-2.4-4-6.3-4.8-.8,5.2,2.5,4.3,6.3,4.8ZM-1297,176.8c-3.1.8-6.8-.6-6.3,4.1,3.6-.7,6,.6,6.3-4.1ZM-1289.6,180.9c-.1-4.5-3.4-3.3-6.6-4.1.2,5.2,2.9,3.2,6.6,4.1Z"/>
  <path class="st37" d="M-1135.1,13.1c-.5,1.2-2.1.6-3.1.8-3.5.6-2.5,1.2-3.2,4.4,4.8-.5,6,.5,6.6-4.6,0-.3-.2-4.4.7-3.1,0,1.8-.4,6.7,1.7,7.3l4.9.8c-1.4.5-5.1.2-5.9,1.3-.8,1-.7,5.1-.7,6.5-1.1,1.4-.6-3.2-.7-3.3-1.7.8-4.5-.2-5.8,1.1-1.1,1.2-.9,4.8-.9,6.3-.4.6-.7,0-.7-.5-.2-1.4.1-4.9-.9-5.8-1.3-1.2-3.9-.3-5.4-1.1l-.7,3.3c-.8-1.8.2-5.2-1.1-6.5-1.2-1.2-4-.6-5.6-1.3l4.8-1c2.5-.9,1-5,1.9-7.1.9.4-.2,2.2,1,2.6.2,0,3.6-.3,4-.4,2.9-.7,1.3-5.5,2.6-7.4.4,1.7-.2,6.7,1.9,7.3,1.1.3,3.2.2,4.5.4h0ZM-1142.1,18.3c0-5.1-2.4-4-6.3-4.8-.8,5.2,2.5,4.3,6.3,4.8ZM-1142.1,18.7c-3.1.8-6.8-.5-6.3,4.1,3.6-.7,6,.6,6.3-4.1ZM-1134.7,22.7c-.1-4.5-3.4-3.3-6.6-4.1.2,5.2,2.9,3.2,6.6,4.1Z"/>
  <path class="st15" d="M-1281,33.6c-1.8,2.2-1,5.3.9,7.3,2.2,2.3,5.8.4,7.2-1.8,2.5-4-2.7-6.1-3.9-3.2-1,2.4,1.6.3,2.3.9,1.6,1.4-2.6,3.1-3.8,1.4-2.4-3.5,3.7-7.5,6.5-4.4,4.6,5-4.5,13.1-9.4,8.7-2.5-2.2-3.9-6.8-1.8-9.6,3.3-4.6,9.1-5.7,13.4-1.9,10.2,9.1-7.4,26-16.3,13.1-4.2-6.1-2.8-13.2,3.1-17.4,13.3-9.4,27.7,9.1,17.5,20.6-1.8,2-7.5,6-10.1,6-1.1,0-1.5-1.2-.5-1.7,1.1-.5,2.7-.8,4-1.5,5.4-2.7,9.6-8.3,7.9-14.5-2.6-9.7-13.5-13.3-20.2-5.1-4.3,5.2-2,13.9,4.2,16.2,3.3,1.3,8.1-1.4,10-4.1,5.6-8.2-4.8-16.8-11.1-8.9Z"/>
  <path class="st6" d="M-938.1,80.2c3.9.2,6.2,3.7,5.7,7.4,5,.2,8.3,4.4,6.3,9.3,5.2,2.2,4,8.3,2.2,12.5-.4.9-2,4.2-2.9,4.3-.7.1-1.3-.6-1.1-1.2,0-.3,1.4-2.2,1.8-2.8,1.6-3.2,3.8-9.9-1-11.2-1.1,2.2-4.2,7.2-6.5,8-2.3.7-3.8-1.2-3.5-3.3.4-2.6,3.6-5.2,5.9-6.1.6-.2,3.1-.7,3.3-.9.7-.6.7-3,.4-3.8-.5-1.5-3.5-3.5-5-3-.2,0-1.1,2.4-1.4,2.9-1.2,2.2-4.8,6.2-7.5,5.9s-1.8-4.3-.9-6c1.2-2.4,4.1-4.2,6.6-4.8.4,0,1.3,0,1.5-.2.4-2.2-.4-4.3-2.6-5-2.3-.8-1.7.3-2.7,2.1-1.4,2.4-6.1,8.3-9.2,5.3-4-4,5.2-9.8,8.8-9.5.3-5.8-4.7-5.7-8.9-4.7-3.2.8-5,2.5-7,4.9-1.2.4-1.9-.6-1.1-1.7,1.4-2,4.2-4.1,6.6-4.8,5.8-1.8,12.6-1.4,12.4,6.2h0ZM-947.4,88.5c1.3.7,3.8-1.8,4.5-2.7.4-.5,2.4-3.3,2.1-3.7-2,.4-6.8,2.9-7,5.1,0,.4.1,1.2.4,1.4h0ZM-934.9,89.5c-2.6.3-5.4,2.1-6.3,4.6-.2.5-.6,2-.2,2.3,3.1-.7,5.4-4.1,6.4-6.9h0ZM-929.6,98.8c-2.2.4-4.9,2.1-5.6,4.3-.8,2.4.8,1.8,2,.7.5-.4,3.8-4.8,3.6-5h0Z"/>
  <path class="st16" d="M-920.5,173.1c-.7.7-1.1,2.1-.3,2.8,1.6,1.6,3.5-.4,5.2-.7,8.7-1.3,9.5,9.8,2.8,11.3-2.5.5-5.7-.9-6.6-3.4-.6-1.6-.2-5.4-2.1-5.7-3.2-.4-2.3,3.8-3.2,6-.9,2.1-3.7,3.5-5.9,3.1-3.4-.5-5.5-3.3-5-6.7s3.8-5.2,7.1-4.7c1.7.3,3.3,2.2,5,.9,2.6-2.1-1.8-3.9-2.9-5.5-2.3-3.1-1.1-8.1,2.9-9,6.1-1.3,9.8,4.9,5.8,9.5-.8.9-2.1,1.3-2.7,1.9h0Z"/>
  <path class="st37" d="M-1070,171.3c-.5,1.2-2.1.6-3.1.8-3.5.6-2.5,1.2-3.2,4.4,4.8-.5,6,.6,6.6-4.6,0-.3-.2-4.4.7-3.1,0,1.8-.4,6.7,1.7,7.3l4.9.8c-1.4.5-5.1.2-6,1.3-.8,1-.7,5.1-.7,6.5-1.1,1.4-.6-3.2-.7-3.3-1.7.8-4.5-.2-5.8,1.1-1.1,1.2-.9,4.8-.9,6.3-.4.6-.7,0-.7-.5-.2-1.4.1-4.9-.9-5.8-1.3-1.2-3.9-.3-5.4-1.1l-.7,3.3c-.8-1.8.2-5.2-1.1-6.5-1.2-1.2-4-.6-5.6-1.3l4.8-1c2.5-.9,1-5,1.9-7.1.9.4-.2,2.2,1,2.6.2,0,3.6-.3,4-.4,3-.7,1.3-5.5,2.6-7.4.5,1.7-.2,6.7,1.9,7.3,1.1.3,3.2.2,4.5.4h0ZM-1077,176.4c0-5.1-2.4-4-6.3-4.8-.8,5.2,2.5,4.3,6.3,4.8ZM-1077,176.8c-3.1.8-6.8-.6-6.3,4.1,3.6-.7,6,.6,6.3-4.1ZM-1069.6,180.9c-.1-4.5-3.4-3.3-6.6-4.1.2,5.2,2.9,3.2,6.6,4.1Z"/>
  <path class="st37" d="M-915.1,13.1c-.5,1.2-2.1.6-3.1.8-3.5.6-2.5,1.2-3.2,4.4,4.8-.5,6,.5,6.6-4.6,0-.3-.2-4.4.7-3.1,0,1.8-.4,6.7,1.7,7.3l4.9.8c-1.4.5-5.1.2-5.9,1.3-.8,1-.7,5.1-.7,6.5-1.1,1.4-.6-3.2-.7-3.3-1.7.8-4.5-.2-5.8,1.1-1.1,1.2-.9,4.8-.9,6.3-.4.6-.7,0-.7-.5-.2-1.4.1-4.9-.9-5.8-1.3-1.2-3.9-.3-5.4-1.1l-.7,3.3c-.8-1.8.2-5.2-1.1-6.5-1.2-1.2-4-.6-5.6-1.3l4.8-1c2.5-.9,1-5,1.9-7.1.9.4-.2,2.2,1,2.6.2,0,3.6-.3,4-.4,2.9-.7,1.3-5.5,2.6-7.4.4,1.7-.2,6.7,1.9,7.3,1.1.3,3.2.2,4.5.4h0ZM-922.1,18.3c0-5.1-2.4-4-6.3-4.8-.8,5.2,2.5,4.3,6.3,4.8ZM-922.1,18.7c-3.1.8-6.8-.5-6.3,4.1,3.6-.7,6,.6,6.3-4.1ZM-914.7,22.7c-.1-4.5-3.4-3.3-6.6-4.1.2,5.2,2.9,3.2,6.6,4.1Z"/>
  <path class="st15" d="M-1061,33.6c-1.8,2.2-1,5.3.9,7.3,2.2,2.3,5.8.4,7.2-1.8,2.5-4-2.7-6.1-3.9-3.2-1,2.4,1.6.3,2.3.9,1.6,1.4-2.6,3.1-3.8,1.4-2.4-3.5,3.7-7.5,6.5-4.4,4.6,5-4.5,13.1-9.4,8.7-2.5-2.2-3.9-6.8-1.8-9.6,3.3-4.6,9.1-5.7,13.4-1.9,10.2,9.1-7.4,26-16.3,13.1-4.2-6.1-2.8-13.2,3.1-17.4,13.3-9.4,27.7,9.1,17.5,20.6-1.8,2-7.5,6-10.1,6-1.1,0-1.5-1.2-.5-1.7,1.1-.5,2.7-.8,4-1.5,5.4-2.7,9.6-8.3,7.9-14.5-2.6-9.7-13.5-13.3-20.2-5.1-4.3,5.2-2,13.9,4.2,16.2,3.3,1.3,8.1-1.4,10-4.1,5.6-8.2-4.8-16.8-11.1-8.9Z"/>
  <path class="st6" d="M-718.1,80.2c3.9.2,6.2,3.7,5.7,7.4,5,.2,8.3,4.4,6.3,9.3,5.2,2.2,4,8.3,2.2,12.5-.4.9-2,4.2-2.9,4.3-.7.1-1.3-.6-1.1-1.2,0-.3,1.4-2.2,1.8-2.8,1.6-3.2,3.8-9.9-1-11.2-1.1,2.2-4.2,7.2-6.5,8-2.3.7-3.8-1.2-3.5-3.3.4-2.6,3.6-5.2,5.9-6.1.6-.2,3.1-.7,3.3-.9.7-.6.7-3,.4-3.8-.5-1.5-3.5-3.5-5-3-.2,0-1.1,2.4-1.4,2.9-1.2,2.2-4.8,6.2-7.5,5.9s-1.8-4.3-.9-6c1.2-2.4,4.1-4.2,6.6-4.8.4,0,1.3,0,1.5-.2.4-2.2-.4-4.3-2.6-5-2.3-.8-1.7.3-2.7,2.1-1.4,2.4-6.1,8.3-9.2,5.3-4-4,5.2-9.8,8.8-9.5.3-5.8-4.7-5.7-8.9-4.7-3.2.8-5,2.5-7,4.9-1.2.4-1.9-.6-1.1-1.7,1.4-2,4.2-4.1,6.6-4.8,5.8-1.8,12.6-1.4,12.4,6.2h0ZM-727.4,88.5c1.3.7,3.8-1.8,4.5-2.7.4-.5,2.4-3.3,2.1-3.7-2,.4-6.8,2.9-7,5.1,0,.4.1,1.2.4,1.4h0ZM-714.9,89.5c-2.6.3-5.4,2.1-6.3,4.6-.2.5-.6,2-.2,2.3,3.1-.7,5.4-4.1,6.4-6.9h0ZM-709.6,98.8c-2.2.4-4.9,2.1-5.6,4.3-.8,2.4.8,1.8,2,.7.5-.4,3.8-4.8,3.6-5h0Z"/>
  <path class="st16" d="M-700.5,173.1c-.7.7-1.1,2.1-.3,2.8,1.6,1.6,3.5-.4,5.2-.7,8.7-1.3,9.5,9.8,2.8,11.3-2.5.5-5.7-.9-6.6-3.4-.6-1.6-.2-5.4-2.1-5.7-3.2-.4-2.3,3.8-3.2,6-.9,2.1-3.7,3.5-5.9,3.1-3.4-.5-5.5-3.3-5-6.7s3.8-5.2,7.1-4.7c1.7.3,3.3,2.2,5,.9,2.6-2.1-1.8-3.9-2.9-5.5-2.3-3.1-1.1-8.1,2.9-9,6.1-1.3,9.8,4.9,5.8,9.5-.8.9-2.1,1.3-2.7,1.9h0Z"/>
  <path class="st37" d="M-850,171.3c-.5,1.2-2.1.6-3.1.8-3.5.6-2.5,1.2-3.2,4.4,4.8-.5,6,.6,6.6-4.6,0-.3-.2-4.4.7-3.1,0,1.8-.4,6.7,1.7,7.3l4.9.8c-1.4.5-5.1.2-6,1.3-.8,1-.7,5.1-.7,6.5-1.1,1.4-.6-3.2-.7-3.3-1.7.8-4.5-.2-5.8,1.1-1.1,1.2-.9,4.8-.9,6.3-.4.6-.7,0-.7-.5-.2-1.4.1-4.9-.9-5.8-1.3-1.2-3.9-.3-5.4-1.1l-.7,3.3c-.8-1.8.2-5.2-1.1-6.5-1.2-1.2-4-.6-5.6-1.3l4.8-1c2.5-.9,1-5,1.9-7.1.9.4-.2,2.2,1,2.6.2,0,3.6-.3,4-.4,3-.7,1.3-5.5,2.6-7.4.5,1.7-.2,6.7,1.9,7.3,1.1.3,3.2.2,4.5.4h0ZM-857,176.4c0-5.1-2.4-4-6.3-4.8-.8,5.2,2.5,4.3,6.3,4.8ZM-857,176.8c-3.1.8-6.8-.6-6.3,4.1,3.6-.7,6,.6,6.3-4.1ZM-849.6,180.9c-.1-4.5-3.4-3.3-6.6-4.1.2,5.2,2.9,3.2,6.6,4.1Z"/>
  <path class="st37" d="M-695.1,13.1c-.5,1.2-2.1.6-3.1.8-3.5.6-2.5,1.2-3.2,4.4,4.8-.5,6,.5,6.6-4.6,0-.3-.2-4.4.7-3.1,0,1.8-.4,6.7,1.7,7.3l4.9.8c-1.4.5-5.1.2-5.9,1.3-.8,1-.7,5.1-.7,6.5-1.1,1.4-.6-3.2-.7-3.3-1.7.8-4.5-.2-5.8,1.1-1.1,1.2-.9,4.8-.9,6.3-.4.6-.7,0-.7-.5-.2-1.4.1-4.9-.9-5.8-1.3-1.2-3.9-.3-5.4-1.1l-.7,3.3c-.8-1.8.2-5.2-1.1-6.5-1.2-1.2-4-.6-5.6-1.3l4.8-1c2.5-.9,1-5,1.9-7.1.9.4-.2,2.2,1,2.6.2,0,3.6-.3,4-.4,2.9-.7,1.3-5.5,2.6-7.4.4,1.7-.2,6.7,1.9,7.3,1.1.3,3.2.2,4.5.4h0ZM-702.1,18.3c0-5.1-2.4-4-6.3-4.8-.8,5.2,2.5,4.3,6.3,4.8ZM-702.1,18.7c-3.1.8-6.8-.5-6.3,4.1,3.6-.7,6,.6,6.3-4.1ZM-694.7,22.7c-.1-4.5-3.4-3.3-6.6-4.1.2,5.2,2.9,3.2,6.6,4.1Z"/>
  <path class="st15" d="M-841,33.6c-1.8,2.2-1,5.3.9,7.3,2.2,2.3,5.8.4,7.2-1.8,2.5-4-2.7-6.1-3.9-3.2-1,2.4,1.6.3,2.3.9,1.6,1.4-2.6,3.1-3.8,1.4-2.4-3.5,3.7-7.5,6.5-4.4,4.6,5-4.5,13.1-9.4,8.7-2.5-2.2-3.9-6.8-1.8-9.6,3.3-4.6,9.1-5.7,13.4-1.9,10.2,9.1-7.4,26-16.3,13.1-4.2-6.1-2.8-13.2,3.1-17.4,13.3-9.4,27.7,9.1,17.5,20.6-1.8,2-7.5,6-10.1,6-1.1,0-1.5-1.2-.5-1.7,1.1-.5,2.7-.8,4-1.5,5.4-2.7,9.6-8.3,7.9-14.5-2.6-9.7-13.5-13.3-20.2-5.1-4.3,5.2-2,13.9,4.2,16.2,3.3,1.3,8.1-1.4,10-4.1,5.6-8.2-4.8-16.8-11.1-8.9Z"/>
  <g>
    <path class="st22" d="M-1627.4,154.6h-76.1c-11.8,0-21.3-9.7-21.3-21.7V58.2c0-12,9.5-21.7,21.3-21.7h76.1c11.8,0,21.3,9.7,21.3,21.7v74.7c0,12-9.5,21.7-21.3,21.7Z"/>
    <path class="st12" d="M-1678.3,66.8h-19.4v52.5h10.9v-16.4h8.5c4.9,0,9.3-2,12.5-5.3,3.2-3.3,5.2-7.8,5.2-12.8,0-10-7.9-18-17.7-18ZM-1673.8,90.8c-1.5,1.5-3.6,2.5-5.9,2.5h-7.1v-17h7.1c4.6,0,8.4,3.8,8.4,8.5s-.9,4.5-2.5,6h0Z"/>
    <path class="st12" d="M-1626.7,107.5c0,3.5-1.6,6.8-4.1,9.1-2.8,2.6-6.8,3.7-10.5,4-.4,0-.9,0-1.4,0-4.2,0-8.6-.8-12.3-2.6h-.1c0-3.1,0-6.2,0-9.3,0,.2,3,.9,3.4,1,3.4,1.2,7.5,2,11.2,1.5.8,0,1.5-.3,2.1-.8,2.2-1.9,0-4.2-1.8-5.1-2-1-4.1-1.6-6.1-2.5-1.9-.8-3.7-1.9-5.3-3.4-5-4.8-4.8-12.8.3-17.4,2.9-2.6,6.8-3.5,10.6-3.6,3.9-.2,7.9.5,11.5,2.1.1,0,.3.1.4.3,0,.1,0,.2,0,.4,0,3.2,0,6.3,0,9.5-.6-.5-1.4-.7-2.1-1-.8-.3-1.5-.6-2.3-.9-2.8-.9-6.4-1.8-9.3-.8-1.1.4-1.8,1.1-1.8,2.3,0,1.8,1.8,2.7,3.2,3.4,1.8.8,3.7,1.3,5.5,2.2,4.6,2.2,9,5.9,9,11.6h0Z"/>
  </g>
  <g>
    <path class="st1" d="M-1106.2-60.5h-70.7c-11,0-19.8-9.3-19.8-20.7v-71.2c0-11.4,8.9-20.7,19.8-20.7h70.7c11,0,19.8,9.3,19.8,20.7v71.2c0,11.4-8.9,20.7-19.8,20.7Z"/>
    <polygon class="st11" points="-1161 -102.2 -1161 -142.7 -1171.7 -142.7 -1171.7 -102.2 -1171.7 -91 -1161 -91 -1139 -91 -1139 -102.2 -1161 -102.2"/>
    <path class="st11" d="M-1111.4-130.6v10.9c-1-.3-2.1-.4-3.2-.4-3.5,0-6.7,1.4-9.1,3.6v25.5h-10.8v-39.1h10.8v5c2.5-3.4,6.4-5.5,10.8-5.5s1,0,1.5,0h0Z"/>
  </g>
  <g class="st35">
    <image width="900" height="900" transform="translate(-1516.7 27.5) scale(.2)" xlink:href="archivos-3.png"/>
  </g>
  <g>
    <path class="st14" d="M-570.6-320.9h117.3v114.6h-117.3v-114.6Z"/>
    <path class="st33" d="M-526.6-289h-19.1v50.9h10.7v-15.9h8.4c4.8,0,9.2-2,12.4-5.1s5.1-7.5,5.1-12.4c0-9.7-7.8-17.5-17.5-17.5h0ZM-522.1-265.7c-1.5,1.5-3.6,2.4-5.8,2.4h-7v-16.5h7c4.6,0,8.3,3.7,8.3,8.3s-.9,4.4-2.4,5.8h0Z"/>
    <path class="st33" d="M-491.9-272.1v-4.9h-10.2v39h10.2v-22.2c0-1.9.9-3.6,2.4-4.7,4.1-2.8,11.2-2.4,11.2-2.4v-10.7c-8.9,0-13.6,6-13.6,6h0Z"/>
  </g>
  <g>
    <path class="st10" d="M-1233.4,41.8c1.3-2.9,3.1-5.5,6.2-7.2,1.1-.6,2.2-1.2,3.5-.7,3.8,1.3,6.2,4.4,7.7,7.5-5.2-.5-10.6-.4-15.9.1-.5,0-1.1.2-1.6.2h0Z"/>
    <path class="st10" d="M-1207.9,42.3c-1.8-2.6-4.5-5.1-7.3-6.8-1-.6-2.1-1-3.1-1.5-.2,0-.3-.2-.4-.3,1.4.2,2.9.6,4.2,1,3.8,1.3,7.3,3.3,10.4,5.7,0,.3-.5.4-.6.6-.1.5.2,1.1.1,1.7h-.4c-.6,0-1.6,0-1.9-.4h-1.2s0,0,0,0Z"/>
    <path class="st10" d="M-1232,34.1c.2,0,.4,0,.6,0v.2c-3.5,1.5-7,4.3-9.1,7-.7-.5-1.5-.9-2.2-1.3-.3-.2-.7-.4-.7-.7,2.6-1.8,8.1-5,11.5-5.3h0Z"/>
    <path class="st13" d="M-1195.6,44.8c-2.1-2.6-4.9-5.2-8-6.9,0,0,.1-.2.3-.2.1,0,1.3.5,1.5.6,3.4,1.7,6.5,4.4,8.8,7.1l-.8-.3-1.8-.3h0Z"/>
    <path class="st13" d="M-1204,40.5c1.2,1,2.3,1.9,3.4,3-.2.1-.4,0-.6,0-1.2-.2-2.4-.5-3.6-.8h.4c.1-.5-.2-1.1-.1-1.7,0-.1.6-.3.6-.6h0Z"/>
    <path class="st13" d="M-1232,34.1c.4-.3,1.1-.3,1.7-.4-.2.4-.9.4-1.3.6v-.2s-.2,0-.4,0h0Z"/>
    <path class="st21" d="M-1234.5,44.6c1.4.7,2.8,1.5,4.2,2.2,3.8,1.8,7.8,3.4,11.8,4.9l5.3,1.4v-1.3l.6,3.9c.4,5.8,0,11.4-.7,17.1-.3,0-.4,0-.7-.2-1.7-1-3.4-1.9-5.1-2.8-5.6-2.8-11.5-5.1-17.6-7-.1-6.2.2-12.2,2.1-18.2h0Z"/>
    <path class="st17" d="M-1213.2,72.8c0,.3,0,.7,0,1-6.3,2.9-11.7,7.1-16.1,12-1-1.2-2.1-2.3-3.2-3.4-.3-.3-.6-.9-1-1.2-.2-.2-1.3-1-1.4-1.1,0,0-.1-.7-.2-1-1.1-5.1-1.5-11.2-1.5-16.4,6,1.9,12,4.2,17.6,7,1.7.9,3.4,1.9,5.1,2.8.2.1.4.2.7.2h0Z"/>
    <path class="st21" d="M-1207.9,42.3h1.2c.3.4,1.3.3,1.9.4,1.2.2,2.4.5,3.6.8.2,0,.4.1.6,0,7.3,7.9,7.8,15.4,5.6,25.2-2.8.3-5.4.9-8.1,1.5,1.6-9.3.9-19.7-4.7-27.8Z"/>
    <path class="st19" d="M-1218.8,100l-3.1-4.5c-2.1-3.4-4.8-6.5-7.4-9.5,0,0,0,0,0-.1,4.4-5,9.8-9.1,16.1-12-1,8.8-3.2,17.7-5.6,26.2h0Z"/>
    <path class="st29" d="M-1215.9,41.4c1.5,3,2.7,6.9,2.8,10.3v1.3l-5.3-1.4c-4-1.5-8-3-11.8-4.9-1.4-.7-2.8-1.5-4.2-2.2.4-1.1.6-1.7,1.1-2.8.6,0,1.1-.2,1.6-.2,5.2-.6,10.6-.6,15.9-.1h0Z"/>
    <path class="st34" d="M-1182.7,136.7l2.3,12.3,3.2-12.3h2.7l3.1,12.2h.4c0,0,2-12.2,2-12.2h2.9l-3.1,15.2h-3.8c-1.2-3.7-1.9-7.6-3-11.3l-2.8,11.2c-.2.2-3.5.2-3.8-.1l-3.4-14.9h3.2,0Z"/>
    <path class="st23" d="M-1221.9,95.4l3.1,4.5c-.8,2.7-1.6,5.4-2.4,8l-.4.3c0,.1.4,0,.3.2l-1.5,4.4c0,.1-.2.2-.3.2-.3,0-2.7,0-2.9,0-1.4-4.1-2.8-8.2-4-12.3-.1-.4-.1-.8-.2-1.1l.3-.6c.3,0,0,.3.3.2,0-.4.3-.2.5-.3.2,0,.3-.3.5-.3.4-.2,1.1.2,1.1-.8v.2c.6.2,1.1-.8,1.5-.8.2,0,.1.4.4.4,0-.2.4-.9.4-1,.1,0,.4,0,.6,0,0,0,.9-.8.9-.4,0,.1,0,.3.1.3,0-.7.8-.2.6-1.1h1.3c0,.1,0,.1,0,.1ZM-1222.6,95.6c-.2,0-.4,0-.3.1.2,0,.4,0,.3-.1ZM-1224.9,96.7h0c0,0,0,0,0,0ZM-1225.2,96.8h0c0,0,0,0,0,0Z"/>
    <path class="st19" d="M-1205.3,79.2l5,4.1c-3.6,7.8-8,15.5-13.8,22.2l-1.3,1.2c0-.6-.8-1.6-1-2.1,4.3-7.8,8.5-17,11-25.4h0Z"/>
    <path class="st34" d="M-1204.3,136.7c1.2.2,2.6,1.3,3.3,2.2,1.6,2.3.3,5.9-2.7,6.6v.2l3.8,6.2h-3.1c-.4,0-3.7-6-4.1-6h-2.2v5.8s-.2.2-.2.2h-3v-15.2h8.2ZM-1209.5,138.8v4.8s.2.2.2.2h3.8c.2,0,1.3-.6,1.5-.8,1.2-1.1.9-3-.4-3.9-.1,0-.7-.4-.8-.4h-4.3Z"/>
    <polygon class="st27" points="-1216.9 117.6 -1218.8 125.7 -1230.1 125.8 -1232.2 117.6 -1216.9 117.6"/>
    <path class="st31" d="M-1242.2,44c-1.8,3-3.1,6.5-3.8,9.9-.3,1.6-.4,3.4-.7,4.9,0,.1-.4.4,0,.6v.5l-8.5-1.9c0-.3.1-.5.1-.6.2,0,.2-.3,0-.4.2-1.7.5-3.1,1.1-4.7.2-.7,1.7-4.2,2.3-4.4.5-.2,1.5-.8,2.3-1.1,2-1,4.3-1.9,6.5-2.6.2,0,.5-.2.8-.1h0Z"/>
    <path class="st34" d="M-1227.5,136.7h6.4c1,0,3,1,3.8,1.5,4,2.9,3.7,10.1-.7,12.6-.5.3-2.4,1-2.9,1h-6.3s-.2-.2-.2-.2v-15h0ZM-1224.6,149.7h2.6c.7,0,2.3-.8,2.8-1.3,2.4-2.1,2.4-6.7-.2-8.6-.4-.3-1.9-1.1-2.4-1.1h-2.7v10.9h0Z"/>
    <path class="st34" d="M-1199.1,151.8l5.4-15c.2-.3,2.9,0,3.5-.1l5.7,15.2h-3c-.6-1.3-1-2.7-1.3-4.1h-5.8c-.5,1.4-.7,2.8-1.3,4.1h-3,0ZM-1194.1,145.7h4.5l-2-6.8c-.6-.4-.8.5-.9.9-.6,1.9-1.1,4-1.6,5.9Z"/>
    <path class="st7" d="M-1195.1,68.6c-1.2,5.3-2.9,9.7-5.2,14.7l-5-4.1c.9-3,1.6-6,2.1-9,2.7-.6,5.4-1.2,8.1-1.5h0Z"/>
    <path class="st17" d="M-1246.6,59.9c0,3.9.1,7.5.8,11.4-2.6-1.5-5.3-3.4-8.1-4.6-.2-.1-.4-.2-.7-.2-.5-2.8-.8-5.7-.6-8.5l8.5,1.9h0Z"/>
    <path class="st34" d="M-1278.8,140.2c-1.3,1.4-1.7,3.9-1.2,5.6.7,2.9,4.1,5.3,7.2,3.3.4-.2.8-.9,1.3-.7.2,0,1.6,1.4,1.5,1.6-4.8,4.6-12,1.6-13.1-4.1-1.1-5.6,4.3-11.7,10.7-9,.5.2,2.2,1,1.9,1.6,0,.1-1.3,1.5-1.4,1.5-1.6-1.1-3.3-1.7-5.3-.8-.3.1-1.4.9-1.6,1.1h0Z"/>
    <path class="st28" d="M-1229.3,85.9c2.6,3,5.4,6.1,7.4,9.5h-1.3c.3.8-.6.3-.6,1-.2,0-.1-.2-.1-.3,0-.4-.9.4-.9.4-.2,0-.5,0-.6,0,0,0-.4.8-.4,1-.2,0-.2-.3-.4-.4-.4,0-.9.9-1.3.8v-.2c0,1-.8.7-1.2.8-.2,0-.3.3-.5.3-.2.1-.6,0-.5.3-.3,0,0-.3-.3-.2l-.3.6c-.9-3.2-1.8-6.2-2.5-9.4l3.5-4.3h0ZM-1223.4,95.4c-.2,0-.4,0-.3.1.2,0,.4,0,.3-.1Z"/>
    <path class="st34" d="M-1264.2,140.2c10.2-1.3,8.8,14.2-.5,11.7-6.2-1.7-5.5-10.9.5-11.7ZM-1263.3,142.2c-3.9.5-3.8,8.3.9,7.7,1.9-.2,2.8-2.7,2.7-4.2-.1-1.7-1.5-3.8-3.7-3.5Z"/>
    <path class="st34" d="M-1236.3,146.8h-8.2c.4,2.4,2.5,3.9,5.2,3.1.4-.1,1.3-.7,1.5-.6.2,0,1.1,1.4,1.1,1.7,0,0-1.1.5-1.2.5-2.3.8-4,.9-6.2-.2-5.2-2.4-3.7-10.9,2.3-11.2,4.5-.2,6.1,3.1,5.5,6.6h0ZM-1238.7,145.1c-.1-4.1-5.5-3.9-5.7,0h5.7Z"/>
    <path class="st21" d="M-1193,45.5c6.5,7.6,6.7,13.4,4.5,22.5l-3.1.2c1.8-8.4,1.6-16.2-4.1-23.4l1.8.3.8.3h0Z"/>
    <path class="st9" d="M-1246.6,87.5c.2-.7.4-.3.6,0,.3.6.5-.8.2-.9.1,0,.5.4.4-.2l.5.5-.2-.5c.4,0,.4,0,.7.1.1-.8.4.4.6.2v-.4c.1,0,.4.5.4.5v-.5c.1,0,.3.5.3.5v-.9c.6,0,.2.2.4.3.4.2,0-.9,0-1.1.5.6.2.2.9.1.3.1,0,.4.2.5,0,0,.2,0,.2.1,1.8,3.4,3.1,7.7,4.9,11.3-1,1.1-1.1,2.6-1.8,3.9-3.4-4.5-5.7-8.7-8.2-13.7h0Z"/>
    <path class="st24" d="M-1250.7,78.9c0-.2-.1-.4-.1-.6,0-.4.4-.4-.3-.4.1-.1,0-.3,0-.4.3-.2,1.5,0,1.2-.9.3,0,.1.3.2.4.7.4,1.1-1,1.9-.2v-.8c-.1,0,.6.5.6.5v-.6c.3,0,0,.2.1.2.3.2.3-.2.3-.2.3-.1.7.2.8.2,0,0,.3-.7.8-.7.3.1.3,1.2.4,1.2s.2,0,.2,0c.6,1.3.8,2.9,1.3,4.3.6,1.7,1.3,3.4,1.8,5.1,0,0-.2,0-.2-.1,0-.1.1-.4-.2-.5-.7.1-.4.5-.9-.1,0,.2.4,1.3,0,1.1-.2-.1.2-.4-.3-.3v.9c-.1,0-.3-.5-.3-.5v.5c-.1,0-.4-.5-.4-.5v.4c-.3.2-.6-1.1-.7-.2-.3-.2-.3-.2-.7-.1l.2.5-.5-.5c.1.7-.3.2-.4.2.3.2.1,1.5-.2.9-.2-.4-.4-.8-.6,0-1.3-2.5-3.5-5.8-4.1-8.6h0Z"/>
    <path class="st26" d="M-1245.8,71.3c.3,1.8,1,3.6,1.3,5.4,0,0-.2,0-.2,0,0,0,0-1.1-.4-1.2-.4,0-.7.7-.8.7,0,0-.5-.3-.8-.2,0,0,0,.4-.3.2,0,0,.1-.3-.1-.2v.6l-.7-.5v.8c-.7-.7-1.1.7-1.8.2,0,0,.2-.3-.2-.4.2.9-1,.7-1.2.9,0,0,.1.2,0,.4.7,0,.3,0,.3.4,0,.2,0,.4.1.6-.9-1.9-1.7-4-2.3-6-.6-2-1.2-4.3-1.6-6.4.3,0,.5,0,.7.2,2.8,1.2,5.5,3.1,8.1,4.6h0ZM-1245.7,75.4c.1-.2,0-.3-.1-.2-.1.2,0,.3.1.2Z"/>
    <path class="st7" d="M-1188.5,68c-1.6,6.6-4.4,12.5-8,18.4-.3,0-.6-.2-.8-.4-.3-.2-.7-.7-.9-1,2.7-5,5.4-11.4,6.6-16.8l3.1-.2Z"/>
    <path class="st34" d="M-1231,136.7v12.8c0,.3.9.3,1,.4,0,0,.4,1.8.4,1.9-.1.6-2.5.4-3.1.1-.6-.3-1.4-1.2-1.4-1.8v-13.5h3.1,0Z"/>
    <path class="st19" d="M-1198.1,85c.2.3.6.8.9,1,.2.2.4.5.8.4-5,8.5-10.6,15.2-17.8,22.3-.3-.1-.4-.4-.4-.6,6.1-7,12.2-15,16.5-23.1h0Z"/>
    <path class="st26" d="M-1261.5,63.6l3,.9.4.2c.8,4.9,2.3,9.6,4.2,14.3-.2.3-.1-.4-.6-.2v.4c-.1,0-.2-.5-.2-.5-.1.7-.5.3-.8.5.1.6-.2,0-.5-.1-.3.7.4,1,.1,1.5-2.8-5.6-4.7-10.8-5.6-16.9h0Z"/>
    <path class="st34" d="M-1252.8,140.3v2c.9-.9,3.9-3.1,5.2-2.1.3.3,0,2.3-.6,2.3-.8,0-1.1-.1-2,.3-.4.2-2.1,1.7-2.1,2v6.9s-.2.2-.2.2h-2.6v-11.5h2.4,0Z"/>
    <path class="st13" d="M-1243.4,39.3c0,.3.4.5.7.7.7.5,1.5.8,2.2,1.3-.5.6-1.3,1.9-1.7,2.6-.3,0-.5,0-.8.1-2.2.7-4.4,1.6-6.5,2.6-.7.4-1.8,1-2.3,1.1,0-.4.4-.9.6-1.2,1.9-2.9,4.7-5.3,7.6-7.3h0Z"/>
    <path class="st13" d="M-1261.3,54.9c1.6-6.1,6.5-11.9,12.2-15.5.7-.4,2.6-1.6,3.3-1.8.2,0,.3.1.3.2,0,.2-1.9,1.2-2.2,1.4-4,2.8-8,7.9-9.5,12.3l-.6.2-3.5,3h0Z"/>
    <path class="st24" d="M-1255.9,80.5c.3-.5-.5-.8-.1-1.5.2.2.6.7.5.1.4-.2.7.2.8-.5v.5c0,0,.2-.4.2-.4.4,0,.4.6.6.2,1.6,3.3,3.3,6.6,5.2,9.8l-.4-.4c0,.2-.6.5-.6.5,0,0,.2.5,0,.5-.1,0-.6-1.5-1.3-1,0,.2.4.2.5.5,0,.2,0,.5-.1.7-1.9-3-3.6-5.8-5.2-9h0Z"/>
    <path class="st9" d="M-1250.7,89.6c.1-.2.2-.4.1-.7-.1-.3-.5-.2-.5-.5.7-.5,1.2,1,1.3,1,.3,0,0-.4,0-.5,0,0,.6-.3.6-.5l.4.4c2,3.3,4.2,6.3,6.4,9.5.1.2.3.3.3.6,0,0,0,.1,0,.1-.6-.2-.8-.4-.9.4-.3,0,0-.2-.2-.2-.1,0,0,.4-.4.2-2.7-3.2-4.9-6.3-7.1-9.8h0Z"/>
    <path class="st17" d="M-1258.5,57.2c0,1,0,2,0,2.9v2.1c0,.6.3,1.8.4,2.4l-.4-.2-3-.9c-.4-2.4-.6-4.5-.3-6.9,1,.3,2.1.4,3.2.5h0Z"/>
    <path class="st23" d="M-1234.5,101.3c1.6,3.1,3.5,6,5.2,9,.3.5.6,1.1.7,1.5,0,0,0-.1-.1-.1l-.3-.2c-2.9-2.6-5.4-5.3-7.8-8.3l.4-.8.6.4c0-.6.7-.8,1.3-.8-.2-.2,0-.7-.4-.6h.6c0-.1,0-.1,0-.1Z"/>
    <path class="st9" d="M-1232.5,82.4c1.1,1.1,2.2,2.2,3.2,3.4,0,0,0,0,0,.1l-3.5,4.3c-.4-1.7-.9-3.4-1.1-5.1,0-.2.1-.6-.1-.8,0-.1,0-.3,0-.4,0-.4.2-.9.4-1.2l-.4-.3h1.5Z"/>
    <path class="st23" d="M-1242,98.8c.2,0,2.6,3.4,3,3.9,2.1,2.6,4.5,5,6.5,7.7.2.2.3.5.6.6h0c0,0-.4,0-.6,0,0,0-.2,0-.3-.1.1-.5-.3-.4-.4-.5-3.5-2.8-7.5-7.6-10.3-11,.3.1.2-.3.4-.2.2,0,0,.3.2.2.2-.8.3-.6.9-.4,0,0,0-.1,0-.1h0Z"/>
    <path class="st31" d="M-1257.3,51.6c-.5,1.5-1.1,4-1.3,5.6-1.1,0-2.2-.2-3.2-.5,0-.2.1-.4.1-.6h.1c0,0-.1-.1-.1-.1,0-.4.2-.8.3-1.1l3.5-3,.6-.2h0Z"/>
    <path class="st28" d="M-1234.5,101.3h-.6c.4,0,.2.5.4.8-.6,0-1.3.2-1.3.8l-.6-.4-.4.8c-.6-.7-1-1.3-1.5-2,.7-1.2.8-2.8,1.8-3.9.6,1.3,1.4,2.7,2.1,4h0ZM-1235.2,101.5h0c0,0,0,0,0,0Z"/>
    <path class="st23" d="M-1215.3,106.7c0,.1,0,.3-.1.4-1.8,1.6-3.3,3.6-5.3,5-.2-.3,1.3-2.2,1.5-2.6,1-1.6,2-3.3,3-4.9.2.6,1,1.6,1,2.1h0Z"/>
    <path class="st24" d="M-1235,79.2c0,.2.1.9.2,1,0,.1,1.1.8,1.4,1.1.3.3.7.9,1,1.2h-1.5l.4.3c-.3.3-.4.8-.4,1.2-.4,0-.2-.2-.3-.4-.2-1.5-.6-2.9-.7-4.3h0Z"/>
    <path class="st23" d="M-1214.2,108.7c-1,1-1.9,2.1-3.1,2.9,0,0,0,0-.1.1s0,0-.1.1v-.2c.9-1.2,1.9-2.3,2.9-3.5,0,.2.1.5.4.6h0Z"/>
    <path class="st28" d="M-1232,111.1c.4.1,1.2.8.9,1.3-.4-.4-1.2-.8-1.5-1.4.2,0,.5.1.6.1h0Z"/>
    <path class="st28" d="M-1229.3,110.4c.4.4,1.2,1.4,1.4,1.9.1.4-.6,0-.7-.4-.1-.4-.4-1-.7-1.5Z"/>
    <path class="st28" d="M-1217.6,111.9c-.3.3-.6.9-1.1.9-.1,0,.9-1,1-1.1v.2Z"/>
    <path class="st24" d="M-1233.9,85c-.3-.2-.1-.6-.1-.8.2.1.1.5.1.8Z"/>
    <path class="st28" d="M-1232.8,110.8c-.2-.1-.3-.3-.4-.5.1,0,.5,0,.4.5Z"/>
    <path class="st17" d="M-1246.6,59.4c-.4-.2,0-.5,0-.6v.6Z"/>
    <path class="st28" d="M-1228.7,111.7c-.4,0-.2-.2-.3-.2l.3.2Z"/>
    <path class="st28" d="M-1232,111c-.3-.1-.4-.4-.6-.6.3.1.5.3.6.6Z"/>
    <path class="st17" d="M-1255,57.4c0-.1,0-.2,0-.4.2,0,.2.3,0,.4Z"/>
    <path class="st28" d="M-1217.4,111.7s0,0,.1-.1c0,0,0,0-.1.1Z"/>
    <path class="st17" d="M-1261.6,56.1h0c0-.1.1,0,.1,0h-.1c0,0,0,0,0,0Z"/>
    <path class="st28" d="M-1222.6,95.6c0,0,0,.2-.3.1,0,0,0-.2.3-.1Z"/>
    <path class="st28" d="M-1224.9,96.7c0,0,0,0,0,.1h0Z"/>
    <path class="st28" d="M-1225.2,96.8c0,0,0,0,0,.1h0Z"/>
    <path class="st36" d="M-1209.5,138.8h4.3c.1,0,.7.3.8.4,1.4.9,1.6,2.8.4,3.9-.2.2-1.3.8-1.5.8h-3.8s-.2-.2-.2-.2v-4.8h0Z"/>
    <path class="st36" d="M-1224.6,149.7v-10.9h2.7c.5,0,2,.8,2.4,1.1,2.6,1.9,2.6,6.5.2,8.6-.5.4-2.1,1.3-2.8,1.3h-2.6,0Z"/>
    <path class="st36" d="M-1194.1,145.7c.4-2,.9-4,1.6-5.9.1-.4.3-1.3.9-.9l2,6.8h-4.5Z"/>
    <path class="st23" d="M-1223.4,95.4c0,0,0,.2-.3.1,0,0,0-.2.3-.1Z"/>
    <path class="st36" d="M-1263.3,142.2c2.2-.3,3.5,1.8,3.7,3.5.1,1.5-.8,3.9-2.7,4.2-4.7.6-4.8-7.2-.9-7.7Z"/>
    <path class="st36" d="M-1238.7,145.1h-5.7c.2-3.9,5.6-4.1,5.7,0Z"/>
    <path class="st24" d="M-1245.7,75.4c0,0-.2,0-.1-.2,0,0,.2,0,.1.2Z"/>
    <path class="st23" d="M-1235.2,101.5c0,0,0,0,0,.1h0Z"/>
  </g>
  <path class="st6" d="M-718.1,80.2c3.9.2,6.2,3.7,5.7,7.4,5,.2,8.3,4.4,6.3,9.3,5.2,2.2,4,8.3,2.2,12.5-.4.9-2,4.2-2.9,4.3-.7.1-1.3-.6-1.1-1.2,0-.3,1.4-2.2,1.8-2.8,1.6-3.2,3.8-9.9-1-11.2-1.1,2.2-4.2,7.2-6.5,8-2.3.7-3.8-1.2-3.5-3.3.4-2.6,3.6-5.2,5.9-6.1.6-.2,3.1-.7,3.3-.9.7-.6.7-3,.4-3.8-.5-1.5-3.5-3.5-5-3-.2,0-1.1,2.4-1.4,2.9-1.2,2.2-4.8,6.2-7.5,5.9s-1.8-4.3-.9-6c1.2-2.4,4.1-4.2,6.6-4.8.4,0,1.3,0,1.5-.2.4-2.2-.4-4.3-2.6-5-2.3-.8-1.7.3-2.7,2.1-1.4,2.4-6.1,8.3-9.2,5.3-4-4,5.2-9.8,8.8-9.5.3-5.8-4.7-5.7-8.9-4.7-3.2.8-5,2.5-7,4.9-1.2.4-1.9-.6-1.1-1.7,1.4-2,4.2-4.1,6.6-4.8,5.8-1.8,12.6-1.4,12.4,6.2h0ZM-727.4,88.5c1.3.7,3.8-1.8,4.5-2.7.4-.5,2.4-3.3,2.1-3.7-2,.4-6.8,2.9-7,5.1,0,.4.1,1.2.4,1.4h0ZM-714.9,89.5c-2.6.3-5.4,2.1-6.3,4.6-.2.5-.6,2-.2,2.3,3.1-.7,5.4-4.1,6.4-6.9h0ZM-709.6,98.8c-2.2.4-4.9,2.1-5.6,4.3-.8,2.4.8,1.8,2,.7.5-.4,3.8-4.8,3.6-5h0Z"/>
  <path class="st16" d="M-700.5,173.1c-.7.7-1.1,2.1-.3,2.8,1.6,1.6,3.5-.4,5.2-.7,8.7-1.3,9.5,9.8,2.8,11.3-2.5.5-5.7-.9-6.6-3.4-.6-1.6-.2-5.4-2.1-5.7-3.2-.4-2.3,3.8-3.2,6-.9,2.1-3.7,3.5-5.9,3.1-3.4-.5-5.5-3.3-5-6.7s3.8-5.2,7.1-4.7c1.7.3,3.3,2.2,5,.9,2.6-2.1-1.8-3.9-2.9-5.5-2.3-3.1-1.1-8.1,2.9-9,6.1-1.3,9.8,4.9,5.8,9.5-.8.9-2.1,1.3-2.7,1.9h0Z"/>
  <path class="st37" d="M-850,171.3c-.5,1.2-2.1.6-3.1.8-3.5.6-2.5,1.2-3.2,4.4,4.8-.5,6,.6,6.6-4.6,0-.3-.2-4.4.7-3.1,0,1.8-.4,6.7,1.7,7.3l4.9.8c-1.4.5-5.1.2-6,1.3-.8,1-.7,5.1-.7,6.5-1.1,1.4-.6-3.2-.7-3.3-1.7.8-4.5-.2-5.8,1.1-1.1,1.2-.9,4.8-.9,6.3-.4.6-.7,0-.7-.5-.2-1.4.1-4.9-.9-5.8-1.3-1.2-3.9-.3-5.4-1.1l-.7,3.3c-.8-1.8.2-5.2-1.1-6.5-1.2-1.2-4-.6-5.6-1.3l4.8-1c2.5-.9,1-5,1.9-7.1.9.4-.2,2.2,1,2.6.2,0,3.6-.3,4-.4,3-.7,1.3-5.5,2.6-7.4.5,1.7-.2,6.7,1.9,7.3,1.1.3,3.2.2,4.5.4h0ZM-857,176.4c0-5.1-2.4-4-6.3-4.8-.8,5.2,2.5,4.3,6.3,4.8ZM-857,176.8c-3.1.8-6.8-.6-6.3,4.1,3.6-.7,6,.6,6.3-4.1ZM-849.6,180.9c-.1-4.5-3.4-3.3-6.6-4.1.2,5.2,2.9,3.2,6.6,4.1Z"/>
  <path class="st37" d="M-695.1,13.1c-.5,1.2-2.1.6-3.1.8-3.5.6-2.5,1.2-3.2,4.4,4.8-.5,6,.5,6.6-4.6,0-.3-.2-4.4.7-3.1,0,1.8-.4,6.7,1.7,7.3l4.9.8c-1.4.5-5.1.2-5.9,1.3-.8,1-.7,5.1-.7,6.5-1.1,1.4-.6-3.2-.7-3.3-1.7.8-4.5-.2-5.8,1.1-1.1,1.2-.9,4.8-.9,6.3-.4.6-.7,0-.7-.5-.2-1.4.1-4.9-.9-5.8-1.3-1.2-3.9-.3-5.4-1.1l-.7,3.3c-.8-1.8.2-5.2-1.1-6.5-1.2-1.2-4-.6-5.6-1.3l4.8-1c2.5-.9,1-5,1.9-7.1.9.4-.2,2.2,1,2.6.2,0,3.6-.3,4-.4,2.9-.7,1.3-5.5,2.6-7.4.4,1.7-.2,6.7,1.9,7.3,1.1.3,3.2.2,4.5.4h0ZM-702.1,18.3c0-5.1-2.4-4-6.3-4.8-.8,5.2,2.5,4.3,6.3,4.8ZM-702.1,18.7c-3.1.8-6.8-.5-6.3,4.1,3.6-.7,6,.6,6.3-4.1ZM-694.7,22.7c-.1-4.5-3.4-3.3-6.6-4.1.2,5.2,2.9,3.2,6.6,4.1Z"/>
  <path class="st15" d="M-841,33.6c-1.8,2.2-1,5.3.9,7.3,2.2,2.3,5.8.4,7.2-1.8,2.5-4-2.7-6.1-3.9-3.2-1,2.4,1.6.3,2.3.9,1.6,1.4-2.6,3.1-3.8,1.4-2.4-3.5,3.7-7.5,6.5-4.4,4.6,5-4.5,13.1-9.4,8.7-2.5-2.2-3.9-6.8-1.8-9.6,3.3-4.6,9.1-5.7,13.4-1.9,10.2,9.1-7.4,26-16.3,13.1-4.2-6.1-2.8-13.2,3.1-17.4,13.3-9.4,27.7,9.1,17.5,20.6-1.8,2-7.5,6-10.1,6-1.1,0-1.5-1.2-.5-1.7,1.1-.5,2.7-.8,4-1.5,5.4-2.7,9.6-8.3,7.9-14.5-2.6-9.7-13.5-13.3-20.2-5.1-4.3,5.2-2,13.9,4.2,16.2,3.3,1.3,8.1-1.4,10-4.1,5.6-8.2-4.8-16.8-11.1-8.9Z"/>
  <g>
    <path class="st14" d="M-570.6-320.9h117.3v114.6h-117.3v-114.6Z"/>
    <path class="st33" d="M-526.6-289h-19.1v50.9h10.7v-15.9h8.4c4.8,0,9.2-2,12.4-5.1s5.1-7.5,5.1-12.4c0-9.7-7.8-17.5-17.5-17.5h0ZM-522.1-265.7c-1.5,1.5-3.6,2.4-5.8,2.4h-7v-16.5h7c4.6,0,8.3,3.7,8.3,8.3s-.9,4.4-2.4,5.8h0Z"/>
    <path class="st33" d="M-491.9-272.1v-4.9h-10.2v39h10.2v-22.2c0-1.9.9-3.6,2.4-4.7,4.1-2.8,11.2-2.4,11.2-2.4v-10.7c-8.9,0-13.6,6-13.6,6h0Z"/>
  </g>
  <g>
    <path class="st18" d="M-958.9,168h-82.1c-12.5,0-22.5-9.7-22.5-21.8v-76.3c0-12,10.1-21.8,22.5-21.8h82.1c12.5,0,22.5,9.7,22.5,21.8v76.3c0,12-10.1,21.8-22.5,21.8Z"/>
    <path class="st30" d="M-960.9,162.9h-78.1c-10.6,0-19.2-8.3-19.2-18.6v-72.4c0-10.2,8.6-18.6,19.2-18.6h78.1c10.6,0,19.2,8.4,19.2,18.6v72.4c0,10.3-8.6,18.7-19.2,18.7h0Z"/>
    <path class="st0" d="M-1013.3,104.2l14.8,27.6c.3.4.1.8-.3.8h-9.2c-.6,0-.9-.2-1.1-.7-3.4-6.8-6.8-13.5-10.4-20.8h-.1c-3.2,6.9-6.7,14.1-10.1,20.8-.3.4-.5.6-1,.6h-8.7c-.5,0-.6-.4-.3-.7l14.5-26.8-14-27.1c-.3-.4,0-.7.3-.7h9.1c.5,0,.7.1.9.6,3.3,6.8,6.7,13.7,9.9,20.5h.1c3.1-6.8,6.5-13.8,9.8-20.5.3-.4.4-.7,1-.7h8.5c.4,0,.6.3.3.7l-14,26.2h0ZM-995.9,112.6c0-11.9,8.2-21.3,21.2-21.3s1.7,0,2.8.1v-13.6c0-.3.3-.5.5-.5h8.4c.4,0,.5.1.5.4v47c0,1.4,0,3.1.3,5,0,.3-.1.4-.4.6-4.5,2.1-9.1,3-13.6,3-11.5,0-19.7-6.8-19.7-20.8h0ZM-971.9,99.5c-.7-.3-1.8-.5-3.1-.5-6.7,0-11.3,5-11.3,13.2s4.8,13.2,10.8,13.2,2.6-.2,3.7-.6v-25.4h0Z"/>
  </g>
  <path class="st6" d="M-498.1,80.2c3.9.2,6.2,3.7,5.7,7.4,5,.2,8.3,4.4,6.3,9.3,5.2,2.2,4,8.3,2.2,12.5-.4.9-2,4.2-2.9,4.3-.7.1-1.3-.6-1.1-1.2,0-.3,1.4-2.2,1.8-2.8,1.6-3.2,3.8-9.9-1-11.2-1.1,2.2-4.2,7.2-6.5,8-2.3.7-3.8-1.2-3.5-3.3.4-2.6,3.6-5.2,5.9-6.1.6-.2,3.1-.7,3.3-.9.7-.6.7-3,.4-3.8-.5-1.5-3.5-3.5-5-3-.2,0-1.1,2.4-1.4,2.9-1.2,2.2-4.8,6.2-7.5,5.9s-1.8-4.3-.9-6c1.2-2.4,4.1-4.2,6.6-4.8.4,0,1.3,0,1.5-.2.4-2.2-.4-4.3-2.6-5-2.3-.8-1.7.3-2.7,2.1-1.4,2.4-6.1,8.3-9.2,5.3-4-4,5.2-9.8,8.8-9.5.3-5.8-4.7-5.7-8.9-4.7-3.2.8-5,2.5-7,4.9-1.2.4-1.9-.6-1.1-1.7,1.4-2,4.2-4.1,6.6-4.8,5.8-1.8,12.6-1.4,12.4,6.2h0ZM-507.4,88.5c1.3.7,3.8-1.8,4.5-2.7.4-.5,2.4-3.3,2.1-3.7-2,.4-6.8,2.9-7,5.1,0,.4.1,1.2.4,1.4h0ZM-494.9,89.5c-2.6.3-5.4,2.1-6.3,4.6-.2.5-.6,2-.2,2.3,3.1-.7,5.4-4.1,6.4-6.9h0ZM-489.6,98.8c-2.2.4-4.9,2.1-5.6,4.3-.8,2.4.8,1.8,2,.7.5-.4,3.8-4.8,3.6-5h0Z"/>
  <path class="st16" d="M-480.5,173.1c-.7.7-1.1,2.1-.3,2.8,1.6,1.6,3.5-.4,5.2-.7,8.7-1.3,9.5,9.8,2.8,11.3-2.5.5-5.7-.9-6.6-3.4-.6-1.6-.2-5.4-2.1-5.7-3.2-.4-2.3,3.8-3.2,6-.9,2.1-3.7,3.5-5.9,3.1-3.4-.5-5.5-3.3-5-6.7s3.8-5.2,7.1-4.7c1.7.3,3.3,2.2,5,.9,2.6-2.1-1.8-3.9-2.9-5.5-2.3-3.1-1.1-8.1,2.9-9,6.1-1.3,9.8,4.9,5.8,9.5-.8.9-2.1,1.3-2.7,1.9h0Z"/>
  <path class="st37" d="M-630,171.3c-.5,1.2-2.1.6-3.1.8-3.5.6-2.5,1.2-3.2,4.4,4.8-.5,6,.6,6.6-4.6,0-.3-.2-4.4.7-3.1,0,1.8-.4,6.7,1.7,7.3l4.9.8c-1.4.5-5.1.2-6,1.3-.8,1-.7,5.1-.7,6.5-1.1,1.4-.6-3.2-.7-3.3-1.7.8-4.5-.2-5.8,1.1-1.1,1.2-.9,4.8-.9,6.3-.4.6-.7,0-.7-.5-.2-1.4.1-4.9-.9-5.8-1.3-1.2-3.9-.3-5.4-1.1l-.7,3.3c-.8-1.8.2-5.2-1.1-6.5-1.2-1.2-4-.6-5.6-1.3l4.8-1c2.5-.9,1-5,1.9-7.1.9.4-.2,2.2,1,2.6.2,0,3.6-.3,4-.4,3-.7,1.3-5.5,2.6-7.4.5,1.7-.2,6.7,1.9,7.3,1.1.3,3.2.2,4.5.4h0ZM-637,176.4c0-5.1-2.4-4-6.3-4.8-.8,5.2,2.5,4.3,6.3,4.8ZM-637,176.8c-3.1.8-6.8-.6-6.3,4.1,3.6-.7,6,.6,6.3-4.1ZM-629.6,180.9c-.1-4.5-3.4-3.3-6.6-4.1.2,5.2,2.9,3.2,6.6,4.1Z"/>
  <path class="st37" d="M-475.1,13.1c-.5,1.2-2.1.6-3.1.8-3.5.6-2.5,1.2-3.2,4.4,4.8-.5,6,.5,6.6-4.6,0-.3-.2-4.4.7-3.1,0,1.8-.4,6.7,1.7,7.3l4.9.8c-1.4.5-5.1.2-5.9,1.3-.8,1-.7,5.1-.7,6.5-1.1,1.4-.6-3.2-.7-3.3-1.7.8-4.5-.2-5.8,1.1-1.1,1.2-.9,4.8-.9,6.3-.4.6-.7,0-.7-.5-.2-1.4.1-4.9-.9-5.8-1.3-1.2-3.9-.3-5.4-1.1l-.7,3.3c-.8-1.8.2-5.2-1.1-6.5-1.2-1.2-4-.6-5.6-1.3l4.8-1c2.5-.9,1-5,1.9-7.1.9.4-.2,2.2,1,2.6.2,0,3.6-.3,4-.4,2.9-.7,1.3-5.5,2.6-7.4.4,1.7-.2,6.7,1.9,7.3,1.1.3,3.2.2,4.5.4h0ZM-482.1,18.3c0-5.1-2.4-4-6.3-4.8-.8,5.2,2.5,4.3,6.3,4.8ZM-482.1,18.7c-3.1.8-6.8-.5-6.3,4.1,3.6-.7,6,.6,6.3-4.1ZM-474.7,22.7c-.1-4.5-3.4-3.3-6.6-4.1.2,5.2,2.9,3.2,6.6,4.1Z"/>
  <path class="st15" d="M-621,33.6c-1.8,2.2-1,5.3.9,7.3,2.2,2.3,5.8.4,7.2-1.8,2.5-4-2.7-6.1-3.9-3.2-1,2.4,1.6.3,2.3.9,1.6,1.4-2.6,3.1-3.8,1.4-2.4-3.5,3.7-7.5,6.5-4.4,4.6,5-4.5,13.1-9.4,8.7-2.5-2.2-3.9-6.8-1.8-9.6,3.3-4.6,9.1-5.7,13.4-1.9,10.2,9.1-7.4,26-16.3,13.1-4.2-6.1-2.8-13.2,3.1-17.4,13.3-9.4,27.7,9.1,17.5,20.6-1.8,2-7.5,6-10.1,6-1.1,0-1.5-1.2-.5-1.7,1.1-.5,2.7-.8,4-1.5,5.4-2.7,9.6-8.3,7.9-14.5-2.6-9.7-13.5-13.3-20.2-5.1-4.3,5.2-2,13.9,4.2,16.2,3.3,1.3,8.1-1.4,10-4.1,5.6-8.2-4.8-16.8-11.1-8.9Z"/>
  <path class="st6" d="M-498.1,80.2c3.9.2,6.2,3.7,5.7,7.4,5,.2,8.3,4.4,6.3,9.3,5.2,2.2,4,8.3,2.2,12.5-.4.9-2,4.2-2.9,4.3-.7.1-1.3-.6-1.1-1.2,0-.3,1.4-2.2,1.8-2.8,1.6-3.2,3.8-9.9-1-11.2-1.1,2.2-4.2,7.2-6.5,8-2.3.7-3.8-1.2-3.5-3.3.4-2.6,3.6-5.2,5.9-6.1.6-.2,3.1-.7,3.3-.9.7-.6.7-3,.4-3.8-.5-1.5-3.5-3.5-5-3-.2,0-1.1,2.4-1.4,2.9-1.2,2.2-4.8,6.2-7.5,5.9s-1.8-4.3-.9-6c1.2-2.4,4.1-4.2,6.6-4.8.4,0,1.3,0,1.5-.2.4-2.2-.4-4.3-2.6-5-2.3-.8-1.7.3-2.7,2.1-1.4,2.4-6.1,8.3-9.2,5.3-4-4,5.2-9.8,8.8-9.5.3-5.8-4.7-5.7-8.9-4.7-3.2.8-5,2.5-7,4.9-1.2.4-1.9-.6-1.1-1.7,1.4-2,4.2-4.1,6.6-4.8,5.8-1.8,12.6-1.4,12.4,6.2h0ZM-507.4,88.5c1.3.7,3.8-1.8,4.5-2.7.4-.5,2.4-3.3,2.1-3.7-2,.4-6.8,2.9-7,5.1,0,.4.1,1.2.4,1.4h0ZM-494.9,89.5c-2.6.3-5.4,2.1-6.3,4.6-.2.5-.6,2-.2,2.3,3.1-.7,5.4-4.1,6.4-6.9h0ZM-489.6,98.8c-2.2.4-4.9,2.1-5.6,4.3-.8,2.4.8,1.8,2,.7.5-.4,3.8-4.8,3.6-5h0Z"/>
  <path class="st16" d="M-480.5,173.1c-.7.7-1.1,2.1-.3,2.8,1.6,1.6,3.5-.4,5.2-.7,8.7-1.3,9.5,9.8,2.8,11.3-2.5.5-5.7-.9-6.6-3.4-.6-1.6-.2-5.4-2.1-5.7-3.2-.4-2.3,3.8-3.2,6-.9,2.1-3.7,3.5-5.9,3.1-3.4-.5-5.5-3.3-5-6.7s3.8-5.2,7.1-4.7c1.7.3,3.3,2.2,5,.9,2.6-2.1-1.8-3.9-2.9-5.5-2.3-3.1-1.1-8.1,2.9-9,6.1-1.3,9.8,4.9,5.8,9.5-.8.9-2.1,1.3-2.7,1.9h0Z"/>
  <path class="st37" d="M-630,171.3c-.5,1.2-2.1.6-3.1.8-3.5.6-2.5,1.2-3.2,4.4,4.8-.5,6,.6,6.6-4.6,0-.3-.2-4.4.7-3.1,0,1.8-.4,6.7,1.7,7.3l4.9.8c-1.4.5-5.1.2-6,1.3-.8,1-.7,5.1-.7,6.5-1.1,1.4-.6-3.2-.7-3.3-1.7.8-4.5-.2-5.8,1.1-1.1,1.2-.9,4.8-.9,6.3-.4.6-.7,0-.7-.5-.2-1.4.1-4.9-.9-5.8-1.3-1.2-3.9-.3-5.4-1.1l-.7,3.3c-.8-1.8.2-5.2-1.1-6.5-1.2-1.2-4-.6-5.6-1.3l4.8-1c2.5-.9,1-5,1.9-7.1.9.4-.2,2.2,1,2.6.2,0,3.6-.3,4-.4,3-.7,1.3-5.5,2.6-7.4.5,1.7-.2,6.7,1.9,7.3,1.1.3,3.2.2,4.5.4h0ZM-637,176.4c0-5.1-2.4-4-6.3-4.8-.8,5.2,2.5,4.3,6.3,4.8ZM-637,176.8c-3.1.8-6.8-.6-6.3,4.1,3.6-.7,6,.6,6.3-4.1ZM-629.6,180.9c-.1-4.5-3.4-3.3-6.6-4.1.2,5.2,2.9,3.2,6.6,4.1Z"/>
  <path class="st37" d="M-475.1,13.1c-.5,1.2-2.1.6-3.1.8-3.5.6-2.5,1.2-3.2,4.4,4.8-.5,6,.5,6.6-4.6,0-.3-.2-4.4.7-3.1,0,1.8-.4,6.7,1.7,7.3l4.9.8c-1.4.5-5.1.2-5.9,1.3-.8,1-.7,5.1-.7,6.5-1.1,1.4-.6-3.2-.7-3.3-1.7.8-4.5-.2-5.8,1.1-1.1,1.2-.9,4.8-.9,6.3-.4.6-.7,0-.7-.5-.2-1.4.1-4.9-.9-5.8-1.3-1.2-3.9-.3-5.4-1.1l-.7,3.3c-.8-1.8.2-5.2-1.1-6.5-1.2-1.2-4-.6-5.6-1.3l4.8-1c2.5-.9,1-5,1.9-7.1.9.4-.2,2.2,1,2.6.2,0,3.6-.3,4-.4,2.9-.7,1.3-5.5,2.6-7.4.4,1.7-.2,6.7,1.9,7.3,1.1.3,3.2.2,4.5.4h0ZM-482.1,18.3c0-5.1-2.4-4-6.3-4.8-.8,5.2,2.5,4.3,6.3,4.8ZM-482.1,18.7c-3.1.8-6.8-.5-6.3,4.1,3.6-.7,6,.6,6.3-4.1ZM-474.7,22.7c-.1-4.5-3.4-3.3-6.6-4.1.2,5.2,2.9,3.2,6.6,4.1Z"/>
  <path class="st15" d="M-621,33.6c-1.8,2.2-1,5.3.9,7.3,2.2,2.3,5.8.4,7.2-1.8,2.5-4-2.7-6.1-3.9-3.2-1,2.4,1.6.3,2.3.9,1.6,1.4-2.6,3.1-3.8,1.4-2.4-3.5,3.7-7.5,6.5-4.4,4.6,5-4.5,13.1-9.4,8.7-2.5-2.2-3.9-6.8-1.8-9.6,3.3-4.6,9.1-5.7,13.4-1.9,10.2,9.1-7.4,26-16.3,13.1-4.2-6.1-2.8-13.2,3.1-17.4,13.3-9.4,27.7,9.1,17.5,20.6-1.8,2-7.5,6-10.1,6-1.1,0-1.5-1.2-.5-1.7,1.1-.5,2.7-.8,4-1.5,5.4-2.7,9.6-8.3,7.9-14.5-2.6-9.7-13.5-13.3-20.2-5.1-4.3,5.2-2,13.9,4.2,16.2,3.3,1.3,8.1-1.4,10-4.1,5.6-8.2-4.8-16.8-11.1-8.9Z"/>
  <path class="st6" d="M-278.1,80.2c3.9.2,6.2,3.7,5.7,7.4,5,.2,8.3,4.4,6.3,9.3,5.2,2.2,4,8.3,2.2,12.5-.4.9-2,4.2-2.9,4.3-.7.1-1.3-.6-1.1-1.2,0-.3,1.4-2.2,1.8-2.8,1.6-3.2,3.8-9.9-1-11.2-1.1,2.2-4.2,7.2-6.5,8-2.3.7-3.8-1.2-3.5-3.3.4-2.6,3.6-5.2,5.9-6.1.6-.2,3.1-.7,3.3-.9.7-.6.7-3,.4-3.8-.5-1.5-3.5-3.5-5-3-.2,0-1.1,2.4-1.4,2.9-1.2,2.2-4.8,6.2-7.5,5.9s-1.8-4.3-.9-6c1.2-2.4,4.1-4.2,6.6-4.8.4,0,1.3,0,1.5-.2.4-2.2-.4-4.3-2.6-5-2.3-.8-1.7.3-2.7,2.1-1.4,2.4-6.1,8.3-9.2,5.3-4-4,5.2-9.8,8.8-9.5.3-5.8-4.7-5.7-8.9-4.7-3.2.8-5,2.5-7,4.9-1.2.4-1.9-.6-1.1-1.7,1.4-2,4.2-4.1,6.6-4.8,5.8-1.8,12.6-1.4,12.4,6.2h0ZM-287.4,88.5c1.3.7,3.8-1.8,4.5-2.7.4-.5,2.4-3.3,2.1-3.7-2,.4-6.8,2.9-7,5.1,0,.4.1,1.2.4,1.4h0ZM-274.9,89.5c-2.6.3-5.4,2.1-6.3,4.6-.2.5-.6,2-.2,2.3,3.1-.7,5.4-4.1,6.4-6.9h0ZM-269.6,98.8c-2.2.4-4.9,2.1-5.6,4.3-.8,2.4.8,1.8,2,.7.5-.4,3.8-4.8,3.6-5h0Z"/>
  <path class="st16" d="M-260.5,173.1c-.7.7-1.1,2.1-.3,2.8,1.6,1.6,3.5-.4,5.2-.7,8.7-1.3,9.5,9.8,2.8,11.3-2.5.5-5.7-.9-6.6-3.4-.6-1.6-.2-5.4-2.1-5.7-3.2-.4-2.3,3.8-3.2,6-.9,2.1-3.7,3.5-5.9,3.1-3.4-.5-5.5-3.3-5-6.7s3.8-5.2,7.1-4.7c1.7.3,3.3,2.2,5,.9,2.6-2.1-1.8-3.9-2.9-5.5-2.3-3.1-1.1-8.1,2.9-9,6.1-1.3,9.8,4.9,5.8,9.5-.8.9-2.1,1.3-2.7,1.9h0Z"/>
  <path class="st37" d="M-410,171.3c-.5,1.2-2.1.6-3.1.8-3.5.6-2.5,1.2-3.2,4.4,4.8-.5,6,.6,6.6-4.6,0-.3-.2-4.4.7-3.1,0,1.8-.4,6.7,1.7,7.3l4.9.8c-1.4.5-5.1.2-6,1.3-.8,1-.7,5.1-.7,6.5-1.1,1.4-.6-3.2-.7-3.3-1.7.8-4.5-.2-5.8,1.1-1.1,1.2-.9,4.8-.9,6.3-.4.6-.7,0-.7-.5-.2-1.4.1-4.9-.9-5.8-1.3-1.2-3.9-.3-5.4-1.1l-.7,3.3c-.8-1.8.2-5.2-1.1-6.5-1.2-1.2-4-.6-5.6-1.3l4.8-1c2.5-.9,1-5,1.9-7.1.9.4-.2,2.2,1,2.6.2,0,3.6-.3,4-.4,3-.7,1.3-5.5,2.6-7.4.5,1.7-.2,6.7,1.9,7.3,1.1.3,3.2.2,4.5.4h0ZM-417,176.4c0-5.1-2.4-4-6.3-4.8-.8,5.2,2.5,4.3,6.3,4.8ZM-417,176.8c-3.1.8-6.8-.6-6.3,4.1,3.6-.7,6,.6,6.3-4.1ZM-409.6,180.9c-.1-4.5-3.4-3.3-6.6-4.1.2,5.2,2.9,3.2,6.6,4.1Z"/>
  <path class="st37" d="M-255.1,13.1c-.5,1.2-2.1.6-3.1.8-3.5.6-2.5,1.2-3.2,4.4,4.8-.5,6,.5,6.6-4.6,0-.3-.2-4.4.7-3.1,0,1.8-.4,6.7,1.7,7.3l4.9.8c-1.4.5-5.1.2-5.9,1.3-.8,1-.7,5.1-.7,6.5-1.1,1.4-.6-3.2-.7-3.3-1.7.8-4.5-.2-5.8,1.1-1.1,1.2-.9,4.8-.9,6.3-.4.6-.7,0-.7-.5-.2-1.4.1-4.9-.9-5.8-1.3-1.2-3.9-.3-5.4-1.1l-.7,3.3c-.8-1.8.2-5.2-1.1-6.5-1.2-1.2-4-.6-5.6-1.3l4.8-1c2.5-.9,1-5,1.9-7.1.9.4-.2,2.2,1,2.6.2,0,3.6-.3,4-.4,2.9-.7,1.3-5.5,2.6-7.4.4,1.7-.2,6.7,1.9,7.3,1.1.3,3.2.2,4.5.4h0ZM-262.1,18.3c0-5.1-2.4-4-6.3-4.8-.8,5.2,2.5,4.3,6.3,4.8ZM-262.1,18.7c-3.1.8-6.8-.5-6.3,4.1,3.6-.7,6,.6,6.3-4.1ZM-254.7,22.7c-.1-4.5-3.4-3.3-6.6-4.1.2,5.2,2.9,3.2,6.6,4.1Z"/>
  <path class="st15" d="M-401,33.6c-1.8,2.2-1,5.3.9,7.3,2.2,2.3,5.8.4,7.2-1.8,2.5-4-2.7-6.1-3.9-3.2-1,2.4,1.6.3,2.3.9,1.6,1.4-2.6,3.1-3.8,1.4-2.4-3.5,3.7-7.5,6.5-4.4,4.6,5-4.5,13.1-9.4,8.7-2.5-2.2-3.9-6.8-1.8-9.6,3.3-4.6,9.1-5.7,13.4-1.9,10.2,9.1-7.4,26-16.3,13.1-4.2-6.1-2.8-13.2,3.1-17.4,13.3-9.4,27.7,9.1,17.5,20.6-1.8,2-7.5,6-10.1,6-1.1,0-1.5-1.2-.5-1.7,1.1-.5,2.7-.8,4-1.5,5.4-2.7,9.6-8.3,7.9-14.5-2.6-9.7-13.5-13.3-20.2-5.1-4.3,5.2-2,13.9,4.2,16.2,3.3,1.3,8.1-1.4,10-4.1,5.6-8.2-4.8-16.8-11.1-8.9Z"/>
  <path class="st6" d="M-278.1,80.2c3.9.2,6.2,3.7,5.7,7.4,5,.2,8.3,4.4,6.3,9.3,5.2,2.2,4,8.3,2.2,12.5-.4.9-2,4.2-2.9,4.3-.7.1-1.3-.6-1.1-1.2,0-.3,1.4-2.2,1.8-2.8,1.6-3.2,3.8-9.9-1-11.2-1.1,2.2-4.2,7.2-6.5,8-2.3.7-3.8-1.2-3.5-3.3.4-2.6,3.6-5.2,5.9-6.1.6-.2,3.1-.7,3.3-.9.7-.6.7-3,.4-3.8-.5-1.5-3.5-3.5-5-3-.2,0-1.1,2.4-1.4,2.9-1.2,2.2-4.8,6.2-7.5,5.9s-1.8-4.3-.9-6c1.2-2.4,4.1-4.2,6.6-4.8.4,0,1.3,0,1.5-.2.4-2.2-.4-4.3-2.6-5-2.3-.8-1.7.3-2.7,2.1-1.4,2.4-6.1,8.3-9.2,5.3-4-4,5.2-9.8,8.8-9.5.3-5.8-4.7-5.7-8.9-4.7-3.2.8-5,2.5-7,4.9-1.2.4-1.9-.6-1.1-1.7,1.4-2,4.2-4.1,6.6-4.8,5.8-1.8,12.6-1.4,12.4,6.2h0ZM-287.4,88.5c1.3.7,3.8-1.8,4.5-2.7.4-.5,2.4-3.3,2.1-3.7-2,.4-6.8,2.9-7,5.1,0,.4.1,1.2.4,1.4h0ZM-274.9,89.5c-2.6.3-5.4,2.1-6.3,4.6-.2.5-.6,2-.2,2.3,3.1-.7,5.4-4.1,6.4-6.9h0ZM-269.6,98.8c-2.2.4-4.9,2.1-5.6,4.3-.8,2.4.8,1.8,2,.7.5-.4,3.8-4.8,3.6-5h0Z"/>
  <path class="st16" d="M-260.5,173.1c-.7.7-1.1,2.1-.3,2.8,1.6,1.6,3.5-.4,5.2-.7,8.7-1.3,9.5,9.8,2.8,11.3-2.5.5-5.7-.9-6.6-3.4-.6-1.6-.2-5.4-2.1-5.7-3.2-.4-2.3,3.8-3.2,6-.9,2.1-3.7,3.5-5.9,3.1-3.4-.5-5.5-3.3-5-6.7s3.8-5.2,7.1-4.7c1.7.3,3.3,2.2,5,.9,2.6-2.1-1.8-3.9-2.9-5.5-2.3-3.1-1.1-8.1,2.9-9,6.1-1.3,9.8,4.9,5.8,9.5-.8.9-2.1,1.3-2.7,1.9h0Z"/>
  <path class="st37" d="M-410,171.3c-.5,1.2-2.1.6-3.1.8-3.5.6-2.5,1.2-3.2,4.4,4.8-.5,6,.6,6.6-4.6,0-.3-.2-4.4.7-3.1,0,1.8-.4,6.7,1.7,7.3l4.9.8c-1.4.5-5.1.2-6,1.3-.8,1-.7,5.1-.7,6.5-1.1,1.4-.6-3.2-.7-3.3-1.7.8-4.5-.2-5.8,1.1-1.1,1.2-.9,4.8-.9,6.3-.4.6-.7,0-.7-.5-.2-1.4.1-4.9-.9-5.8-1.3-1.2-3.9-.3-5.4-1.1l-.7,3.3c-.8-1.8.2-5.2-1.1-6.5-1.2-1.2-4-.6-5.6-1.3l4.8-1c2.5-.9,1-5,1.9-7.1.9.4-.2,2.2,1,2.6.2,0,3.6-.3,4-.4,3-.7,1.3-5.5,2.6-7.4.5,1.7-.2,6.7,1.9,7.3,1.1.3,3.2.2,4.5.4h0ZM-417,176.4c0-5.1-2.4-4-6.3-4.8-.8,5.2,2.5,4.3,6.3,4.8ZM-417,176.8c-3.1.8-6.8-.6-6.3,4.1,3.6-.7,6,.6,6.3-4.1ZM-409.6,180.9c-.1-4.5-3.4-3.3-6.6-4.1.2,5.2,2.9,3.2,6.6,4.1Z"/>
  <path class="st37" d="M-255.1,13.1c-.5,1.2-2.1.6-3.1.8-3.5.6-2.5,1.2-3.2,4.4,4.8-.5,6,.5,6.6-4.6,0-.3-.2-4.4.7-3.1,0,1.8-.4,6.7,1.7,7.3l4.9.8c-1.4.5-5.1.2-5.9,1.3-.8,1-.7,5.1-.7,6.5-1.1,1.4-.6-3.2-.7-3.3-1.7.8-4.5-.2-5.8,1.1-1.1,1.2-.9,4.8-.9,6.3-.4.6-.7,0-.7-.5-.2-1.4.1-4.9-.9-5.8-1.3-1.2-3.9-.3-5.4-1.1l-.7,3.3c-.8-1.8.2-5.2-1.1-6.5-1.2-1.2-4-.6-5.6-1.3l4.8-1c2.5-.9,1-5,1.9-7.1.9.4-.2,2.2,1,2.6.2,0,3.6-.3,4-.4,2.9-.7,1.3-5.5,2.6-7.4.4,1.7-.2,6.7,1.9,7.3,1.1.3,3.2.2,4.5.4h0ZM-262.1,18.3c0-5.1-2.4-4-6.3-4.8-.8,5.2,2.5,4.3,6.3,4.8ZM-262.1,18.7c-3.1.8-6.8-.5-6.3,4.1,3.6-.7,6,.6,6.3-4.1ZM-254.7,22.7c-.1-4.5-3.4-3.3-6.6-4.1.2,5.2,2.9,3.2,6.6,4.1Z"/>
  <path class="st15" d="M-401,33.6c-1.8,2.2-1,5.3.9,7.3,2.2,2.3,5.8.4,7.2-1.8,2.5-4-2.7-6.1-3.9-3.2-1,2.4,1.6.3,2.3.9,1.6,1.4-2.6,3.1-3.8,1.4-2.4-3.5,3.7-7.5,6.5-4.4,4.6,5-4.5,13.1-9.4,8.7-2.5-2.2-3.9-6.8-1.8-9.6,3.3-4.6,9.1-5.7,13.4-1.9,10.2,9.1-7.4,26-16.3,13.1-4.2-6.1-2.8-13.2,3.1-17.4,13.3-9.4,27.7,9.1,17.5,20.6-1.8,2-7.5,6-10.1,6-1.1,0-1.5-1.2-.5-1.7,1.1-.5,2.7-.8,4-1.5,5.4-2.7,9.6-8.3,7.9-14.5-2.6-9.7-13.5-13.3-20.2-5.1-4.3,5.2-2,13.9,4.2,16.2,3.3,1.3,8.1-1.4,10-4.1,5.6-8.2-4.8-16.8-11.1-8.9Z"/>
</svg>