<?xml version="1.0" encoding="UTF-8"?>
<svg id="Capa_1" xmlns="http://www.w3.org/2000/svg" version="1.1" viewBox="0 0 1920 600">
  <!-- Generator: Adobe Illustrator 29.1.0, SVG Export Plug-In . SVG Version: 2.1.0 Build 142)  -->
  <defs>
    <style>
      .st0 {
        fill: #f7b1ed;
      }

      .st0, .st1, .st2, .st3 {
        stroke: #000;
        stroke-miterlimit: 10;
        stroke-width: 3.6px;
      }

      .st1 {
        fill: #9cd9c0;
      }

      .st4 {
        fill: #f4dc00;
        stroke: #1d1d1b;
        stroke-linecap: round;
        stroke-linejoin: round;
        stroke-width: 2.2px;
      }

      .st2 {
        fill: #bcbcf4;
      }

      .st3 {
        fill: #f7d381;
      }
    </style>
  </defs>
  <polygon class="st4" points="504.9 147.1 485.7 123.1 452.8 123.6 479.5 106.3 478.9 76.8 498.1 100.7 531 100.2 504.4 117.5 504.9 147.1"/>
  <polygon class="st4" points="107.5 499.6 88.2 475.6 55.4 476.2 82 458.9 81.4 429.3 100.7 453.3 133.5 452.7 106.9 470 107.5 499.6"/>
  <polygon class="st4" points="1832.4 486.8 1813.2 462.8 1780.3 463.4 1806.9 446 1806.3 416.5 1825.6 440.5 1858.4 439.9 1831.8 457.2 1832.4 486.8"/>
  <polygon class="st4" points="1832.4 117.5 1813.2 93.6 1780.3 94.1 1806.9 76.8 1806.3 47.2 1825.6 71.2 1858.4 70.7 1831.8 88 1832.4 117.5"/>
  <polygon class="st4" points="107.5 132.1 88.2 108.1 55.4 108.7 82 91.3 81.4 61.8 100.7 85.8 133.5 85.2 106.9 102.5 107.5 132.1"/>
  <polygon class="st4" points="1002.4 222.9 983.1 199 950.3 199.5 976.9 182.2 976.3 152.6 995.5 176.6 1028.4 176.1 1001.8 193.4 1002.4 222.9"/>
  <polygon class="st4" points="1524.9 187.8 1505.7 163.8 1472.8 164.4 1499.5 147.1 1498.9 117.5 1518.1 141.5 1551 140.9 1524.3 158.2 1524.9 187.8"/>
  <g>
    <path class="st0" d="M397.9,236.5c0,8.3-2.9,15.9-8.5,22.7-5.7,6.8-12.7,12.9-20.9,18.2-8.2,5.4-16.8,10-25.8,14-9,3.9-16.8,7.2-23.3,9.9,0,4.6-.1,9.3-.3,14.1-.2,4.8-.6,9.6-1,14.5,7-3.5,14.9-6.8,23.7-9.9,8.8-3.1,17.1-4.6,25-4.6s11.6,1.3,15.6,3.9c4.1,2.6,6.1,7.2,6.1,13.8s-2.6,13.7-7.7,19.4c-5.2,5.7-11.3,10.7-18.6,15.1-7.2,4.4-14.8,8.1-22.7,11.2-7.9,3.1-14.6,5.5-20.1,7.2,0,7.2-.1,14.4-.3,21.5-.2,7.1-.6,14.2-1,21.2-.2,3.5-.6,7.9-1.2,13.2-.5,5.3-1.6,10.4-3.3,15.3-1.6,4.9-4,9.2-7.1,12.8-3.1,3.6-7,5.4-11.8,5.4s-8.5-2.2-11.8-6.7c-3.3-4.5-6.1-10.2-8.4-17.3-2.3-7-4.2-14.8-5.6-23.5-1.4-8.7-2.5-17.1-3.3-25.5-.8-8.3-1.2-16-1.3-23-.1-7-.2-12.4-.2-16.1s0-7.1.2-12.7c.1-5.6.2-11.8.3-18.6.1-6.8.3-13.9.7-21.4.3-7.4.7-14.5,1.2-21.2.4-6.7,1-12.6,1.8-17.8.8-5.1,1.7-8.9,2.8-11.3,2.4-4.8,8.2-9.6,17.3-14.3,9.1-4.7,19.2-8.9,30.4-12.5s22.1-6.6,32.7-8.9c10.6-2.3,18.8-3.5,24.5-3.5s5.2.2,7.7.5c2.5.3,4.9,1,7.1,2.1,2.2,1.1,3.9,2.6,5.3,4.6,1.3,2,2,4.6,2,7.9Z"/>
    <path class="st2" d="M462,483.5c-11.2,0-20.9-3-29.3-8.9-8.3-5.9-15.3-13.5-21-22.7-5.7-9.2-10-19.4-12.8-30.7-2.9-11.3-4.3-22.4-4.3-33.4s1.4-23.6,4.3-36c2.8-12.4,7.2-23.7,13.2-33.9,5.9-10.2,13.5-18.5,22.7-25,9.2-6.5,20.2-9.7,32.9-9.7s22.7,3.3,31.4,10c8.7,6.7,15.6,15,20.9,25,5.3,10,9,20.9,11.2,32.7,2.2,11.8,3,23,2.3,33.5-.7,11.6-2.5,23.3-5.4,35.2-3,11.8-7.3,22.5-13,31.9-5.7,9.4-12.9,17.1-21.7,23-8.8,5.9-19.2,8.9-31.2,8.9ZM465.3,334.8c-3.3,0-6.2,1.8-8.7,5.3-2.5,3.5-4.6,7.8-6.2,12.8-1.6,5-2.9,10.4-3.8,15.9-.9,5.6-1.3,10.5-1.3,14.6s.5,11,1.5,17.1c1,6.1,2.4,11.8,4.1,16.9,1.8,5.2,3.9,9.4,6.4,12.8,2.5,3.4,5.4,5.1,8.7,5.1s6.5-1.6,9-4.9c2.5-3.3,4.5-7.4,6.1-12.5,1.5-5,2.6-10.6,3.3-16.6.7-6,1-11.7,1-16.9s-.4-10.1-1.3-15.9c-.9-5.8-2.1-11.2-3.8-16.3-1.6-5-3.7-9.2-6.2-12.5-2.5-3.3-5.4-4.9-8.7-4.9Z"/>
    <path class="st0" d="M626.7,485.8c-15.6,0-27.7-2-36.3-6.1-8.7-4.1-15.1-9.8-19.4-17.3-4.3-7.4-6.9-16.4-7.7-27-.9-10.5-1.3-22.2-1.3-35.2s.3-20.7,1-31.1c.7-10.4,1.6-21.5,3-33.4-3.1,0-5.5,0-7.2.2-1.8.1-3.2.2-4.3.2-7,0-13.1-1.5-18.2-4.6-5.1-3.1-7.7-7.8-7.7-14.1s1.5-7.4,4.4-10.5c3-3.1,6.7-5.7,11.3-7.9,4.6-2.2,9.6-3.9,15-5.3,5.4-1.3,10.5-2.2,15.3-2.6,0-6.1.4-12.9,1.3-20.4.9-7.4,2.5-14.4,4.8-20.9,2.3-6.5,5.4-11.9,9.4-16.3,3.9-4.4,9-6.6,15.1-6.6s6.6,1,9.4,3.1c2.7,2.1,5,4.7,6.7,7.9,1.8,3.2,3.1,6.7,3.9,10.7.9,3.9,1.3,7.8,1.3,11.5s-.3,8.9-1,13.5c-.7,4.6-1.9,10.3-3.6,17.1,3.7-.4,6.2-.7,7.6-.8,1.3-.1,2.5-.2,3.6-.2,3.7,0,7.6.3,11.7,1,4.1.7,7.8,1.8,11.2,3.3,3.4,1.5,6.2,3.6,8.4,6.1,2.2,2.5,3.3,5.5,3.3,9s-1.6,7.5-4.8,10.5c-3.2,3.1-7.2,5.7-12,7.9-4.8,2.2-10,3.9-15.5,5.1-5.5,1.2-10.6,2-15.5,2.5-1.3,9-2.3,17.3-2.8,24.8-.6,7.6-1.2,15.2-1.8,22.9-.4,3.7-.8,7.5-1.2,11.3-.3,3.8-.5,7.7-.5,11.7s.1,6.2.3,10c.2,3.8,1,7.5,2.3,11,1.3,3.5,3.4,6.5,6.2,9,2.8,2.5,6.8,3.8,11.8,3.8s6.2-.3,9.5-.8c3.3-.5,6.6-.8,9.9-.8,5.7,0,9.8,2,12.3,5.9,2.5,3.9,3.8,9,3.8,15.1s-1.4,8.6-4.1,12c-2.7,3.4-6.2,6.1-10.4,8.2-4.2,2.1-8.8,3.7-14,4.8-5.2,1.1-10,1.6-14.6,1.6Z"/>
    <path class="st1" d="M738.8,483.5c-11.2,0-20.9-3-29.3-8.9-8.3-5.9-15.3-13.5-21-22.7-5.7-9.2-10-19.4-12.8-30.7-2.9-11.3-4.3-22.4-4.3-33.4s1.4-23.6,4.3-36c2.8-12.4,7.2-23.7,13.2-33.9,5.9-10.2,13.5-18.5,22.7-25,9.2-6.5,20.2-9.7,32.9-9.7s22.7,3.3,31.4,10c8.7,6.7,15.6,15,20.9,25,5.3,10,9,20.9,11.2,32.7,2.2,11.8,3,23,2.3,33.5-.7,11.6-2.5,23.3-5.4,35.2-3,11.8-7.3,22.5-13,31.9-5.7,9.4-12.9,17.1-21.7,23-8.8,5.9-19.2,8.9-31.2,8.9ZM742.1,334.8c-3.3,0-6.2,1.8-8.7,5.3-2.5,3.5-4.6,7.8-6.2,12.8-1.6,5-2.9,10.4-3.8,15.9-.9,5.6-1.3,10.5-1.3,14.6s.5,11,1.5,17.1c1,6.1,2.4,11.8,4.1,16.9,1.8,5.2,3.9,9.4,6.4,12.8,2.5,3.4,5.4,5.1,8.7,5.1s6.5-1.6,9-4.9c2.5-3.3,4.5-7.4,6.1-12.5,1.5-5,2.6-10.6,3.3-16.6.7-6,1-11.7,1-16.9s-.4-10.1-1.3-15.9c-.9-5.8-2.1-11.2-3.8-16.3-1.6-5-3.7-9.2-6.2-12.5-2.5-3.3-5.4-4.9-8.7-4.9Z"/>
    <path class="st3" d="M975.9,361.8c0,11.2-.2,22.4-.5,33.5-.3,11.2-.9,22.4-1.8,33.5-.7,9.6-1.5,19.9-2.6,30.9-1.1,11-2.9,21.9-5.3,32.7-2.4,10.9-5.6,21.3-9.5,31.2-3.9,10-9.2,18.8-15.6,26.5-6.5,7.7-14.3,13.8-23.5,18.4-9.2,4.6-20.2,6.9-32.9,6.9s-12.6-.9-19.9-2.8c-7.3-1.9-14.3-4.6-20.7-8.1-6.5-3.5-11.9-7.8-16.4-13-4.5-5.2-6.7-11.1-6.7-17.9s1.8-9.7,5.4-14c3.6-4.3,8.3-6.4,14-6.4s6.8.6,10,1.8c3.2,1.2,6.4,2.6,9.5,4.1,3.2,1.5,6.2,2.9,9.2,4.1,3,1.2,6,1.8,9,1.8,8.1,0,14.9-2,20.4-6.1,5.5-4.1,9.9-9.2,13.2-15.5,3.3-6.2,5.8-13,7.4-20.4,1.6-7.3,2.8-14.3,3.5-20.9-4.4,5-9.5,8.5-15.3,10.4-5.8,1.9-11.9,2.8-18.2,2.8-11.6,0-21.5-2-29.6-6.1-8.1-4.1-14.7-9.6-19.7-16.8-5-7.1-8.8-15.4-11.2-24.8-2.4-9.4-3.6-19.6-3.6-30.6s.7-14.5,2.1-23c1.4-8.5,3.6-17.2,6.4-26,2.8-8.8,6.4-17.3,10.7-25.6,4.3-8.3,9.3-15.7,15-22,5.7-6.4,12.1-11.5,19.2-15.5,7.1-3.9,15-5.9,23.5-5.9s15.7,2.4,22.2,7.2c6.5,4.8,10.2,11.6,11.3,20.4,2.4-4.6,5.6-9.1,9.5-13.6,3.9-4.5,8.8-6.7,14.5-6.7s5.6,1.5,7.7,4.6c2.1,3.1,3.7,7.1,4.9,12,1.2,4.9,2.1,10.3,2.8,16.1.7,5.8,1.1,11.5,1.3,17.1.2,5.6.3,10.7.3,15.3v10.2ZM925.9,383.2c0-3.3-.5-7.6-1.5-12.8-1-5.3-2.4-10.3-4.3-15.1-1.9-4.8-4.2-9-7.1-12.5-2.9-3.5-6.2-5.3-10.2-5.3s-9.5,1.8-13.3,5.3c-3.8,3.5-7.1,7.7-9.7,12.7-2.6,4.9-4.7,10.2-6.1,15.8-1.4,5.6-2.1,10.4-2.1,14.3s.2,6.7.7,11.5c.4,4.8,1.4,9.5,2.8,14.1,1.4,4.6,3.3,8.5,5.8,11.8,2.4,3.3,5.6,4.9,9.5,4.9,5.9,0,11.1-1.4,15.5-4.3,4.4-2.8,8.1-6.5,11-10.9,3-4.4,5.2-9.2,6.7-14.5,1.5-5.3,2.3-10.3,2.3-15.1Z"/>
    <path class="st2" d="M1113.3,351c-3.1.2-5.7,0-7.9-.8-2.2-.8-4.4-1.6-6.6-2.5-2-.9-3.9-1.7-5.9-2.5-2-.8-4.2-1-6.6-.8-4.4.2-8.3,1.4-11.7,3.6-3.4,2.2-6.5,4.9-9.2,8.2-2.7,3.3-5.1,7-7.1,11-2,4.1-3.5,8.1-4.6,12-.7,2.6-1.2,6.6-1.5,12-.3,5.4-.5,11.1-.5,17.3-.2,6.4-.3,12.4-.3,18.1s-.2,10.2-.7,13.5c-.2,3.5-.8,7.6-1.6,12.3-.9,4.7-2.3,9.2-4.1,13.3-1.9,4.2-4.3,7.7-7.4,10.5-3.1,2.8-7,4.3-11.8,4.3s-7-1.1-9.7-3.3c-2.7-2.2-5-5.1-6.9-8.7-1.9-3.6-3.4-7.8-4.6-12.7-1.2-4.8-2.1-9.7-2.8-14.8-.7-5.3-1.2-10.5-1.5-15.8-.3-5.3-.6-10.2-.7-15-.1-4.7-.1-9,0-13,.1-3.9.2-7.1.2-9.5-.2-7.7-.6-15.4-1.2-23.2-.6-7.8-.8-15.5-.8-23.2s.2-10.2.7-16.1c.4-5.9,1.6-11.5,3.6-16.6,2-5.1,4.9-9.5,8.7-13,3.8-3.5,9.1-5.3,15.9-5.3s6.9,1.2,9.5,3.6c2.6,2.4,4.8,5.4,6.4,8.9,1.6,3.5,2.9,7.2,3.8,11.2.9,3.9,1.4,7.6,1.6,10.9,5.3-8.5,11.2-15.5,17.8-20.9,6.6-5.4,15.1-8.3,25.6-8.7,5.3-.2,10.5.3,15.6,1.5,5.1,1.2,9.9,3.2,14.1,5.9,4.3,2.7,7.8,6.3,10.5,10.7,2.7,4.4,4.2,9.5,4.4,15.5.4,7-1.6,12.4-6.2,16.1-4.6,3.7-10.2,5.7-16.8,5.9Z"/>
    <path class="st0" d="M1281,427.6c0,3.9-.2,9.1-.5,15.5-.3,6.4-1.3,12.6-2.8,18.6-1.5,6-3.9,11.2-7.2,15.6-3.3,4.4-7.9,6.6-13.8,6.6s-14.4-2.6-18.7-7.9c-4.4-5.3-6.5-11.8-6.2-19.7-7,6.1-15,11-23.8,14.5-8.9,3.5-17.9,5.3-27.1,5.3s-12.4-1.5-18.1-4.6c-5.7-3.1-10.7-7-15.1-11.8-4.4-4.8-7.9-10.2-10.5-16.3-2.6-6-3.9-12-3.9-17.9,0-10.5,3.2-19.7,9.7-27.6,6.5-7.9,14.4-14.6,23.8-20.2,9.4-5.6,19.4-10,30.1-13.3,10.6-3.3,20.1-5.5,28.4-6.6,0-1.1,0-2.1.2-3,.1-.9.2-1.9.2-3,0-6.8-1.9-12.3-5.6-16.4-3.7-4.2-9-6.2-15.8-6.2s-10.2.9-14.1,2.8c-3.9,1.9-7.7,3.9-11.2,6.2-3.5,2.3-7,4.4-10.5,6.2-3.5,1.9-7.5,2.8-11.8,2.8s-8.9-1.5-12.3-4.6c-3.4-3.1-5.1-7-5.1-11.8,0-7.2,2.1-13.8,6.4-19.7,4.3-5.9,9.6-10.9,16.1-15,6.5-4.1,13.5-7.2,21-9.5,7.6-2.3,14.5-3.5,20.9-3.5s11.8.7,17.8,2.1c5.9,1.4,11.5,3.6,16.8,6.6,5.3,3,10,6.6,14.3,10.9,4.3,4.3,7.7,9.3,10.4,15,3.9,8.1,7.1,16.7,9.5,25.8,2.4,9.1,4.3,18.4,5.6,27.9,1.3,9.5,2.2,19.1,2.6,28.6.4,9.5.7,18.8.7,27.8ZM1228.4,417l-1-22.4c-.4,0-.9,0-1.3-.2-.4-.1-.9-.2-1.3-.2-2.9,0-6.4.7-10.7,2.1-4.3,1.4-8.4,3.4-12.3,5.9-3.9,2.5-7.3,5.3-10,8.4-2.7,3.1-4.1,6.2-4.1,9.5s1.1,5.2,3.3,6.2c2.2,1.1,4.7,1.6,7.6,1.6,4.8,0,10-1.3,15.5-3.8,5.5-2.5,10.3-5,14.5-7.4Z"/>
    <path class="st3" d="M1438.5,277.3c0,4.2-.4,8.2-1.2,12-.8,3.8-2.1,7.2-4.1,10-2,2.9-4.6,5.1-7.9,6.7-3.3,1.6-7.3,2.5-12.2,2.5s-9.5-1.1-12.2-3.3c-2.6-2.2-4.4-4.9-5.4-8.1-1-3.2-1.5-6.6-1.5-10.4s-.2-7.2-.5-10.4c-.3-3.2-1.2-5.9-2.5-8.1-1.3-2.2-3.7-3.3-7.2-3.3s-6,2.5-8.1,7.6c-2.1,5-3.8,10.9-5.1,17.4-1.3,6.6-2.2,13-2.6,19.2-.4,6.2-.7,10.5-.7,12.7,2.8-.4,5.6-.8,8.2-1.2,2.6-.3,5.5-.5,8.5-.5s6.2.3,9.5,1c3.3.7,6.4,1.7,9.2,3.1,2.8,1.4,5.1,3.4,6.9,5.9,1.8,2.5,2.6,5.6,2.6,9.4s-1.7,7.5-5.1,10.5c-3.4,3.1-7.5,5.6-12.2,7.7-4.7,2.1-9.5,3.8-14.3,5.1-4.8,1.3-8.7,2.2-11.5,2.6.7,15.1,1,30.4,1,45.7s-.3,28.7-1,42.7c-.4,6.8-2.8,12.4-7.1,16.8-4.3,4.4-9.8,6.6-16.6,6.6s-6.9-.7-9.5-2.1c-2.6-1.4-4.8-3.3-6.6-5.8-1.8-2.4-3.1-5.1-4.1-8.2-1-3.1-1.6-6.2-1.8-9.5-1.1-13.2-2-26.4-2.6-39.6-.7-13.3-.9-26.6-.7-39.9-1.5.2-3,.3-4.4.3h-4.4c-2.6,0-5.8-.3-9.5-1-3.7-.7-7.3-1.8-10.7-3.5-3.4-1.6-6.3-3.7-8.7-6.1s-3.6-5.5-3.6-9.2,1.6-8.9,4.8-12.2c3.2-3.3,7-6,11.5-8.1,4.5-2.1,9.2-3.6,14.1-4.4,4.9-.9,9.3-1.5,13-2v-5.3c0-10.7,1-22.2,3-34.5,2-12.3,5.5-23.7,10.5-34.2,5-10.5,11.9-19.2,20.7-26.1,8.8-6.9,19.9-10.4,33.5-10.4s15.9,1.8,22,5.4c6.1,3.6,11.2,8.3,15.1,14.1,3.9,5.8,6.8,12.4,8.5,19.7,1.8,7.3,2.6,14.7,2.6,22.2Z"/>
    <path class="st1" d="M1483.2,356.2v9.7c0,3.4-.1,6.6-.3,9.7-.2,3.7-.3,8.7-.3,15s-.2,13-.7,20.2c-.4,7.2-1.2,14.6-2.1,22-1,7.5-2.6,14.3-4.8,20.4-2.2,6.1-5.1,11.1-8.7,15-3.6,3.8-8.2,5.9-13.6,6.1-4.2.2-7.7-1.4-10.5-4.9-2.9-3.5-5.2-8.1-7.1-13.6-1.9-5.6-3.2-11.8-4.1-18.7-.9-6.9-1.5-13.6-2-20.1-.4-6.5-.7-12.4-.7-17.9v-27.1c0-6.5.2-13.4.7-20.9.4-7.4,1.3-15,2.5-22.7,1.2-7.7,3-14.7,5.3-21,2.3-6.4,5.3-11.5,9-15.5,3.7-3.9,8.4-5.9,14.1-5.9s10.4,3,13.5,8.9c3.1,5.9,5.4,12.8,6.9,20.7,1.5,7.9,2.4,15.7,2.6,23.5.2,7.8.3,13.5.3,17.3ZM1480.6,244.4c0,3.1-.8,5.8-2.5,8.2-1.6,2.4-3.8,4.6-6.4,6.4-2.6,1.9-5.5,3.3-8.5,4.3-3.1,1-5.9,1.5-8.5,1.5-4.4,0-8.2-1.1-11.5-3.3-3.3-2.2-4.9-5.6-4.9-10.2s.8-6.2,2.5-8.7c1.6-2.5,3.7-4.6,6.1-6.2,2.4-1.6,5.1-2.9,8.2-3.8,3.1-.9,6-1.3,8.9-1.3,4.2,0,8,1,11.5,3,3.5,2,5.3,5.4,5.3,10.2Z"/>
    <path class="st0" d="M1646.3,427.6c0,3.9-.2,9.1-.5,15.5-.3,6.4-1.3,12.6-2.8,18.6-1.5,6-3.9,11.2-7.2,15.6-3.3,4.4-7.9,6.6-13.8,6.6s-14.4-2.6-18.7-7.9c-4.4-5.3-6.5-11.8-6.2-19.7-7,6.1-15,11-23.8,14.5-8.9,3.5-17.9,5.3-27.1,5.3s-12.4-1.5-18.1-4.6c-5.7-3.1-10.7-7-15.1-11.8-4.4-4.8-7.9-10.2-10.5-16.3-2.6-6-3.9-12-3.9-17.9,0-10.5,3.2-19.7,9.7-27.6,6.5-7.9,14.4-14.6,23.8-20.2,9.4-5.6,19.4-10,30.1-13.3,10.6-3.3,20.1-5.5,28.4-6.6,0-1.1,0-2.1.2-3,.1-.9.2-1.9.2-3,0-6.8-1.9-12.3-5.6-16.4-3.7-4.2-9-6.2-15.8-6.2s-10.2.9-14.1,2.8c-3.9,1.9-7.7,3.9-11.2,6.2-3.5,2.3-7,4.4-10.5,6.2-3.5,1.9-7.5,2.8-11.8,2.8s-8.9-1.5-12.3-4.6c-3.4-3.1-5.1-7-5.1-11.8,0-7.2,2.1-13.8,6.4-19.7,4.3-5.9,9.6-10.9,16.1-15,6.5-4.1,13.5-7.2,21-9.5,7.6-2.3,14.5-3.5,20.9-3.5s11.8.7,17.8,2.1c5.9,1.4,11.5,3.6,16.8,6.6,5.3,3,10,6.6,14.3,10.9,4.3,4.3,7.7,9.3,10.4,15,3.9,8.1,7.1,16.7,9.5,25.8,2.4,9.1,4.3,18.4,5.6,27.9,1.3,9.5,2.2,19.1,2.6,28.6.4,9.5.7,18.8.7,27.8ZM1593.7,417l-1-22.4c-.4,0-.9,0-1.3-.2-.4-.1-.9-.2-1.3-.2-2.9,0-6.4.7-10.7,2.1-4.3,1.4-8.4,3.4-12.3,5.9-3.9,2.5-7.3,5.3-10,8.4-2.7,3.1-4.1,6.2-4.1,9.5s1.1,5.2,3.3,6.2c2.2,1.1,4.7,1.6,7.6,1.6,4.8,0,10-1.3,15.5-3.8,5.5-2.5,10.3-5,14.5-7.4Z"/>
  </g>
</svg>