<?xml version="1.0" encoding="UTF-8"?>
<svg id="Capa_1" xmlns="http://www.w3.org/2000/svg" version="1.1" xmlns:xlink="http://www.w3.org/1999/xlink" viewBox="0 0 900 500">
  <!-- Generator: Adobe Illustrator 29.1.0, SVG Export Plug-In . SVG Version: 2.1.0 Build 142)  -->
  <defs>
    <style>
      .st0 {
        fill: #9cd9c0;
      }

      .st1 {
        fill: #fdc704;
      }

      .st2 {
        fill: #011d33;
      }

      .st3 {
        fill: #f0ab0c;
      }

      .st4 {
        fill: #1b1e17;
      }

      .st5 {
        fill: #10100f;
      }

      .st6 {
        fill: #00a6f4;
      }

      .st7 {
        fill: #30a8ff;
      }

      .st8 {
        fill: #edebeb;
        opacity: .7;
      }

      .st9 {
        fill: #f8f9f4;
      }

      .st10 {
        fill: #e4c13c;
      }

      .st11 {
        fill: #001e36;
      }

      .st12 {
        fill: #f7d381;
      }

      .st13 {
        fill: #fbfdf2;
      }

      .st14 {
        fill: #fcf6c9;
      }
    </style>
  </defs>
  <rect class="st8" x="22.9" y="39.1" width="826.8" height="441.4"/>
  <g>
    <rect class="st13" x="66" y="125.2" width="204.6" height="278.5"/>
    <rect class="st4" x="85.8" y="151.3" width="170.4" height="223.5"/>
  </g>
  <g>
    <rect class="st13" x="606.8" y="122.8" width="204.6" height="272.5"/>
    <rect class="st4" x="626.6" y="148.3" width="170.4" height="218.7"/>
  </g>
  <g>
    <rect class="st2" x="79.7" y="59.1" width="48.8" height="47.7" rx="8.8" ry="8.8"/>
    <g>
      <polygon class="st6" points="95.5 89.2 95.5 72 90.7 72 90.7 89.2 90.7 93.9 95.5 93.9 105.2 93.9 105.2 89.2 95.5 89.2"/>
      <path class="st6" d="M117.4,77.1v4.6c-.5-.1-.9-.2-1.4-.2-1.5,0-3,.6-4,1.5v10.8h-4.8v-16.6h4.8v2.1c1.1-1.4,2.8-2.3,4.8-2.3s.4,0,.7,0Z"/>
    </g>
  </g>
  <g>
    <path class="st0" d="M412.2,99.3c-6.8,3.3-9.4,12.7-4.8,18.8,1.6,2.1,4.6-.6,3.1-2.6-2.9-3.9-1-10.1,3.1-12.3,12-5.7,20.8,10.6,14.1,20.1-7.2,11.9-23.8,14.6-35.9,9.2,8-15.3,5.4-45.7-17.7-41.8-20.1,3.5-23.8,32.8-6.2,42.2,2.2,1.3,4.5-2,2.3-3.3-14.2-7.4-12.4-30.8,3.6-34.7,17.7-4.4,21.1,18.5,16.3,30.8-11.9,35.6-40.4,30.8-69.8,40.7-26.9,3-37.8,38.4-20.5,58,1.2,1.5,3.2.4,3.5-1-2.8-20.9.6-41.8,21.5-53.1,15.1-.4,30.2,17.4,22.1,31.8-3.4,6.8-15.5,7.7-16.6-1.1-.1-2.1.8-4.4,2.7-5.5,2.2-1.3.5-5-1.8-3.6-4.7,2.8-6.4,9.3-3.6,14,21.8,22.7,41.9-27.2,4-38.7,6.1-2.2,12.8-3.1,19.2-4.2,8.2,31.1,45.3,19.3,30.5-.9-4.1-3.5-11.3-2.6-14,2.2-1.3,2.3,2.1,4.6,3.3,2.3,4.7-6.7,13.1.7,9.4,7.1-8.4,11.8-23-1-25.1-11.5,15-2.6,28.2-12.5,35.3-26,13.9,6.4,33.2,2.8,41.2-10.9,8.5-12.7-3.6-32.7-19-25.9ZM313.9,172.9c-11.7,10.5-17.4,26.3-15.5,41.8-8-15.9-.2-37.7,17.2-43.2-.6.5-1.1.9-1.7,1.4Z"/>
    <path class="st0" d="M348.4,143.4s-33.9,4.2-34.6-10.4c-.7-14.6,34.6,10.4,34.6,10.4Z"/>
    <path class="st0" d="M352.3,139.4s-31.6-13.1-25-26.1c6.6-13.1,25,26.1,25,26.1Z"/>
    <path class="st0" d="M400.5,103.5s-12.1-32,1.9-36.1c14-4.2-1.9,36.1-1.9,36.1Z"/>
  </g>
  <g>
    <path class="st0" d="M565.5,322.8c-6.8,3.3-9.4,12.7-4.8,18.8,1.6,2.1,4.6-.6,3.1-2.6-2.9-3.9-1-10.1,3.1-12.3,12-5.7,20.8,10.6,14.1,20.1-7.2,11.9-23.8,14.6-35.9,9.2,8-15.3,5.4-45.7-17.7-41.8-20.1,3.5-23.8,32.8-6.2,42.2,2.2,1.3,4.5-2,2.3-3.3-14.2-7.4-12.4-30.8,3.6-34.7,17.7-4.4,21.1,18.5,16.3,30.8-11.9,35.6-40.4,30.8-69.8,40.7-26.9,3-37.8,38.4-20.5,58,1.2,1.5,3.2.4,3.5-1-2.8-20.9.6-41.8,21.5-53.1,15.1-.4,30.2,17.4,22.1,31.8-3.4,6.8-15.5,7.7-16.6-1.1-.1-2.1.8-4.4,2.7-5.5,2.2-1.3.5-5-1.8-3.6-4.7,2.8-6.4,9.3-3.6,14,21.8,22.7,41.9-27.2,4-38.7,6.1-2.2,12.8-3.1,19.2-4.2,8.2,31.1,45.3,19.3,30.5-.9-4.1-3.5-11.3-2.6-14,2.2-1.3,2.3,2.1,4.6,3.3,2.3,4.7-6.7,13.1.7,9.4,7.1-8.4,11.8-23-1-25.1-11.5,15-2.6,28.2-12.5,35.3-26,13.9,6.4,33.2,2.8,41.2-10.9,8.5-12.7-3.6-32.7-19-25.9ZM467.2,396.5c-11.7,10.5-17.4,26.3-15.5,41.8-8-15.9-.2-37.7,17.2-43.2-.6.5-1.1.9-1.7,1.4Z"/>
    <path class="st0" d="M501.6,367s-33.9,4.2-34.6-10.4c-.7-14.6,34.6,10.4,34.6,10.4Z"/>
    <path class="st0" d="M505.5,363s-31.6-13.1-25-26.1c6.6-13.1,25,26.1,25,26.1Z"/>
    <path class="st0" d="M553.7,327.1s-12.1-32,1.9-36.1c14-4.2-1.9,36.1-1.9,36.1Z"/>
  </g>
  <g>
    <rect class="st13" x="334" y="122.8" width="204.6" height="278.5"/>
    <rect class="st4" x="353.8" y="148.9" width="170.4" height="223.5"/>
  </g>
  <g>
    <path class="st5" d="M824.9,424.4c4.8,1,7.9,5.7,9.5,10.1,2,5.6,1.5,9.9,7.1,13.5.4.3,1.9,1.1,2.4,1.2s.7-.6,1.5-.2,1.2,1.6,1,2.6c1.9-.1,2.4,1.6,1.9,3.1,1.2,0,2.1.9,1.9,2.1s-2.3,4-3.2,4.8c-.7.7-1.9,1.4-2.8.8s-.5-.7-.5-.7c0,0-1,.5-1.2.6-.8.3-1.9,0-2.3-.8s.2-.3-.1-.5c-.9.7-2.3.4-2.9-.6s0-.9-.1-1.1c-.2-.5-1.2-.8-1.5-1.1-2-1.6-3.1-3.1-6-3s-6.3.8-9.4.8c-10.8-.1-16.2-6.6-14.1-17.1,1.6-8.1,8.4-14.5,16.8-14.7s.2,0,.3,0c.4,0,.9,0,1.3.1s.4,0,.4,0ZM842.3,451.1c.3-.4.7-.8,1-1.2-.7-.4-1.5-.8-2.3-1.2-6.8-4.2-5.4-10.9-8.8-17-3.9-7.2-10.1-8.1-16.9-4.5s-8.4,8.2-8.8,14.1c-.8,10.1,5.4,14.1,14.8,13.9s9.4-1.9,12.5.6l3.3,2.6c.3-.3.4-.8.6-1.1s.1-.1.2-.2c.8-1.3,1.8-2.5,2.6-3.8-5.1-2.8-9.2-7-13-11.2-.4.7-.4,1.2-1.2,1.6s-.8,0-1.1,1c3.8,1.7,7.2,4.3,10.5,6.8l3.8,2.6-.2.3c-3-1.9-5.8-4.1-8.7-6.2l-1.8-1s0,0,0,0c-.2-.2-.5-.5-.7-.4,0,0,0,0,0,0-.5-.4-2.2-1.5-2.7-1.6s-1.2,1.8-2.3,1.1c-1.2-.7-.6-1.8.6-1.9.8,0,1.5.8,1.8-.3-.6-.2-1.1-.3-1.3-1-.4-1.3,1.3-1.5,1.6,0s-.1.5,0,.6c.7,0,1.6-1.3,1.4-1.8s-.7-.8-1-1.1c-.5-.8-.6-1.5.1-2.1.7-.1,1.2,2.1,1.3,2.6s0,.3,0,.5c.2.4,2.6,2.9,3.2,3.4,1.5,1.5,3.1,3.1,4.7,4.4,1.7,1.4,3.5,2.6,5.4,3.7.5-.6,1-1.2,1.5-1.9ZM826.4,438.9c-.6.7.1,1.6.6,2.2.3,0-.4-2-.6-2.2ZM825.1,443.2c0-.2.2-.2-.1-.6-.9-1.1-.8,1.1.1,1s0-.3,0-.3ZM823.6,444.7c-.4,0-.8,0-.9.5-.2.6.9.8,1.3.6s.6-.5.8-.8c0-.1-.9-.2-1.1-.2s-.1,0-.2,0ZM842.5,452.1c-1.3,1.6-4.3,5.5-4.6,7.3s0,.8,0,1c.2.7,1.3.5,1.8.2,1.3-1,2.6-4.1,3.6-5.7s2.3-3.1,2.4-4.1,0-.8-.4-1c-.8-.4-2.2,1.7-2.6,2.3ZM846.6,452.4c-.3,0-1,.4-1.2.6-1.2,2.1-2.5,4.2-3.7,6.3s-1.4,1.6-.7,2.1c.7.5,1.7,0,2.3-.6,1-1,3.8-5.5,4.2-6.9s0-1.7-.9-1.6ZM847.3,456.4c-.4.6-.7,1.4-1.1,2-.6,1-1.2,1.9-1.9,2.8,0,1.2,1.1.7,1.7.2.8-.8,2.6-3.2,3-4.2s.3-1.5-.6-1.6-.9.4-1.2.8Z"/>
    <path class="st5" d="M837.8,431.7c0-.1,2.5-1.1,3-1.3,1.2-.6,2.5-1.6,3.7-2.2s.8,0,.3.4c-.9.8-3.3,2-4.4,2.6s-2.2,1-2.3.9-.3-.3-.2-.4Z"/>
    <path class="st5" d="M820.6,421.1c-.2,0-.2-.3-.3-.4-.4-1.3-.4-4.8-.4-6.3s-.2-.6.2-.4.5,5.7.7,6.6c0,.1-.2.5-.3.5Z"/>
    <path class="st5" d="M811.1,418c.2,0,.5.8.6,1,.5,1.4.8,2.9,1.4,4.3-.3.5-.4.4-.6,0s-1.4-4.1-1.5-4.7,0-.6.1-.6Z"/>
    <path class="st5" d="M808.2,456.3l-3.7,4.6c-.1.1-.4-.1-.2-.5.4-.9,1.8-2.5,2.5-3.3s1.1-1.3,1.4-.8Z"/>
    <path class="st5" d="M807.4,428.1c-.3.5-.4.4-.8.1-1.4-.9-2.8-1.9-4.2-2.9l.4-.2,4.5,3Z"/>
    <path class="st5" d="M801.2,446.6c.1,0,.3.2.4.3,0,.2-2.3,1.1-2.6,1.2s-1.9.6-2,.4v-.4c.1,0,4.3-1.5,4.3-1.5Z"/>
    <path class="st5" d="M832.2,419l.3.2c-.4.7-.9,1.3-1.4,1.9s-.8,1.2-1.4,1.7-.7.2-.5-.2.8-.8,1.2-1.2,1.6-2.4,1.8-2.4Z"/>
    <path class="st5" d="M818.2,465.2c-.2-.1-.2-.4-.3-.6-.1-.6-.3-1.7-.4-2.4s-.2-1.6,0-1.7.3,0,.4.1.5,3.7.5,4.1,0,.3-.2.5Z"/>
    <path class="st5" d="M802.2,437.4c-.5-.2-3.9,0-3.9-.3s.5-.3.6-.3c.4,0,2.6,0,2.9,0s.6.2.4.6Z"/>
    <path class="st9" d="M824.4,424.4h0c0-.1.1-.3.1-.3l.4.3s-.2,0-.4,0Z"/>
    <path class="st9" d="M822.8,424.3h0c0-.1.1-.3.1-.3,0,0,.2.2.3.2-.1,0-.2,0-.3,0Z"/>
    <path class="st1" d="M813.8,430.5c.1-.2.3-.3.4-.5.1,0,.2.2.4.3.3-.7,1.1-1.1,1.7-1.5,2.6-1.5,5.8-2.6,8.8-1.5,3.3,1.3,4.6,3.5,6.1,6.5.6,1.2,1.2,3.4,1.8,4.3s0,.2.1.2c-.1.3,0,.9,0,1.2.2.6.4.9.5,1.5.4,1.5,1.3,3.7,2.2,5,1.6,2.2,3.9,3.6,6,5.3l-1.1,1.4c-2-1.1-3.9-2.4-5.7-3.9-2-1.7-3.6-3.6-5.4-5.4s-1.8-1.4-1.9-2,.1-.2.1-.4c0-.2-.6-1.8-.7-1.9-.6-1-1.3-1-1.7.1-.2.6.1,1.1.5,1.7s.6.5.7.9c.2.8-.8,2-1,1.2s.1-.2,0-.5c-.4-.9-1.6-1.3-2-.2-.3.9.5,1.4,1.1,1.8-.2.3-.7,0-1,0-.8,0-2,.3-1.9,1.3s.8,1.3,1.2,1.3.2-.1.4-.1c.2,0,.5,0,.6,0,.4-.2.6-.7.9-1,.6-.5,2.1,1.2,2.9,1.1,0,0,0,0,0,0,.2.2.5.5.7.4,0,0,0,0,0,0,2.2,1.7,4.7,3.3,7,5,1.1.8,2.2,1.7,3.4,2.4l-1.5,2c-.6-.2-1.1-.7-1.6-1s-1-.5-1.3-.7c-1-.8-1.7-1.7-3.1-2s-1,.2-1.4.2-.9-.4-.4.2c-.2,0-.4.1-.6.2,0,0-.1-.1-.2-.2-.2,0-.5,0-.7,0-1.3.2-2.5.4-3.8.6-.7,0-.5,0-.8.1s-.7-.2-1-.1c-1.3.2-2.6.1-4-.2-3.4-.8-7-3.1-8.9-6s-.5-1-1-1.6,0-.2-.1-.2c.2-.2,0-.4,0-.6-.7-1.9-1-4.1-.5-6.1s1.6-3.9,2.5-5.6,2.1-2.3,2.9-3.2ZM810.6,441.5c0-.4.1-1.7-.5-1.6s-.2.1-.3.3c-.3.7.1,3.6.4,4.4s1.1,2.4,1.8,2.2c.9-.2-.2-1.2-.4-1.6-.7-1.2-.7-2.5-.8-3.8ZM813.9,447.9c-.8.1-.7,1.5.2,1.3s.4-1.4-.2-1.3ZM826.5,452.3c.7-.1,2-.4,1-1.3-3.3.6-6.6.8-9.8-.5s-1.8-1.2-2.1-.4.8.9,1.1,1.1c2.5,1.3,6.9,1.6,9.7,1Z"/>
    <path class="st9" d="M837.8,457.3c-.2.4-.3.8-.6,1.1l-3.3-2.6c-3.1-2.5-8.8-.7-12.5-.6-9.4.3-15.6-3.8-14.8-13.9s3.5-11.2,8.8-14.1,13-2.7,16.9,4.5c3.3,6.1,2,12.8,8.8,17,.7.5,1.5.8,2.3,1.2-.3.4-.7.8-1,1.2-.2-.3-.8-.5-1-.6l-4.2-3.3c-.1,0-.7-.9-.9-1.2s0,0,0,0c-.1-.1-.2-.3-.3-.4.3-.3-.4-1-.7-1.3s0,0,0,0c.3-.2,0-.4-.2-.6s-.2,0-.2-.2l-.2-.8-.3-.5c0-.1,0-.3-.1-.4.3-.3,0-.5-.2-.8s0,0,0,0c.3-.5,0-1.1-.4-1.4,0,0,0-.1,0-.2,0-.2.2,0-.2-.6s0,0,0,0c.1-.1.1-.3,0-.5s-.2,0-.2,0c-.2-.2-.1-.2-.1-.4s.2,0,0-.3-.4-.4-.3-.7.1-.1.1-.2-.2-.2-.3-.2c-.1-.3-.3-.5-.4-.8s0-.1,0-.2c0-.1-.1-.2-.2-.3s0,0,0-.2,0,0,0,0c.3-.4,0-.5-.2-.7s0,0,0,0c0,0,0,0,0,0,0,0,0,0,0-.2,0-.2.2,0-.2-.6s-.3-.2-.3-.2c0-.1.3,0,0-.3s0,0,0,0c.2-.2.2-.2,0-.4h-.1c0,0,0-.2-.1-.2l-.5-1.2c-.2-.4-.6-.5-.8-.7s-.3-.2-.4-.3c0-.5-.8-1-1.2-1.3s-.3-.4-.5,0c0,0-.2-.2-.3-.2-.7-.5-1-.8-1.9-1.1s-.4-.2-.6,0c0,0-.2,0-.3,0h0c-.2-.3-.4-.3-.6-.1,0,0-.2,0-.3,0-.2,0-.3-.4-.6,0-.2,0-.4,0-.6,0-.8,0-.6-.2-1.5,0s0,0,0,0c-.2-.3-.3-.2-.6-.1-.7.2-1.7.7-2.3,1.1s-.2.2-.4.3c-.3-.3-.3,0-.5.2s-.2.2-.3.2-.2-.2-.2-.2c0,0,0,.3,0,.3,0,0-.4.3-.4.3,0,0-.2-.2-.2-.2,0,0,0,.3,0,.3,0,.1-.3.2-.4.3-.3-.3-.5.2-.6.3s-.2.3-.3.4c0,0-.1-.1-.2-.1-.1,0-1.4,1.2-1.6,1.4s0,.3,0,.3c-.7.9-1.5,1.8-2.1,2.7s-.7.8-.9,1.4-.3.3,0,.6c0,0-.2.2-.2.3s-.8.5-.3.8c0,.1,0,.2-.1.4-.2,0-.5.8-.2.9,0,.1,0,.2-.1.4-.1.2-.5.3-.1.5,0,.1,0,.4-.1.5-.2.8-.2.7,0,1.5s0,.1,0,.2c-.4.3,0,.5,0,.8s-.3.4,0,.6h.1s0,.3,0,.3c-.2.3,0,.4,0,.7s0,0,0,0l.3,1.7c0,.2.4.4.5.5s0,.2.1.2c-.2.2.2.8.3,1,.2.2.4.3.5.5s.1,0,.2.2c-.3.2.3.9.5,1s.3,0,.3,0c0,0,.1.1.2.2-.4.4.2.3.3.4s.1.1.2.2c0,.2.1.4.3.5.8.8,2,1.6,3,2.2s.3.3.5,0c0,0,.1.1.2.2s0,.2.1.3c.4.3.7.2,1.1.3,0,0,.1.1.2.2.6.3,1,.5,1.7.6s.4.2.6,0c0,0,0,0,0,0,0,0,.2.2.3.2s.1-.2.2-.2c0,0,.2,0,.3,0s0,.4.4,0c.1,0,.3,0,.4,0,.3.4.6.1.9.1s.8.3,1.1,0c.1,0,.4,0,.5,0,.2.2.3.2.6.2,1.3,0,3.1-.3,4.3-.8s.4,0,.7,0,.1,0,.5,0,.4,0,.6-.2c0,0,0,0,0,0,.4.2.2,0,.4,0s.8,0,1,0c.7,0,2,1,2.6,1.4s.3.4.5,0c.4.3.8.6,1.2,1s0,.2.2.3c.3.2.8.8,1,.5,0,0,.1,0,.2.2.1,0,.3.5.6.6Z"/>
    <path class="st9" d="M842.5,452.1c.4-.6,1.8-2.7,2.6-2.3s.5.6.4,1c0,1-1.8,3.1-2.4,4.1-.9,1.5-2.2,4.7-3.6,5.7s-1.6.5-1.8-.2,0-.8,0-1c.3-1.9,3.3-5.7,4.6-7.3Z"/>
    <path class="st9" d="M846.6,452.4c.9,0,1.1.9.9,1.6-.3,1.4-3.1,5.8-4.2,6.9s-1.6,1-2.3.6c-.7-.5.4-1.6.7-2.1,1.2-2.1,2.5-4.2,3.7-6.3.2-.2.9-.6,1.2-.6Z"/>
    <path class="st10" d="M828.9,447.2l1.8,1c2.9,2.1,5.7,4.3,8.7,6.2l.2-.3-3.8-2.6c-3.3-2.5-6.7-5.1-10.5-6.8.3-.9.5-.7,1.1-1s.8-.9,1.2-1.6c3.9,4.2,7.9,8.4,13,11.2-.8,1.3-1.8,2.5-2.6,3.8-.2-.2-.4-.5-.7-.4,0,0-.1,0-.2-.2-.3-.3-.8-.7-1.1-.7-.4-.3-.8-.7-1.2-1-1.3-1-2.8-2.2-4.5-1.4,0,0,0,0,0,0-.5-.5.3-.2.4-.2.4,0,.7-.3,1.4-.2,1.4.2,2.1,1.2,3.1,2s.9.5,1.3.7.9.9,1.6,1l1.5-2c-1.2-.7-2.3-1.6-3.4-2.4-2.3-1.6-4.8-3.2-7-5ZM825.7,444.3c0,0,0,.3.1.3,1.7.9,3.3,1.8,4.9,2.9,2.8,1.9,5.6,4,8.5,6,.2.2.4.8.8.2s-.5-.9-.8-1c-3.2-1.8-5.9-4.4-8.6-6.9l-2.9-3.2c-.3.2-.4.7-.7.9s-1.3.8-1.3.9Z"/>
    <path class="st9" d="M847.3,456.4c.3-.5.6-.9,1.2-.8.9,0,.9.9.6,1.6-.4,1-2.2,3.4-3,4.2s-1.7,1-1.7-.2c.7-.9,1.3-1.8,1.9-2.8s.7-1.4,1.1-2Z"/>
    <path class="st10" d="M827.9,446.7c-.7,0-2.3-1.6-2.9-1.1s-.5.8-.9,1-.4,0-.6,0-.3.1-.4.1c-.5,0-1.2-.9-1.2-1.3,0-1,1.2-1.3,1.9-1.3s.8.3,1,0c-.6-.5-1.5-.9-1.1-1.8.4-1.1,1.6-.7,2,.2s0,.4,0,.5c.1.8,1.2-.4,1-1.2s-.5-.6-.7-.9c-.4-.5-.7-1-.5-1.7.4-1.1,1.1-1.1,1.7-.1s.6,1.7.7,1.9-.1.2-.1.4c0,.6,1.5,1.6,1.9,2,1.7,1.8,3.4,3.7,5.4,5.4,1.7,1.5,3.7,2.8,5.7,3.9l1.1-1.4c-2.1-1.6-4.4-3-6-5.3-.9-1.3-1.8-3.5-2.2-5s-.3-.9-.5-1.5-.2-.9,0-1.2c0,0,.1,0,.2.2s0,0,0,0c-.3.2,0,.4.2.6,0,0,0,.1,0,.2,0,.6.2.9.4,1.4s0,0,0,0c-.3.2,0,.5.2.8s0,.3.1.4c.2.5.2.8.5,1.3s.1,0,.2.2c-.3.2,0,.4.2.6s0,0,0,0c0,.5.4.9.7,1.3s.2.3.3.4h0c.2.3.8,1.1.9,1.2l4.2,3.3c.2.1.8.3,1,.6-.5.6-1,1.3-1.5,1.9-1.9-1.1-3.7-2.3-5.4-3.7-1.6-1.3-3.2-2.9-4.7-4.4s-3-3-3.2-3.4,0-.3,0-.5c-.1-.5-.6-2.7-1.3-2.6-.8.7-.6,1.4-.1,2.1s.9.9,1,1.1c.2.5-.7,1.9-1.4,1.8-.2,0,0-.4,0-.6-.3-1.5-2.1-1.3-1.6,0s.7.8,1.3,1c-.3,1.1-1,.3-1.8.3-1.2.1-1.8,1.2-.6,1.9,1.2.7,2.1-1.1,2.3-1.1.5,0,2.2,1.2,2.7,1.6Z"/>
    <path class="st1" d="M823.6,444.7c0,0,.1,0,.2,0,.8,0,.5.9,0,1.1s-1-.2-1-.3c.1-.4.5-.5.8-.8Z"/>
    <path class="st10" d="M826.4,438.9c.2.2.9,2.2.6,2.2-.5-.6-1.2-1.5-.6-2.2Z"/>
    <path class="st10" d="M825.1,443.2l-.5-.7c-.1.3.1.8.5.7,0,0,.4.3,0,.3-1,.1-1.1-2.1-.1-1s0,.5.1.6Z"/>
    <path class="st10" d="M823.7,444.7c.2,0,1.1,0,1.1.2-.2.3-.5.7-.8.8s-1.5,0-1.3-.6.5-.5.9-.5c-.3.3-.7.3-.8.8,0,0,.9.3,1,.3.4-.2.8-1.1,0-1.1Z"/>
    <path class="st14" d="M837.9,457.2c0,0-.1.1-.2.2-.3,0-.5-.5-.6-.6.3,0,.5.3.7.4Z"/>
    <path class="st10" d="M828.8,447.2c-.3,0-.5-.3-.7-.4.3,0,.5.3.7.4Z"/>
    <path class="st14" d="M826.5,452.3c-2.7.6-7.2.3-9.7-1s-1.3-.7-1.1-1.1c.3-.8,1.6.2,2.1.4,3.2,1.2,6.5,1.1,9.8.5.9.8-.3,1.1-1,1.3Z"/>
    <path class="st10" d="M814.5,429.6c.2,0,.4-.2.6-.3s.3-.2.4-.3h.2c0-.1.4-.4.4-.4h.2c0-.1.2-.3.3-.3.2,0,.3-.1.5-.2s.3-.2.4-.3c.2.3.3,0,.5,0,.9-.4,1.5-.7,2.4-1s0,0,0,0c.4.2,1,0,1.5,0,.2,0,.4,0,.6,0s.4.2.6,0c.1,0,.2,0,.3,0,.2,0,.4,0,.5.1s.2,0,.3,0c.8.3,1.6.7,2.5,1,0,0,.2.2.3.2.6.4,1.2.9,1.7,1.4s.3.2.4.3c.4.7.8,1.3,1.3,1.9s0,.1.1.2,0,.2.2.3,0,0,0,0c-.2.2-.2.2,0,.3,0,0,.2.1.3.2-.3.2,0,.4.2.6,0,0,0,0,0,.2h0c0,.1,0,.1,0,.2,0,.3.1.5.2.7s0,0,0,0v.2c0,.1.2.2.2.3v.2c.2.3.3.6.5.8,0,.2,0,.3.1.4,0,.4.1.5.3.7-.2.1-.2.2,0,.3,0,.2,0,.2.1.4l-.2.2c-.7-.9-1.2-3.1-1.8-4.3-1.5-3-2.8-5.2-6.1-6.5-2.9-1.2-6.2,0-8.8,1.5-.6.4-1.4.8-1.7,1.5-.1,0-.3-.2-.4-.3.1-.1.2-.3.3-.4Z"/>
    <path class="st14" d="M810.6,441.5c.1,1.3.1,2.6.8,3.8s1.4,1.4.4,1.6-1.6-1.7-1.8-2.2-.7-3.7-.4-4.4.1-.3.3-.3c.7-.2.5,1.2.5,1.6Z"/>
    <path class="st10" d="M812.3,431.6c.2.3.3,0,.5-.2.3-.3.6-.8,1.1-.9-.8,1-2.2,2.1-2.9,3.2-1,1.7-2.1,3.6-2.5,5.6s-.2,4.2.5,6.1.3.3,0,.6c-.4-.6-.5-1.3-.8-1.9s0,0,0,0c.3-.3,0-.6,0-.7s0-.3,0-.3c0-.4,0-.8,0-1.3s0-.1,0-.2v-1.5c.1-.2.2-.4.2-.5s.2-.3.1-.5c0-.1,0-.2.1-.4.1-.3.2-.7.2-.9s0-.2.1-.4c0-.2.4-.5.3-.8,0,0,.2-.2.2-.3.3-.4.5-1,.8-1.4s.4-.3,0-.5c.7-.9,1.4-1.8,2.1-2.7Z"/>
    <path class="st10" d="M809,446.1c.6.5.6.9,1,1.6,1.9,2.9,5.6,5.2,8.9,6s2.7.4,4,.2.9.2,1,.1c.3,0,.1-.2.8-.1,1.3-.3,2.5-.5,3.8-.6s.5,0,.7,0l-.3.2c-.3,0-.4,0-.7,0-.2-.1-.3,0-.5,0-1.1.2-1.9.5-3,.3-.4,0-.9.3-1.3.3s-.4,0-.5,0c-.5,0-1.5,0-2,0s-.3,0-.4,0-.3-.2-.4,0c0,0-.2,0-.3,0h-.4c0,0,0,0,0-.1l-2.2-.5c0,0-.1-.1-.2-.2-.4-.2-.8-.5-1.3-.6,0,0-.1-.1-.2-.2-1.3-.9-2.5-1.8-3.8-2.7s-.1-.1-.2-.2c0-.2-.2-.3-.3-.4s-.1-.1-.2-.2c-.3-.3-.5-.8-.8-1.1s-.1,0-.2-.2c-.2-.5-.6-1-.9-1.5s0-.2-.1-.2h0Z"/>
    <path class="st14" d="M813.9,447.9c.6,0,1.1,1.1.2,1.3s-1-1.2-.2-1.3Z"/>
    <path class="st14" d="M814.2,430c-.1.2-.2.3-.4.5-.5.1-.8.6-1.1.9s-.2.5-.5.2c0,0,0-.2,0-.3.2-.2,1.4-1.4,1.6-1.4s.2,0,.2.1Z"/>
    <path class="st14" d="M808.1,444c.3.6.4,1.3.8,1.9s0,.1.1.2h0c0,0-.5-.2-.5-.4l-.3-1.7Z"/>
    <path class="st14" d="M833,437.9s.2,0,.2,0,0,.4,0,.5c0,0-.1,0-.2-.2s0-.2-.1-.2l.2-.2Z"/>
    <path class="st14" d="M829.3,453.3c0,0,.1.1.2.2-.4,0-.2,0-.5,0l.3-.2Z"/>
    <path class="st14" d="M824.8,453.9c1.2.1,1.9-.2,3-.3s.3,0,.5,0c-1.2.4-3,.8-4.3.8s-.4,0-.6-.2c.5,0,.9-.2,1.3-.3Z"/>
    <path class="st14" d="M815.4,452.6c-.2.3-.3,0-.5,0-1-.5-2.2-1.4-3-2.2s-.3-.3-.3-.5c1.3.9,2.5,1.8,3.8,2.7Z"/>
    <path class="st14" d="M834.6,454.8c-.2.3-.3,0-.5,0-.7-.4-1.9-1.4-2.6-1.4s-.9,0-1,0c-.2,0,0,.3-.4,0,1.7-.8,3.2.4,4.5,1.4Z"/>
    <path class="st14" d="M820.4,426.7c-.9.3-1.5.5-2.4,1s-.3.3-.5,0c.6-.4,1.6-.9,2.3-1.1s.3-.1.6.1Z"/>
    <path class="st14" d="M826.7,427.8c-.8-.3-1.6-.7-2.5-1,.2-.3.3-.1.6,0,.9.3,1.2.6,1.9,1.1Z"/>
    <path class="st14" d="M810.1,434.2c.3.2,0,.3,0,.5-.3.5-.6,1-.8,1.4-.3-.2-.1-.3,0-.6.2-.5.6-.9.9-1.4Z"/>
    <path class="st14" d="M826.9,428.1c.2-.3.3,0,.5,0,.4.3,1.2.8,1.2,1.3-.6-.5-1.1-.9-1.7-1.4Z"/>
    <path class="st14" d="M829,429.7c.2.2.6.4.8.7l.5,1.2c-.4-.6-.9-1.3-1.3-1.9Z"/>
    <path class="st14" d="M819.2,454c-.2.3-.3.1-.6,0-.6-.1-1.1-.3-1.7-.6l2.2.5Z"/>
    <path class="st14" d="M822.9,454.3c-.4.4-.8.1-1.1,0s-.6.2-.9-.1c.5,0,1.5,0,2,0Z"/>
    <path class="st14" d="M833.9,440.8c-.3-.5-.3-.8-.4-1.4.4.3.7,1,.4,1.4Z"/>
    <path class="st14" d="M821.9,426.5c-.5,0-1,.3-1.5,0,.9-.3.7-.2,1.5,0Z"/>
    <path class="st14" d="M809.1,446.5c.3.5.6,1,.9,1.5-.1-.2-.4-.3-.5-.5s-.6-.8-.3-1Z"/>
    <path class="st14" d="M837,456.6c-.1.4-.7-.2-1-.5s-.1-.3-.2-.3c.4,0,.8.5,1.1.7Z"/>
    <path class="st14" d="M810.1,448.1c.3.3.6.8.8,1.1,0,0-.2,0-.3,0-.2-.2-.8-.9-.5-1Z"/>
    <path class="st14" d="M835.2,444.2c.2.3.9,1,.7,1.3-.3-.4-.7-.9-.7-1.3Z"/>
    <path class="st14" d="M816.8,453.3c-.4,0-.7,0-1.1-.3s-.1-.3-.1-.3c.4.1.9.4,1.3.6Z"/>
    <path class="st14" d="M809,436.4c0,.3-.3.6-.3.8-.5-.3.3-.7.3-.8Z"/>
    <path class="st14" d="M808.5,437.6c0,.2-.1.5-.2.9-.3,0,0-.9.2-.9Z"/>
    <path class="st14" d="M807.9,439.9v1.5c-.2-.8-.2-.7,0-1.5Z"/>
    <path class="st14" d="M807.8,441.6c0,.5,0,.9,0,1.3h-.1c-.3,0,0-.3,0-.5,0-.3-.3-.5,0-.8Z"/>
    <path class="st14" d="M834,440.9c.1.2.4.4.2.8,0-.2-.4-.5-.2-.8Z"/>
    <path class="st14" d="M807.9,443.2c0,.1.4.4,0,.7-.1-.3-.3-.4,0-.7Z"/>
    <path class="st14" d="M823.9,426.7c-.1,0-.3,0-.5-.1.2-.2.4-.2.6,0h0Z"/>
    <path class="st14" d="M814.5,429.6c.1-.1.3-.7.6-.3-.2.1-.3.3-.6.3Z"/>
    <path class="st14" d="M834.3,442.1l.3.5.2.8c-.3-.5-.3-.8-.5-1.3Z"/>
    <path class="st14" d="M831.6,434.5c-.1-.2-.3-.4-.2-.7.2.2.5.3.2.7Z"/>
    <path class="st14" d="M833.3,438.6c.4.5.1.4.2.6-.2-.2-.4-.4-.2-.6Z"/>
    <path class="st14" d="M823.1,426.6c-.2.2-.5,0-.6,0,.3-.4.4,0,.6,0Z"/>
    <path class="st14" d="M831,432.9c.4.5.1.4.2.6-.2-.2-.4-.4-.2-.6Z"/>
    <path class="st14" d="M811.1,449.4c.1,0,.3.2.3.4-.1,0-.7,0-.3-.4Z"/>
    <path class="st14" d="M835,443.5c.1.2.4.4.2.6-.2-.2-.4-.4-.2-.6Z"/>
    <path class="st14" d="M820.5,454.2c-.4.4-.4,0-.4,0,.2-.2.3,0,.4,0Z"/>
    <path class="st14" d="M816.7,428.2c.2-.2.2-.5.5-.2-.2.1-.3.3-.5.2Z"/>
    <path class="st14" d="M808.1,438.9c.1.2,0,.4-.1.5-.4-.2,0-.3.1-.5Z"/>
    <path class="st14" d="M830.4,431.9h.1c.2.1.3.1,0,.3-.1-.1-.1-.2-.2-.3Z"/>
    <path class="st14" d="M819.8,454.1c0,0-.1.2-.2.2s-.2-.2-.3-.2h.4Z"/>
    <path class="st14" d="M832.4,436c0,0,.2.1.3.2s-.1.2-.1.2c-.1-.1-.2-.2-.1-.4Z"/>
    <path class="st14" d="M816.1,428.6s0-.3,0-.3.1.2.2.2h-.2Z"/>
    <path class="st14" d="M815.4,429s0-.3,0-.3.1.2.2.2h-.2Z"/>
    <path class="st14" d="M830.7,432.3c.3.4,0,.2,0,.3-.2-.1-.2-.2,0-.3Z"/>
    <path class="st14" d="M832.9,437.2c.3.4,0,.1,0,.3-.2-.1-.2-.2,0-.3Z"/>
    <path class="st14" d="M832,435.2v-.2c0,0,0,.1,0,.2Z"/>
    <path class="st14" d="M831.3,433.7h0c0,0,0,0,0,0Z"/>
    <path class="st14" d="M831.7,434.7v-.2c0,0,0,.2,0,.2Z"/>
    <path class="st14" d="M836.3,446h0c0,0,0-.1,0,0Z"/>
    <path class="st1" d="M825.7,444.3c0,0,1.1-.6,1.3-.9s.4-.7.7-.9l2.9,3.2c2.7,2.6,5.4,5.1,8.6,6.9.3.2,1.1.7.8,1-.4.6-.6,0-.8-.2-2.8-2-5.6-4.1-8.5-6-1.6-1.1-3.2-2-4.9-2.9,0,0-.1-.3-.1-.3Z"/>
    <path class="st1" d="M825.1,443.2c-.4,0-.6-.4-.5-.7l.5.7Z"/>
  </g>
  <g>
    <rect class="st11" x="764.7" y="52.2" width="45.3" height="44.2" rx="8.1" ry="8.1"/>
    <path class="st7" d="M782.5,63.5h-7.4v19.7h4.1v-6.1h3.2c1.9,0,3.6-.8,4.8-2,1.2-1.2,2-2.9,2-4.8,0-3.7-3-6.8-6.8-6.8ZM784.2,72.5c-.6.6-1.4.9-2.3.9h-2.7v-6.4h2.7c1.8,0,3.2,1.4,3.2,3.2s-.4,1.7-.9,2.3Z"/>
    <path class="st7" d="M802.2,78.8c0,1.3-.6,2.5-1.6,3.4-1.1,1-2.6,1.4-4,1.5-.2,0-.3,0-.5,0-1.6,0-3.3-.3-4.7-1,0,0,0,0,0,0,0-1.2,0-2.3,0-3.5,0,0,1.1.3,1.3.4,1.3.4,2.9.8,4.3.6.3,0,.6-.1.8-.3.9-.7,0-1.6-.7-1.9-.8-.4-1.6-.6-2.3-.9-.7-.3-1.4-.7-2-1.3-1.9-1.8-1.8-4.8.1-6.5,1.1-1,2.6-1.3,4-1.4,1.5,0,3,.2,4.4.8,0,0,.1,0,.1,0,0,0,0,0,0,.1,0,1.2,0,2.4,0,3.5-.2-.2-.5-.3-.8-.4-.3-.1-.6-.2-.9-.3-1.1-.3-2.4-.7-3.5-.3-.4.1-.7.4-.7.9,0,.7.7,1,1.2,1.3.7.3,1.4.5,2.1.8,1.8.8,3.4,2.2,3.4,4.3Z"/>
  </g>
  <g>
    <path class="st12" d="M79.6,391c-3.4,2.1-9.8,6.8-4.4,9.5,5.4,2.7,6.2-5,6.3-8.7,1,3.9,3.5,11.4,7.6,7.1,4.2-4.3-2.9-7.4-6.3-8.7,4,.3,11.9.2,9.2-5-2.8-5.3-8,.4-10.2,3.3,1.5-3.7,3.9-11.3-2-10.3-5.9,1-2.1,7.7,0,10.7-3-2.6-9.5-7.2-10.4-1.3-.9,5.9,6.7,4.3,10.2,3.3Z"/>
    <path class="st3" d="M78.1,389.7c0,1.5,1.2,2.6,2.6,2.6s2.6-1.2,2.6-2.6-1.2-2.6-2.6-2.6-2.6,1.2-2.6,2.6Z"/>
  </g>
  <g>
    <path class="st12" d="M263.5,438c-3.4,2.1-9.8,6.8-4.4,9.5,5.4,2.7,6.2-5,6.3-8.7,1,3.9,3.5,11.4,7.6,7.1,4.2-4.3-2.9-7.4-6.3-8.7,4,.3,11.9.2,9.2-5-2.8-5.3-8,.4-10.2,3.3,1.5-3.7,3.9-11.3-2-10.3-5.9,1-2.1,7.7,0,10.7-3-2.6-9.5-7.2-10.4-1.3-.9,5.9,6.7,4.3,10.2,3.3Z"/>
    <path class="st3" d="M262,436.7c0,1.5,1.2,2.6,2.6,2.6s2.6-1.2,2.6-2.6-1.2-2.6-2.6-2.6-2.6,1.2-2.6,2.6Z"/>
  </g>
  <g>
    <path class="st12" d="M602.4,75.1c-3.4,2.1-9.8,6.8-4.4,9.5,5.4,2.7,6.2-5,6.3-8.7,1,3.9,3.5,11.4,7.6,7.1,4.2-4.3-2.9-7.4-6.3-8.7,4,.3,11.9.2,9.2-5-2.8-5.3-8,.4-10.2,3.3,1.5-3.7,3.9-11.3-2-10.3-5.9,1-2.1,7.7,0,10.7-3-2.6-9.5-7.2-10.4-1.3-.9,5.9,6.7,4.3,10.2,3.3Z"/>
    <path class="st3" d="M600.9,73.7c0,1.5,1.2,2.6,2.6,2.6s2.6-1.2,2.6-2.6-1.2-2.6-2.6-2.6-2.6,1.2-2.6,2.6Z"/>
  </g>
  <g>
    <path class="st12" d="M721.1,432.9c-3.4,2.1-9.8,6.8-4.4,9.5,5.4,2.7,6.2-5,6.3-8.7,1,3.9,3.5,11.4,7.6,7.1,4.2-4.3-2.9-7.4-6.3-8.7,4,.3,11.9.2,9.2-5-2.8-5.3-8,.4-10.2,3.3,1.5-3.7,3.9-11.3-2-10.3-5.9,1-2.1,7.7,0,10.7-3-2.6-9.5-7.2-10.4-1.3-.9,5.9,6.7,4.3,10.2,3.3Z"/>
    <path class="st3" d="M719.6,431.6c0,1.5,1.2,2.6,2.6,2.6s2.6-1.2,2.6-2.6-1.2-2.6-2.6-2.6-2.6,1.2-2.6,2.6Z"/>
  </g>
  <g>
    <path class="st0" d="M130.3,57.1s17.1-8,11.3-11.4c-5.9-3.5-11.3,11.4-11.3,11.4Z"/>
    <path class="st0" d="M123.9,53.5s9.1-16.6,2.3-15.9c-6.8.7-2.3,15.9-2.3,15.9Z"/>
    <path class="st0" d="M138.2,56.9s17.9,6.2,16.1-.4c-1.8-6.6-16.1.4-16.1.4Z"/>
  </g>
  <g>
    <path class="st0" d="M808.1,52.6s17.1-8,11.3-11.4c-5.9-3.5-11.3,11.4-11.3,11.4Z"/>
    <path class="st0" d="M801.7,49s9.1-16.6,2.3-15.9c-6.8.7-2.3,15.9-2.3,15.9Z"/>
    <path class="st0" d="M816,52.4s17.9,6.2,16.1-.4c-1.8-6.6-16.1.4-16.1.4Z"/>
  </g>
  <image width="552" height="821" transform="translate(87.2 148.9) scale(.3 .3)" xlink:href="FOTOGRAFIAS-01-1.png"/>
  <image width="565" height="875" transform="translate(349.8 148.9) scale(.3 .3)" xlink:href="FOTOGRAFIAS-01-2.png"/>
  <image width="549" height="709" transform="translate(625.6 143.1) scale(.3)" xlink:href="FOTOGRAFIAS-01-3.png"/>
</svg>