<?xml version="1.0" encoding="UTF-8"?><svg id="Capa_1" xmlns="http://www.w3.org/2000/svg" viewBox="0 0 1922.15 261.45"><defs><style>.cls-1{fill:#edebeb;}.cls-2{fill:#f8f5fe;}.cls-3{stroke-width:1.16px;}.cls-3,.cls-4,.cls-5,.cls-6{fill:#f4dc00;stroke-linecap:round;stroke-linejoin:round;}.cls-3,.cls-4,.cls-5,.cls-6,.cls-7{stroke:#1d1d1b;}.cls-8{fill:#f49297;}.cls-4{stroke-width:.28px;}.cls-9{fill:#e173b6;}.cls-10{fill:#f5ce74;}.cls-11{fill:#f7d381;}.cls-5{stroke-width:1px;}.cls-6{stroke-width:1.07px;}.cls-7{fill:#fff;stroke-miterlimit:10;stroke-width:3.52px;}.cls-12{fill:#7ac8c2;}.cls-13{fill:#edbfb9;}</style></defs><polygon class="cls-4" points="647.62 133.7 645.3 130.48 641.34 130.56 644.55 128.24 644.48 124.27 646.8 127.48 650.76 127.41 647.55 129.73 647.62 133.7"/><rect class="cls-1" width="1922.15" height="261.45"/><path class="cls-7" d="M897.79,196.25c.59,0,1.06.5,1.2,1.17,1.33,7.76,2.58,15.84,5.39,23.15h.18c.69,0,1.06.45,1.06,1.08,0,.36-.28.46-.65.46s-5.66.18-7.31.18-1.99-.28-1.99-1.09c0-.58.69-.63,1.8-.63-.28-1.98-.6-4.34-1.06-6.81-.92-.05-5.34-.27-5.89-.27-.28,2.66-.32,5.23-.1,7.81h1.11c.36,0,.59.09.73.2.97.75.17,3.47-.56,3.54-.59.05-.53-1.7-1.82-2.21-1.07-.42-2.58.17-4.29.17-.83,0-1.1-.45-1.1-.94s.18-.86.69-.86c.14,0,.54,0,1.01.05.46-1.67,2.26-7.62,3.18-12.82.96-5.32,1.79-9.29,2.07-10.91-1.75-.05-2.22-.36-2.22-1.18,0-.4.65-.58.88-.58,1.7.41,4.43.5,7.7.5ZM890.75,211.68c.86.05,4.33.28,5.34.31-.79-4.11-1.85-8.48-3.32-12.41-.28,1.53-1.06,5.64-1.66,9.48-.14.89-.27,1.75-.36,2.61Z"/><path class="cls-7" d="M918.34,195.76c4.83,0,7.65,2.71,7.65,6.27,0,2.39-1.75,5.51-4.01,6.59,2.53,1.76,2.81,5.78,3.86,11.55.37-.05.84-.13.97-.13.32,0,.59.59.59,1.22,0,.23-.09.31-.27.36-.18.04-6.22.71-6.77.71s-1.01-.35-1.01-.71,0-6.59-.79-10.02c-.36-1.63-1.47-1.72-1.92-1.72s-1.85-.05-2.73-.05c0,5.69.23,9.34.32,10.69h1.99c.42,0,.78.77.78,1.04s-.09.41-.59.41c-2.39,0-9.08.45-9.72.45s-.92-.36-.92-.86.42-.86,1.94-.86c.23-1.95.83-8.48.83-13.35,0-3.93-.46-7.54-.59-8.89-.32.08-.69.13-.88.13-.51,0-.74-.13-.74-.72,0-.35.14-.71.6-.81,3.27-.68,7.28-1.3,11.42-1.3ZM914.38,197.38c-.18,1.72-.42,5.46-.47,10.74,4.29-.05,6.03-1.8,6.03-6.72,0-2.89-1.01-4.11-3.31-4.11-.97,0-1.75.05-2.26.08Z"/><path class="cls-7" d="M947.54,204.42c-.18.08-.64.31-.92.31s-.78-.08-.91-1.17c-.23-1.67-.37-4.51-4.61-5.36-.27,2.84-.59,7.62-.59,12.63,0,6.4.51,8.48.83,9.75.74.05,1.97.08,2.44.08.55,0,.83.82.83,1.32,0,.18-.18.35-.42.35-.22,0-4.09-.17-6.22-.17s-4.74.45-5.29.45-.83-.36-.83-.81c0-.64.51-1.14,2.66-1.22.14-1.81.46-7.36.46-12.23s-.22-7.77-.51-9.88c-3.54,1.09-4.09,3.33-4.51,6.32-.09.63-.22.99-.83.99s-1.2-.27-1.15-.86.14-5.96.14-6.77.51-1.17.88-1.17c2.68-.13,14.13-.91,17.77-1.22.6-.05.84.68.84.99s.09,6.4.14,6.95-.05.68-.18.72Z"/><path class="cls-7" d="M967.41,196.25c.59,0,1.06.5,1.2,1.17,1.33,7.76,2.58,15.84,5.39,23.15h.18c.69,0,1.06.45,1.06,1.08,0,.36-.28.46-.65.46s-5.66.18-7.31.18-1.99-.28-1.99-1.09c0-.58.69-.63,1.8-.63-.28-1.98-.6-4.34-1.06-6.81-.92-.05-5.34-.27-5.89-.27-.28,2.66-.32,5.23-.1,7.81h1.11c1.06,0,1.25.94,1.25,1.21s-.1.5-.42.5c-.14,0-1.57-.17-2.48-.17s-3.45.17-4.29.17-1.1-.45-1.1-.94.18-.86.69-.86c.14,0,.54,0,1.01.05.46-1.67,2.26-7.62,3.17-12.82.97-5.32,1.8-9.29,2.08-10.91-1.75-.05-2.22-.36-2.22-1.18,0-.4.65-.58.88-.58,1.7.41,4.43.5,7.7.5ZM960.37,211.68c.86.05,4.33.28,5.34.31-.79-4.11-1.85-8.48-3.32-12.41-.28,1.53-1.06,5.64-1.66,9.48-.14.89-.27,1.75-.36,2.61Z"/><path class="cls-7" d="M983.07,196.98c.32,0,.59.22.78.54.18.27,7.78,13.3,9.58,16.32.05-2.03.14-10.46-1.47-15.92h-1.38c-.74,0-.92-.31-.92-.94,0-.41.46-.68.83-.68s5.62.04,6.35.04,1.16.54,1.16,1.18c0,.31-.32.27-1.2.27-.42,1.49-1.66,6.9-1.66,15.12,0,2.66.55,8.53.55,8.89s-.27.63-.59.63-2.44.13-3.05.13-1.06-.05-1.47-.99c-2.49-5.69-7.61-14.03-10.88-19.13.1.99.18,3.2.37,6.09.32,4.51.92,10.28,1.43,12.49h.96c.6,0,.92.91.92,1.14,0,.22-.23.45-.42.45-2.07,0-4-.18-6.59,0-.64.05-1.06-.28-1.06-.81s.52-.72.84-.77c.18-.05.41-.05.69-.05.41-1.21,1.1-4.14,1.1-12.45,0-4.24-.27-6.95-.41-9.44-.28-.36-.51-.68-.65-.86-1.28-.08-1.7-.31-1.7-1.04,0-.45.42-.71.83-.68,1.11.14,6.73.46,7.05.46Z"/><path class="cls-7" d="M1015.87,196.75c.05-.68.27-.91.74-.91.41,0,.74.41.74.82,0,.13-.15,1.88-.15,3.52s.28,3.61.32,3.98c.05.35-.22.53-.46.53-.83,0-1.52-.31-1.7-.94s-1.15-6.09-4.06-6.09-4.97,5.23-4.97,12.81c0,9.03,1.38,10.66,4.09,10.66,1.94,0,2.36-1.14,2.36-5.06,0-1.57-.1-2.74-.14-3.56-.69,0-1.57-.04-1.99-.04-.64,0-.92-.54-.92-1.04s.47-.72.97-.68c1.25.04,2.31.08,3.17.08,4.06,0,4.8-.54,5.12-.54.37,0,.74.54.74,1.14s-.37.68-1.52.99c-.05.81-.18,2.39-.18,3.75,0,1.8.27,2.89.27,3.56s-.27.99-.55,1.12c-1.33.72-4.01,1.99-7.73,1.99-5.52,0-10.09-3.61-10.09-11.91,0-7.54,4.46-15.12,11.33-15.12,2.07,0,3.67.53,4.6.94Z"/><path class="cls-7" d="M1035.21,209.11c0,.41-.14.95-.51.99-.46.05-4.51.46-5.48.59.09,5.78.46,8.66.59,9.79,6.36-.22,6.77-6.49,7.46-6.49.47,0,1.16.81,1.16,1.21s-.28,6.28-.28,6.6-.22.36-.64.36c-.23,0-13.49.08-14.45.08s-1.16-.5-1.16-.99c0-.41.32-.54,1.33-.54.1-1.58.37-7.62.37-12.18,0-5.87-.41-8.98-.54-10.2-1.06-.05-1.48-.23-1.48-.99,0-.54.46-.54,4.56-.54,8.19,0,10.17-.81,10.63-.81.74,0,.97.76,1.02,1.44.04.68.17,6.14.17,6.68s-.27.58-.51.58c-.64,0-1.2-.18-1.33-.76-.88-4.42-2.02-5.51-6.59-5.59-.09,1.35-.32,5.36-.32,10.1,1.15-.08,3.87-.18,5.11-.18.55,0,.88.46.88.86Z"/><path class="cls-7" d="M1051.44,196.2c.51-.04.83.77.83,1.14,0,.5-.55.53-2.58.53-.18,1.4-.79,5.61-.79,13.36,0,3.52.51,7.44.79,9.39h.69c3.59,0,4.51-4.24,4.78-5.24.28-.99,1.06-1.17,1.48-1.17s.74.28.64.95c-.09.68-.18,6.49-.18,6.77s-.18.36-.32.36-3.5-.05-7.65-.05-6.22.23-6.91.23-.88-.18-.88-.82c0-.5.55-.71,1.2-.76.37-2.62.64-9.07.64-12.64s-.27-8.7-.37-10.28h-.54c-.69,0-.88-.54-.88-.99s.32-.68.91-.64c3,.23,6.45.1,9.13-.13Z"/><path class="cls-9" d="M896.87,195.21c.59,0,1.06.5,1.2,1.17,1.33,7.76,2.58,15.84,5.39,23.15h.18c.69,0,1.06.45,1.06,1.08,0,.36-.28.46-.65.46s-5.66.18-7.31.18-1.99-.28-1.99-1.09c0-.58.69-.63,1.8-.63-.28-1.98-.6-4.34-1.06-6.81-.92-.05-5.34-.27-5.89-.27-.28,2.66-.32,5.23-.1,7.81h1.11c.36,0,.59.09.73.2.97.75.17,3.47-.56,3.54-.59.05-.53-1.7-1.82-2.21-1.07-.42-2.58.17-4.29.17-.83,0-1.1-.45-1.1-.94s.18-.86.69-.86c.14,0,.54,0,1.01.05.46-1.67,2.26-7.62,3.18-12.82.96-5.32,1.79-9.29,2.07-10.91-1.75-.05-2.22-.36-2.22-1.18,0-.4.65-.58.88-.58,1.7.41,4.43.5,7.7.5ZM889.83,210.64c.86.05,4.33.28,5.34.31-.79-4.11-1.85-8.48-3.32-12.41-.28,1.53-1.06,5.64-1.66,9.48-.14.89-.27,1.75-.36,2.61Z"/><path class="cls-13" d="M917.41,194.72c4.83,0,7.65,2.71,7.65,6.27,0,2.39-1.75,5.51-4.01,6.59,2.53,1.76,2.81,5.78,3.86,11.55.37-.05.84-.13.97-.13.32,0,.59.59.59,1.22,0,.23-.09.31-.27.36-.18.04-6.22.71-6.77.71s-1.01-.35-1.01-.71,0-6.59-.79-10.02c-.36-1.63-1.47-1.72-1.92-1.72s-1.85-.05-2.73-.05c0,5.69.23,9.34.32,10.69h1.99c.42,0,.78.77.78,1.04s-.09.41-.59.41c-2.39,0-9.08.45-9.72.45s-.92-.36-.92-.86.42-.86,1.94-.86c.23-1.95.83-8.48.83-13.35,0-3.93-.46-7.54-.59-8.89-.32.08-.69.13-.88.13-.51,0-.74-.13-.74-.72,0-.35.14-.71.6-.81,3.27-.68,7.28-1.3,11.42-1.3ZM913.45,196.34c-.18,1.72-.42,5.46-.47,10.74,4.29-.05,6.03-1.8,6.03-6.72,0-2.89-1.01-4.11-3.31-4.11-.97,0-1.75.05-2.26.08Z"/><path class="cls-10" d="M946.62,203.38c-.18.08-.64.31-.92.31s-.78-.08-.91-1.17c-.23-1.67-.37-4.51-4.61-5.36-.27,2.84-.59,7.62-.59,12.63,0,6.4.51,8.48.83,9.75.74.05,1.97.08,2.44.08.55,0,.83.82.83,1.32,0,.18-.18.35-.42.35-.22,0-4.09-.17-6.22-.17s-4.74.45-5.29.45-.83-.36-.83-.81c0-.64.51-1.14,2.66-1.22.14-1.81.46-7.36.46-12.23s-.22-7.77-.51-9.88c-3.54,1.09-4.09,3.33-4.51,6.32-.09.63-.22.99-.83.99s-1.2-.27-1.15-.86.14-5.96.14-6.77.51-1.17.88-1.17c2.68-.13,14.13-.91,17.77-1.22.6-.05.84.68.84.99s.09,6.4.14,6.95c.05.54-.05.68-.18.72Z"/><path class="cls-9" d="M966.48,195.21c.59,0,1.06.5,1.2,1.17,1.33,7.76,2.58,15.84,5.39,23.15h.18c.69,0,1.06.45,1.06,1.08,0,.36-.28.46-.65.46s-5.66.18-7.31.18-1.99-.28-1.99-1.09c0-.58.69-.63,1.8-.63-.28-1.98-.6-4.34-1.06-6.81-.92-.05-5.34-.27-5.89-.27-.28,2.66-.32,5.23-.1,7.81h1.11c1.06,0,1.25.94,1.25,1.21s-.1.5-.42.5c-.14,0-1.57-.17-2.48-.17s-3.45.17-4.29.17-1.1-.45-1.1-.94.18-.86.69-.86c.14,0,.54,0,1.01.05.46-1.67,2.26-7.62,3.17-12.82.97-5.32,1.8-9.29,2.08-10.91-1.75-.05-2.22-.36-2.22-1.18,0-.4.65-.58.88-.58,1.7.41,4.43.5,7.7.5ZM959.44,210.64c.86.05,4.33.28,5.34.31-.79-4.11-1.85-8.48-3.32-12.41-.28,1.53-1.06,5.64-1.66,9.48-.14.89-.27,1.75-.36,2.61Z"/><path class="cls-12" d="M982.14,195.94c.32,0,.59.22.78.54.18.27,7.78,13.3,9.58,16.32.05-2.03.14-10.46-1.47-15.92h-1.38c-.74,0-.92-.31-.92-.94,0-.41.46-.68.83-.68s5.62.04,6.35.04,1.16.54,1.16,1.18c0,.31-.32.27-1.2.27-.42,1.49-1.66,6.9-1.66,15.12,0,2.66.55,8.53.55,8.89s-.27.63-.59.63-2.44.13-3.05.13-1.06-.05-1.47-.99c-2.49-5.69-7.61-14.03-10.88-19.13.1.99.18,3.2.37,6.09.32,4.51.92,10.28,1.43,12.49h.96c.6,0,.92.91.92,1.14,0,.22-.23.45-.42.45-2.07,0-4-.18-6.59,0-.64.05-1.06-.28-1.06-.81s.52-.72.84-.77c.18-.05.41-.05.69-.05.41-1.21,1.1-4.14,1.1-12.45,0-4.24-.27-6.95-.41-9.44-.28-.36-.51-.68-.65-.86-1.28-.08-1.7-.31-1.7-1.04,0-.45.42-.71.83-.68,1.11.14,6.73.46,7.05.46Z"/><path class="cls-10" d="M1014.95,195.71c.05-.68.27-.91.74-.91.41,0,.74.41.74.82,0,.13-.15,1.88-.15,3.52s.28,3.61.32,3.98c.05.35-.22.53-.46.53-.83,0-1.52-.31-1.7-.94s-1.15-6.09-4.06-6.09-4.97,5.23-4.97,12.81c0,9.03,1.38,10.66,4.09,10.66,1.94,0,2.36-1.14,2.36-5.06,0-1.57-.1-2.74-.14-3.56-.69,0-1.57-.04-1.99-.04-.64,0-.92-.54-.92-1.04s.47-.72.97-.68c1.25.04,2.31.08,3.17.08,4.06,0,4.8-.54,5.12-.54.37,0,.74.54.74,1.14s-.37.68-1.52.99c-.05.81-.18,2.39-.18,3.75,0,1.8.27,2.89.27,3.56s-.27.99-.55,1.12c-1.33.72-4.01,1.99-7.73,1.99-5.52,0-10.09-3.61-10.09-11.91,0-7.54,4.46-15.12,11.33-15.12,2.07,0,3.67.53,4.6.94Z"/><path class="cls-2" d="M1034.28,208.07c0,.41-.14.95-.51.99-.46.05-4.51.46-5.48.59.09,5.78.46,8.66.59,9.79,6.36-.22,6.77-6.49,7.46-6.49.47,0,1.16.81,1.16,1.21s-.28,6.28-.28,6.6-.22.36-.64.36c-.23,0-13.49.08-14.45.08s-1.16-.5-1.16-.99c0-.41.32-.54,1.33-.54.1-1.58.37-7.62.37-12.18,0-5.87-.41-8.98-.54-10.2-1.06-.05-1.48-.23-1.48-.99,0-.54.46-.54,4.56-.54,8.19,0,10.17-.81,10.63-.81.74,0,.97.76,1.02,1.44.04.68.17,6.14.17,6.68s-.27.58-.51.58c-.64,0-1.2-.18-1.33-.76-.88-4.42-2.02-5.51-6.59-5.59-.09,1.35-.32,5.36-.32,10.1,1.15-.08,3.87-.18,5.11-.18.55,0,.88.46.88.86Z"/><path class="cls-9" d="M1050.51,195.16c.51-.04.83.77.83,1.14,0,.5-.55.53-2.58.53-.18,1.4-.79,5.61-.79,13.36,0,3.52.51,7.44.79,9.39h.69c3.59,0,4.51-4.24,4.78-5.24.28-.99,1.06-1.17,1.48-1.17s.74.28.64.95c-.09.68-.18,6.49-.18,6.77s-.18.36-.32.36-3.5-.05-7.65-.05-6.22.23-6.91.23-.88-.18-.88-.82c0-.5.55-.71,1.2-.76.37-2.62.64-9.07.64-12.64s-.27-8.7-.37-10.28h-.54c-.69,0-.88-.54-.88-.99s.32-.68.91-.64c3,.23,6.45.1,9.13-.13Z"/><path class="cls-11" d="M875.94,189.94l.9-1.39c.74-.74,2.29-2.57,3.44-1.61,1.23,1.03-.92,3.86-1.64,4.76,1.31-.42,3.59-1.43,4.82-.44.21.17.41.52.41.79-.02,1.45-3.35,2.69-4.63,2.58l1.79.52c1.12.24,3.87,1.86,2.41,3.08-1.12.94-3.73-.06-4.95-.52.89.92,3.16,3.85,1.65,4.92-.94.66-2.59-.62-3-1.47l-1.2-1.54v2.71c0,.92-.98,2.66-2.18,1.99-1.2-.68-1.18-3.66-1.04-4.84-.52,1.15-2.89,4.24-4.34,3.08-1.26-1,.99-3.96,1.72-4.84-.62.16-1.16.51-1.79.66-4.18,1-4.65-1.77-1.05-3.08l2.09-.66c-1.35.03-5.17-1.3-4.41-3.08.64-1.49,4.03-.21,5.16.14-.8-.79-3.21-4.14-1.49-4.91,1.5-.67,3.57,1.95,4.04,3.15.24.04.15-.19.13-.35-.12-1.14-.22-4.67,1.59-4.62.76.02,1.57,1.49,1.57,2.11v2.86ZM873.15,193.5c-1.8,1.58,1.25,4.33,2.65,2.08,1.01-1.62-1.18-3.37-2.65-2.08Z"/><path class="cls-8" d="M997.49,125.54c.39.02.31-.49.63-.75,1.25-1.05,1.48-1.4,2.55-2.49,3.65-3.75,7.84-3.5,12.59-4.86,5.67-1.62,17.57-6.7,18.71-13.07.36-2.01.08-3.11-1.41-4.5,2.45.9,2.2,3.81,1.47,5.8-2.06,5.58-12.24,10.57-17.69,12.32-4.54,1.46-10.23,1.45-13.28,5.55,5.48-.96,6.32,6.27,2.53,8.59-3.79,2.32-6.22-3.34-4.82-6.34-.41.29-.93,1.04-1.16,1.48-.23.44-.9,1.93-.84,2.33.08.47,1.47,2.44,1.79,3.25,2.85,7.22-1.24,13.93-7.19,17.96-5.32,3.61-11.08,6.43-16.23,10.51-2.31,1.83-5.64,5.87-8.23,6.63-4.71,1.38-1.29-4.02-.19-5.67,3.06-4.6,7.37-8.97,10.81-13.33l2.42-2.24c-2.89.72-5.7,1.71-8.59,2.42-9.24,2.25-19.5,3.82-28.29-.8-4.47-2.34-8.86-9.4-12.33-13.34-6.57-7.47-20.96-23.62-28.3-7.79l-1.33,4.05c1.02-7.42,5.74-13.32,14.06-10.41,4.7,1.65,11.84,8.93,15.32,12.65,3.49,3.73,7.95,10.69,11.94,13.22.93.58,1.97.98,2.93,1.49-2.7-5.55.17-11.14,3.31-15.82-4.78-1.84-1.84-8.55.05-11.67,7.86-13,20.39-4.1,28.69,3.07.03-.47-.39-.86-.66-1.22-1.38-1.87-3.77-4.53-5.56-6.01-2.98-2.47-7.29-3.36-6.43-8.28.31-1.79,2.73-4.68,4-6.05.47-.51,2.75-2.3,2.77-2.48.01-.12-.68-1.42-.74-2.24-.26-3.7,2.48-4.84,4.58-7.24,4.78-5.48,6.64-9.69,10.14-15.74,2.22-3.84,6.3-9.18,10.72-4.19,5.13,5.8,4.39,20.13,4.08,27.41-.4,9.32-1.48,18.55-2.8,27.78ZM950.25,132.09c-.18.11-1.89,2.8-2.15,3.25-1.99,3.45-3.69,7.43-2.12,11.38.84,2.09,1.64,2.32,3.73,2.82,8.72,2.1,24.05-1.4,32.32-4.87,4.38-1.84,9.7-7.15,11.85-11.31,2.95-5.69,3.98-18.02,4.61-24.64.86-9.03,2.51-28.78-2.24-36.43-3.73-6.01-7.44-1.25-9.76,2.75-3.03,5.24-4.78,9.44-8.86,14.24-4.05,4.76-9.69,7.36-2.11,12.79,3.41,2.45,5.86,2.94,8.53,6.59,4.62,6.31,4.59,12.35,5.02,19.75.17,2.87,1.89,11.16-2.42,11.81-2.81.42-7.8-.97-10.59-1.8-4.97-1.48-19.44-7.98-23.67-7.1-.16.03-2.05.7-2.15.76ZM987.57,138c.18.13.45-.4.52-.6.61-1.55.12-8.62-.02-10.73-.5-7.41-1.71-16.1-8.31-20.76-2.5-1.76-5.54-2.85-7.58-5.24-3.44,2.96-9.58,8.26-4.32,12.41,2.84,2.24,5.03,3.36,7.63,6.23,4.85,5.36,8.74,12.36,12.08,18.69ZM958.26,115.15c-3.69.31-6.59,2.97-8.45,5.93-1.43,2.28-5.35,10.6.24,9.95.86-.1,1.31-.62,2.04-.74,6.37-1,21.75,6.98,29.31,8.38.75.14,5.34,1.02,5.39.2-3.06-6.24-7.28-11.99-12.71-16.45-3.74-3.08-10.82-7.69-15.83-7.27ZM1000.35,124.86c-.91,1.02-1.08,4.45-.17,5.65,2.81,3.71,6.91-3.87,3.16-5.59-.7-.32-2.45-.66-2.99-.06ZM965.7,167.15c3.67-1.07,5.95-4.48,8.93-6.83,5.04-3.97,10.79-6.86,16.08-10.41,6.77-4.55,9.79-11.29,5.77-18.89l-2.75,5.9c-3.27,6.01-10,7.51-14.68,12.03-2.74,2.65-12.05,13.88-13.14,17.02-.14.4-.27.74-.2,1.18Z"/><path class="cls-10" d="M910.74,61.4c41.7-43.74,118.36-27.65,136.09,29.41,20.83,67.03-52.98,124.78-116.19,90.31-44.34-24.18-54.61-83.32-19.9-119.72ZM960.86,53.75c-70.79,7.69-70.49,114.52,3.26,120.32,91.21,7.17,90.59-130.51-3.26-120.32Z"/><polygon class="cls-3" points="346.08 88.86 336.46 75.54 320.03 75.84 333.35 66.22 333.05 49.79 342.67 63.11 359.11 62.82 345.79 72.43 346.08 88.86"/><polygon class="cls-3" points="729.73 166.9 720.11 153.58 703.67 153.88 716.99 144.26 716.7 127.82 726.32 141.14 742.75 140.85 729.43 150.47 729.73 166.9"/><polygon class="cls-3" points="1296.05 192.31 1286.43 178.99 1270 179.29 1283.32 169.67 1283.02 153.24 1292.64 166.56 1309.08 166.27 1295.76 175.88 1296.05 192.31"/><polygon class="cls-3" points="1754.54 84.51 1744.92 71.18 1728.49 71.48 1741.81 61.86 1741.51 45.43 1751.13 58.75 1767.56 58.46 1754.24 68.07 1754.54 84.51"/><polygon class="cls-3" points="519.31 89.37 509.69 76.05 493.25 76.35 506.57 66.73 506.28 50.3 515.9 63.62 532.33 63.33 519.01 72.94 519.31 89.37"/><polygon class="cls-3" points="180.64 138.96 171.02 125.64 154.59 125.93 167.91 116.31 167.61 99.88 177.23 113.2 193.66 112.91 180.34 122.53 180.64 138.96"/><polygon class="cls-6" points="1295.98 74.49 1286.47 62.92 1270.22 63.17 1283.39 54.81 1283.1 40.53 1292.61 52.11 1308.85 51.86 1295.69 60.21 1295.98 74.49"/><polygon class="cls-5" points="501.47 207.08 493.11 195.5 478.83 195.76 490.41 187.4 490.15 173.11 498.51 184.69 512.79 184.44 501.21 192.79 501.47 207.08"/><polygon class="cls-5" points="1505.35 125.38 1496.99 113.8 1482.7 114.06 1494.28 105.7 1494.02 91.41 1502.38 102.99 1516.67 102.74 1505.09 111.09 1505.35 125.38"/><polygon class="cls-5" points="1649.54 199.14 1641.18 187.56 1626.9 187.82 1638.47 179.46 1638.21 165.18 1646.57 176.75 1660.86 176.5 1649.28 184.85 1649.54 199.14"/></svg>