<?xml version="1.0" encoding="UTF-8"?>
<svg id="Capa_1" xmlns="http://www.w3.org/2000/svg" version="1.1" viewBox="0 0 1920 600">
  <!-- Generator: Adobe Illustrator 29.1.0, SVG Export Plug-In . SVG Version: 2.1.0 Build 142)  -->
  <defs>
    <style>
      .st0, .st1, .st2, .st3, .st4, .st5, .st6 {
        stroke-width: 2.3px;
      }

      .st0, .st3 {
        fill: #f7d381;
      }

      .st0, .st5 {
        stroke: #353535;
      }

      .st0, .st5, .st7 {
        stroke-linecap: round;
        stroke-linejoin: round;
      }

      .st1 {
        fill: #9cd9c0;
      }

      .st1, .st2, .st3, .st4, .st6 {
        stroke: #000;
        stroke-miterlimit: 10;
      }

      .st2 {
        fill: #bcbcf4;
      }

      .st4 {
        fill: #e173b6;
      }

      .st5 {
        fill: #f0ab0c;
      }

      .st6 {
        fill: #f7b1ed;
      }

      .st7 {
        fill: #f4dc00;
        stroke: #1d1d1b;
        stroke-width: 2.2px;
      }
    </style>
  </defs>
  <g>
    <g>
      <path class="st4" d="M396.4,414.7c0,8.6-2.5,17-7.4,25.3-4.9,8.3-11.5,15.7-19.6,22.3-8.2,6.6-17.5,12-28,16.2s-21.2,6.6-32.3,7c-.2,2.9-.4,6.5-.5,10.9-.1,4.4-.5,9-1.1,13.7-.6,4.8-1.5,9.6-2.7,14.3-1.1,4.8-2.8,9.1-5,12.9-2.2,3.8-5,6.9-8.5,9.3-3.5,2.4-7.7,3.6-12.7,3.6s-10.5-1.5-14-4.4-6.1-6.5-7.9-10.6c-1.8-4.1-3-8.5-3.6-13-.6-4.5-1.1-8.4-1.3-11.6-.4-4.6-.7-9.1-.8-13.6-.1-4.5-.2-9-.2-13.6v-11.6c0-5.6,0-12.1.2-19.3.1-7.2.3-14.8.5-22.7s.5-15.2.9-22c.4-6.8.9-12.5,1.4-17.3.5-4.8,1.2-7.6,2-8.4.2-.2.8-.5,1.9-1.1,1-.6,2.2-1.1,3.5-1.7,1.3-.6,2.4-1.1,3.5-1.5,1-.5,1.8-.8,2.2-1,9.6-4.1,20.2-7.7,31.7-10.8,11.5-3,22.9-4.5,34.2-4.5s18.4,1.5,26.2,4.4,14.5,6.9,20.1,11.7c5.5,4.9,9.8,10.5,12.7,17,2.9,6.5,4.4,13.1,4.4,19.9h0ZM342.1,420.2c0-3.2-1-6-3-8.4-2-2.4-5.3-3.6-9.9-3.6s-8,.6-11.9,1.8c-4,1.2-7.6,2.4-11,3.7.6,5.6,1.2,11,1.7,16.2.5,5.2.6,10.7.2,16.2,3.4-1.3,7-2.8,11-4.4,4-1.7,7.6-3.5,11-5.6,3.4-2.1,6.2-4.4,8.5-7,2.3-2.6,3.5-5.6,3.5-9h0Z"/>
      <path class="st6" d="M491.9,550.6c-12.8,0-23.9-2.4-33.3-7.3-9.4-4.8-17.2-11.4-23.4-19.6-6.2-8.2-10.8-17.7-13.8-28.5-3-10.8-4.5-22.2-4.5-34.1s1.6-22.5,4.9-33.9c3.2-11.5,8.2-21.8,14.9-31,6.7-9.2,15.2-16.8,25.4-22.7,10.2-5.9,22.5-8.8,36.7-8.8s25.4,2.8,34.7,8.5c9.3,5.6,16.8,13,22.3,22,5.5,9,9.5,19.1,11.9,30.2,2.4,11.1,3.6,22.3,3.6,33.4s-1.6,24.2-4.9,35.2c-3.2,11.1-8.2,20.8-14.8,29.2-6.6,8.4-14.9,15.1-24.8,20.1-10,4.9-21.6,7.4-35,7.4h0ZM495.7,417.4c-4,0-7.4,1.2-10.2,3.6-2.8,2.4-5.2,5.5-7.1,9.4s-3.2,8.3-4.1,13.1c-.8,4.9-1.3,9.8-1.3,14.7s.5,11.1,1.4,16.7,2.4,10.6,4.2,15c1.9,4.5,4.2,8,7.1,10.8,2.8,2.7,6.2,4.1,10.2,4.1s8.3-1.8,11-5.2,4.9-7.7,6.4-12.7c1.6-4.9,2.6-10,3.1-15.3.5-5.2.8-9.6.8-13.1s-.4-8.8-1.1-13.6c-.7-4.8-1.9-9.2-3.6-13.2-1.7-4.1-3.9-7.4-6.6-10.1-2.7-2.7-6.2-4.1-10.4-4.1h0Z"/>
      <path class="st2" d="M758.3,417.1c0,11-3.3,20.9-10,29.6-6.7,8.8-15.6,16.5-26.7,23.2,3.3,3.8,6.8,8.3,10.4,13.4,3.6,5.1,6.8,10.5,9.6,16.1s5.1,11.3,6.9,17c1.8,5.7,2.7,10.9,2.7,15.6s-1.6,9.7-4.9,13.7-8.7,6.1-16.5,6.1-12.1-2.4-16.8-7.2c-4.7-4.8-8.9-10.5-12.6-17.1-3.7-6.6-7-13.3-10-20.2-3-6.8-5.9-12.3-8.6-16.5-3.8,1-7.4,2-11,3.2s-7.2,2.4-11,3.5c-.2,3.5-.6,8.3-1.1,14.4-.5,6.1-1.7,12.2-3.5,18.3-1.8,6-4.5,11.3-8,15.8-3.6,4.5-8.5,6.7-14.8,6.7s-12.2-2.2-16-6.5c-3.8-4.3-6.4-9.4-8-15.3s-2.5-11.9-2.7-18c-.2-6.1-.3-10.9-.3-14.5,0-7.5.2-14.8.6-22.1.4-7.2.6-14.6.6-22.1s-.2-13.7-.5-20.5c-.3-6.8-.5-13.8-.5-20.8v-6.1c0-2.5.2-5,.5-7.6s.7-5.1,1.1-7.5c.4-2.4,1.2-4.3,2.2-5.7,2.1-3.3,6.8-6.5,14.3-9.5,7.4-3,15.6-5.7,24.5-8,8.9-2.3,17.6-4.1,26.1-5.5,8.5-1.4,14.8-2,19-2,10.7,0,20.1,1.5,28.3,4.5,8.2,3,15,7.1,20.4,12.3,5.4,5.2,9.5,11.1,12.2,17.9,2.7,6.8,4.1,13.9,4.1,21.4h0ZM700.2,420.5c0-4.1-1.3-7.3-3.8-9.4s-6.6-3.2-12.2-3.2-8.4.6-12.7,1.7c-4.3,1.1-8.2,2.4-11.8,3.8.8,12.6,1.2,25.1.9,37.5,4.4-1.1,8.9-2.5,13.5-4.3,4.6-1.8,8.8-3.9,12.7-6.5,3.9-2.5,7.1-5.4,9.6-8.6,2.5-3.2,3.8-6.8,3.8-11h0Z"/>
      <path class="st1" d="M921.3,379.6c0,4-2,7.6-6.1,10.9-4.1,3.3-9,6.1-14.8,8.6s-11.7,4.5-17.7,6.1-11.1,2.7-15.1,3.3c-1.7,12.3-3,24.5-3.9,36.7s-1.4,24.4-1.4,36.7.2,13,.6,19.3c.4,6.4.6,12.7.6,19.1s-.4,6-1.1,9.4c-.7,3.4-2,6.7-3.8,9.7-1.8,3-4.2,5.6-7.4,7.6s-7,3.1-11.6,3.1-9.8-1.2-13-3.5c-3.2-2.3-5.8-5.1-7.5-8.5-1.8-3.3-3-6.9-3.6-10.6-.6-3.7-.9-7.1-.9-10.2-.4-9.5-.7-19.1-.9-28.8-.2-9.6-.3-19.3-.3-29s0-16.1.2-23.9c0-7.8.2-15.8.2-23.9-2.9.3-5.9.6-9,.7-3,.2-6.1.2-9.3.2s-5.8-.2-9.9-.6-8-1.1-11.8-2.1c-3.8-1-7-2.5-9.7-4.3s-4.1-4.2-4.1-7c0-4.8,2.5-9,7.4-12.5,4.9-3.6,11.2-6.7,18.8-9.3,7.6-2.6,16.1-4.9,25.4-6.7,9.3-1.8,18.5-3.3,27.6-4.3,9.1-1,17.5-1.8,25.1-2.3,7.6-.5,13.5-.7,17.7-.7s8.2.1,12.7.4c4.5.2,8.7.9,12.7,2,4,1.1,7.3,2.8,9.9,5,2.6,2.2,3.9,5.3,3.9,9.3h0Z"/>
      <path class="st6" d="M1049.2,370.3c0,6-2.7,11.5-8.2,16.5-5.4,4.9-12.1,9.4-19.9,13.2-7.8,3.9-16.1,7.3-24.7,10.1-8.6,2.9-16,5.2-22.3,7.2,0,3.3-.1,6.8-.3,10.3-.2,3.5-.5,7-.9,10.5,6.7-2.5,14.2-4.9,22.6-7.2,8.4-2.2,16.3-3.3,23.9-3.3s11,1,14.9,2.9c3.9,1.9,5.8,5.2,5.8,10s-2.5,10-7.4,14.1c-4.9,4.1-10.8,7.8-17.7,11-6.9,3.2-14.1,5.9-21.7,8.1-7.5,2.2-13.9,4-19.2,5.2,0,5.2-.1,10.5-.3,15.6-.2,5.2-.5,10.3-.9,15.4-.2,2.5-.6,5.7-1.1,9.5-.5,3.8-1.6,7.5-3.1,11.1-1.6,3.6-3.8,6.7-6.8,9.3-2.9,2.6-6.7,3.9-11.3,3.9s-8.2-1.6-11.3-4.9c-3.1-3.3-5.8-7.4-8-12.5-2.2-5.1-4-10.8-5.3-17.1-1.4-6.3-2.4-12.5-3.1-18.5-.7-6-1.2-11.6-1.3-16.7-.1-5.1-.2-9-.2-11.7s0-5.1.2-9.2c0-4.1.2-8.6.3-13.5s.3-10.1.6-15.5c.3-5.4.7-10.5,1.1-15.4s1-9.1,1.7-12.9c.7-3.7,1.6-6.5,2.7-8.2,2.3-3.5,7.8-7,16.5-10.4,8.7-3.4,18.4-6.5,29-9.1,10.7-2.6,21.1-4.8,31.2-6.5,10.2-1.7,18-2.5,23.4-2.5s5,.1,7.4.4c2.4.2,4.7.8,6.8,1.5,2.1.8,3.8,1.9,5,3.3,1.3,1.4,1.9,3.3,1.9,5.7h0Z"/>
      <path class="st3" d="M1138.8,550.6c-12.8,0-23.9-2.4-33.3-7.3-9.4-4.8-17.2-11.4-23.4-19.6-6.2-8.2-10.8-17.7-13.8-28.5-3-10.8-4.6-22.2-4.6-34.1s1.6-22.5,4.9-33.9c3.2-11.5,8.2-21.8,14.9-31,6.7-9.2,15.2-16.8,25.4-22.7,10.2-5.9,22.5-8.8,36.7-8.8s25.4,2.8,34.7,8.5c9.3,5.6,16.8,13,22.3,22,5.5,9,9.5,19.1,11.9,30.2,2.4,11.1,3.6,22.3,3.6,33.4s-1.6,24.2-4.9,35.2c-3.2,11.1-8.2,20.8-14.8,29.2-6.6,8.4-14.9,15.1-24.8,20.1-9.9,4.9-21.6,7.4-35,7.4h0ZM1142.5,417.4c-4,0-7.4,1.2-10.2,3.6-2.8,2.4-5.2,5.5-7.1,9.4s-3.2,8.3-4.1,13.1c-.8,4.9-1.3,9.8-1.3,14.7s.5,11.1,1.4,16.7c.9,5.6,2.3,10.6,4.2,15,1.9,4.5,4.2,8,7.1,10.8s6.2,4.1,10.2,4.1,8.3-1.8,11-5.2,4.9-7.7,6.4-12.7c1.6-4.9,2.6-10,3.1-15.3.5-5.2.8-9.6.8-13.1s-.4-8.8-1.1-13.6c-.7-4.8-1.9-9.2-3.6-13.2-1.7-4.1-3.9-7.4-6.6-10.1-2.7-2.7-6.2-4.1-10.4-4.1h0Z"/>
      <path class="st1" d="M1401.6,509.8c0,4-2.2,7.7-6.4,11.2-4.3,3.5-9.8,6.7-16.6,9.5-6.8,2.9-14.4,5.4-22.8,7.5-8.4,2.2-16.6,4-24.8,5.5-8.2,1.5-15.9,2.7-23.1,3.5-7.2.8-12.9,1.2-17.1,1.2s-8.2-.3-12.7-.8-8.2-1.8-11.2-3.7c-1.7-1-3.1-3.1-4.4-6.5-1.3-3.3-2.5-7.3-3.6-11.9s-2.2-9.6-3-14.9c-.8-5.3-1.5-10.5-2-15.6-.5-5.1-.9-9.8-1.3-14.1-.3-4.3-.5-7.6-.5-10,0-4,.2-8.8.5-14.5.3-5.6.8-11.7,1.4-18.1.6-6.5,1.5-13,2.5-19.7s2.2-13,3.6-19,3-11.3,5-16.1,4.1-8.5,6.4-11.2c4-4.3,9-6.5,15.1-6.5s7.7,1.1,10.7,3.2c2.9,2.1,5.3,4.9,7.1,8.4,1.8,3.4,3.1,7.2,4.1,11.5.9,4.2,1.6,8.4,2,12.5s.6,8,.6,11.5v8.4c0,12.4-.4,24.7-1.1,36.9-.7,12.2-1.1,24.5-1.1,36.9v9.3c9.4-2.2,19.7-4.3,30.8-6.3s21.7-3,31.7-3,7.2.2,10.8.5c3.7.3,6.9,1,9.7,2,2.8,1,5.1,2.5,6.9,4.5,1.8,2,2.7,4.7,2.7,8h0Z"/>
      <path class="st6" d="M1534.2,380.6c0,3-.9,5.7-2.7,8.1-1.8,2.4-4.1,4.4-7.1,6.1-2.9,1.7-6.2,3.1-9.7,4.2-3.6,1.1-7,1.9-10.4,2.4-.4,18-1.3,35.3-2.7,52.1s-3.5,34-6.4,51.8h1.9c3.3,0,6.6.3,9.9.8,3.2.6,6.2,1.5,8.8,2.9s4.7,3,6.3,5c1.6,2,2.4,4.4,2.4,7.3s-1.5,6.8-4.6,9.5c-3,2.7-7,5-11.9,6.9-4.9,1.9-10.4,3.5-16.5,4.8-6.1,1.3-12.1,2.3-18.2,3s-11.8,1.2-17.3,1.5c-5.4.3-9.8.5-13.2.5s-5.6,0-9.3-.2c-3.7-.2-7.1-.6-10.4-1.4-3.2-.8-6-2-8.3-3.6-2.3-1.6-3.4-3.7-3.4-6.5s.9-6.3,2.7-9,4.1-5,7.1-7,6.2-3.7,9.9-5,7.4-2.2,11.2-2.9c1.5-8.8,2.8-17.5,4.1-26.1,1.3-8.7,2.1-17.5,2.5-26.4.4-9.1.8-18,1.3-26.9.4-8.8.8-17.7,1.3-26.6-1.5.2-2.8.3-4.1.4-1.3,0-2.4.1-3.4.1-2.9,0-6.1-.2-9.4-.7-3.3-.5-6.5-1.3-9.4-2.5-2.9-1.2-5.4-2.7-7.4-4.4-2-1.8-3-4-3-6.7,0-5.4,3-9.9,8.9-13.4s13.1-6.2,21.3-8.1,16.7-3.2,25.3-3.9c8.6-.7,15.5-1.1,20.7-1.1s6.8.2,11.6.5c4.8.3,9.6,1,14.3,2.1,4.7,1.1,8.8,2.6,12.2,4.5,3.4,1.9,5.2,4.5,5.2,7.9h0Z"/>
      <path class="st2" d="M1626.6,550.6c-12.8,0-23.9-2.4-33.3-7.3-9.4-4.8-17.2-11.4-23.4-19.6-6.2-8.2-10.8-17.7-13.8-28.5-3-10.8-4.6-22.2-4.6-34.1s1.6-22.5,4.9-33.9c3.2-11.5,8.2-21.8,14.9-31,6.7-9.2,15.2-16.8,25.4-22.7,10.2-5.9,22.5-8.8,36.7-8.8s25.4,2.8,34.7,8.5c9.3,5.6,16.8,13,22.3,22,5.5,9,9.5,19.1,11.9,30.2,2.4,11.1,3.6,22.3,3.6,33.4s-1.6,24.2-4.9,35.2c-3.2,11.1-8.2,20.8-14.8,29.2-6.6,8.4-14.9,15.1-24.8,20.1-9.9,4.9-21.6,7.4-35,7.4h0ZM1630.4,417.4c-4,0-7.4,1.2-10.2,3.6-2.8,2.4-5.2,5.5-7.1,9.4s-3.2,8.3-4.1,13.1c-.8,4.9-1.3,9.8-1.3,14.7s.5,11.1,1.4,16.7c.9,5.6,2.3,10.6,4.2,15,1.9,4.5,4.2,8,7.1,10.8s6.2,4.1,10.2,4.1,8.3-1.8,11-5.2,4.9-7.7,6.4-12.7c1.6-4.9,2.6-10,3.1-15.3.5-5.2.8-9.6.8-13.1s-.4-8.8-1.1-13.6c-.7-4.8-1.9-9.2-3.6-13.2-1.7-4.1-3.9-7.4-6.6-10.1-2.7-2.7-6.2-4.1-10.4-4.1h0Z"/>
    </g>
    <g>
      <path class="st0" d="M251.6,385.8c9.9,5.5,28.6,18,13,24.9-15.8,7-18.1-13.2-18.4-22.9-2.8,10.1-10.2,30-22.3,18.8-12.3-11.3,8.4-19.6,18.5-22.8-11.6.7-34.9.6-26.8-13.3,8.2-14,23.3,1.1,29.8,8.8-4.3-9.7-11.4-29.7,5.8-27,17.3,2.7,6,20.3-.1,28.2,8.9-6.7,27.9-18.9,30.4-3.4,2.6,15.7-19.5,11.4-29.9,8.6h0Z"/>
      <path class="st5" d="M256,382.3c0,3.8-3.5,7-7.7,7s-7.7-3.1-7.7-7,3.5-7,7.7-7,7.7,3.1,7.7,7Z"/>
    </g>
  </g>
  <polygon class="st7" points="504.9 147.1 485.7 123.1 452.8 123.6 479.5 106.3 478.9 76.8 498.1 100.7 531 100.2 504.4 117.5 504.9 147.1"/>
  <polygon class="st7" points="107.5 499.6 88.2 475.6 55.4 476.2 82 458.9 81.4 429.3 100.7 453.3 133.5 452.7 106.9 470 107.5 499.6"/>
  <polygon class="st7" points="1832.4 486.8 1813.2 462.8 1780.3 463.4 1806.9 446 1806.3 416.5 1825.6 440.5 1858.4 439.9 1831.8 457.2 1832.4 486.8"/>
  <polygon class="st7" points="1832.4 117.5 1813.2 93.6 1780.3 94.1 1806.9 76.8 1806.3 47.2 1825.6 71.2 1858.4 70.7 1831.8 88 1832.4 117.5"/>
  <polygon class="st7" points="107.5 132.1 88.2 108.1 55.4 108.7 82 91.3 81.4 61.8 100.7 85.8 133.5 85.2 106.9 102.5 107.5 132.1"/>
  <polygon class="st7" points="1002.4 222.9 983.1 199 950.3 199.5 976.9 182.2 976.3 152.6 995.5 176.6 1028.4 176.1 1001.8 193.4 1002.4 222.9"/>
  <polygon class="st7" points="1524.9 187.8 1505.7 163.8 1472.8 164.4 1499.5 147.1 1498.9 117.5 1518.1 141.5 1551 140.9 1524.3 158.2 1524.9 187.8"/>
</svg>