<?xml version="1.0" encoding="UTF-8"?><svg xmlns="http://www.w3.org/2000/svg" viewBox="0 0 1923.32 598.57"><defs><style>.cls-1{fill:#f7b1ed;}.cls-1,.cls-2,.cls-3,.cls-4{stroke:#000;stroke-miterlimit:10;stroke-width:1.36px;}.cls-5{fill:#fff;}.cls-2{fill:#f7d381;}.cls-6{fill:#f5f6f5;}.cls-3{fill:#bcbcf4;}.cls-4{fill:#9cd9c0;}.cls-7{fill:#272324;}</style></defs><g id="fondo"><rect class="cls-5" width="1923.32" height="598.57"/></g><g id="letra"><path class="cls-1" d="M603.8,117.27c0,8.21-1.68,16.11-5.04,23.71-3.36,7.6-7.86,14.33-13.5,20.21-5.64,5.87-12.21,10.56-19.71,14.05-7.51,3.5-15.41,5.25-23.71,5.25h-.28c-1.67,0-3.05-.78-4.12-2.31s-1.97-3.47-2.73-5.8c-.75-2.33-1.3-4.93-1.68-7.82-.38-2.89-.65-5.71-.83-8.46s-.28-5.23-.28-7.41v-4.97c0-3.17.05-6.31.14-9.43s.23-6.27.42-9.45c0-1.02.07-2.54.2-4.55.14-2,.31-4.26.49-6.78s.42-5.16.7-7.91c.27-2.75.58-5.31.9-7.7.33-2.37.65-4.46.98-6.29s.73-3.05,1.2-3.71c1.21-2.04,3.07-3.87,5.59-5.45,2.51-1.59,5.24-2.89,8.18-3.91,2.94-1.02,5.92-1.8,8.95-2.31,3.03-.51,5.66-.76,7.91-.76,6.14,0,11.49,1.14,16.01,3.43,4.51,2.28,8.29,5.36,11.33,9.22,3.03,3.88,5.26,8.32,6.71,13.36,1.45,5.04,2.17,10.3,2.17,15.8ZM580.3,121.33c0-2.04-.38-4.15-1.12-6.29-.75-2.15-1.8-4.1-3.15-5.87s-2.98-3.2-4.9-4.26c-1.92-1.07-4.03-1.61-6.37-1.61-1.95,0-3.96.47-6,1.4-.47.28-.89,1.14-1.27,2.58-.36,1.45-.67,3.2-.9,5.24-.23,2.06-.45,4.3-.62,6.72-.19,2.42-.31,4.73-.35,6.92-.05,2.2-.09,4.12-.14,5.8s-.07,2.8-.07,3.36v4.12c0,1.82.07,3.62.21,5.38.14,1.77.29,3.31.48,4.62s.52,1.96.99,1.96c2.8,0,5.57-1.09,8.32-3.29,2.75-2.19,5.24-4.88,7.48-8.04,2.23-3.17,4.03-6.49,5.38-9.94,1.35-3.44,2.03-6.38,2.03-8.81Z"/><path class="cls-4" d="M636.66,184.27c-4.76,0-8.91-1.26-12.45-3.77-3.54-2.51-6.52-5.73-8.94-9.66-2.43-3.91-4.25-8.27-5.46-13.08-1.21-4.79-1.81-9.53-1.81-14.19,0-4.93.6-10.05,1.81-15.31,1.21-5.28,3.08-10.07,5.59-14.4,2.53-4.34,5.75-7.88,9.66-10.63,3.91-2.75,8.58-4.12,13.98-4.12s9.67,1.42,13.36,4.26c3.69,2.84,6.65,6.38,8.88,10.62,2.23,4.25,3.82,8.88,4.76,13.92.93,5.03,1.26,9.79.98,14.26-.28,4.95-1.05,9.93-2.3,14.97-1.26,5.03-3.1,9.55-5.53,13.57-2.42,4.01-5.5,7.27-9.22,9.79-3.74,2.51-8.17,3.77-13.29,3.77ZM638.06,121.06c-1.4,0-2.63.74-3.71,2.23-1.07,1.49-1.95,3.31-2.66,5.45-.69,2.15-1.23,4.41-1.61,6.79-.36,2.37-.55,4.45-.55,6.22,0,2.24.21,4.66.62,7.27.42,2.62,1.01,5.02,1.75,7.2.75,2.2,1.66,4.02,2.73,5.46s2.31,2.16,3.71,2.16c1.49,0,2.77-.69,3.84-2.09s1.94-3.17,2.58-5.32c.66-2.14,1.13-4.49,1.4-7.06.28-2.56.42-4.96.42-7.2,0-2.04-.19-4.31-.56-6.78-.36-2.47-.9-4.78-1.6-6.92-.7-2.15-1.59-3.92-2.67-5.32-1.07-1.4-2.3-2.09-3.7-2.09Z"/><path class="cls-2" d="M713.86,184.12c-1.59,0-2.84-.72-3.78-2.16-.93-1.45-1.62-3.1-2.09-4.97-.47-1.86-.78-3.75-.9-5.66-.14-1.9-.21-3.37-.21-4.41,0-2.8.15-5.59.48-8.39.33-2.8.7-5.59,1.13-8.39.41-2.8.79-5.6,1.12-8.4.33-2.8.48-5.59.48-8.39,0-1.12-.05-2.33-.13-3.63-.09-1.3-.31-2.54-.63-3.71-.33-1.16-.86-2.11-1.61-2.87-.75-.74-1.73-1.12-2.94-1.12-.83,0-1.77.68-2.8,2.03s-1.99,2.89-2.87,4.61c-.89,1.73-1.63,3.45-2.23,5.18-.61,1.73-.92,3.01-.92,3.84,0,2.06.02,4.12.07,6.23.05,2.09.07,4.22.07,6.37v8.11c-.09,1.68-.23,3.41-.42,5.17-.19,1.77-.46,3.5-.83,5.18-.28,1.68-.7,3.29-1.26,4.83-.56,1.54-1.28,2.89-2.17,4.05-.88,1.16-1.94,2.11-3.15,2.87-1.21.74-2.66,1.12-4.34,1.12-1.86,0-3.4-.61-4.61-1.82-1.22-1.21-2.2-2.77-2.94-4.68-.75-1.92-1.29-4.07-1.61-6.44-.33-2.37-.56-4.71-.7-6.99-.14-2.29-.19-4.38-.14-6.3s.07-3.43.07-4.55v-6.57c0-3.55-.07-7.04-.21-10.49-.14-3.45-.2-6.9-.2-10.35,0-1.87.01-4.24.06-7.13.05-2.89.4-5.71,1.06-8.46.65-2.75,1.72-5.11,3.22-7.06,1.48-1.96,3.68-2.94,6.57-2.94,1.3,0,2.47.41,3.5,1.26,1.02.83,1.93,1.87,2.73,3.08.79,1.21,1.45,2.51,1.95,3.91.52,1.4.92,2.61,1.2,3.63.93-1.3,2.02-2.56,3.28-3.77s2.68-2.28,4.26-3.22c1.59-.93,3.36-1.68,5.32-2.23,1.95-.56,4.19-.85,6.71-.85,4.76,0,8.46,1.15,11.13,3.43,2.66,2.28,4.61,5.12,5.86,8.53,1.27,3.41,2.03,7.06,2.31,10.99.28,3.91.42,7.46.42,10.62,0,1.59-.14,3.95-.42,7.06-.28,3.13-.73,6.58-1.33,10.35-.61,3.78-1.42,7.65-2.44,11.61-1.03,3.97-2.24,7.58-3.64,10.84-1.4,3.27-3.05,5.92-4.97,7.97-1.9,2.06-4.08,3.08-6.5,3.08Z"/><path class="cls-3" d="M801.27,88.18c0,6.81-.26,13.57-.78,20.28-.51,6.72-.76,13.48-.76,20.28,0,5.51.16,10.96.48,16.37.33,5.4.49,10.87.49,16.37,0,1.49-.05,3.29-.14,5.38-.09,2.1-.4,4.12-.9,6.09-.52,1.96-1.35,3.63-2.51,5.04-1.17,1.4-2.83,2.09-4.97,2.09-2.8,0-5.1-1.05-6.92-3.15-1.82-2.09-2.96-4.45-3.43-7.06-1.77,3.36-4.34,6.2-7.7,8.53-3.35,2.34-6.99,3.5-10.9,3.5-4.19,0-7.81-1.45-10.84-4.34s-5.55-6.39-7.55-10.49c-2-4.1-3.49-8.39-4.46-12.86-.99-4.48-1.47-8.34-1.47-11.61,0-2.33.13-4.99.41-7.98s.78-6.02,1.47-9.08c.7-3.08,1.61-6.09,2.73-9.02,1.13-2.94,2.55-5.57,4.26-7.91,1.73-2.33,3.78-4.19,6.16-5.59,2.38-1.4,5.11-2.1,8.19-2.1,3.35,0,6.57.99,9.65,2.94,3.08,1.96,5.4,4.39,6.99,7.27l1.26-22.23c.09-1.77.23-3.85.42-6.23s.59-4.64,1.19-6.78c.61-2.15,1.56-3.97,2.87-5.46s3.22-2.23,5.73-2.23c2.7,0,4.81.65,6.3,1.96,1.49,1.3,2.58,2.96,3.29,4.96.69,2.01,1.12,4.17,1.26,6.51.14,2.33.21,4.52.21,6.57ZM778.47,150.29c0-2.15-.05-4.24-.14-6.3s-.09-4.15,0-6.3c-.55-1.21-1.21-2.54-1.95-3.98-.75-1.45-1.66-2.8-2.73-4.05-1.08-1.26-2.27-2.31-3.57-3.15-1.3-.85-2.7-1.26-4.19-1.26-1.68,0-3.03.51-4.05,1.54-1.03,1.02-1.77,2.26-2.24,3.7-.46,1.45-.76,3.01-.9,4.69s-.21,3.13-.21,4.34c0,1.12.09,2.77.28,4.97.19,2.19.54,4.39,1.05,6.64.52,2.23,1.23,4.19,2.17,5.87.93,1.68,2.19,2.51,3.77,2.51,1.21,0,2.42-.26,3.64-.76,1.21-.52,2.35-1.16,3.42-1.96,1.07-.79,2.1-1.68,3.08-2.66.99-.98,1.84-1.89,2.58-2.73v-1.12Z"/><path class="cls-4" d="M869.11,155.32c0,3.17-1,6.27-3.01,9.3-2.01,3.03-4.52,5.73-7.55,8.11-3.03,2.38-6.27,4.29-9.72,5.73-3.45,1.45-6.63,2.17-9.52,2.17-4.93,0-9.34-1.23-13.22-3.71-3.87-2.47-7.11-5.62-9.72-9.43-2.61-3.83-4.59-8.05-5.94-12.67-1.35-4.61-2.02-9.11-2.02-13.49,0-4.66.65-9.66,1.95-14.97s3.29-10.21,5.94-14.69,6.02-8.2,10.07-11.18c4.05-2.98,8.88-4.48,14.47-4.48,3.17,0,6.2.54,9.09,1.61s5.4,2.58,7.55,4.55c2.14,1.95,3.87,4.29,5.17,6.99,1.3,2.7,1.96,5.73,1.96,9.09,0,4.38-.93,8.48-2.8,12.3-1.87,3.83-4.34,7.13-7.41,9.93-3.08,2.8-6.63,5.06-10.63,6.79-4.01,1.73-8.11,2.68-12.3,2.87.36,2.7,1.47,4.66,3.28,5.87,1.82,1.21,3.99,1.81,6.51,1.81,1.87,0,3.68-.46,5.45-1.4,1.77-.93,3.5-1.97,5.18-3.15,1.68-1.16,3.32-2.21,4.96-3.14,1.63-.94,3.29-1.4,4.97-1.4,1.87,0,3.54.6,5.03,1.81,1.49,1.22,2.24,2.8,2.24,4.76ZM846.45,121.06c0-1.21-.32-2.48-.98-3.78-.65-1.3-1.68-1.95-3.08-1.95-2.04,0-3.77.53-5.17,1.6-1.4,1.08-2.57,2.43-3.5,4.07-.93,1.63-1.66,3.37-2.16,5.24-.52,1.87-.82,3.6-.92,5.17,1.3-.27,2.87-.65,4.69-1.12,1.82-.46,3.55-1.09,5.18-1.88,1.62-.8,3.02-1.8,4.19-3.01,1.16-1.21,1.74-2.67,1.74-4.34Z"/><path class="cls-1" d="M941,185.25c-6.63,0-11.77-.87-15.46-2.6-3.68-1.73-6.43-4.17-8.25-7.34-1.82-3.16-2.91-6.99-3.29-11.47s-.55-9.46-.55-14.97c0-4.37.14-8.78.41-13.21.28-4.43.7-9.16,1.27-14.2-1.32,0-2.34.02-3.08.07-.75.05-1.36.07-1.82.07-2.98,0-5.57-.65-7.77-1.95-2.19-1.3-3.29-3.31-3.29-6.02,0-1.68.63-3.17,1.89-4.48s2.87-2.43,4.83-3.36,4.08-1.68,6.36-2.23c2.29-.56,4.45-.94,6.51-1.13,0-2.61.19-5.5.56-8.67.36-3.16,1.05-6.12,2.02-8.88.99-2.75,2.31-5.05,3.99-6.92,1.67-1.87,3.82-2.8,6.43-2.8,1.49,0,2.82.45,3.98,1.33,1.16.89,2.13,2.01,2.87,3.36.75,1.35,1.3,2.87,1.68,4.55s.56,3.31.56,4.89c0,1.87-.14,3.78-.42,5.73-.28,1.96-.79,4.39-1.54,7.27,1.59-.18,2.66-.29,3.22-.34s1.07-.07,1.54-.07c1.59,0,3.24.14,4.97.41,1.72.28,3.3.75,4.75,1.4,1.44.66,2.63,1.53,3.57,2.6.93,1.07,1.4,2.35,1.4,3.84,0,1.68-.68,3.17-2.03,4.48s-3.05,2.42-5.1,3.36c-2.06.93-4.24,1.66-6.58,2.16-2.33.52-4.52.87-6.57,1.05-.56,3.83-.96,7.34-1.19,10.56-.23,3.22-.49,6.46-.78,9.73-.19,1.59-.35,3.2-.49,4.82-.13,1.63-.2,3.29-.2,4.97,0,1.21.05,2.63.14,4.26.08,1.63.41,3.2.98,4.69.55,1.49,1.45,2.77,2.66,3.84s2.89,1.61,5.04,1.61c1.3,0,2.66-.12,4.05-.35,1.4-.22,2.8-.35,4.19-.35,2.42,0,4.17.85,5.24,2.53s1.61,3.82,1.61,6.43c0,1.96-.58,3.67-1.75,5.11-1.16,1.45-2.63,2.61-4.41,3.49-1.76.89-3.75,1.56-5.94,2.03-2.19.47-4.26.7-6.22.7Z"/><path class="cls-4" d="M1023.37,140.21c0,5.13-.52,10.21-1.54,15.25-1.02,5.04-2.75,9.54-5.17,13.5-2.43,3.96-5.66,7.15-9.73,9.58-4.05,2.42-9.11,3.64-15.17,3.64s-10.96-1.2-14.97-3.57-7.2-5.52-9.58-9.43c-2.38-3.92-4.07-8.35-5.04-13.29-.98-4.95-1.47-9.97-1.47-15.11,0-5.59.66-11.14,1.96-16.65.28-1.48.81-3.56,1.61-6.22.79-2.66,1.81-5.28,3.08-7.84,1.26-2.56,2.7-4.77,4.34-6.64,1.62-1.87,3.42-2.8,5.38-2.8s3.36.51,4.48,1.54c1.12,1.02,2,2.3,2.66,3.84.65,1.54,1.07,3.17,1.26,4.9.19,1.72.28,3.28.28,4.68,0,2.15-.16,4.25-.49,6.3-.33,2.06-.67,4.1-1.05,6.16-.38,2.8-.73,5.59-1.05,8.39-.33,2.8-.49,5.59-.49,8.39,0,1.4.07,2.96.21,4.69s.49,3.38,1.05,4.97c.56,1.59,1.35,2.91,2.38,3.98,1.02,1.07,2.47,1.61,4.34,1.61,2.42,0,4.35-.66,5.8-1.96,1.45-1.3,2.51-2.94,3.21-4.89.7-1.96,1.14-4.07,1.33-6.3.19-2.24.28-4.29.28-6.16,0-4.1-.28-8.13-.83-12.1-.56-3.96-1.08-7.99-1.54-12.09-.09-.47-.14-1.13-.14-1.96,0-1.4.23-2.8.69-4.19.47-1.4,1.13-2.66,1.96-3.78.85-1.12,1.87-2.02,3.08-2.73,1.21-.69,2.56-1.05,4.05-1.05,2.06,0,3.87.73,5.46,2.17,1.57,1.45,2.9,3.3,3.98,5.59,1.07,2.28,1.95,4.84,2.66,7.68.69,2.85,1.26,5.65,1.68,8.4s.69,5.33.83,7.75c.14,2.43.21,4.34.21,5.73Z"/><path class="cls-2" d="M1072.88,103.29c0,2.7-.9,4.71-2.73,6.02s-3.84,2.54-6.09,3.7c-2.23,1.16-4.26,2.54-6.09,4.12s-2.73,3.97-2.73,7.13c0,1.68.4,3.13,1.19,4.34.8,1.22,1.77,2.31,2.94,3.29s2.46,1.99,3.85,3.01c1.4,1.03,2.68,2.2,3.84,3.5s2.14,2.89,2.94,4.75c.79,1.87,1.19,4.16,1.19,6.86,0,3.91-1,7.75-3.01,11.54-2.01,3.77-4.57,7.13-7.7,10.07-3.11,2.94-6.64,5.29-10.55,7.06-3.92,1.77-7.79,2.66-11.61,2.66-1.59,0-3.17-.12-4.76-.35-1.59-.22-3.01-.67-4.26-1.33-1.26-.65-2.31-1.55-3.15-2.73-.83-1.16-1.26-2.68-1.26-4.55,0-2.61.52-4.63,1.54-6.07s2.33-2.6,3.91-3.43c1.59-.85,3.29-1.49,5.11-1.96,1.81-.46,3.51-1.05,5.1-1.75,1.59-.69,2.89-1.6,3.91-2.73,1.03-1.12,1.54-2.7,1.54-4.75s-.76-3.99-2.3-6.09c-1.54-2.1-3.24-4.34-5.1-6.72-1.87-2.37-3.57-4.91-5.11-7.61-1.54-2.7-2.3-5.69-2.3-8.95,0-4.01.81-7.72,2.44-11.13,1.63-3.4,3.82-6.36,6.57-8.88,2.75-2.51,5.9-4.49,9.45-5.93,3.54-1.45,7.27-2.17,11.18-2.17,1.49,0,2.96.14,4.41.42,1.45.28,2.73.76,3.85,1.47,1.12.69,2.02,1.63,2.73,2.8.69,1.16,1.05,2.63,1.05,4.41Z"/><path class="cls-3" d="M1136.38,130.14v4.14c0,1.45-.06,2.82-.14,4.12-.09,1.59-.14,3.7-.14,6.36s-.09,5.53-.28,8.6c-.19,3.08-.49,6.2-.9,9.38-.42,3.17-1.1,6.06-2.03,8.67-.94,2.61-2.17,4.73-3.71,6.37-1.53,1.63-3.47,2.49-5.8,2.58-1.76.09-3.25-.61-4.46-2.1-1.22-1.49-2.22-3.42-3.01-5.8-.8-2.37-1.39-5.03-1.75-7.97-.38-2.94-.66-5.78-.85-8.53s-.27-5.3-.27-7.62v-11.54c0-2.75.08-5.71.27-8.88s.54-6.39,1.06-9.65c.51-3.27,1.26-6.25,2.23-8.95s2.26-4.9,3.84-6.58,3.6-2.51,6.02-2.51,4.43,1.26,5.73,3.77c1.3,2.53,2.29,5.46,2.94,8.81.66,3.36,1.03,6.7,1.13,10,.08,3.31.14,5.77.14,7.34ZM1135.25,82.59c0,1.3-.34,2.47-1.05,3.5-.7,1.02-1.61,1.93-2.73,2.73-1.12.79-2.34,1.4-3.64,1.81-1.3.42-2.51.63-3.63.63-1.87,0-3.5-.47-4.9-1.4-1.4-.93-2.09-2.37-2.09-4.34,0-1.4.34-2.63,1.05-3.7.69-1.08,1.56-1.96,2.58-2.67,1.02-.69,2.2-1.23,3.5-1.61,1.3-.36,2.56-.55,3.77-.55,1.77,0,3.41.42,4.9,1.26s2.23,2.29,2.23,4.34Z"/><path class="cls-4" d="M1206.58,88.18c0,6.81-.26,13.57-.78,20.28-.51,6.72-.76,13.48-.76,20.28,0,5.51.16,10.96.48,16.37.33,5.4.49,10.87.49,16.37,0,1.49-.05,3.29-.14,5.38-.09,2.1-.4,4.12-.9,6.09-.52,1.96-1.35,3.63-2.51,5.04-1.17,1.4-2.83,2.09-4.97,2.09-2.8,0-5.1-1.05-6.92-3.15-1.82-2.09-2.96-4.45-3.43-7.06-1.77,3.36-4.34,6.2-7.7,8.53-3.35,2.34-6.99,3.5-10.9,3.5-4.19,0-7.81-1.45-10.84-4.34s-5.55-6.39-7.55-10.49c-2-4.1-3.49-8.39-4.46-12.86-.99-4.48-1.47-8.34-1.47-11.61,0-2.33.13-4.99.41-7.98.28-2.98.78-6.02,1.47-9.08.7-3.08,1.61-6.09,2.73-9.02,1.13-2.94,2.55-5.57,4.26-7.91,1.73-2.33,3.78-4.19,6.16-5.59,2.38-1.4,5.11-2.1,8.19-2.1,3.35,0,6.57.99,9.65,2.94,3.08,1.96,5.4,4.39,6.99,7.27l1.26-22.23c.09-1.77.23-3.85.42-6.23s.59-4.64,1.19-6.78c.61-2.15,1.56-3.97,2.87-5.46,1.3-1.49,3.22-2.23,5.73-2.23,2.7,0,4.81.65,6.3,1.96,1.49,1.3,2.58,2.96,3.29,4.96.69,2.01,1.12,4.17,1.26,6.51.14,2.33.21,4.52.21,6.57ZM1183.78,150.29c0-2.15-.05-4.24-.14-6.3s-.09-4.15,0-6.3c-.55-1.21-1.21-2.54-1.95-3.98-.75-1.45-1.66-2.8-2.73-4.05-1.08-1.26-2.27-2.31-3.57-3.15-1.3-.85-2.7-1.26-4.19-1.26-1.68,0-3.03.51-4.05,1.54-1.03,1.02-1.77,2.26-2.24,3.7-.46,1.45-.76,3.01-.9,4.69-.14,1.68-.21,3.13-.21,4.34,0,1.12.09,2.77.28,4.97.19,2.19.54,4.39,1.05,6.64.52,2.23,1.23,4.19,2.17,5.87.93,1.68,2.19,2.51,3.77,2.51,1.21,0,2.42-.26,3.64-.76,1.21-.52,2.35-1.16,3.42-1.96,1.07-.79,2.1-1.68,3.08-2.66.99-.98,1.84-1.89,2.58-2.73v-1.12Z"/><path class="cls-1" d="M1274.42,155.32c0,3.17-1,6.27-3.01,9.3-2.01,3.03-4.52,5.73-7.55,8.11-3.03,2.38-6.27,4.29-9.72,5.73-3.45,1.45-6.63,2.17-9.52,2.17-4.93,0-9.34-1.23-13.22-3.71-3.87-2.47-7.11-5.62-9.72-9.43-2.61-3.83-4.59-8.05-5.94-12.67-1.35-4.61-2.02-9.11-2.02-13.49,0-4.66.65-9.66,1.95-14.97,1.3-5.31,3.29-10.21,5.94-14.69,2.66-4.48,6.02-8.2,10.07-11.18s8.88-4.48,14.47-4.48c3.17,0,6.2.54,9.09,1.61s5.4,2.58,7.55,4.55c2.14,1.95,3.87,4.29,5.17,6.99s1.96,5.73,1.96,9.09c0,4.38-.93,8.48-2.8,12.3-1.87,3.83-4.34,7.13-7.41,9.93-3.08,2.8-6.63,5.06-10.63,6.79-4.01,1.73-8.11,2.68-12.3,2.87.36,2.7,1.47,4.66,3.28,5.87,1.82,1.21,3.99,1.81,6.51,1.81,1.87,0,3.68-.46,5.45-1.4,1.77-.93,3.5-1.97,5.18-3.15,1.68-1.16,3.32-2.21,4.96-3.14,1.63-.94,3.29-1.4,4.97-1.4,1.87,0,3.54.6,5.03,1.81,1.49,1.22,2.24,2.8,2.24,4.76ZM1251.75,121.06c0-1.21-.32-2.48-.98-3.78-.65-1.3-1.68-1.95-3.08-1.95-2.04,0-3.77.53-5.17,1.6-1.4,1.08-2.57,2.43-3.5,4.07s-1.66,3.37-2.16,5.24c-.52,1.87-.82,3.6-.92,5.17,1.3-.27,2.87-.65,4.69-1.12,1.82-.46,3.55-1.09,5.18-1.88,1.62-.8,3.02-1.8,4.19-3.01,1.16-1.21,1.74-2.67,1.74-4.34Z"/><path class="cls-2" d="M1339.45,160.5c0,1.67-.07,3.87-.21,6.57-.13,2.7-.53,5.33-1.19,7.91-.65,2.56-1.68,4.77-3.08,6.64-1.4,1.87-3.35,2.8-5.87,2.8-3.44,0-6.1-1.12-7.97-3.36-1.87-2.23-2.75-5.03-2.66-8.39-2.98,2.61-6.37,4.66-10.14,6.16-3.78,1.49-7.62,2.23-11.54,2.23-2.71,0-5.28-.65-7.7-1.95-2.43-1.3-4.57-2.98-6.44-5.04-1.87-2.04-3.35-4.36-4.48-6.92-1.12-2.56-1.67-5.11-1.67-7.62,0-4.48,1.37-8.39,4.12-11.75,2.75-3.35,6.12-6.22,10.14-8.6,4.01-2.37,8.27-4.26,12.79-5.66s8.55-2.33,12.1-2.8c0-.47.02-.88.07-1.26s.07-.79.07-1.26c0-2.89-.8-5.23-2.38-7-1.59-1.76-3.82-2.66-6.71-2.66-2.34,0-4.34.4-6.02,1.2-1.68.79-3.27,1.67-4.76,2.66-1.49.98-2.98,1.87-4.48,2.66s-3.17,1.19-5.03,1.19c-2.06,0-3.81-.65-5.25-1.96-1.45-1.3-2.16-2.98-2.16-5.03,0-3.08.9-5.87,2.73-8.39,1.82-2.53,4.1-4.64,6.85-6.37,2.75-1.73,5.73-3.08,8.95-4.05,3.22-.99,6.18-1.47,8.88-1.47,2.51,0,5.04.31,7.55.9,2.51.61,4.89,1.54,7.13,2.8,2.23,1.26,4.26,2.8,6.09,4.62,1.81,1.82,3.28,3.94,4.41,6.37,1.68,3.44,3.03,7.11,4.05,10.97,1.02,3.88,1.82,7.84,2.37,11.89.56,4.05.94,8.11,1.13,12.17.18,4.05.27,7.99.27,11.82ZM1317.08,156.02l-.42-9.52c-.19,0-.38-.02-.56-.07s-.36-.07-.55-.07c-1.21,0-2.73.31-4.55.92-1.82.6-3.57,1.45-5.25,2.51-1.67,1.07-3.09,2.26-4.26,3.56-1.16,1.32-1.74,2.67-1.74,4.07,0,1.3.46,2.19,1.4,2.66.93.47,2,.69,3.21.69,2.06,0,4.24-.53,6.58-1.61,2.33-1.07,4.38-2.11,6.16-3.14Z"/><path class="cls-3" d="M1388.81,103.29c0,2.7-.9,4.71-2.73,6.02s-3.84,2.54-6.09,3.7c-2.23,1.16-4.26,2.54-6.09,4.12s-2.73,3.97-2.73,7.13c0,1.68.4,3.13,1.19,4.34.8,1.22,1.77,2.31,2.94,3.29s2.46,1.99,3.85,3.01c1.4,1.03,2.68,2.2,3.84,3.5s2.14,2.89,2.94,4.75c.79,1.87,1.19,4.16,1.19,6.86,0,3.91-1,7.75-3.01,11.54-2.01,3.77-4.57,7.13-7.7,10.07-3.11,2.94-6.64,5.29-10.55,7.06-3.92,1.77-7.79,2.66-11.61,2.66-1.59,0-3.17-.12-4.76-.35-1.59-.22-3.01-.67-4.26-1.33-1.26-.65-2.31-1.55-3.15-2.73-.83-1.16-1.26-2.68-1.26-4.55,0-2.61.52-4.63,1.54-6.07s2.33-2.6,3.91-3.43c1.59-.85,3.29-1.49,5.11-1.96,1.81-.46,3.51-1.05,5.1-1.75,1.59-.69,2.89-1.6,3.91-2.73,1.03-1.12,1.54-2.7,1.54-4.75s-.76-3.99-2.3-6.09c-1.54-2.1-3.24-4.34-5.1-6.72-1.87-2.37-3.57-4.91-5.11-7.61s-2.3-5.69-2.3-8.95c0-4.01.81-7.72,2.44-11.13,1.63-3.4,3.82-6.36,6.57-8.88,2.75-2.51,5.9-4.49,9.45-5.93,3.54-1.45,7.27-2.17,11.18-2.17,1.49,0,2.96.14,4.41.42,1.45.28,2.73.76,3.85,1.47,1.12.69,2.02,1.63,2.73,2.8.69,1.16,1.05,2.63,1.05,4.41Z"/><path class="cls-4" d="M629.94,275.15c0,2.7-.9,4.71-2.73,6.02-1.82,1.3-3.84,2.54-6.09,3.7-2.23,1.16-4.26,2.54-6.09,4.12-1.82,1.59-2.73,3.97-2.73,7.13,0,1.68.4,3.13,1.19,4.34.8,1.22,1.77,2.31,2.94,3.29s2.46,1.99,3.85,3.01c1.4,1.03,2.68,2.2,3.84,3.5s2.14,2.89,2.94,4.75c.79,1.87,1.19,4.16,1.19,6.86,0,3.91-1,7.75-3.01,11.54-2.01,3.77-4.57,7.13-7.7,10.07-3.11,2.94-6.64,5.29-10.55,7.06-3.92,1.77-7.79,2.66-11.61,2.66-1.59,0-3.17-.12-4.76-.35-1.59-.22-3.01-.67-4.26-1.33-1.26-.65-2.31-1.55-3.15-2.73-.83-1.16-1.26-2.68-1.26-4.55,0-2.61.52-4.63,1.54-6.07,1.02-1.45,2.33-2.6,3.91-3.43,1.59-.85,3.29-1.49,5.11-1.96,1.81-.46,3.51-1.05,5.1-1.75,1.59-.69,2.89-1.6,3.91-2.73,1.03-1.12,1.54-2.7,1.54-4.75s-.76-3.99-2.3-6.09c-1.54-2.1-3.24-4.34-5.1-6.72-1.87-2.37-3.57-4.91-5.11-7.61-1.54-2.7-2.3-5.69-2.3-8.95,0-4.01.81-7.72,2.44-11.13,1.63-3.4,3.82-6.36,6.57-8.88,2.75-2.51,5.9-4.49,9.45-5.93,3.54-1.45,7.27-2.17,11.18-2.17,1.49,0,2.96.14,4.41.42s2.73.76,3.85,1.47c1.12.69,2.02,1.63,2.73,2.8.69,1.16,1.05,2.63,1.05,4.41Z"/><path class="cls-1" d="M694.14,327.18c0,3.17-1,6.27-3.01,9.3s-4.52,5.73-7.55,8.11c-3.03,2.38-6.27,4.29-9.72,5.73-3.45,1.45-6.63,2.17-9.52,2.17-4.93,0-9.34-1.23-13.22-3.71-3.87-2.47-7.11-5.62-9.72-9.43-2.61-3.83-4.59-8.05-5.94-12.67-1.35-4.61-2.02-9.11-2.02-13.49,0-4.66.65-9.66,1.95-14.97s3.29-10.21,5.94-14.69,6.02-8.2,10.07-11.18,8.88-4.48,14.47-4.48c3.17,0,6.2.54,9.09,1.61s5.4,2.58,7.55,4.55c2.14,1.95,3.87,4.29,5.17,6.99,1.3,2.7,1.96,5.73,1.96,9.09,0,4.38-.93,8.48-2.8,12.3-1.87,3.83-4.34,7.13-7.41,9.93s-6.63,5.06-10.63,6.79-8.11,2.68-12.3,2.87c.36,2.7,1.47,4.66,3.28,5.87,1.82,1.21,3.99,1.81,6.51,1.81,1.87,0,3.68-.46,5.45-1.4,1.77-.93,3.5-1.97,5.18-3.15,1.68-1.16,3.32-2.21,4.96-3.14,1.63-.94,3.29-1.4,4.97-1.4,1.87,0,3.54.6,5.03,1.81,1.49,1.22,2.24,2.8,2.24,4.76ZM671.47,292.92c0-1.21-.32-2.48-.98-3.78-.65-1.3-1.68-1.95-3.08-1.95-2.04,0-3.77.53-5.17,1.6-1.4,1.08-2.57,2.43-3.5,4.07s-1.66,3.37-2.16,5.24c-.52,1.87-.82,3.6-.92,5.17,1.3-.27,2.87-.65,4.69-1.12,1.82-.46,3.55-1.09,5.18-1.88,1.62-.8,3.02-1.8,4.19-3.01,1.16-1.21,1.74-2.67,1.74-4.34Z"/><path class="cls-4" d="M785.33,298.37c0,.47-.06.95-.14,1.47-.09.52-.23,1-.42,1.47-.85,2.14-2.15,3.94-3.91,5.38-1.77,1.45-3.88,2.17-6.3,2.17-3.64,0-6.11-1.82-7.41-5.46-.19-.46-.28-1-.28-1.61s-.05-1.23-.14-1.88v-4.05c-.19-1.3-.51-2.34-.98-3.08-.47-.75-1.26-1.13-2.37-1.13-1.59,0-3.1,1.01-4.55,3.01-1.45,2.01-2.71,4.39-3.78,7.13-1.07,2.76-1.94,5.58-2.58,8.47-.66,2.89-.98,5.22-.98,6.99,0,1.4.09,3.1.28,5.1.18,2.01.55,3.95,1.12,5.8.55,1.87,1.33,3.48,2.3,4.83.99,1.35,2.27,2.03,3.85,2.03s3.04-.49,4.41-1.47c1.34-.99,2.68-2.13,3.98-3.43,1.21-1.12,2.54-2.28,3.98-3.5,1.44-1.21,3.1-1.81,4.97-1.81,2.33,0,4.17.83,5.52,2.51s2.02,3.6,2.02,5.73c0,3.17-.83,6.13-2.51,8.88-1.68,2.75-3.77,5.13-6.29,7.13-2.53,2.01-5.32,3.58-8.4,4.76-3.08,1.16-6.02,1.75-8.81,1.75-5.03,0-9.29-1.27-12.79-3.78-3.49-2.51-6.32-5.71-8.46-9.58-2.15-3.87-3.69-8.09-4.62-12.67-.93-4.56-1.4-8.89-1.4-13.01,0-4.75.65-9.9,1.96-15.45,1.3-5.55,3.3-10.7,6.02-15.45,2.7-4.76,6.17-8.72,10.41-11.89,4.24-3.17,9.3-4.76,15.18-4.76,3.64,0,6.78.8,9.45,2.37,2.66,1.59,4.84,3.67,6.57,6.23s3.03,5.44,3.91,8.6c.89,3.17,1.33,6.3,1.33,9.38v1.4c0,.47-.05.93-.13,1.4Z"/><path class="cls-2" d="M819.73,356.13c-4.76,0-8.91-1.26-12.45-3.77-3.54-2.51-6.52-5.73-8.94-9.66-2.43-3.91-4.25-8.27-5.46-13.08-1.21-4.79-1.81-9.53-1.81-14.19,0-4.93.6-10.05,1.81-15.31,1.21-5.28,3.08-10.07,5.59-14.4,2.53-4.34,5.75-7.88,9.66-10.63s8.58-4.12,13.98-4.12,9.67,1.42,13.36,4.26,6.65,6.38,8.88,10.62c2.23,4.25,3.82,8.88,4.76,13.92.93,5.03,1.26,9.79.98,14.26-.28,4.95-1.05,9.93-2.3,14.97-1.26,5.03-3.1,9.55-5.53,13.57-2.42,4.01-5.5,7.27-9.22,9.79-3.74,2.51-8.17,3.77-13.29,3.77ZM821.13,292.92c-1.4,0-2.63.74-3.71,2.23-1.07,1.49-1.95,3.31-2.66,5.45-.69,2.15-1.23,4.41-1.61,6.79-.36,2.37-.55,4.45-.55,6.22,0,2.24.21,4.66.62,7.27.42,2.62,1.01,5.02,1.75,7.2.75,2.2,1.66,4.02,2.73,5.46,1.07,1.45,2.31,2.16,3.71,2.16,1.49,0,2.77-.69,3.84-2.09s1.94-3.17,2.58-5.32c.66-2.14,1.13-4.49,1.4-7.06.28-2.56.42-4.96.42-7.2,0-2.04-.19-4.31-.56-6.78-.36-2.47-.9-4.78-1.6-6.92-.7-2.15-1.59-3.92-2.67-5.32-1.07-1.4-2.3-2.09-3.7-2.09Z"/><path class="cls-3" d="M896.93,355.98c-1.59,0-2.84-.72-3.78-2.16-.93-1.45-1.62-3.1-2.09-4.97-.47-1.86-.78-3.75-.9-5.66-.14-1.9-.21-3.37-.21-4.41,0-2.8.15-5.59.48-8.39.33-2.8.7-5.59,1.13-8.39.41-2.8.79-5.6,1.12-8.4.33-2.8.48-5.59.48-8.39,0-1.12-.05-2.33-.13-3.63-.09-1.3-.31-2.54-.63-3.71-.33-1.16-.86-2.11-1.61-2.87-.75-.74-1.73-1.12-2.94-1.12-.83,0-1.77.68-2.8,2.03s-1.99,2.89-2.87,4.61c-.89,1.73-1.63,3.45-2.23,5.18-.61,1.73-.92,3.01-.92,3.84,0,2.06.02,4.12.07,6.23.05,2.09.07,4.22.07,6.37v8.11c-.09,1.68-.23,3.41-.42,5.17-.19,1.77-.46,3.5-.83,5.18-.28,1.68-.7,3.29-1.26,4.83-.56,1.54-1.28,2.89-2.17,4.05-.88,1.16-1.94,2.11-3.15,2.87-1.21.74-2.66,1.12-4.34,1.12-1.86,0-3.4-.61-4.61-1.82-1.22-1.21-2.2-2.77-2.94-4.68-.75-1.92-1.29-4.07-1.61-6.44-.33-2.37-.56-4.71-.7-6.99-.14-2.29-.19-4.38-.14-6.3.05-1.92.07-3.43.07-4.55v-6.57c0-3.55-.07-7.04-.21-10.49-.14-3.45-.2-6.9-.2-10.35,0-1.87.01-4.24.06-7.13.05-2.89.4-5.71,1.06-8.46.65-2.75,1.72-5.11,3.22-7.06,1.48-1.96,3.68-2.94,6.57-2.94,1.3,0,2.47.41,3.5,1.26,1.02.83,1.93,1.87,2.73,3.08.79,1.21,1.45,2.51,1.95,3.91.52,1.4.92,2.61,1.2,3.63.93-1.3,2.02-2.56,3.28-3.77s2.68-2.28,4.26-3.22c1.59-.93,3.36-1.68,5.32-2.23,1.95-.56,4.19-.85,6.71-.85,4.76,0,8.46,1.15,11.13,3.43,2.66,2.28,4.61,5.12,5.86,8.53,1.27,3.41,2.03,7.06,2.31,10.99.28,3.91.42,7.46.42,10.62,0,1.59-.14,3.95-.42,7.06-.28,3.13-.73,6.58-1.33,10.35-.61,3.78-1.42,7.65-2.44,11.61-1.03,3.97-2.24,7.58-3.64,10.84-1.4,3.27-3.05,5.92-4.97,7.97-1.9,2.06-4.08,3.08-6.5,3.08Z"/><path class="cls-1" d="M984.34,302c-2.43,6.44-5.09,13.15-7.98,20.15-2.89,6.99-6.02,13.51-9.36,19.57-2.06,3.74-4.34,6.84-6.86,9.3-2.51,2.47-5.4,3.7-8.67,3.7-2.61,0-5.15-1.33-7.61-3.98-2.48-2.66-4.76-5.83-6.86-9.52-2.09-3.68-3.91-7.4-5.45-11.18-1.54-3.77-2.68-6.78-3.43-9.02-.74-2.51-1.59-5.22-2.51-8.11s-1.77-5.83-2.51-8.81c-.75-2.98-1.35-5.94-1.82-8.88-.47-2.94-.69-5.71-.69-8.32,0-3.64.65-6.63,1.95-8.95s3.87-3.5,7.7-3.5c1.49,0,2.84.45,4.05,1.33,1.21.89,2.33,2.13,3.36,3.71,1.02,1.59,2,3.42,2.94,5.52.93,2.1,1.82,4.41,2.66,6.92.83,2.43,1.63,4.95,2.37,7.55.75,2.61,1.49,5.13,2.24,7.55.74,2.42,1.52,4.78,2.3,7.06.8,2.29,1.84,4.55,3.15,6.78.65-1.67,1.4-3.58,2.24-5.73.83-2.14,1.74-4.43,2.73-6.85.98-2.42,2.02-4.91,3.14-7.48,1.13-2.56,2.34-5.05,3.64-7.48,2.51-5.03,5.19-9.32,8.04-12.86,2.84-3.54,5.67-5.31,8.47-5.31,2.61,0,4.48.79,5.59,2.37s1.68,3.64,1.68,6.16-.42,5.36-1.26,8.53c-.85,3.17-1.92,6.44-3.22,9.79Z"/><path class="cls-2" d="M1017.91,302v4.14c0,1.45-.06,2.82-.14,4.12-.09,1.59-.14,3.7-.14,6.36s-.09,5.53-.28,8.6c-.19,3.08-.49,6.2-.9,9.38-.42,3.17-1.1,6.06-2.03,8.67-.94,2.61-2.17,4.73-3.71,6.37-1.53,1.63-3.47,2.49-5.8,2.58-1.76.09-3.25-.61-4.46-2.1-1.22-1.49-2.22-3.42-3.01-5.8-.8-2.37-1.39-5.03-1.75-7.97-.38-2.94-.66-5.78-.85-8.53-.19-2.75-.27-5.3-.27-7.62v-11.54c0-2.75.08-5.71.27-8.88.19-3.17.54-6.39,1.06-9.65.51-3.27,1.26-6.25,2.23-8.95s2.26-4.9,3.84-6.58,3.6-2.51,6.02-2.51,4.43,1.26,5.73,3.77c1.3,2.53,2.29,5.46,2.94,8.81.66,3.36,1.03,6.7,1.13,10,.08,3.31.14,5.77.14,7.34ZM1016.78,254.45c0,1.3-.34,2.47-1.05,3.5-.7,1.02-1.61,1.93-2.73,2.73-1.12.79-2.34,1.4-3.64,1.81-1.3.42-2.51.63-3.63.63-1.87,0-3.5-.47-4.9-1.4s-2.09-2.37-2.09-4.34c0-1.4.34-2.63,1.05-3.7.69-1.08,1.56-1.96,2.58-2.67,1.02-.69,2.2-1.23,3.5-1.61,1.3-.36,2.56-.55,3.77-.55,1.77,0,3.41.42,4.9,1.26s2.23,2.29,2.23,4.34Z"/><path class="cls-3" d="M1086.44,327.18c0,3.17-1,6.27-3.01,9.3-2.01,3.03-4.52,5.73-7.55,8.11-3.03,2.38-6.27,4.29-9.72,5.73-3.45,1.45-6.63,2.17-9.52,2.17-4.93,0-9.34-1.23-13.22-3.71-3.87-2.47-7.11-5.62-9.72-9.43-2.61-3.83-4.59-8.05-5.94-12.67-1.35-4.61-2.02-9.11-2.02-13.49,0-4.66.65-9.66,1.95-14.97,1.3-5.31,3.29-10.21,5.94-14.69,2.66-4.48,6.02-8.2,10.07-11.18,4.05-2.98,8.88-4.48,14.47-4.48,3.17,0,6.2.54,9.09,1.61s5.4,2.58,7.55,4.55c2.14,1.95,3.87,4.29,5.17,6.99s1.96,5.73,1.96,9.09c0,4.38-.93,8.48-2.8,12.3-1.87,3.83-4.34,7.13-7.41,9.93-3.08,2.8-6.63,5.06-10.63,6.79-4.01,1.73-8.11,2.68-12.3,2.87.36,2.7,1.47,4.66,3.28,5.87,1.82,1.21,3.99,1.81,6.51,1.81,1.87,0,3.68-.46,5.45-1.4,1.77-.93,3.5-1.97,5.18-3.15,1.68-1.16,3.32-2.21,4.96-3.14,1.63-.94,3.29-1.4,4.97-1.4,1.87,0,3.54.6,5.03,1.81,1.49,1.22,2.24,2.8,2.24,4.76ZM1063.77,292.92c0-1.21-.32-2.48-.98-3.78-.65-1.3-1.68-1.95-3.08-1.95-2.04,0-3.77.53-5.17,1.6-1.4,1.08-2.57,2.43-3.5,4.07-.93,1.63-1.66,3.37-2.16,5.24-.52,1.87-.82,3.6-.92,5.17,1.3-.27,2.87-.65,4.69-1.12,1.82-.46,3.55-1.09,5.18-1.88,1.62-.8,3.02-1.8,4.19-3.01,1.16-1.21,1.74-2.67,1.74-4.34Z"/><path class="cls-4" d="M1140.56,299.77c-1.3.09-2.43-.02-3.36-.35s-1.87-.67-2.8-1.05c-.83-.38-1.68-.73-2.51-1.05-.85-.33-1.77-.45-2.8-.35-1.87.09-3.52.61-4.97,1.54s-2.75,2.09-3.91,3.49c-1.17,1.4-2.17,2.96-3.01,4.69-.85,1.73-1.49,3.43-1.96,5.11-.28,1.12-.48,2.82-.62,5.1-.14,2.29-.21,4.73-.21,7.34-.09,2.7-.14,5.28-.14,7.7s-.09,4.34-.28,5.73c-.09,1.49-.33,3.24-.69,5.24-.38,2.01-.96,3.9-1.75,5.66-.8,1.77-1.84,3.27-3.15,4.48-1.3,1.21-2.98,1.82-5.04,1.82-1.59,0-2.96-.47-4.12-1.4s-2.14-2.16-2.94-3.7c-.79-1.54-1.45-3.34-1.95-5.39-.52-2.04-.92-4.15-1.2-6.29-.27-2.24-.48-4.48-.62-6.72-.14-2.23-.23-4.36-.28-6.36-.05-2.01-.05-3.85,0-5.53.05-1.67.07-3.02.07-4.05-.09-3.27-.26-6.54-.49-9.86s-.34-6.59-.34-9.86c0-2.06.08-4.34.27-6.86.19-2.51.7-4.86,1.54-7.06.85-2.19,2.08-4.03,3.71-5.52,1.62-1.49,3.89-2.23,6.78-2.23,1.59,0,2.94.51,4.05,1.53,1.13,1.03,2.03,2.29,2.73,3.78.7,1.49,1.23,3.08,1.61,4.76.38,1.67.61,3.21.7,4.61,2.23-3.63,4.76-6.59,7.55-8.87,2.8-2.29,6.43-3.52,10.9-3.71,2.24-.09,4.45.12,6.65.63,2.19.51,4.19,1.35,6,2.51,1.82,1.16,3.31,2.68,4.48,4.55,1.17,1.87,1.8,4.05,1.89,6.57.19,2.98-.69,5.28-2.66,6.86-1.96,1.59-4.34,2.42-7.13,2.51Z"/><path class="cls-1" d="M1185.03,357.11c-6.63,0-11.77-.87-15.46-2.6-3.68-1.73-6.43-4.17-8.25-7.34-1.82-3.16-2.91-6.99-3.29-11.47s-.55-9.46-.55-14.97c0-4.37.14-8.78.41-13.21.28-4.43.7-9.16,1.27-14.2-1.32,0-2.34.02-3.08.07-.75.05-1.36.07-1.82.07-2.98,0-5.57-.65-7.77-1.95-2.19-1.3-3.29-3.31-3.29-6.02,0-1.68.63-3.17,1.89-4.48s2.87-2.43,4.83-3.36,4.08-1.68,6.36-2.23c2.29-.56,4.45-.94,6.51-1.13,0-2.61.19-5.5.56-8.67.36-3.16,1.05-6.12,2.02-8.88.99-2.75,2.31-5.05,3.99-6.92,1.67-1.87,3.82-2.8,6.43-2.8,1.49,0,2.82.45,3.98,1.33,1.16.89,2.13,2.01,2.87,3.36.75,1.35,1.3,2.87,1.68,4.55s.56,3.31.56,4.89c0,1.87-.14,3.78-.42,5.73-.28,1.96-.79,4.39-1.54,7.27,1.59-.18,2.66-.29,3.22-.34s1.07-.07,1.54-.07c1.59,0,3.24.14,4.97.41,1.72.28,3.3.75,4.75,1.4,1.45.66,2.63,1.53,3.57,2.6.93,1.07,1.4,2.35,1.4,3.84,0,1.68-.68,3.17-2.03,4.48s-3.05,2.42-5.1,3.36c-2.06.93-4.24,1.66-6.58,2.16-2.33.52-4.52.87-6.57,1.05-.56,3.83-.96,7.34-1.19,10.56-.23,3.22-.49,6.46-.78,9.73-.19,1.59-.35,3.2-.49,4.82-.13,1.63-.2,3.29-.2,4.97,0,1.21.05,2.63.14,4.26.08,1.63.41,3.2.98,4.69.55,1.49,1.45,2.77,2.66,3.84s2.89,1.61,5.04,1.61c1.3,0,2.66-.12,4.05-.35,1.4-.22,2.8-.35,4.19-.35,2.42,0,4.17.85,5.24,2.53s1.61,3.82,1.61,6.43c0,1.96-.58,3.67-1.75,5.11-1.16,1.45-2.63,2.61-4.41,3.49-1.76.89-3.75,1.56-5.94,2.03-2.19.47-4.26.7-6.22.7Z"/><path class="cls-4" d="M1264.75,327.18c0,3.17-1,6.27-3.01,9.3-2.01,3.03-4.52,5.73-7.55,8.11-3.03,2.38-6.27,4.29-9.72,5.73-3.45,1.45-6.63,2.17-9.52,2.17-4.93,0-9.34-1.23-13.22-3.71-3.87-2.47-7.11-5.62-9.72-9.43-2.61-3.83-4.59-8.05-5.94-12.67-1.35-4.61-2.02-9.11-2.02-13.49,0-4.66.65-9.66,1.95-14.97,1.3-5.31,3.29-10.21,5.94-14.69s6.02-8.2,10.07-11.18,8.88-4.48,14.47-4.48c3.17,0,6.2.54,9.09,1.61,2.89,1.07,5.4,2.58,7.55,4.55,2.14,1.95,3.87,4.29,5.17,6.99s1.96,5.73,1.96,9.09c0,4.38-.93,8.48-2.8,12.3-1.87,3.83-4.34,7.13-7.41,9.93-3.08,2.8-6.63,5.06-10.63,6.79s-8.11,2.68-12.3,2.87c.36,2.7,1.47,4.66,3.28,5.87,1.82,1.21,3.99,1.81,6.51,1.81,1.87,0,3.68-.46,5.45-1.4,1.77-.93,3.5-1.97,5.18-3.15,1.68-1.16,3.32-2.21,4.96-3.14,1.63-.94,3.29-1.4,4.97-1.4,1.87,0,3.54.6,5.03,1.81,1.49,1.22,2.24,2.8,2.24,4.76ZM1242.08,292.92c0-1.21-.32-2.48-.98-3.78-.65-1.3-1.68-1.95-3.08-1.95-2.04,0-3.77.53-5.17,1.6-1.4,1.08-2.57,2.43-3.5,4.07s-1.66,3.37-2.16,5.24c-.52,1.87-.82,3.6-.92,5.17,1.3-.27,2.87-.65,4.69-1.12,1.82-.46,3.55-1.09,5.18-1.88,1.62-.8,3.02-1.8,4.19-3.01,1.16-1.21,1.74-2.67,1.74-4.34Z"/><path class="cls-3" d="M1310.06,355.98c-1.59,0-2.84-.72-3.78-2.16-.93-1.45-1.62-3.1-2.09-4.97-.47-1.86-.78-3.75-.9-5.66-.14-1.9-.21-3.37-.21-4.41,0-2.8.15-5.59.48-8.39s.7-5.59,1.13-8.39c.41-2.8.79-5.6,1.12-8.4s.48-5.59.48-8.39c0-1.12-.05-2.33-.13-3.63-.09-1.3-.31-2.54-.63-3.71-.33-1.16-.86-2.11-1.61-2.87-.75-.74-1.73-1.12-2.94-1.12-.83,0-1.77.68-2.8,2.03-1.02,1.35-1.99,2.89-2.87,4.61-.89,1.73-1.63,3.45-2.23,5.18-.61,1.73-.92,3.01-.92,3.84,0,2.06.02,4.12.07,6.23.05,2.09.07,4.22.07,6.37v8.11c-.09,1.68-.23,3.41-.42,5.17-.19,1.77-.46,3.5-.83,5.18-.28,1.68-.7,3.29-1.26,4.83-.56,1.54-1.28,2.89-2.17,4.05-.88,1.16-1.94,2.11-3.15,2.87-1.21.74-2.66,1.12-4.34,1.12-1.86,0-3.4-.61-4.61-1.82-1.22-1.21-2.2-2.77-2.94-4.68-.75-1.92-1.29-4.07-1.61-6.44-.33-2.37-.56-4.71-.7-6.99-.14-2.29-.19-4.38-.14-6.3.05-1.92.07-3.43.07-4.55v-6.57c0-3.55-.07-7.04-.21-10.49-.14-3.45-.2-6.9-.2-10.35,0-1.87.01-4.24.06-7.13.05-2.89.4-5.71,1.06-8.46.65-2.75,1.72-5.11,3.22-7.06,1.48-1.96,3.68-2.94,6.57-2.94,1.3,0,2.47.41,3.5,1.26,1.02.83,1.93,1.87,2.73,3.08.79,1.21,1.45,2.51,1.95,3.91.52,1.4.92,2.61,1.2,3.63.93-1.3,2.02-2.56,3.28-3.77s2.68-2.28,4.26-3.22c1.59-.93,3.36-1.68,5.32-2.23,1.95-.56,4.19-.85,6.71-.85,4.76,0,8.46,1.15,11.13,3.43,2.66,2.28,4.61,5.12,5.86,8.53,1.27,3.41,2.03,7.06,2.31,10.99.28,3.91.42,7.46.42,10.62,0,1.59-.14,3.95-.42,7.06-.28,3.13-.73,6.58-1.33,10.35-.61,3.78-1.42,7.65-2.44,11.61-1.03,3.97-2.24,7.58-3.64,10.84s-3.05,5.92-4.97,7.97c-1.9,2.06-4.08,3.08-6.5,3.08Z"/><path class="cls-1" d="M820.15,499.03c0,3.17-1,6.27-3.01,9.3-2.01,3.03-4.52,5.73-7.55,8.11-3.03,2.38-6.27,4.29-9.72,5.73-3.45,1.45-6.63,2.17-9.52,2.17-4.93,0-9.34-1.23-13.22-3.71-3.87-2.47-7.11-5.62-9.72-9.43-2.61-3.83-4.59-8.05-5.94-12.67-1.35-4.61-2.02-9.11-2.02-13.49,0-4.66.65-9.66,1.95-14.97,1.3-5.31,3.29-10.21,5.94-14.69,2.66-4.48,6.02-8.2,10.07-11.18s8.88-4.48,14.47-4.48c3.17,0,6.2.54,9.09,1.61s5.4,2.58,7.55,4.55c2.14,1.95,3.87,4.29,5.17,6.99s1.96,5.73,1.96,9.09c0,4.38-.93,8.48-2.8,12.3-1.87,3.83-4.34,7.13-7.41,9.93s-6.63,5.06-10.63,6.79c-4.01,1.73-8.11,2.68-12.3,2.87.36,2.7,1.47,4.66,3.28,5.87,1.82,1.21,3.99,1.81,6.51,1.81,1.87,0,3.68-.46,5.45-1.4,1.77-.93,3.5-1.97,5.18-3.15,1.68-1.16,3.32-2.21,4.96-3.14,1.63-.94,3.29-1.4,4.97-1.4,1.87,0,3.54.6,5.03,1.81,1.49,1.22,2.24,2.8,2.24,4.76ZM797.49,464.77c0-1.21-.32-2.48-.98-3.78-.65-1.3-1.68-1.95-3.08-1.95-2.04,0-3.77.53-5.17,1.6-1.4,1.08-2.57,2.43-3.5,4.07s-1.66,3.37-2.16,5.24c-.52,1.87-.82,3.6-.92,5.17,1.3-.27,2.87-.65,4.69-1.12,1.82-.46,3.55-1.09,5.18-1.88,1.62-.8,3.02-1.8,4.19-3.01,1.16-1.21,1.74-2.67,1.74-4.34Z"/><path class="cls-4" d="M865.47,527.83c-1.59,0-2.84-.72-3.78-2.16-.93-1.45-1.62-3.1-2.09-4.97-.47-1.86-.78-3.75-.9-5.66-.14-1.9-.21-3.37-.21-4.41,0-2.8.15-5.59.48-8.39.33-2.8.7-5.59,1.13-8.39.41-2.8.79-5.6,1.12-8.4.33-2.8.48-5.59.48-8.39,0-1.12-.05-2.33-.13-3.63-.09-1.3-.31-2.54-.63-3.71-.33-1.16-.86-2.11-1.61-2.87-.75-.74-1.73-1.12-2.94-1.12-.83,0-1.77.68-2.8,2.03-1.02,1.35-1.99,2.89-2.87,4.61-.89,1.73-1.63,3.45-2.23,5.18-.61,1.73-.92,3.01-.92,3.84,0,2.06.02,4.12.07,6.23.05,2.09.07,4.22.07,6.37v8.11c-.09,1.68-.23,3.41-.42,5.17-.19,1.77-.46,3.5-.83,5.18-.28,1.68-.7,3.29-1.26,4.83-.56,1.54-1.28,2.89-2.17,4.05-.88,1.16-1.94,2.11-3.15,2.87-1.21.74-2.66,1.12-4.34,1.12-1.86,0-3.4-.61-4.61-1.82-1.22-1.21-2.2-2.77-2.94-4.68-.75-1.92-1.29-4.07-1.61-6.44-.33-2.37-.56-4.71-.7-6.99-.14-2.29-.19-4.38-.14-6.3.05-1.92.07-3.43.07-4.55v-6.57c0-3.55-.07-7.04-.21-10.49-.14-3.45-.2-6.9-.2-10.35,0-1.87.01-4.24.06-7.13.05-2.89.4-5.71,1.06-8.46.65-2.75,1.72-5.11,3.22-7.06,1.48-1.96,3.68-2.94,6.57-2.94,1.3,0,2.47.41,3.5,1.26,1.02.83,1.93,1.87,2.73,3.08.79,1.21,1.45,2.51,1.95,3.91.52,1.4.92,2.61,1.2,3.63.93-1.3,2.02-2.56,3.28-3.77,1.26-1.21,2.68-2.28,4.26-3.22,1.59-.93,3.36-1.68,5.32-2.23,1.95-.56,4.19-.85,6.71-.85,4.76,0,8.46,1.15,11.13,3.43,2.66,2.28,4.61,5.12,5.86,8.53,1.27,3.41,2.03,7.06,2.31,10.99.28,3.91.42,7.46.42,10.62,0,1.59-.14,3.95-.42,7.06-.28,3.13-.73,6.58-1.33,10.35-.61,3.78-1.42,7.65-2.44,11.61-1.03,3.97-2.24,7.58-3.64,10.84-1.4,3.27-3.05,5.92-4.97,7.97-1.9,2.06-4.08,3.08-6.5,3.08Z"/><path class="cls-2" d="M985.74,504.21c0,1.67-.07,3.87-.21,6.57-.13,2.7-.53,5.33-1.19,7.91-.65,2.56-1.68,4.77-3.08,6.64-1.4,1.87-3.35,2.8-5.87,2.8-3.44,0-6.1-1.12-7.97-3.36-1.87-2.23-2.75-5.03-2.66-8.39-2.98,2.61-6.37,4.66-10.14,6.16-3.78,1.49-7.62,2.23-11.54,2.23-2.71,0-5.28-.65-7.7-1.95-2.43-1.3-4.57-2.98-6.44-5.04-1.87-2.04-3.35-4.36-4.48-6.92-1.12-2.56-1.67-5.11-1.67-7.62,0-4.48,1.37-8.39,4.12-11.75,2.75-3.35,6.12-6.22,10.14-8.6,4.01-2.37,8.27-4.26,12.79-5.66,4.52-1.4,8.55-2.33,12.1-2.8,0-.47.02-.88.07-1.26s.07-.79.07-1.26c0-2.89-.8-5.23-2.38-7-1.59-1.76-3.82-2.66-6.71-2.66-2.34,0-4.34.4-6.02,1.2-1.68.79-3.27,1.67-4.76,2.66-1.49.98-2.98,1.87-4.48,2.66-1.49.79-3.17,1.19-5.03,1.19-2.06,0-3.81-.65-5.25-1.96-1.45-1.3-2.16-2.98-2.16-5.03,0-3.08.9-5.87,2.73-8.39,1.82-2.53,4.1-4.64,6.85-6.37s5.73-3.08,8.95-4.05c3.22-.99,6.18-1.47,8.88-1.47,2.51,0,5.04.31,7.55.9,2.51.61,4.89,1.54,7.13,2.8,2.23,1.26,4.26,2.8,6.09,4.62,1.81,1.82,3.28,3.94,4.41,6.37,1.68,3.44,3.03,7.11,4.05,10.97,1.02,3.88,1.82,7.84,2.37,11.89.56,4.05.94,8.11,1.13,12.17.18,4.05.27,7.99.27,11.82ZM963.37,499.73l-.42-9.52c-.19,0-.38-.02-.56-.07s-.36-.07-.55-.07c-1.21,0-2.73.31-4.55.92-1.82.6-3.57,1.45-5.25,2.51-1.67,1.07-3.09,2.26-4.26,3.56-1.16,1.32-1.74,2.67-1.74,4.07,0,1.3.46,2.19,1.4,2.66.93.47,2,.69,3.21.69,2.06,0,4.24-.53,6.58-1.61,2.33-1.07,4.38-2.11,6.16-3.14Z"/><path class="cls-3" d="M1042.66,471.62c-1.3.09-2.43-.02-3.36-.35s-1.87-.67-2.8-1.05c-.83-.38-1.68-.73-2.51-1.05-.85-.33-1.77-.45-2.8-.35-1.87.09-3.52.61-4.97,1.54-1.45.93-2.75,2.09-3.91,3.49-1.17,1.4-2.17,2.96-3.01,4.69-.85,1.73-1.49,3.43-1.96,5.11-.28,1.12-.48,2.82-.62,5.1-.14,2.29-.21,4.73-.21,7.34-.09,2.7-.14,5.28-.14,7.7s-.09,4.34-.28,5.73c-.09,1.49-.33,3.24-.69,5.24-.38,2.01-.96,3.9-1.75,5.66-.8,1.77-1.84,3.27-3.15,4.48s-2.98,1.82-5.04,1.82c-1.59,0-2.96-.47-4.12-1.4s-2.14-2.16-2.94-3.7c-.79-1.54-1.45-3.34-1.95-5.39-.52-2.04-.92-4.15-1.2-6.29-.27-2.24-.48-4.48-.62-6.72-.14-2.23-.23-4.36-.28-6.36-.05-2.01-.05-3.85,0-5.53.05-1.67.07-3.02.07-4.05-.09-3.27-.26-6.54-.49-9.86-.23-3.31-.34-6.59-.34-9.86,0-2.06.08-4.34.27-6.86.19-2.51.7-4.86,1.54-7.06.85-2.19,2.08-4.03,3.71-5.52,1.62-1.49,3.89-2.23,6.78-2.23,1.59,0,2.94.51,4.05,1.53,1.13,1.03,2.03,2.29,2.73,3.78.7,1.49,1.23,3.08,1.61,4.76.38,1.67.61,3.21.7,4.61,2.23-3.63,4.76-6.59,7.55-8.87,2.8-2.29,6.43-3.52,10.9-3.71,2.24-.09,4.45.12,6.65.63,2.19.51,4.19,1.35,6,2.51,1.82,1.16,3.31,2.68,4.48,4.55,1.17,1.87,1.8,4.05,1.89,6.57.19,2.98-.69,5.28-2.66,6.86-1.96,1.59-4.34,2.42-7.13,2.51Z"/><path class="cls-4" d="M1087.14,528.96c-6.63,0-11.77-.87-15.46-2.6-3.68-1.73-6.43-4.17-8.25-7.34-1.82-3.16-2.91-6.99-3.29-11.47-.38-4.48-.55-9.46-.55-14.97,0-4.37.14-8.78.41-13.21.28-4.43.7-9.16,1.27-14.2-1.32,0-2.34.02-3.08.07-.75.05-1.36.07-1.82.07-2.98,0-5.57-.65-7.77-1.95-2.19-1.3-3.29-3.31-3.29-6.02,0-1.68.63-3.17,1.89-4.48,1.26-1.3,2.87-2.43,4.83-3.36s4.08-1.68,6.36-2.23c2.29-.56,4.45-.94,6.51-1.13,0-2.61.19-5.5.56-8.67.36-3.16,1.05-6.12,2.02-8.88.99-2.75,2.31-5.05,3.99-6.92,1.67-1.87,3.82-2.8,6.43-2.8,1.49,0,2.82.45,3.98,1.33,1.16.89,2.13,2.01,2.87,3.36.75,1.35,1.3,2.87,1.68,4.55.38,1.68.56,3.31.56,4.89,0,1.87-.14,3.78-.42,5.73-.28,1.96-.79,4.39-1.54,7.27,1.59-.18,2.66-.29,3.22-.34s1.07-.07,1.54-.07c1.59,0,3.24.14,4.97.41,1.72.28,3.3.75,4.75,1.4,1.45.66,2.63,1.53,3.57,2.6.93,1.07,1.4,2.35,1.4,3.84,0,1.68-.68,3.17-2.03,4.48s-3.05,2.42-5.1,3.36c-2.06.93-4.24,1.66-6.58,2.16-2.33.52-4.52.87-6.57,1.05-.56,3.83-.96,7.34-1.19,10.56-.23,3.22-.49,6.46-.78,9.73-.19,1.59-.35,3.2-.49,4.82-.13,1.63-.2,3.29-.2,4.97,0,1.21.05,2.63.14,4.26.08,1.63.41,3.2.98,4.69.55,1.49,1.45,2.77,2.66,3.84,1.21,1.07,2.89,1.61,5.04,1.61,1.3,0,2.66-.12,4.05-.35,1.4-.22,2.8-.35,4.19-.35,2.42,0,4.17.85,5.24,2.53s1.61,3.82,1.61,6.43c0,1.96-.58,3.67-1.75,5.11-1.16,1.45-2.63,2.61-4.41,3.49-1.76.89-3.75,1.56-5.94,2.03-2.19.47-4.26.7-6.22.7Z"/><path class="cls-1" d="M1166.86,499.03c0,3.17-1,6.27-3.01,9.3-2.01,3.03-4.52,5.73-7.55,8.11-3.03,2.38-6.27,4.29-9.72,5.73-3.45,1.45-6.63,2.17-9.52,2.17-4.93,0-9.34-1.23-13.22-3.71-3.87-2.47-7.11-5.62-9.72-9.43-2.61-3.83-4.59-8.05-5.94-12.67-1.35-4.61-2.02-9.11-2.02-13.49,0-4.66.65-9.66,1.95-14.97,1.3-5.31,3.29-10.21,5.94-14.69,2.66-4.48,6.02-8.2,10.07-11.18s8.88-4.48,14.47-4.48c3.17,0,6.2.54,9.09,1.61s5.4,2.58,7.55,4.55c2.14,1.95,3.87,4.29,5.17,6.99,1.3,2.7,1.96,5.73,1.96,9.09,0,4.38-.93,8.48-2.8,12.3-1.87,3.83-4.34,7.13-7.41,9.93s-6.63,5.06-10.63,6.79c-4.01,1.73-8.11,2.68-12.3,2.87.36,2.7,1.47,4.66,3.28,5.87,1.82,1.21,3.99,1.81,6.51,1.81,1.87,0,3.68-.46,5.45-1.4,1.77-.93,3.5-1.97,5.18-3.15,1.68-1.16,3.32-2.21,4.96-3.14,1.63-.94,3.29-1.4,4.97-1.4,1.87,0,3.54.6,5.03,1.81,1.49,1.22,2.24,2.8,2.24,4.76ZM1144.19,464.77c0-1.21-.32-2.48-.98-3.78-.65-1.3-1.68-1.95-3.08-1.95-2.04,0-3.77.53-5.17,1.6-1.4,1.08-2.57,2.43-3.5,4.07s-1.66,3.37-2.16,5.24c-.52,1.87-.82,3.6-.92,5.17,1.3-.27,2.87-.65,4.69-1.12,1.82-.46,3.55-1.09,5.18-1.88,1.62-.8,3.02-1.8,4.19-3.01,1.16-1.21,1.74-2.67,1.74-4.34Z"/><path class="cls-4" d="M1192.73,517.21c0,1.21-.28,2.3-.83,3.28-.56.99-1.28,1.8-2.17,2.46-.88.65-1.87,1.16-2.94,1.54-1.07.36-2.16.55-3.28.55-1.41,0-2.93-.26-4.55-.76-1.63-.52-3.13-1.23-4.48-2.17-1.35-.93-2.5-2.02-3.43-3.28-.93-1.27-1.4-2.69-1.4-4.28,0-2.51,1.07-4.41,3.22-5.66,2.14-1.26,4.34-1.88,6.57-1.88,1.4,0,2.87.23,4.41.69,1.54.47,2.98,1.14,4.34,2.03,1.35.88,2.46,1.95,3.29,3.22.83,1.26,1.26,2.68,1.26,4.26Z"/></g><g id="Capa_3"><path class="cls-7" d="M215.8,304.2c8.88-1.97,7.05,8.68.56,8.08-4.75-.44-4.92-7.11-.56-8.08ZM215.49,308.99c.6.96,5.06,1.3,3.51-2.12-1.68-3.69-5.1-.42-3.51,2.12Z"/><path class="cls-7" d="M233.1,265.87c2.59,3.77,2.58,9.39-3.12,9.4-2.52,0-4.71-3.81-3.96-6.23.07-.24,1.96-2.53,2.11-2.61,1.28-.73,3.53-.48,4.98-.55ZM233.65,269.75c-.97-.96-4.27,2.37-3.31,3.32s4.27-2.37,3.31-3.32Z"/><path class="cls-7" d="M306.11,352.26c-2.12,2.88-14.72-4.78-17.1-6.41-3.97-2.71-8.4-6.06-10-10.75l12.21,9.09c3.82,3.34,9.98,4.31,13.94,6.53.72.41,1.13.59.94,1.54Z"/><path class="cls-7" d="M318.59,200.32c.19.11.34.43.55.55,4.14,2.46,13.37,7.84,16.53,10.86,1.69,1.61,6.1,8.58,7.65,9,1.91.51,6.06-2.22,8.45-1.58-.38-5.97-2.68-8.1,3.87-10.52.16-.06.39.06.55,0,3.85-1.35,17.36-5.39,20.76-5.03,3.49.37,2.48,6.65,5.03,7.14,1.59.31,6.04-2.78,10.16-1.56.12.04.87.43,1.11.55,1.47.79,2.76,2.53,3.43,4.04,1.61,3.63,3.1,10.58,4.31,14.79.05.17-.05.38,0,.55.53,1.82,2.21,10.11,3.64,10.43,1.87.42,4-1.38,7.61.73,7.74,4.52,3.67,13.94-3.54,16.35-.41,3.14,1.58,6.33,2.24,9.04.04.17-.04.38,0,.55,3.01,12.31,6.69,24.36,9.96,36.55.05.17-.05.38,0,.55.49,1.83.48,4.32,1.26,6.21.82,6.73,5.98,16.08,6.44,22.39.32,4.39-2.76,6.93-6.59,8.24-9.17,3.12-19.37,5.34-28.77,8.02-.17.05-.38-.05-.55,0-7.81,2.22-20.54,4.47-27.41,7.72-2.6,1.23-6.08,4.34-9.1,6.12-.21.12-.36.45-.55.55-10.73,6.05-24.19,10.19-36.5,11.08-.18.01-.37-.01-.55,0-5.82.36-12.21-.87-17.41-.54-3.89.24-10.13,2.27-14.11,3.31-.43.11-.9.02-1.11.55-1.23.02-2.72.88-3.87,1.11-.18.03-.38-.04-.55,0-12.33,2.58-24.36,6.9-36.5,9.97-.17.04-.38-.04-.55,0-12.07,3.05-24.3,5.82-36.5,8.31-.18-.02-.37.03-.55,0-1.84-.26-4.73-2.38-5.64-4.04-1.52-2.76-3.4-11.25-4.31-14.79-.04-.17.04-.38,0-.55-3.18-12.31-6.47-24.35-9.96-36.55-.05-.17.05-.38,0-.55-.31-1.07-.32-2.63-.71-4-.77-2.67-4.15-15.92-5.09-17.06-1.05-1.27-7.35.76-10.24-3.87-.12-.19-.45-.86-.55-1.11-1.52-3.58-.94-6.3,0-9.97,1.34.17,2.61.34,2.21-1.11,1.38-.09,4.95-.83,4.98-2.47,0-.49-2.61-6.55-3.04-8.05-1.38-4.77-2.82-10.05-3.6-14.95-.13-.84.42-2.29-.55-2.77.03-1.06.09-2.28,0-3.32.51-.24.4-.75.55-1.11,1.95-4.58,6.69-4.43,7.12-5.05s-.07-7.01,2.27-10.2c.39-.53,1.3-.55,1.66-1.23.68-1.28.26-3.55,1.68-4.82,3.12-2.79,18.7-4.57,23.22-6.94.18,0,.37,0,.55,0,4.27-.1,3.53,3.14,4.48,3.82.59.42,2.09-.42,2.92-.35,2.64.25,4.91,7.73,7.75,7.6.38-.02,6.17-1.44,6.38-1.69.68-.8-1.58-4.78.42-6.09.87-.57,3.22-.66,3.81-1.62.5-.8-1.34-4.52.23-5.83.63-.52,6.52-2.07,7.45-1.94,1.54.21,1.88,1.63,2.52,2.78.18.34.39.76.55,1.11.13.28-.35,1.02.33,1.15,1.33.26,3.7-1.37,5.22-.34.9.61,1.11,4.56,1.99,4.77.72.17,5.13-.89,5.6-1.27.6-.49,3.55-12.43,4.55-14.83.07-.16-.07-.4,0-.55l11.77-21.44c2.5-.76,5.19-2.15,7.59-2.93.17-.05.39.05.55,0,6.16-1.97,22.82-7.11,28.52-7.22,1.92-.04,6.15,2.28,7.99,3.34ZM282.09,208.07c-.16.06-.39-.06-.55,0-1.37.5-3.48.27-4.68,1.68l-8.05,14.65c0,.75,10.3-2.35,11.23-2.63.8-.24,1.34-.92,1.5-.97.17-.05.38.05.55,0l42.02-12.46c-3.53-2.4-9.32-7.17-13.51-7.5-6.81-.54-21.82,4.81-28.51,7.23ZM373.9,206.96c-4.46-.39-2.46,3.82-.82,6.09,2.76-.69.65-4.18.82-6.09ZM368.92,208.07c-2.09-1.58-1.79,5.52-1.09,6.09.39.32,1.98-.08,2.14-.87.05-.26-.84-5.06-1.05-5.22ZM364.99,209.8c-.35-.28-1.54.03-2.14-.07-.39.37.6,7.33,2.77,5.22.12-.83-.23-4.83-.63-5.15ZM360.55,210.92c-.43-.3-1.51.02-2.13-.08-.19,1.33,0,5,1.92,5.01,2.35,0,.46-4.76.21-4.93ZM330.21,211.4c-2.59-.22-5.05.49-7.54,1.03-14.55,3.13-30.72,7.77-45.12,11.86-3.68,1.05-8.68,1.85-11.5,4.27l64.16-17.16ZM356.19,211.94c-4.65.21-2.34,3-1.64,6.09,3.18-.35,2.28-4.03,1.64-6.09ZM356.2,221.92c-.17.05-.38-.05-.55,0-3.07.84-6.32,1.36-9.4,2.22-.4.42,2.6,3.79,3.09,4.4.42.52,1.28.51,1.34.58.17.22.26,1.39.86,2.17,4.68,6.05,9.02,12.47,13.92,18.23,9.27-1.27,18.27-4.09,27.25-6.55.17-.05.38.05.55,0,2.17-.61,4.43-1.19,6.64-1.67-.75-4.13-2.28-8.14-3.32-12.18-.04-.17.05-.38,0-.55-.94-3.59-2.52-14.72-6.49-15.42-11.45,2.32-22.63,5.73-33.88,8.77ZM319.14,218.04c-.5.12-.91.51-1.11.55-11.92,2.87-24.1,5.44-35.95,8.86-1.33.38-3.29.28-3.87,1.66-2.4.04-13.17,2.49-14.1,4.43l-8.57,39.31c1.43.33.96-.43,1.42-1.05,8.22-11.08,12.03-17.59,24.57-24.98.3-.18.72-.34,1.11-.55,10.19-5.74,24.26-9.86,35.95-10.52.18-.01.37,0,.55,0,12.33-.53,25.84,2.02,36.23,8.86,2.44.79-4.13-7.77-4.49-8.25-5.33-7.19-11.48-13.82-16.65-21.13-1.87-1.14-12.28,2.13-15.09,2.8ZM241.7,241.83c.23-.33-.15-1.6-.4-2.06-1.48-2.73-6.6-.45-5.12,3.18.25.26,5.35-.9,5.52-1.13ZM282.09,251.82c-.3.18-.69.29-1.11.55-6.44,4.04-9.66,6.64-14.38,12.74-.31.4-.39.89-.55,1.11-8.56,11.55-13.32,22.11-13.27,36.55,0,.18,0,.37,0,.55.4,25.14,12.72,48.87,35.39,60.65,22.99,11.95,46.7,6.39,67.49-6.93.13-.08.42.08.55,0,37.49-24.61,33.91-79.72.55-105.77-.41-.32-.89-.39-1.11-.55-23.05-17.1-49.94-12.99-73.56,1.11ZM407.09,252.92c9.99-1.44,8.33-13.23-2.22-11.07-.52,3.01,1.53.89,3.7,1.51,2.73.78,4.43,3.52,2.39,5.97l-3.87,3.59ZM246.13,242.96c-2.83,1.28-11.18,2.14-13.28,3.6-1.17.81.11,2.43.02,3.6.51.46,12.68-3.13,13.27-3.6,1.16-.91-.12-2.39-.01-3.6ZM208.52,244.06c-.97-.69-19.92,6.25-22.89,6.6-.56.13-.39,1.64-.33,1.71.85.88,20.69-5.61,23.78-5.54.16-.17-.45-2.69-.56-2.77ZM406.32,245.22c-1.87.61-.35,5.29,1.03,4.94,2-.5,2.82-6.19-1.03-4.94ZM398.79,245.73c-1.26-1.34-3.01,4.8-2.76,4.98,1.99,1.44,2.35-3.81,2.76-4.98ZM217.93,254.03c-.52-2.41-1.27-4.93-3.6-6.08.68,1.46,1.23,4.52,1.93,5.71.44.75.99.3,1.67.37ZM212.4,248.5c-.15-.13-3.23.18-2.68,1.29,1.94,2.13,1.02,6.86,4.34,5.91.45-2.63-1.64-4.61-1.66-7.2ZM245.03,251.82c-.17.04-.38-.04-.55,0-12.26,2.93-24.41,6.23-36.5,9.41-.17.05-.38-.05-.55,0-5.31,1.4-10.73,2.33-16.04,3.88-.51.15-.87.48-1.11.55-8.93,2.69-16.38,1.61-14.69,13.32.56,3.84,3.75,15.57,5.25,19.11.29.68.69,1.64,1.48,1.79l61.08-16.22c.47-.03.88-.76,1.08-.83.16-.06.39.06.55,0,.56-.2,1.54.05,2.61-.42,3.73-1.65,4.22-12.28,5.13-16.19.04-.18-.04-.38,0-.55.21-.92,1.07-2.41,1.39-3.87.92-4.22,1.96-8.44,2.48-12.74-.73-.74-10.01,2.39-11.61,2.77ZM207.39,249.62c-.3-.21-2.54.39-2.69.59-.51.74,1.18,5.43,1.88,6.04,4.42,3.85,1.28-6.29.81-6.63ZM376.66,250.16c-.36-.36-3.07.02-2.76,1.37.48,2.12,4.02-.11,2.76-1.37ZM202.44,250.71c-5.08-.49-.05,8.97,1.66,7.2.78-.8-1.51-5.87-1.66-7.2ZM383.3,250.72c-1.58-.3-.89.42-1.25,1.21-1.36,2.96-3.05,6.66-3.16,9.86,2.83-2.87,3.93-7.21,4.42-11.07ZM196.92,259.58c.15.14,1.26.04,1.68-.25,1.47-1.04-.99-8.76-2.79-6.94-.26.26.84,6.95,1.11,7.2ZM193.58,254.03c-.15-.12-1.19.07-1.65,0-.57,1.28.84,8.52,2.76,6.65.24-.23-.85-6.43-1.11-6.65ZM189.72,254.59c-.63-.04-2.71.27-2.8.9-.12.8,1.37,8.06,3.36,6.02l-.56-6.92ZM185.29,255.7c-2.94.13-.28,5.47-1.1,7.75,3.12-.21.23-5.4,1.1-7.75ZM404.87,255.7c-1.31-1.35-3.79,3.44-3.31,3.87,2.79,1.41,4.39-2.77,3.31-3.87ZM386.07,257.36c-1.17-1.2-3.04,3.23-2.2,4.42.77-.18,2.4-4.23,2.2-4.42ZM401.55,266.22c-1.52-.6-2.43,3.63-2.21,3.87,2.14-.03,2.43-2.15,2.21-3.87ZM405.98,271.76c-1.33-1.58-3.64,6.39-3.31,7.19,1.13,1.26,4.39-5.92,3.31-7.19ZM407.64,275.64c-.89-1-3.24,3.47-2.76,4.42.89,1,3.24-3.47,2.76-4.42ZM393.26,284.5c-.96-1-3.81,3.91-3.31,4.42,1.56.51,3.68-4.04,3.31-4.42ZM244.48,287.27c-2.83.04-3.12,2.7-3.31,4.98,1-.21,3.79-4.51,3.31-4.98ZM413.17,287.82c-.93-1.15-3.1,4.05-2.76,4.42,1.56.45,3.19-3.89,2.76-4.42ZM396.02,290.03c-2.01-1.88-7.65,10.71-3.2,5.93.72-.77,3.89-5.29,3.2-5.93ZM225.67,293.36c-1.79-.42-3.41,3.67-2.76,4.42,1.59.45,3.18-3.96,2.76-4.42ZM410.4,294.46c-1.15-1.39-3.92,6.81-3.31,7.75,2.19-1.9,3.71-4.8,3.31-7.75ZM244.47,303.32c.94-2.23,1.41-4.17,1.11-6.64-.86.2-1.5,2.36-1.62,3.08-.1.63-.49,3.45.51,3.56ZM207.42,299.45c-1.62-.9-4.31,3.47-3.87,3.87,1.07.98,4.25-2.54,3.87-3.87ZM215.58,302.9c-7.2,1.21-3.91,15.69,4.75,10.3,7.08-4.41,3.22-11.64-4.75-10.3ZM185.86,307.75c1.05-.45,3.11-3.69,1.37-4.42-1.46-.61-1.49,3.84-1.37,4.42ZM178.11,306.09c-.85-3.8-4.64-.16-5.27,2.2-1.42,5.37,4.51,9.78,8.03,5.56-6.44,1.79-9.71-6.76-2.77-7.76ZM415.93,304.43c-1.26-.35-1.65,1.24-2.04,2.09-4,8.63,3.12,3.05,2.04-2.09ZM177.89,307.8c-1.96.65-.71,5.05,1.58,4.38,1.41-.41,1.59-5.43-1.58-4.38ZM201.89,308.86c-3.46.8-2.97,6.16-3.87,8.85,1.58.3.89-.43,1.25-1.21.45-.97,2.95-7.27,2.62-7.64ZM394.92,315.51c-1.3-.47-3.22,2.88-2.76,3.32,1.2,1.14,3.35-2.24,2.76-3.32ZM405.81,315.61c-5.19,1.59.46,12.11,4.84,5.41,2.4-3.67-1.13-6.55-4.84-5.41ZM390.49,318.83c-2.17.05-2.33,2.8-2.21,4.42,2.17-.05,2.33-2.8,2.21-4.42ZM219.59,339.87c.02.18-.02.37,0,.55.64,5.11,2.02,13.94,7.25,16.28,2.41,1.08,3.89,1.1,6.05-.47,7.88-5.73-.09-21.21-4.32-27.28-1.83-2.62-4.29-6.89-8.05-5.6-2.16.74-1.64,11.15-1.49,13.5.07,1.14.47,2.06.57,3.02ZM242.82,324.37c-.84-.9-4.08,5.23-4.36,5.87-.35.8-.76,1.51-.61,2.43,1.63-.2,5.31-7.95,4.97-8.3ZM414.27,326.02c.1-2.33-3.41-2.33-3.31,0h3.31ZM193.04,325.48c-1.15-.24-1.27.57-1.76,1.28-3.06,4.5,2.77,2.83,1.76-1.28ZM403.76,325.48c-1.07-1.12-6.76,3.86-3.58,4.43,1.1.2,4.79-3.16,3.58-4.43ZM393.26,334.89c-.17.05-.38-.05-.55,0-4.03,1.21-10.43,2.24-13.27,4.98-.19.18-.37.37-.55.55l-6.63,8.86,20.46-6.64c.17-.05.38.05.55,0,2.22-.62,4.87-.94,7.19-1.66.71-.22,1.36.56,1.11-1.11,1.17-.07,2.23.06,3.46-.13,2.05-.31,17.24-4.65,18.34-5.45,1.85-1.34.6-5.69.3-7.68-10.21,2.15-20.36,5.29-30.39,8.28ZM198.02,336c-1.72-.5-2.49,4.1-2.21,4.42,2.17-.05,2.33-2.8,2.21-4.42ZM250.01,336.55c-1.73-.41-2.77,2.8-2.21,3.32,1.5,1.37,2.66-2.39,2.21-3.32ZM254.81,338.3c-1.28.35-2.09,2.3-.64,2.68,2.35.61,3.52-3.46.64-2.68ZM201.33,348.18c-3.18.5-3.47,5.16-3.87,7.75,1.47.3.95-.37,1.37-1.09.54-.91,2.95-6.16,2.49-6.66ZM258.86,349.29c-1.12-.19-1.58.71-2.12,1.47-1.44,2.03-3.58,5.53-3.96,7.94,1.28.2,1.64-1.09,2.22-1.92.72-1.05,4.5-6.76,3.86-7.48ZM201.89,354.83c-1.03-.28-2.65,2.35-2.9,2.91-.38.86-.51,1.69-.41,2.62,1.05,1.23,3.53-4.75,3.31-5.53ZM258.3,357.04c-2.39.22-2.99,3.04-2.76,4.98,1.48.31.95-.39,1.37-1.09.38-.63,1.86-3.36,1.39-3.89ZM212.95,357.6c-.81-.93-2.84,2.6-2.21,3.32.81.93,2.84-2.6,2.21-3.32ZM266.05,359.26c-.79-.91-4.96,3.99-3.87,5.53.88.99,4.64-4.64,3.87-5.53ZM233.42,376.42c-.43.11-.9.02-1.11.55-4.53-.03-19.08,4.63-24.34,6.09-.17.05-.38-.05-.55,0-.92.27-3.03.21-3.62,1.09-1.39,2.08,1.66,8.71,4.99,7.82,12.08-2.44,23.79-6.38,35.68-9.46.17-.04.38.04.55,0,12.16-3.14,24.33-6.32,36.5-9.41.17-.04.38.04.55,0,1.24-.32,8.3-1.46,8.29-2.49-3.35-2.16-7.04-4.56-10.75-5.83-15.46,3.63-30.86,7.57-46.2,11.64ZM222.83,371.91c.5-.31,1.5-4.01,1.18-4.9-2.43.5-4.08,6.69-1.18,4.9ZM210.18,370.89c-1.63-1.62-3.68,5.06-3.87,6.09,1.75.24,4.41-5.54,3.87-6.09ZM204.65,374.21c-1.82-.27-1.99,3.28-2.21,4.42,1.87.17,2.22-3.26,2.21-4.42ZM217.37,374.76c-1.88-.21-3.09.17-2.76,2.21,1.88.21,3.09-.17,2.76-2.21Z"/><path class="cls-7" d="M346.8,154.35c1.43-1.21,2.37-2.04,4.42-1.66,1.95,1.91-5.11,10.94-6.42,12.68-3.39,4.5-7.51,9.65-12.11,12.8-.65-.33-.23-1.69-.03-2.25.83-2.28,11.19-18.38,13.02-20.47.2-.23.89-.92,1.11-1.11Z"/><path class="cls-7" d="M281.53,165.43h.55c.31,3.44,2.42,4.95,2.21,8.3l-2.21-.55h-.55c-.46-2.85-6.83-5.39-4.57-10.39,1.16-2.56,3.52,2.06,4.57,2.63Z"/><path class="cls-7" d="M309.18,172.63c-.68.54-1.49-.55-1.65-1.39-.38-2.07.33-7.51.55-9.96.34-3.71,1.48-15.47,2.89-18.15.32-.61.73-1.07,1.26-1.5,2.02.03,2.12,10.22,1.94,11.9-.21,1.91-4.21,18.49-4.99,19.1Z"/><path class="cls-7" d="M238.95,265.66c.08.11.43.84.55,1.11.91,1.92,1.47,5.29.99,7.36-.24,1.04-2.88,4.13-3.76,4.54-1.16.53-8.13.49-9.55.17-3.13-.71-6.21-6.22-5.7-9.31,1.3-7.9,13.42-9.39,17.48-3.86ZM234.52,265.66c-.26-.16-.21-.88-1.37-1.1-1.21-.23-5.08-.16-6.01.52-.48.35-.31,1.1-.36,1.13-.19.12-.96-.12-1.26.12-4.09,3.22-1.56,11.09,4.3,10.99,5.82-.1,8.58-2.41,7.34-8.5-.45-2.2-1.22-2.29-2.64-3.17Z"/><path class="cls-7" d="M355.1,257.36c.35.23.66.5,1.11.55.19.84,6.77,7.83,7.97,9.46,19.88,26.98,18.82,61.76-7.97,83.02-.49.39-.86.92-1.11,1.11-28.86,21.8-70.44,16.82-88.38-15.89-4.58-8.35-8.71-22.8-8.96-32.29,0-.18,0-.37,0-.55-.03-12.61,7.05-26.94,15.49-36,.18-.19.37-.37.55-.55,12.66-13.09,37.83-23.57,55.98-20.33,9.36,1.67,17.56,6.3,25.33,11.47ZM282.09,264.56c-.66.54-1.2.74-2.21,1.66-23.7,21.63-23.34,53.96-2.5,77.54,11.66,13.2,23.33,18.45,41.21,17.71.18,0,.37.01.55,0,10.96-.62,21.76-4.08,30.59-10.62,1.27-.94,5.58-4.17,5.91-5.44h.55c1.8-1.14,3.05-2.86,4.42-4.43.34-.39.41-.94.55-1.11,10.07-12.1,12.93-20.5,12.17-36.55,0-.18.01-.37,0-.55-.98-15.54-5.2-25.47-15.49-36.55-.56-.61-1.12-1.75-2.21-2.77-21.78-20.33-51.68-16.77-73.56,1.11Z"/><path class="cls-7" d="M330.61,222c4.71-1.26,7.32,6.12,2.53,7.55-6.39,1.92-6.28-6.56-2.53-7.55ZM332.83,224.27c-2.39-2.31-3.94.74-2.57,3.13,1.97.69,4.32-1.44,2.57-3.13Z"/><path class="cls-7" d="M225.43,351.71c-.22-.25-1.52-.14-.58-.77.75.53,4.72,1.96,4.68.29,0-.35-4.13-4.87-5.52-3.05,1.72-4.27,8.52-6.2,9.37-.23.43,2.99-1.73,5.7-4.69,5.81-2.35.09-2.08-.69-3.27-2.05ZM230.62,345.99l-3.84.8c1.42.89,2.6,2.69,4.42,2.49l-.58-3.29Z"/><path class="cls-7" d="M225.68,330.46c2.41-1.78,3.98,8.88-2.21,4.15,1.18-.43,2.02-4.01,2.21-4.15Z"/><path class="cls-6" d="M226.78,266.22l1.66.55c-.15.08-2.04,2.37-2.11,2.61-.74,2.42,1.44,6.23,3.96,6.23,5.7,0,5.71-5.62,3.12-9.4.47-.02.96-.02,1.11-.55,1.42.89,2.19.97,2.64,3.17,1.24,6.09-1.52,8.4-7.34,8.5-5.87.1-8.39-7.77-4.3-10.99.3-.24,1.07,0,1.26-.12Z"/><path class="cls-6" d="M230.62,345.99l.58,3.29c-1.82.2-3-1.6-4.42-2.49l3.84-.8Z"/><path class="cls-7" d="M336.29,265.66c-.35,1.64.75.9,1.11,1.11,8.18,4.71,13.29,9.85,17.7,18.28.22.41-.55,1.44,1.11,1.11.43,5.12,3.4,10.7,3.87,16.61.01.18-.01.37,0,.55.92,15.54-5.05,27.33-17.7,36-.49.34-1.17.81-1.66,1.11-6.76,4.13-13.62,6.17-21.57,6.09-.18,0-.37,0-.55,0-33.11-1.02-53.11-32.05-37.06-62.02.12-.22.77-1.11,1.11-1.66,3.66-6.02,9.51-11.12,15.66-14.5,7.8-4.29,18.54-5.69,27.75-4.87,3.5.31,6.75,1.9,10.24,2.21ZM322.46,276.19c-1.23-1.27-4.17,2.95-3.31,4.42,2.29,1.53,3.94-3.77,3.31-4.42ZM312.51,283.39c3.83,1.34,4.41-3.7,1.85-4.36-2.45-.63-1.85,2.87-1.85,4.36ZM304.76,282.84c-7.18-1.14-15.62,2.08-17.96,9.41-.51,1.59-.87,6.07.28,7.19.84.82.97-.32,1.26-.7,2.56-3.29,3.4-5.98,7.02-9,2.59-2.16,6.1-3.28,8.27-5.01.65-.52,1.33-.91,1.14-1.9ZM342.37,302.77c-.01.18.02.37,0,.55-.98,9.26-7.32,18.4-15.89,22.02-2.9,1.22-17.04,4.21-17.6,5.1-2.16,3.43,8.01,4.25,9.71,4.45.18.02.37-.02.55,0,18.59,1.61,32.82-13.07,31.53-31.57-.01-.18.02-.37,0-.55-.14-1.31.09-2.44-.25-3.9-1.27-5.4-5.29-11.19-11.08-12.16-1.42.1,1.89,8.1,2.11,8.97.58,2.32,1.08,4.68.93,7.1ZM312.51,291.14c1.14,1.22,4.06-2.74,1.93-3.31-2.14-.58-2.33,2.88-1.93,3.31ZM298.12,301.66c-1.4-1.41-5.99,5.33-6.54,6.46-2.22,4.65-1.42,8.4,2.4,11.8,2.06.44,1.23-4.9,1.44-6.3.6-4.06,2.19-7.9,2.7-11.97Z"/><path class="cls-7" d="M287.62,266.22c4.24-3.26,14.93-8.86,20.19-8.86h8.02c.26,1.55-.32.93-1.22,1.25-3.76,1.35-8.27,1.54-12.18,2.78-15.52,4.94-31.41,22.53-31.41,39.44v16.89c-2.09-1.1-2.6-4.73-2.79-6.9-1.5-17.68,5.38-33.83,19.38-44.6Z"/><path class="cls-6" d="M233.97,270.1c.96.95-2.34,4.28-3.31,3.32s2.34-4.28,3.31-3.32Z"/></g><g id="Capa_4"><path d="M1499.47,305.84l-9.71-34.01,252.03-66.32c2.36.43,11.65,35.72,10.31,37.13l-229.04,61.12h235.31c.42,0,1.07-1.76,2.08-1.39v180.48l-261-1.39v-175.62ZM1739.58,212.17c-1.24-.89-15.57,3.36-17.23,5.57-4.23,5.64-5.42,22.44-10.47,29.08l34.71-8.33-7.01-26.33ZM1706.03,249.33c2.98-10.3,8.8-21.09,9.34-31.63l-34.13,10.41-9.62,29.83,34.41-8.6ZM1675.78,228.8l-35.44,9.67-10.37,30.57,34.41-8.6,11.4-31.64ZM1634.13,239.91l-35.78,10.03-10.03,30.21,34.7-9.02,11.11-31.21ZM1546.67,291.25c5.88-2.4,32.49-6.79,35.42-9.68,2.95-2.91,7.92-25.23,10.38-30.56l-35.77,10.04-10.03,30.21ZM1519.23,297.86c1.93.79,19.73-3.77,21.21-5.2,3.43-3.31,7.69-24.85,10.38-30.56l-54.14,13.88,1.41,9.71,3.46-6.91,17.67,19.07ZM1545.28,335.69c-6.33-4.99-33.85-41.78-38.14-42.62-.55-.11-3.32.88-3.58,1.89-2.62,10.3,2.51,29.26.07,40.74h41.65ZM1545.29,312.07c-2.81-4.75-10.73-2.8-15.26-2.08l20.82,24.99,9.71.69c-5.66-6.65-9.22-20.58-18.04-22.21l2.77-1.39ZM1586.93,309.31h-37.48c4.21,2.38,2.98,4.52,4.07,6.25,4.2,6.66,9.64,12.73,12.59,20.12h37.48c-6.26-8.25-12.02-16.97-16.66-26.38ZM1629.97,309.31h-37.48l17.35,26.38h36.79c-4.44-2.41-3.03-4.89-3.22-5.19-.23-.36-1.54-.5-2.16-1.49-3.96-6.29-7.79-13.12-11.28-19.69ZM1670.92,309.31h-35.4l16.66,26.38h36.1l-17.35-26.38ZM1731.31,335.69l-17.35-26.38h-35.4l15.28,24.29,2.76,2.09.02-2.77h1.36c.15.75-.13,2.77.01,2.77h33.32ZM1756.3,309.31h-34.71l16.65,25.69,18.06.69v-26.38ZM1756.3,341.24h-252.67v136.05h252.67v-136.05Z"/><path d="M1734.09,364.84c.19.2.28,5.55,0,5.55h-51.37v33.32h51.37c.28,0,.28,5.55,0,5.55h-208.24c-.28,0-.28-5.55,0-5.55h51.37v-33.32h-51.37c-.28,0-.28-5.55,0-5.55h208.24ZM1677.17,370.39h-94.4v33.32h94.4v-33.32Z"/><path d="M1734.09,442.58c.19.2.28,5.55,0,5.55h-208.24c-.28,0-.28-5.55,0-5.55h208.24Z"/></g></svg>